<?xml version="1.0" encoding="utf-8" standalone="no"?>
<!DOCTYPE svg PUBLIC "-//W3C//DTD SVG 1.1//EN"
  "http://www.w3.org/Graphics/SVG/1.1/DTD/svg11.dtd">
<!-- Created with matplotlib (http://matplotlib.org/) -->
<svg height="126pt" version="1.1" viewBox="0 0 126 126" width="126pt" xmlns="http://www.w3.org/2000/svg" xmlns:xlink="http://www.w3.org/1999/xlink">
 <defs>
  <style type="text/css">
*{stroke-linecap:butt;stroke-linejoin:round;stroke-miterlimit:100000;}
  </style>
 </defs>
 <g id="figure_1">
  <g id="patch_1">
   <path d="M 0 126 
L 126 126 
L 126 0 
L 0 0 
L 0 126 
z
" style="fill:none;"/>
  </g>
  <g id="axes_1">
   <g id="patch_2">
    <path d="M 15.75 110.25 
L 113.4 110.25 
L 113.4 12.6 
L 15.75 12.6 
L 15.75 110.25 
z
" style="fill:none;"/>
   </g>
   <g id="matplotlib.axis_1">
    <g id="xtick_1">
     <g id="line2d_1">
      <defs>
       <path d="M 0 0 
L 0 2 
" id="mdb0bca0ac9" style="stroke:#1a1a1a;"/>
      </defs>
      <g>
       <use style="fill:#1a1a1a;stroke:#1a1a1a;" x="23.6675675676" xlink:href="#mdb0bca0ac9" y="110.25"/>
      </g>
     </g>
     <g id="text_1">
      <text style="fill:#262626;font-family:Arial;font-size:8.0px;font-style:normal;font-weight:400;text-anchor:middle;" transform="rotate(-0.000000, 23.667568, 122.976250)" x="23.6675675676" y="122.97625">2</text>
     </g>
    </g>
    <g id="xtick_2">
     <g id="line2d_2">
      <g>
       <use style="fill:#1a1a1a;stroke:#1a1a1a;" x="44.7810810811" xlink:href="#mdb0bca0ac9" y="110.25"/>
      </g>
     </g>
     <g id="text_2">
      <text style="fill:#262626;font-family:Arial;font-size:8.0px;font-style:normal;font-weight:400;text-anchor:middle;" transform="rotate(-0.000000, 44.781081, 122.976250)" x="44.7810810811" y="122.97625">4</text>
     </g>
    </g>
    <g id="xtick_3">
     <g id="line2d_3">
      <g>
       <use style="fill:#1a1a1a;stroke:#1a1a1a;" x="65.8945945946" xlink:href="#mdb0bca0ac9" y="110.25"/>
      </g>
     </g>
     <g id="text_3">
      <text style="fill:#262626;font-family:Arial;font-size:8.0px;font-style:normal;font-weight:400;text-anchor:middle;" transform="rotate(-0.000000, 65.894595, 122.976250)" x="65.8945945946" y="122.97625">6</text>
     </g>
    </g>
    <g id="xtick_4">
     <g id="line2d_4">
      <g>
       <use style="fill:#1a1a1a;stroke:#1a1a1a;" x="87.0081081081" xlink:href="#mdb0bca0ac9" y="110.25"/>
      </g>
     </g>
     <g id="text_4">
      <text style="fill:#262626;font-family:Arial;font-size:8.0px;font-style:normal;font-weight:400;text-anchor:middle;" transform="rotate(-0.000000, 87.008108, 122.976250)" x="87.0081081081" y="122.97625">8</text>
     </g>
    </g>
    <g id="xtick_5">
     <g id="line2d_5">
      <g>
       <use style="fill:#1a1a1a;stroke:#1a1a1a;" x="108.121621622" xlink:href="#mdb0bca0ac9" y="110.25"/>
      </g>
     </g>
     <g id="text_5">
      <text style="fill:#262626;font-family:Arial;font-size:8.0px;font-style:normal;font-weight:400;text-anchor:middle;" transform="rotate(-0.000000, 108.121622, 122.976250)" x="108.121621622" y="122.97625">10</text>
     </g>
    </g>
    <g id="xtick_6">
     <g id="line2d_6">
      <defs>
       <path d="M 0 0 
L 0 2 
" id="m47e1baaaf1" style="stroke:#1a1a1a;stroke-width:0.5;"/>
      </defs>
      <g>
       <use style="fill:#1a1a1a;stroke:#1a1a1a;stroke-width:0.5;" x="34.2243243243" xlink:href="#m47e1baaaf1" y="110.25"/>
      </g>
     </g>
    </g>
    <g id="xtick_7">
     <g id="line2d_7">
      <g>
       <use style="fill:#1a1a1a;stroke:#1a1a1a;stroke-width:0.5;" x="55.3378378378" xlink:href="#m47e1baaaf1" y="110.25"/>
      </g>
     </g>
    </g>
    <g id="xtick_8">
     <g id="line2d_8">
      <g>
       <use style="fill:#1a1a1a;stroke:#1a1a1a;stroke-width:0.5;" x="76.4513513514" xlink:href="#m47e1baaaf1" y="110.25"/>
      </g>
     </g>
    </g>
    <g id="xtick_9">
     <g id="line2d_9">
      <g>
       <use style="fill:#1a1a1a;stroke:#1a1a1a;stroke-width:0.5;" x="97.5648648649" xlink:href="#m47e1baaaf1" y="110.25"/>
      </g>
     </g>
    </g>
    <g id="text_6">
     <text style="fill:#262626;font-family:Arial;font-size:9.6px;font-style:normal;font-weight:400;text-anchor:middle;" transform="rotate(-0.000000, 64.575000, 132.754750)" x="64.575" y="132.75475">Threshold (z-units)</text>
    </g>
   </g>
   <g id="matplotlib.axis_2">
    <g id="ytick_1">
     <g id="line2d_10">
      <defs>
       <path d="M 0 0 
L -2 0 
" id="m34b123dec6" style="stroke:#1a1a1a;"/>
      </defs>
      <g>
       <use style="fill:#1a1a1a;stroke:#1a1a1a;" x="15.75" xlink:href="#m34b123dec6" y="106.094680851"/>
      </g>
     </g>
     <g id="text_7">
      <text style="fill:#262626;font-family:Arial;font-size:8.0px;font-style:normal;font-weight:400;text-anchor:end;" transform="rotate(-0.000000, 8.750000, 108.162806)" x="8.75" y="108.162805851">0</text>
     </g>
    </g>
    <g id="ytick_2">
     <g id="line2d_11">
      <g>
       <use style="fill:#1a1a1a;stroke:#1a1a1a;" x="15.75" xlink:href="#m34b123dec6" y="64.5414893617"/>
      </g>
     </g>
     <g id="text_8">
      <text style="fill:#262626;font-family:Arial;font-size:8.0px;font-style:normal;font-weight:400;text-anchor:end;" transform="rotate(-0.000000, 8.750000, 66.609614)" x="8.75" y="66.6096143617">40</text>
     </g>
    </g>
    <g id="ytick_3">
     <g id="line2d_12">
      <g>
       <use style="fill:#1a1a1a;stroke:#1a1a1a;" x="15.75" xlink:href="#m34b123dec6" y="22.9882978723"/>
      </g>
     </g>
     <g id="text_9">
      <text style="fill:#262626;font-family:Arial;font-size:8.0px;font-style:normal;font-weight:400;text-anchor:end;" transform="rotate(-0.000000, 8.750000, 25.056423)" x="8.75" y="25.0564228723">80</text>
     </g>
    </g>
    <g id="ytick_4">
     <g id="line2d_13">
      <defs>
       <path d="M 0 0 
L -2 0 
" id="m5922209585" style="stroke:#1a1a1a;stroke-width:0.5;"/>
      </defs>
      <g>
       <use style="fill:#1a1a1a;stroke:#1a1a1a;stroke-width:0.5;" x="15.75" xlink:href="#m5922209585" y="95.7063829787"/>
      </g>
     </g>
    </g>
    <g id="ytick_5">
     <g id="line2d_14">
      <g>
       <use style="fill:#1a1a1a;stroke:#1a1a1a;stroke-width:0.5;" x="15.75" xlink:href="#m5922209585" y="85.3180851064"/>
      </g>
     </g>
    </g>
    <g id="ytick_6">
     <g id="line2d_15">
      <g>
       <use style="fill:#1a1a1a;stroke:#1a1a1a;stroke-width:0.5;" x="15.75" xlink:href="#m5922209585" y="74.929787234"/>
      </g>
     </g>
    </g>
    <g id="ytick_7">
     <g id="line2d_16">
      <g>
       <use style="fill:#1a1a1a;stroke:#1a1a1a;stroke-width:0.5;" x="15.75" xlink:href="#m5922209585" y="54.1531914894"/>
      </g>
     </g>
    </g>
    <g id="ytick_8">
     <g id="line2d_17">
      <g>
       <use style="fill:#1a1a1a;stroke:#1a1a1a;stroke-width:0.5;" x="15.75" xlink:href="#m5922209585" y="43.764893617"/>
      </g>
     </g>
    </g>
    <g id="ytick_9">
     <g id="line2d_18">
      <g>
       <use style="fill:#1a1a1a;stroke:#1a1a1a;stroke-width:0.5;" x="15.75" xlink:href="#m5922209585" y="33.3765957447"/>
      </g>
     </g>
    </g>
    <g id="ytick_10">
     <g id="line2d_19">
      <g>
       <use style="fill:#1a1a1a;stroke:#1a1a1a;stroke-width:0.5;" x="15.75" xlink:href="#m5922209585" y="12.6"/>
      </g>
     </g>
    </g>
    <g id="text_10">
     <text style="fill:#262626;font-family:Arial;font-size:9.6px;font-style:normal;font-weight:400;text-anchor:middle;" transform="rotate(-90.000000, -3.368000, 61.425000)" x="-3.368" y="61.425">FSR (per min)</text>
    </g>
   </g>
   <g id="PolyCollection_1">
    <defs>
     <path d="M 18.389189 -105.036085 
L 18.389189 -96.667969 
L 21.028378 -72.064116 
L 23.667568 -55.061501 
L 26.306757 -44.179743 
L 28.945946 -37.674814 
L 31.585135 -33.136686 
L 34.224324 -30.020239 
L 36.863514 -27.831865 
L 39.502703 -26.247645 
L 42.141892 -25.043428 
L 44.781081 -23.841933 
L 47.42027 -22.912461 
L 50.059459 -22.256357 
L 52.698649 -21.818958 
L 55.337838 -21.326875 
L 57.977027 -20.889473 
L 60.616216 -20.670773 
L 63.255405 -20.561422 
L 65.894595 -20.452072 
L 68.533784 -20.561422 
L 71.172973 -20.493078 
L 73.812162 -20.397396 
L 76.451351 -20.315384 
L 79.090541 -20.23337 
L 81.72973 -20.178696 
L 84.368919 -20.137689 
L 87.008108 -20.137689 
L 89.647297 -20.12402 
L 92.286486 -20.096683 
L 94.925676 -20.069345 
L 97.564865 -20.055676 
L 100.204054 -19.987332 
L 102.843243 -19.987332 
L 105.482432 -19.973663 
L 108.121622 -19.973663 
L 108.121622 -20.151358 
L 108.121622 -20.151358 
L 105.482432 -20.137689 
L 102.843243 -20.165027 
L 100.204054 -20.178696 
L 97.564865 -20.288046 
L 94.925676 -20.301715 
L 92.286486 -20.343063 
L 89.647297 -20.397396 
L 87.008108 -20.411407 
L 84.368919 -20.424734 
L 81.72973 -20.452414 
L 79.090541 -20.547753 
L 76.451351 -20.657104 
L 73.812162 -20.780123 
L 71.172973 -20.889473 
L 68.533784 -20.985152 
L 65.894595 -21.381548 
L 63.255405 -21.545579 
L 60.616216 -21.710967 
L 57.977027 -22.092326 
L 55.337838 -22.529736 
L 52.698649 -23.240513 
L 50.059459 -23.896617 
L 47.42027 -24.716742 
L 44.781081 -25.919593 
L 42.141892 -27.231801 
L 39.502703 -28.762714 
L 36.863514 -30.568403 
L 34.224324 -33.247441 
L 31.585135 -36.909301 
L 28.945946 -41.830133 
L 26.306757 -49.265973 
L 23.667568 -60.747743 
L 21.028378 -78.571881 
L 18.389189 -105.036085 
z
" id="m9384a352eb" style="stroke:#ff0000;stroke-opacity:0.2;"/>
    </defs>
    <g clip-path="url(#p68113b1d72)">
     <use style="fill:#ff0000;fill-opacity:0.2;stroke:#ff0000;stroke-opacity:0.2;" x="0.0" xlink:href="#m9384a352eb" y="126.0"/>
    </g>
   </g>
   <g id="PolyCollection_2">
    <defs>
     <path d="M 18.389189 -107.342376 
L 18.389189 -102.998197 
L 21.028378 -78.187722 
L 23.667568 -62.052098 
L 26.306757 -51.204819 
L 28.945946 -44.459178 
L 31.585135 -40.100819 
L 34.224324 -36.850399 
L 36.863514 -34.448599 
L 39.502703 -32.951024 
L 42.141892 -31.575325 
L 44.781081 -30.212671 
L 47.42027 -28.930994 
L 50.059459 -28.121517 
L 52.698649 -27.014562 
L 55.337838 -25.962912 
L 57.977027 -25.085637 
L 60.616216 -24.519344 
L 63.255405 -23.89841 
L 65.894595 -23.304791 
L 68.533784 -22.99483 
L 71.172973 -22.657205 
L 73.812162 -22.333413 
L 76.451351 -22.077419 
L 79.090541 -21.807593 
L 81.72973 -21.524273 
L 84.368919 -21.240953 
L 87.008108 -21.038589 
L 89.647297 -20.984622 
L 92.286486 -20.82239 
L 94.925676 -20.714797 
L 97.564865 -20.660832 
L 100.204054 -20.566393 
L 102.843243 -20.498599 
L 105.482432 -20.471954 
L 108.121622 -20.458463 
L 108.121622 -20.836219 
L 108.121622 -20.836219 
L 105.482432 -20.84971 
L 102.843243 -20.87703 
L 100.204054 -20.998116 
L 97.564865 -21.10604 
L 94.925676 -21.160007 
L 92.286486 -21.321909 
L 89.647297 -21.4838 
L 87.008108 -21.564746 
L 84.368919 -21.834572 
L 81.72973 -22.158702 
L 79.090541 -22.468663 
L 76.451351 -22.778961 
L 73.812162 -23.062281 
L 71.172973 -23.440041 
L 68.533784 -23.817791 
L 65.894595 -24.263013 
L 63.255405 -24.88361 
L 60.616216 -25.517701 
L 57.977027 -26.205759 
L 55.337838 -27.096519 
L 52.698649 -28.283419 
L 50.059459 -29.457162 
L 47.42027 -30.34787 
L 44.781081 -31.73785 
L 42.141892 -33.180733 
L 39.502703 -34.637795 
L 36.863514 -36.310727 
L 34.224324 -38.766105 
L 31.585135 -42.12581 
L 28.945946 -46.77995 
L 26.306757 -53.863912 
L 23.667568 -64.939214 
L 21.028378 -81.641519 
L 18.389189 -107.342376 
z
" id="m03db13bef7" style="stroke:#008000;stroke-opacity:0.2;"/>
    </defs>
    <g clip-path="url(#p68113b1d72)">
     <use style="fill:#008000;fill-opacity:0.2;stroke:#008000;stroke-opacity:0.2;" x="0.0" xlink:href="#m03db13bef7" y="126.0"/>
    </g>
   </g>
   <g id="PolyCollection_3">
    <defs>
     <path d="M 18.389189 -105.076532 
L 18.389189 -100.812603 
L 21.028378 -75.880688 
L 23.667568 -59.677307 
L 26.306757 -48.870776 
L 28.945946 -42.058053 
L 31.585135 -37.646013 
L 34.224324 -34.313992 
L 36.863514 -32.060978 
L 39.502703 -30.360699 
L 42.141892 -29.065907 
L 44.781081 -27.729936 
L 47.42027 -26.380808 
L 50.059459 -25.639119 
L 52.698649 -24.532501 
L 55.337838 -23.6559 
L 57.977027 -22.981336 
L 60.616216 -22.495652 
L 63.255405 -22.077419 
L 65.894595 -21.686175 
L 68.533784 -21.38936 
L 71.172973 -21.281436 
L 73.812162 -21.079062 
L 76.451351 -20.876693 
L 79.090541 -20.728288 
L 81.72973 -20.660832 
L 84.368919 -20.525919 
L 87.008108 -20.471954 
L 89.647297 -20.471954 
L 92.286486 -20.364023 
L 94.925676 -20.323549 
L 97.564865 -20.323549 
L 100.204054 -20.22911 
L 102.843243 -20.202127 
L 105.482432 -20.161654 
L 108.121622 -20.148162 
L 108.121622 -20.43148 
L 108.121622 -20.43148 
L 105.482432 -20.444971 
L 102.843243 -20.498937 
L 100.204054 -20.53941 
L 97.564865 -20.674661 
L 94.925676 -20.660832 
L 92.286486 -20.728288 
L 89.647297 -20.876693 
L 87.008108 -20.84971 
L 84.368919 -20.930658 
L 81.72973 -21.092556 
L 79.090541 -21.227469 
L 76.451351 -21.38936 
L 73.812162 -21.605219 
L 71.172973 -21.848066 
L 68.533784 -21.969484 
L 65.894595 -22.320603 
L 63.255405 -22.765814 
L 60.616216 -23.27814 
L 57.977027 -23.817791 
L 55.337838 -24.573648 
L 52.698649 -25.572005 
L 50.059459 -26.731916 
L 47.42027 -27.622676 
L 44.781081 -28.984962 
L 42.141892 -30.563401 
L 39.502703 -31.926372 
L 36.863514 -33.67989 
L 34.224324 -36.000428 
L 31.585135 -39.616076 
L 28.945946 -44.230142 
L 26.306757 -51.245567 
L 23.667568 -62.61878 
L 21.028378 -79.254234 
L 18.389189 -105.076532 
z
" id="md9be53e2b4" style="stroke:#800080;stroke-opacity:0.2;"/>
    </defs>
    <g clip-path="url(#p68113b1d72)">
     <use style="fill:#800080;fill-opacity:0.2;stroke:#800080;stroke-opacity:0.2;" x="0.0" xlink:href="#md9be53e2b4" y="126.0"/>
    </g>
   </g>
   <g id="patch_3">
    <path clip-path="url(#p68113b1d72)" d="M 26.834595 108.17234 
L 68.533784 108.17234 
L 68.533784 85.318085 
L 26.834595 85.318085 
L 26.834595 108.17234 
z
" style="fill:none;opacity:0.5;stroke:#1a1a1a;stroke-dasharray:6.000000,6.000000;stroke-dashoffset:0.0;stroke-linejoin:miter;"/>
   </g>
   <g id="line2d_20">
    <path clip-path="url(#p68113b1d72)" d="M 18.389189 25.113527 
L 21.028378 50.779674 
L 23.667568 68.059569 
L 26.306757 79.200307 
L 28.945946 86.170688 
L 31.585135 91.013169 
L 34.224324 94.391334 
L 36.863514 96.873043 
L 39.502703 98.451409 
L 42.141892 99.865475 
L 44.781081 101.138916 
L 47.42027 102.218916 
L 50.059459 102.939809 
L 52.698649 103.5139 
L 55.337838 104.088099 
L 57.977027 104.545895 
L 60.616216 104.803252 
L 63.255405 104.972417 
L 65.894595 105.08986 
L 68.533784 105.223267 
L 71.172973 105.315203 
L 73.812162 105.422982 
L 76.451351 105.511474 
L 79.090541 105.615603 
L 81.72973 105.686598 
L 84.368919 105.724461 
L 87.008108 105.726757 
L 89.647297 105.74018 
L 92.286486 105.782307 
L 94.925676 105.819951 
L 97.564865 105.836901 
L 100.204054 105.918203 
L 102.843243 105.929657 
L 105.482432 105.956503 
L 108.121622 105.940879 
" style="fill:none;stroke:#ff0000;stroke-linecap:round;"/>
   </g>
   <g id="line2d_21">
    <path clip-path="url(#p68113b1d72)" d="M 18.389189 20.799314 
L 21.028378 46.159549 
L 23.667568 62.534588 
L 26.306757 73.482759 
L 28.945946 80.35608 
L 31.585135 84.867415 
L 34.224324 88.21306 
L 36.863514 90.596257 
L 39.502703 92.239184 
L 42.141892 93.6158 
L 44.781081 95.043396 
L 47.42027 96.3473 
L 50.059459 97.220417 
L 52.698649 98.384084 
L 55.337838 99.468167 
L 57.977027 100.364698 
L 60.616216 100.992435 
L 63.255405 101.633019 
L 65.894595 102.216387 
L 68.533784 102.598614 
L 71.172973 102.966306 
L 73.812162 103.308614 
L 76.451351 103.586973 
L 79.090541 103.86704 
L 81.72973 104.16382 
L 84.368919 104.471851 
L 87.008108 104.700908 
L 89.647297 104.779082 
L 92.286486 104.919508 
L 94.925676 105.072054 
L 97.564865 105.119692 
L 100.204054 105.231908 
L 102.843243 105.321785 
L 105.482432 105.352025 
L 108.121622 105.365003 
" style="fill:none;stroke:#008000;stroke-linecap:round;"/>
   </g>
   <g id="line2d_22">
    <path clip-path="url(#p68113b1d72)" d="M 18.389189 23.020004 
L 21.028378 48.418435 
L 23.667568 64.883548 
L 26.306757 75.920589 
L 28.945946 82.828954 
L 31.585135 87.373862 
L 34.224324 90.833934 
L 36.863514 93.143482 
L 39.502703 94.859157 
L 42.141892 96.222493 
L 44.781081 97.651599 
L 47.42027 99.008405 
L 50.059459 99.817248 
L 52.698649 100.947401 
L 55.337838 101.883859 
L 57.977027 102.591463 
L 60.616216 103.123884 
L 63.255405 103.595863 
L 65.894595 104.001533 
L 68.533784 104.329156 
L 71.172973 104.444668 
L 73.812162 104.661743 
L 76.451351 104.863411 
L 79.090541 105.020949 
L 81.72973 105.12981 
L 84.368919 105.280022 
L 87.008108 105.348369 
L 89.647297 105.338237 
L 92.286486 105.459524 
L 94.925676 105.513341 
L 97.564865 105.510373 
L 100.204054 105.623619 
L 102.843243 105.663081 
L 105.482432 105.702894 
L 108.121622 105.7171 
" style="fill:none;stroke:#800080;stroke-linecap:round;"/>
   </g>
   <g id="patch_4">
    <path d="M 15.75 110.25 
L 113.4 110.25 
" style="fill:none;stroke:#262626;stroke-linecap:square;stroke-linejoin:miter;stroke-width:0.5;"/>
   </g>
   <g id="patch_5">
    <path d="M 15.75 12.6 
L 113.4 12.6 
" style="fill:none;"/>
   </g>
   <g id="patch_6">
    <path d="M 15.75 110.25 
L 15.75 12.6 
" style="fill:none;stroke:#262626;stroke-linecap:square;stroke-linejoin:miter;stroke-width:0.5;"/>
   </g>
   <g id="patch_7">
    <path d="M 113.4 110.25 
L 113.4 12.6 
" style="fill:none;"/>
   </g>
  </g>
  <g id="axes_2">
   <g id="patch_8">
    <path d="M 56.32 54.72 
L 108.16 54.72 
L 108.16 25.92 
L 56.32 25.92 
L 56.32 54.72 
z
" style="fill:none;"/>
   </g>
   <g id="matplotlib.axis_3">
    <g id="xtick_10">
     <g id="line2d_23">
      <g>
       <use style="fill:#1a1a1a;stroke:#1a1a1a;" x="65.8694736842" xlink:href="#mdb0bca0ac9" y="54.72"/>
      </g>
     </g>
     <g id="text_11">
      <text style="fill:#262626;font-family:Arial;font-size:8.0px;font-style:normal;font-weight:400;text-anchor:middle;" transform="rotate(-0.000000, 65.869474, 67.446250)" x="65.8694736842" y="67.44625">3</text>
     </g>
    </g>
    <g id="xtick_11">
     <g id="line2d_24">
      <g>
       <use style="fill:#1a1a1a;stroke:#1a1a1a;" x="79.5115789474" xlink:href="#mdb0bca0ac9" y="54.72"/>
      </g>
     </g>
     <g id="text_12">
      <text style="fill:#262626;font-family:Arial;font-size:8.0px;font-style:normal;font-weight:400;text-anchor:middle;" transform="rotate(-0.000000, 79.511579, 67.446250)" x="79.5115789474" y="67.44625">4</text>
     </g>
    </g>
    <g id="xtick_12">
     <g id="line2d_25">
      <g>
       <use style="fill:#1a1a1a;stroke:#1a1a1a;" x="93.1536842105" xlink:href="#mdb0bca0ac9" y="54.72"/>
      </g>
     </g>
     <g id="text_13">
      <text style="fill:#262626;font-family:Arial;font-size:8.0px;font-style:normal;font-weight:400;text-anchor:middle;" transform="rotate(-0.000000, 93.153684, 67.446250)" x="93.1536842105" y="67.44625">5</text>
     </g>
    </g>
    <g id="xtick_13">
     <g id="line2d_26">
      <g>
       <use style="fill:#1a1a1a;stroke:#1a1a1a;" x="106.795789474" xlink:href="#mdb0bca0ac9" y="54.72"/>
      </g>
     </g>
     <g id="text_14">
      <text style="fill:#262626;font-family:Arial;font-size:8.0px;font-style:normal;font-weight:400;text-anchor:middle;" transform="rotate(-0.000000, 106.795789, 67.446250)" x="106.795789474" y="67.44625">6</text>
     </g>
    </g>
    <g id="xtick_14">
     <g id="line2d_27">
      <g>
       <use style="fill:#1a1a1a;stroke:#1a1a1a;stroke-width:0.5;" x="59.0484210526" xlink:href="#m47e1baaaf1" y="54.72"/>
      </g>
     </g>
    </g>
    <g id="xtick_15">
     <g id="line2d_28">
      <g>
       <use style="fill:#1a1a1a;stroke:#1a1a1a;stroke-width:0.5;" x="72.6905263158" xlink:href="#m47e1baaaf1" y="54.72"/>
      </g>
     </g>
    </g>
    <g id="xtick_16">
     <g id="line2d_29">
      <g>
       <use style="fill:#1a1a1a;stroke:#1a1a1a;stroke-width:0.5;" x="86.3326315789" xlink:href="#m47e1baaaf1" y="54.72"/>
      </g>
     </g>
    </g>
    <g id="xtick_17">
     <g id="line2d_30">
      <g>
       <use style="fill:#1a1a1a;stroke:#1a1a1a;stroke-width:0.5;" x="99.9747368421" xlink:href="#m47e1baaaf1" y="54.72"/>
      </g>
     </g>
    </g>
   </g>
   <g id="matplotlib.axis_4">
    <g id="ytick_11">
     <g id="line2d_31">
      <g>
       <use style="fill:#1a1a1a;stroke:#1a1a1a;" x="56.32" xlink:href="#m34b123dec6" y="52.5866666667"/>
      </g>
     </g>
     <g id="text_15">
      <text style="fill:#262626;font-family:Arial;font-size:8.0px;font-style:normal;font-weight:400;text-anchor:end;" transform="rotate(-0.000000, 51.320000, 54.654792)" x="51.32" y="54.6547916667">0</text>
     </g>
    </g>
    <g id="ytick_12">
     <g id="line2d_32">
      <g>
       <use style="fill:#1a1a1a;stroke:#1a1a1a;" x="56.32" xlink:href="#m34b123dec6" y="31.2533333333"/>
      </g>
     </g>
     <g id="text_16">
      <text style="fill:#262626;font-family:Arial;font-size:8.0px;font-style:normal;font-weight:400;text-anchor:end;" transform="rotate(-0.000000, 51.320000, 33.321458)" x="51.32" y="33.3214583333">20</text>
     </g>
    </g>
    <g id="ytick_13">
     <g id="line2d_33">
      <g>
       <use style="fill:#1a1a1a;stroke:#1a1a1a;stroke-width:0.5;" x="56.32" xlink:href="#m5922209585" y="45.4755555556"/>
      </g>
     </g>
    </g>
    <g id="ytick_14">
     <g id="line2d_34">
      <g>
       <use style="fill:#1a1a1a;stroke:#1a1a1a;stroke-width:0.5;" x="56.32" xlink:href="#m5922209585" y="38.3644444444"/>
      </g>
     </g>
    </g>
   </g>
   <g id="PolyCollection_4">
    <defs>
     <path d="M 45.406316 -160.825296 
L 45.406316 -152.232944 
L 48.816842 -126.969797 
L 52.227368 -109.511573 
L 55.637895 -98.338224 
L 59.048421 -91.658987 
L 62.458947 -86.999253 
L 65.869474 -83.799296 
L 69.28 -81.552282 
L 72.690526 -79.925611 
L 76.101053 -78.689125 
L 79.511579 -77.455435 
L 82.922105 -76.501056 
L 86.332632 -75.827371 
L 89.743158 -75.378251 
L 93.153684 -74.872981 
L 96.564211 -74.423859 
L 99.974737 -74.199298 
L 103.385263 -74.087018 
L 106.795789 -73.974737 
L 110.206316 -74.087018 
L 113.616842 -74.016842 
L 117.027368 -73.918596 
L 120.437895 -73.834386 
L 123.848421 -73.750175 
L 127.258947 -73.694035 
L 130.669474 -73.65193 
L 134.08 -73.65193 
L 137.490526 -73.637894 
L 140.901053 -73.609825 
L 144.311579 -73.581755 
L 147.722105 -73.567719 
L 151.132632 -73.497544 
L 154.543158 -73.497544 
L 157.953684 -73.483509 
L 161.364211 -73.483509 
L 161.364211 -73.665965 
L 161.364211 -73.665965 
L 157.953684 -73.65193 
L 154.543158 -73.68 
L 151.132632 -73.694035 
L 147.722105 -73.806316 
L 144.311579 -73.820351 
L 140.901053 -73.862807 
L 137.490526 -73.918596 
L 134.08 -73.932982 
L 130.669474 -73.946667 
L 127.258947 -73.975088 
L 123.848421 -74.072982 
L 120.437895 -74.185263 
L 117.027368 -74.311579 
L 113.616842 -74.423859 
L 110.206316 -74.522101 
L 106.795789 -74.92912 
L 103.385263 -75.097547 
L 99.974737 -75.267366 
L 96.564211 -75.658944 
L 93.153684 -76.108075 
L 89.743158 -76.837899 
L 86.332632 -77.511584 
L 82.922105 -78.353685 
L 79.511579 -79.588768 
L 76.101053 -80.936139 
L 72.690526 -82.508075 
L 69.28 -84.362149 
L 65.869474 -87.112976 
L 62.458947 -90.87296 
L 59.048421 -95.925653 
L 55.637895 -103.560747 
L 52.227368 -115.350187 
L 48.816842 -133.651947 
L 45.406316 -160.825296 
z
" id="mec4d7d067e" style="stroke:#ff0000;stroke-opacity:0.2;"/>
    </defs>
    <g clip-path="url(#p15721449f4)">
     <use style="fill:#ff0000;fill-opacity:0.2;stroke:#ff0000;stroke-opacity:0.2;" x="0.0" xlink:href="#mec4d7d067e" y="126.0"/>
    </g>
   </g>
   <g id="PolyCollection_5">
    <defs>
     <path d="M 45.406316 -160.866827 
L 45.406316 -156.48864 
L 48.816842 -130.88864 
L 52.227368 -114.251067 
L 55.637895 -103.15496 
L 59.048421 -96.15968 
L 62.458947 -91.629413 
L 65.869474 -88.208107 
L 69.28 -85.89472 
L 72.690526 -84.14888 
L 76.101053 -82.819392 
L 79.511579 -81.447622 
L 82.922105 -80.062342 
L 86.332632 -79.300779 
L 89.743158 -78.164507 
L 93.153684 -77.264416 
L 96.564211 -76.571776 
L 99.974737 -76.073077 
L 103.385263 -75.643637 
L 106.795789 -75.241909 
L 110.206316 -74.937141 
L 113.616842 -74.826325 
L 117.027368 -74.618528 
L 120.437895 -74.410736 
L 123.848421 -74.258355 
L 127.258947 -74.189091 
L 130.669474 -74.050563 
L 134.08 -73.995152 
L 137.490526 -73.995152 
L 140.901053 -73.884329 
L 144.311579 -73.84277 
L 147.722105 -73.84277 
L 151.132632 -73.745801 
L 154.543158 -73.718095 
L 157.953684 -73.676537 
L 161.364211 -73.662684 
L 161.364211 -73.953594 
L 161.364211 -73.953594 
L 157.953684 -73.967446 
L 154.543158 -74.022858 
L 151.132632 -74.064416 
L 147.722105 -74.20329 
L 144.311579 -74.189091 
L 140.901053 -74.258355 
L 137.490526 -74.410736 
L 134.08 -74.38303 
L 130.669474 -74.466147 
L 127.258947 -74.632384 
L 123.848421 -74.770912 
L 120.437895 -74.937141 
L 117.027368 -75.158784 
L 113.616842 -75.408139 
L 110.206316 -75.532811 
L 106.795789 -75.893338 
L 103.385263 -76.350479 
L 99.974737 -76.876533 
L 96.564211 -77.430645 
L 93.153684 -78.206757 
L 89.743158 -79.231866 
L 86.332632 -80.422859 
L 82.922105 -81.337488 
L 79.511579 -82.736277 
L 76.101053 -84.357013 
L 72.690526 -85.756507 
L 69.28 -87.557013 
L 65.869474 -89.939733 
L 62.458947 -93.652267 
L 59.048421 -98.389973 
L 55.637895 -105.593387 
L 52.227368 -117.27136 
L 48.816842 -134.352584 
L 45.406316 -160.866827 
z
" id="mee61d94c66" style="stroke:#008000;stroke-opacity:0.2;"/>
    </defs>
    <g clip-path="url(#p15721449f4)">
     <use style="fill:#008000;fill-opacity:0.2;stroke:#008000;stroke-opacity:0.2;" x="0.0" xlink:href="#mee61d94c66" y="126.0"/>
    </g>
   </g>
   <g id="PolyCollection_6">
    <defs>
     <path d="M 45.406316 -163.193387 
L 45.406316 -158.7328 
L 48.816842 -133.257493 
L 52.227368 -116.689493 
L 55.637895 -105.551547 
L 59.048421 -98.625147 
L 62.458947 -94.15 
L 65.869474 -90.81248 
L 69.28 -88.34632 
L 72.690526 -86.808616 
L 76.101053 -85.396053 
L 79.511579 -83.996885 
L 82.922105 -82.680864 
L 86.332632 -81.849696 
L 89.743158 -80.713078 
L 93.153684 -79.633248 
L 96.564211 -78.732465 
L 99.974737 -78.150997 
L 103.385263 -77.513424 
L 106.795789 -76.903899 
L 110.206316 -76.585632 
L 113.616842 -76.23896 
L 117.027368 -75.906491 
L 120.437895 -75.643637 
L 123.848421 -75.366581 
L 127.258947 -75.075669 
L 130.669474 -74.784757 
L 134.08 -74.576971 
L 137.490526 -74.521557 
L 140.901053 -74.354978 
L 144.311579 -74.244502 
L 147.722105 -74.189091 
L 151.132632 -74.092122 
L 154.543158 -74.022511 
L 157.953684 -73.995152 
L 161.364211 -73.981299 
L 161.364211 -74.369178 
L 161.364211 -74.369178 
L 157.953684 -74.38303 
L 154.543158 -74.411082 
L 151.132632 -74.535413 
L 147.722105 -74.646229 
L 144.311579 -74.701643 
L 140.901053 -74.867883 
L 137.490526 -75.034112 
L 134.08 -75.117227 
L 130.669474 -75.394283 
L 127.258947 -75.727098 
L 123.848421 -76.045365 
L 120.437895 -76.363979 
L 117.027368 -76.654891 
L 113.616842 -77.042773 
L 110.206316 -77.430645 
L 106.795789 -77.887797 
L 103.385263 -78.525024 
L 99.974737 -79.176107 
L 96.564211 -79.882603 
L 93.153684 -80.797231 
L 89.743158 -82.015936 
L 86.332632 -83.221131 
L 82.922105 -84.135707 
L 79.511579 -85.562933 
L 76.101053 -87.04448 
L 72.690526 -88.540587 
L 69.28 -90.258347 
L 65.869474 -92.77952 
L 62.458947 -96.229253 
L 59.048421 -101.008107 
L 55.637895 -108.281893 
L 52.227368 -119.653973 
L 48.816842 -136.80384 
L 45.406316 -163.193387 
z
" id="me87d75ae7a" style="stroke:#800080;stroke-opacity:0.2;"/>
    </defs>
    <g clip-path="url(#p15721449f4)">
     <use style="fill:#800080;fill-opacity:0.2;stroke:#800080;stroke-opacity:0.2;" x="0.0" xlink:href="#me87d75ae7a" y="126.0"/>
    </g>
   </g>
   <g id="line2d_35">
    <path clip-path="url(#p15721449f4)" d="M 45.406316 -30.564489 
M 49.433977 -1 
L 52.227368 13.532352 
L 55.637895 24.971621 
L 59.048421 32.128783 
L 62.458947 37.101025 
L 65.869474 40.569712 
L 69.28 43.117923 
L 72.690526 44.738583 
L 76.101053 46.190541 
L 79.511579 47.498105 
L 82.922105 48.607046 
L 86.332632 49.347256 
L 89.743158 49.93673 
L 93.153684 50.526316 
L 96.564211 50.996379 
L 99.974737 51.260632 
L 103.385263 51.43433 
L 106.795789 51.55492 
L 110.206316 51.691902 
L 113.616842 51.786302 
L 117.027368 51.896968 
L 120.437895 51.987832 
L 123.848421 52.094751 
L 127 52.162114 
" style="fill:none;stroke:#ff0000;stroke-linecap:round;"/>
   </g>
   <g id="line2d_36">
    <path clip-path="url(#p15721449f4)" d="M 45.406316 -32.714111 
M 49.953614 -1 
L 52.227368 10.271224 
L 55.637895 21.604018 
L 59.048421 28.697502 
L 62.458947 33.364198 
L 65.869474 36.916987 
L 69.28 39.288423 
L 72.690526 41.050072 
L 76.101053 42.44994 
L 79.511579 43.91734 
L 82.922105 45.310504 
L 86.332632 46.141022 
L 89.743158 47.301458 
L 93.153684 48.26301 
L 96.564211 48.989576 
L 99.974737 49.536263 
L 103.385263 50.02089 
L 106.795789 50.43743 
L 110.206316 50.773832 
L 113.616842 50.89244 
L 117.027368 51.115332 
L 120.437895 51.322403 
L 123.848421 51.484163 
L 127 51.587454 
" style="fill:none;stroke:#008000;stroke-linecap:round;"/>
   </g>
   <g id="line2d_37">
    <path clip-path="url(#p15721449f4)" d="M 45.406316 -34.994307 
M 50.430339 -1 
L 52.227368 7.859321 
L 55.637895 19.100863 
L 59.048421 26.158365 
L 62.458947 30.790587 
L 65.869474 34.225883 
L 69.28 36.672941 
L 72.690526 38.359892 
L 76.101053 39.773397 
L 79.511579 41.239248 
L 82.922105 42.578091 
L 86.332632 43.474604 
L 89.743158 44.669454 
L 93.153684 45.782586 
L 96.564211 46.703141 
L 99.974737 47.347699 
L 103.385263 48.005448 
L 106.795789 48.604448 
L 110.206316 48.996918 
L 113.616842 49.374462 
L 117.027368 49.725943 
L 120.437895 50.011761 
L 123.848421 50.299333 
L 127 50.580929 
" style="fill:none;stroke:#800080;stroke-linecap:round;"/>
   </g>
   <g id="patch_9">
    <path d="M 56.32 54.72 
L 108.16 54.72 
" style="fill:none;stroke:#262626;stroke-linecap:square;stroke-linejoin:miter;stroke-width:0.3;"/>
   </g>
   <g id="patch_10">
    <path d="M 56.32 25.92 
L 108.16 25.92 
" style="fill:none;stroke:#262626;stroke-linecap:square;stroke-linejoin:miter;stroke-width:0.3;"/>
   </g>
   <g id="patch_11">
    <path d="M 56.32 54.72 
L 56.32 25.92 
" style="fill:none;stroke:#262626;stroke-linecap:square;stroke-linejoin:miter;stroke-width:0.3;"/>
   </g>
   <g id="patch_12">
    <path d="M 108.16 54.72 
L 108.16 25.92 
" style="fill:none;stroke:#262626;stroke-linecap:square;stroke-linejoin:miter;stroke-width:0.3;"/>
   </g>
  </g>
 </g>
 <defs>
  <clipPath id="p68113b1d72">
   <rect height="97.65" width="97.65" x="15.75" y="12.6"/>
  </clipPath>
  <clipPath id="p15721449f4">
   <rect height="28.8" width="51.84" x="56.32" y="25.92"/>
  </clipPath>
 </defs>
</svg>
