<?xml version="1.0" encoding="utf-8" standalone="no"?>
<!DOCTYPE svg PUBLIC "-//W3C//DTD SVG 1.1//EN"
  "http://www.w3.org/Graphics/SVG/1.1/DTD/svg11.dtd">
<!-- Created with matplotlib (http://matplotlib.org/) -->
<svg height="126pt" version="1.1" viewBox="0 0 126 126" width="126pt" xmlns="http://www.w3.org/2000/svg" xmlns:xlink="http://www.w3.org/1999/xlink">
 <defs>
  <style type="text/css">
*{stroke-linecap:butt;stroke-linejoin:round;stroke-miterlimit:100000;}
  </style>
 </defs>
 <g id="figure_1">
  <g id="patch_1">
   <path d="M 0 126 
L 126 126 
L 126 0 
L 0 0 
L 0 126 
z
" style="fill:none;"/>
  </g>
  <g id="axes_1">
   <g id="patch_2">
    <path d="M 15.75 110.25 
L 113.4 110.25 
L 113.4 12.6 
L 15.75 12.6 
L 15.75 110.25 
z
" style="fill:none;"/>
   </g>
   <g id="matplotlib.axis_1">
    <g id="xtick_1">
     <g id="line2d_1">
      <defs>
       <path d="M 0 0 
L 0 2 
" id="me5da0cb75b" style="stroke:#1a1a1a;"/>
      </defs>
      <g>
       <use style="fill:#1a1a1a;stroke:#1a1a1a;" x="29.7" xlink:href="#me5da0cb75b" y="110.25"/>
      </g>
     </g>
     <g id="text_1">
      <text style="fill:#262626;font-family:Arial;font-size:10.0px;font-style:normal;font-weight:400;text-anchor:middle;" transform="rotate(-0.000000, 29.700000, 124.407813)" x="29.7" y="124.4078125">2</text>
     </g>
    </g>
    <g id="xtick_2">
     <g id="line2d_2">
      <g>
       <use style="fill:#1a1a1a;stroke:#1a1a1a;" x="66.9" xlink:href="#me5da0cb75b" y="110.25"/>
      </g>
     </g>
     <g id="text_2">
      <text style="fill:#262626;font-family:Arial;font-size:10.0px;font-style:normal;font-weight:400;text-anchor:middle;" transform="rotate(-0.000000, 66.900000, 124.407813)" x="66.9" y="124.4078125">4</text>
     </g>
    </g>
    <g id="xtick_3">
     <g id="line2d_3">
      <g>
       <use style="fill:#1a1a1a;stroke:#1a1a1a;" x="104.1" xlink:href="#me5da0cb75b" y="110.25"/>
      </g>
     </g>
     <g id="text_3">
      <text style="fill:#262626;font-family:Arial;font-size:10.0px;font-style:normal;font-weight:400;text-anchor:middle;" transform="rotate(-0.000000, 104.100000, 124.407813)" x="104.1" y="124.4078125">6</text>
     </g>
    </g>
    <g id="xtick_4">
     <g id="line2d_4">
      <defs>
       <path d="M 0 0 
L 0 2 
" id="m0658e68346" style="stroke:#1a1a1a;stroke-width:0.5;"/>
      </defs>
      <g>
       <use style="fill:#1a1a1a;stroke:#1a1a1a;stroke-width:0.5;" x="48.3" xlink:href="#m0658e68346" y="110.25"/>
      </g>
     </g>
    </g>
    <g id="xtick_5">
     <g id="line2d_5">
      <g>
       <use style="fill:#1a1a1a;stroke:#1a1a1a;stroke-width:0.5;" x="85.5" xlink:href="#m0658e68346" y="110.25"/>
      </g>
     </g>
    </g>
    <g id="text_4">
     <text style="fill:#262626;font-family:Arial;font-size:12.0px;font-style:normal;font-weight:400;text-anchor:middle;" transform="rotate(-0.000000, 64.575000, 136.330938)" x="64.575" y="136.3309375">Threshold (z-units)</text>
    </g>
   </g>
   <g id="matplotlib.axis_2">
    <g id="ytick_1">
     <g id="line2d_6">
      <defs>
       <path d="M 0 0 
L -2 0 
" id="ma208250ccc" style="stroke:#1a1a1a;"/>
      </defs>
      <g>
       <use style="fill:#1a1a1a;stroke:#1a1a1a;" x="15.75" xlink:href="#ma208250ccc" y="106.094680851"/>
      </g>
     </g>
     <g id="text_5">
      <text style="fill:#262626;font-family:Arial;font-size:10.0px;font-style:normal;font-weight:400;text-anchor:end;" transform="rotate(-0.000000, 8.750000, 108.679837)" x="8.75" y="108.679837101">0</text>
     </g>
    </g>
    <g id="ytick_2">
     <g id="line2d_7">
      <g>
       <use style="fill:#1a1a1a;stroke:#1a1a1a;" x="15.75" xlink:href="#ma208250ccc" y="64.5414893617"/>
      </g>
     </g>
     <g id="text_6">
      <text style="fill:#262626;font-family:Arial;font-size:10.0px;font-style:normal;font-weight:400;text-anchor:end;" transform="rotate(-0.000000, 8.750000, 67.126646)" x="8.75" y="67.1266456117">40</text>
     </g>
    </g>
    <g id="ytick_3">
     <g id="line2d_8">
      <g>
       <use style="fill:#1a1a1a;stroke:#1a1a1a;" x="15.75" xlink:href="#ma208250ccc" y="22.9882978723"/>
      </g>
     </g>
     <g id="text_7">
      <text style="fill:#262626;font-family:Arial;font-size:10.0px;font-style:normal;font-weight:400;text-anchor:end;" transform="rotate(-0.000000, 8.750000, 25.573454)" x="8.75" y="25.5734541223">80</text>
     </g>
    </g>
    <g id="ytick_4">
     <g id="line2d_9">
      <defs>
       <path d="M 0 0 
L -2 0 
" id="m8fd1475749" style="stroke:#1a1a1a;stroke-width:0.5;"/>
      </defs>
      <g>
       <use style="fill:#1a1a1a;stroke:#1a1a1a;stroke-width:0.5;" x="15.75" xlink:href="#m8fd1475749" y="95.7063829787"/>
      </g>
     </g>
    </g>
    <g id="ytick_5">
     <g id="line2d_10">
      <g>
       <use style="fill:#1a1a1a;stroke:#1a1a1a;stroke-width:0.5;" x="15.75" xlink:href="#m8fd1475749" y="85.3180851064"/>
      </g>
     </g>
    </g>
    <g id="ytick_6">
     <g id="line2d_11">
      <g>
       <use style="fill:#1a1a1a;stroke:#1a1a1a;stroke-width:0.5;" x="15.75" xlink:href="#m8fd1475749" y="74.929787234"/>
      </g>
     </g>
    </g>
    <g id="ytick_7">
     <g id="line2d_12">
      <g>
       <use style="fill:#1a1a1a;stroke:#1a1a1a;stroke-width:0.5;" x="15.75" xlink:href="#m8fd1475749" y="54.1531914894"/>
      </g>
     </g>
    </g>
    <g id="ytick_8">
     <g id="line2d_13">
      <g>
       <use style="fill:#1a1a1a;stroke:#1a1a1a;stroke-width:0.5;" x="15.75" xlink:href="#m8fd1475749" y="43.764893617"/>
      </g>
     </g>
    </g>
    <g id="ytick_9">
     <g id="line2d_14">
      <g>
       <use style="fill:#1a1a1a;stroke:#1a1a1a;stroke-width:0.5;" x="15.75" xlink:href="#m8fd1475749" y="33.3765957447"/>
      </g>
     </g>
    </g>
    <g id="ytick_10">
     <g id="line2d_15">
      <g>
       <use style="fill:#1a1a1a;stroke:#1a1a1a;stroke-width:0.5;" x="15.75" xlink:href="#m8fd1475749" y="12.6"/>
      </g>
     </g>
    </g>
    <g id="text_8">
     <text style="fill:#262626;font-family:Arial;font-size:12.0px;font-style:normal;font-weight:400;text-anchor:middle;" transform="rotate(-90.000000, -6.097500, 61.425000)" x="-6.0975" y="61.425">FPR (per min)</text>
    </g>
   </g>
   <g id="PolyCollection_1">
    <defs>
     <path d="M 20.4 -102.779457 
L 20.4 -98.605573 
L 25.05 -73.129088 
L 29.7 -56.561428 
L 34.35 -45.599101 
L 39 -38.734324 
L 43.65 -34.212382 
L 48.3 -30.765869 
L 52.95 -28.430576 
L 57.6 -26.82901 
L 62.25 -25.679363 
L 66.9 -24.401667 
L 71.55 -23.332245 
L 76.2 -22.691942 
L 80.85 -22.049497 
L 85.5 -21.592891 
L 90.15 -21.190067 
L 94.8 -20.932703 
L 99.45 -20.794706 
L 104.1 -20.670371 
L 104.1 -21.142557 
L 104.1 -21.142557 
L 99.45 -21.292281 
L 94.8 -21.482062 
L 90.15 -21.782113 
L 85.5 -22.258166 
L 80.85 -22.788011 
L 76.2 -23.54908 
L 71.55 -24.225001 
L 66.9 -25.451066 
L 62.25 -26.835152 
L 57.6 -28.148925 
L 52.95 -29.86705 
L 48.3 -32.398678 
L 43.65 -36.043214 
L 39 -40.734241 
L 34.35 -48.017179 
L 29.7 -59.532612 
L 25.05 -76.650488 
L 20.4 -102.779457 
z
" id="m6cb4697288" style="stroke:#1a1a1a;stroke-opacity:0.2;stroke-width:0.3;"/>
    </defs>
    <g clip-path="url(#pc222c4361e)">
     <use style="fill:#1a1a1a;fill-opacity:0.2;stroke:#1a1a1a;stroke-opacity:0.2;stroke-width:0.3;" x="0.0" xlink:href="#m6cb4697288" y="126.0"/>
    </g>
   </g>
   <g id="patch_3">
    <path clip-path="url(#pc222c4361e)" d="M 35.28 108.17234 
L 108.75 108.17234 
L 108.75 85.318085 
L 35.28 85.318085 
L 35.28 108.17234 
z
" style="fill:none;opacity:0.5;stroke:#1a1a1a;stroke-dasharray:6.000000,6.000000;stroke-dashoffset:0.0;stroke-linejoin:miter;"/>
   </g>
   <g id="line2d_16">
    <path clip-path="url(#pc222c4361e)" d="M 20.4 25.307485 
L 25.05 51.110212 
L 29.7 67.95298 
L 34.35 79.19186 
L 39 86.265717 
L 43.65 90.872202 
L 48.3 94.417727 
L 52.95 96.851187 
L 57.6 98.511032 
L 62.25 99.742742 
L 66.9 101.073634 
L 71.55 102.221377 
L 76.2 102.879489 
L 80.85 103.581246 
L 85.5 104.074471 
L 90.15 104.51391 
L 94.8 104.792617 
L 99.45 104.956506 
L 104.1 105.093536 
" style="fill:none;stroke:#1a1a1a;stroke-linecap:round;"/>
   </g>
   <g id="patch_4">
    <path d="M 15.75 110.25 
L 15.75 12.6 
" style="fill:none;stroke:#262626;stroke-linecap:square;stroke-linejoin:miter;stroke-width:0.5;"/>
   </g>
   <g id="patch_5">
    <path d="M 113.4 110.25 
L 113.4 12.6 
" style="fill:none;"/>
   </g>
   <g id="patch_6">
    <path d="M 15.75 110.25 
L 113.4 110.25 
" style="fill:none;stroke:#262626;stroke-linecap:square;stroke-linejoin:miter;stroke-width:0.5;"/>
   </g>
   <g id="patch_7">
    <path d="M 15.75 12.6 
L 113.4 12.6 
" style="fill:none;"/>
   </g>
  </g>
  <g id="axes_2">
   <g id="patch_8">
    <path d="M 53.12 54.72 
L 104.96 54.72 
L 104.96 25.92 
L 53.12 25.92 
L 53.12 54.72 
z
" style="fill:none;"/>
   </g>
   <g id="matplotlib.axis_3">
    <g id="xtick_6">
     <g id="line2d_17">
      <g>
       <use style="fill:#1a1a1a;stroke:#1a1a1a;" x="62.6694736842" xlink:href="#me5da0cb75b" y="54.72"/>
      </g>
     </g>
     <g id="text_9">
      <text style="fill:#262626;font-family:Arial;font-size:10.0px;font-style:normal;font-weight:400;text-anchor:middle;" transform="rotate(-0.000000, 62.669474, 68.877813)" x="62.6694736842" y="68.8778125">3</text>
     </g>
    </g>
    <g id="xtick_7">
     <g id="line2d_18">
      <g>
       <use style="fill:#1a1a1a;stroke:#1a1a1a;" x="76.3115789474" xlink:href="#me5da0cb75b" y="54.72"/>
      </g>
     </g>
     <g id="text_10">
      <text style="fill:#262626;font-family:Arial;font-size:10.0px;font-style:normal;font-weight:400;text-anchor:middle;" transform="rotate(-0.000000, 76.311579, 68.877813)" x="76.3115789474" y="68.8778125">4</text>
     </g>
    </g>
    <g id="xtick_8">
     <g id="line2d_19">
      <g>
       <use style="fill:#1a1a1a;stroke:#1a1a1a;" x="89.9536842105" xlink:href="#me5da0cb75b" y="54.72"/>
      </g>
     </g>
     <g id="text_11">
      <text style="fill:#262626;font-family:Arial;font-size:10.0px;font-style:normal;font-weight:400;text-anchor:middle;" transform="rotate(-0.000000, 89.953684, 68.877813)" x="89.9536842105" y="68.8778125">5</text>
     </g>
    </g>
    <g id="xtick_9">
     <g id="line2d_20">
      <g>
       <use style="fill:#1a1a1a;stroke:#1a1a1a;" x="103.595789474" xlink:href="#me5da0cb75b" y="54.72"/>
      </g>
     </g>
     <g id="text_12">
      <text style="fill:#262626;font-family:Arial;font-size:10.0px;font-style:normal;font-weight:400;text-anchor:middle;" transform="rotate(-0.000000, 103.595789, 68.877813)" x="103.595789474" y="68.8778125">6</text>
     </g>
    </g>
    <g id="xtick_10">
     <g id="line2d_21">
      <g>
       <use style="fill:#1a1a1a;stroke:#1a1a1a;stroke-width:0.5;" x="55.8484210526" xlink:href="#m0658e68346" y="54.72"/>
      </g>
     </g>
    </g>
    <g id="xtick_11">
     <g id="line2d_22">
      <g>
       <use style="fill:#1a1a1a;stroke:#1a1a1a;stroke-width:0.5;" x="69.4905263158" xlink:href="#m0658e68346" y="54.72"/>
      </g>
     </g>
    </g>
    <g id="xtick_12">
     <g id="line2d_23">
      <g>
       <use style="fill:#1a1a1a;stroke:#1a1a1a;stroke-width:0.5;" x="83.1326315789" xlink:href="#m0658e68346" y="54.72"/>
      </g>
     </g>
    </g>
    <g id="xtick_13">
     <g id="line2d_24">
      <g>
       <use style="fill:#1a1a1a;stroke:#1a1a1a;stroke-width:0.5;" x="96.7747368421" xlink:href="#m0658e68346" y="54.72"/>
      </g>
     </g>
    </g>
   </g>
   <g id="matplotlib.axis_4">
    <g id="ytick_11">
     <g id="line2d_25">
      <g>
       <use style="fill:#1a1a1a;stroke:#1a1a1a;" x="53.12" xlink:href="#ma208250ccc" y="52.5866666667"/>
      </g>
     </g>
     <g id="text_13">
      <text style="fill:#262626;font-family:Arial;font-size:10.0px;font-style:normal;font-weight:400;text-anchor:end;" transform="rotate(-0.000000, 48.120000, 55.171823)" x="48.12" y="55.1718229167">0</text>
     </g>
    </g>
    <g id="ytick_12">
     <g id="line2d_26">
      <g>
       <use style="fill:#1a1a1a;stroke:#1a1a1a;" x="53.12" xlink:href="#ma208250ccc" y="31.2533333333"/>
      </g>
     </g>
     <g id="text_14">
      <text style="fill:#262626;font-family:Arial;font-size:10.0px;font-style:normal;font-weight:400;text-anchor:end;" transform="rotate(-0.000000, 48.120000, 33.838490)" x="48.12" y="33.8384895833">20</text>
     </g>
    </g>
    <g id="ytick_13">
     <g id="line2d_27">
      <g>
       <use style="fill:#1a1a1a;stroke:#1a1a1a;stroke-width:0.5;" x="53.12" xlink:href="#m8fd1475749" y="45.4755555556"/>
      </g>
     </g>
    </g>
    <g id="ytick_14">
     <g id="line2d_28">
      <g>
       <use style="fill:#1a1a1a;stroke:#1a1a1a;stroke-width:0.5;" x="53.12" xlink:href="#m8fd1475749" y="38.3644444444"/>
      </g>
     </g>
    </g>
   </g>
   <g id="PolyCollection_2">
    <defs>
     <path d="M 42.206316 -158.508198 
L 42.206316 -154.222469 
L 45.616842 -128.063306 
L 49.027368 -111.051693 
L 52.437895 -99.795616 
L 55.848421 -92.746888 
L 59.258947 -88.103773 
L 62.669474 -84.564906 
L 66.08 -82.167036 
L 69.490526 -80.522554 
L 72.901053 -79.3421 
L 76.311579 -78.030167 
L 79.722105 -76.932089 
L 83.132632 -76.274628 
L 86.543158 -75.614968 
L 89.953684 -75.146126 
L 93.364211 -74.732508 
L 96.774737 -74.468248 
L 100.185263 -74.326553 
L 103.595789 -74.198886 
L 103.595789 -74.683725 
L 103.595789 -74.683725 
L 100.185263 -74.837461 
L 96.774737 -75.032327 
L 93.364211 -75.340418 
L 89.953684 -75.829228 
L 86.543158 -76.373271 
L 83.132632 -77.154733 
L 79.722105 -77.848767 
L 76.311579 -79.107686 
L 72.901053 -80.528861 
L 69.490526 -81.877838 
L 66.08 -83.642002 
L 62.669474 -86.241469 
L 59.258947 -89.983666 
L 55.848421 -94.800395 
L 52.437895 -102.278489 
L 49.027368 -114.102495 
L 45.616842 -131.679067 
L 42.206316 -158.508198 
z
" id="m62750897cd" style="stroke:#1a1a1a;stroke-opacity:0.2;stroke-width:0.3;"/>
    </defs>
    <g clip-path="url(#p9864e968be)">
     <use style="fill:#1a1a1a;fill-opacity:0.2;stroke:#1a1a1a;stroke-opacity:0.2;stroke-width:0.3;" x="0.0" xlink:href="#m62750897cd" y="126.0"/>
    </g>
   </g>
   <g id="line2d_29">
    <path clip-path="url(#p9864e968be)" d="M 42.206316 -30.365333 
M 46.183062 -1 
L 49.027368 13.422906 
L 52.437895 24.962948 
L 55.848421 32.226359 
L 59.258947 36.95628 
L 62.669474 40.596812 
L 66.08 43.095481 
L 69.490526 44.799804 
L 72.901053 46.064519 
L 76.311579 47.431074 
L 79.722105 48.609572 
L 83.132632 49.285319 
L 86.543158 50.005881 
L 89.953684 50.512323 
L 93.364211 50.963537 
L 96.774737 51.249712 
L 100.185263 51.417993 
L 103.595789 51.558695 
" style="fill:none;stroke:#1a1a1a;stroke-linecap:round;"/>
   </g>
   <g id="patch_9">
    <path d="M 53.12 54.72 
L 53.12 25.92 
" style="fill:none;stroke:#262626;stroke-linecap:square;stroke-linejoin:miter;stroke-width:0.3;"/>
   </g>
   <g id="patch_10">
    <path d="M 104.96 54.72 
L 104.96 25.92 
" style="fill:none;stroke:#262626;stroke-linecap:square;stroke-linejoin:miter;stroke-width:0.3;"/>
   </g>
   <g id="patch_11">
    <path d="M 53.12 54.72 
L 104.96 54.72 
" style="fill:none;stroke:#262626;stroke-linecap:square;stroke-linejoin:miter;stroke-width:0.3;"/>
   </g>
   <g id="patch_12">
    <path d="M 53.12 25.92 
L 104.96 25.92 
" style="fill:none;stroke:#262626;stroke-linecap:square;stroke-linejoin:miter;stroke-width:0.3;"/>
   </g>
  </g>
 </g>
 <defs>
  <clipPath id="pc222c4361e">
   <rect height="97.65" width="97.65" x="15.75" y="12.6"/>
  </clipPath>
  <clipPath id="p9864e968be">
   <rect height="28.8" width="51.84" x="53.12" y="25.92"/>
  </clipPath>
 </defs>
</svg>
