<?xml version="1.0" encoding="utf-8" standalone="no"?>
<!DOCTYPE svg PUBLIC "-//W3C//DTD SVG 1.1//EN"
  "http://www.w3.org/Graphics/SVG/1.1/DTD/svg11.dtd">
<!-- Created with matplotlib (http://matplotlib.org/) -->
<svg height="126pt" version="1.1" viewBox="0 0 126 126" width="126pt" xmlns="http://www.w3.org/2000/svg" xmlns:xlink="http://www.w3.org/1999/xlink">
 <defs>
  <style type="text/css">
*{stroke-linecap:butt;stroke-linejoin:round;stroke-miterlimit:100000;}
  </style>
 </defs>
 <g id="figure_1">
  <g id="patch_1">
   <path d="M 0 126 
L 126 126 
L 126 0 
L 0 0 
L 0 126 
z
" style="fill:none;"/>
  </g>
  <g id="axes_1">
   <g id="patch_2">
    <path d="M 15.75 110.25 
L 113.4 110.25 
L 113.4 12.6 
L 15.75 12.6 
L 15.75 110.25 
z
" style="fill:none;"/>
   </g>
   <g id="matplotlib.axis_1">
    <g id="xtick_1">
     <g id="line2d_1">
      <defs>
       <path d="M 0 0 
L 0 2 
" id="mb3aebb2ca9" style="stroke:#1a1a1a;"/>
      </defs>
      <g>
       <use style="fill:#1a1a1a;stroke:#1a1a1a;" x="33.5045454545" xlink:href="#mb3aebb2ca9" y="110.25"/>
      </g>
     </g>
     <g id="text_1">
      <text style="fill:#262626;font-family:Arial;font-size:8.0px;font-style:normal;font-weight:400;text-anchor:middle;" transform="rotate(-0.000000, 33.504545, 122.976250)" x="33.5045454545" y="122.97625">40</text>
     </g>
    </g>
    <g id="xtick_2">
     <g id="line2d_2">
      <g>
       <use style="fill:#1a1a1a;stroke:#1a1a1a;" x="69.0136363636" xlink:href="#mb3aebb2ca9" y="110.25"/>
      </g>
     </g>
     <g id="text_2">
      <text style="fill:#262626;font-family:Arial;font-size:8.0px;font-style:normal;font-weight:400;text-anchor:middle;" transform="rotate(-0.000000, 69.013636, 122.976250)" x="69.0136363636" y="122.97625">60</text>
     </g>
    </g>
    <g id="xtick_3">
     <g id="line2d_3">
      <g>
       <use style="fill:#1a1a1a;stroke:#1a1a1a;" x="104.522727273" xlink:href="#mb3aebb2ca9" y="110.25"/>
      </g>
     </g>
     <g id="text_3">
      <text style="fill:#262626;font-family:Arial;font-size:8.0px;font-style:normal;font-weight:400;text-anchor:middle;" transform="rotate(-0.000000, 104.522727, 122.976250)" x="104.522727273" y="122.97625">80</text>
     </g>
    </g>
    <g id="xtick_4">
     <g id="line2d_4">
      <defs>
       <path d="M 0 0 
L 0 2 
" id="meab8c6bac8" style="stroke:#1a1a1a;stroke-width:0.5;"/>
      </defs>
      <g>
       <use style="fill:#1a1a1a;stroke:#1a1a1a;stroke-width:0.5;" x="24.6272727273" xlink:href="#meab8c6bac8" y="110.25"/>
      </g>
     </g>
    </g>
    <g id="xtick_5">
     <g id="line2d_5">
      <g>
       <use style="fill:#1a1a1a;stroke:#1a1a1a;stroke-width:0.5;" x="42.3818181818" xlink:href="#meab8c6bac8" y="110.25"/>
      </g>
     </g>
    </g>
    <g id="xtick_6">
     <g id="line2d_6">
      <g>
       <use style="fill:#1a1a1a;stroke:#1a1a1a;stroke-width:0.5;" x="51.2590909091" xlink:href="#meab8c6bac8" y="110.25"/>
      </g>
     </g>
    </g>
    <g id="xtick_7">
     <g id="line2d_7">
      <g>
       <use style="fill:#1a1a1a;stroke:#1a1a1a;stroke-width:0.5;" x="60.1363636364" xlink:href="#meab8c6bac8" y="110.25"/>
      </g>
     </g>
    </g>
    <g id="xtick_8">
     <g id="line2d_8">
      <g>
       <use style="fill:#1a1a1a;stroke:#1a1a1a;stroke-width:0.5;" x="77.8909090909" xlink:href="#meab8c6bac8" y="110.25"/>
      </g>
     </g>
    </g>
    <g id="xtick_9">
     <g id="line2d_9">
      <g>
       <use style="fill:#1a1a1a;stroke:#1a1a1a;stroke-width:0.5;" x="86.7681818182" xlink:href="#meab8c6bac8" y="110.25"/>
      </g>
     </g>
    </g>
    <g id="xtick_10">
     <g id="line2d_10">
      <g>
       <use style="fill:#1a1a1a;stroke:#1a1a1a;stroke-width:0.5;" x="95.6454545455" xlink:href="#meab8c6bac8" y="110.25"/>
      </g>
     </g>
    </g>
    <g id="xtick_11">
     <g id="line2d_11">
      <g>
       <use style="fill:#1a1a1a;stroke:#1a1a1a;stroke-width:0.5;" x="113.4" xlink:href="#meab8c6bac8" y="110.25"/>
      </g>
     </g>
    </g>
    <g id="text_4">
     <text style="fill:#262626;font-family:Arial;font-size:9.6px;font-style:normal;font-weight:400;text-anchor:middle;" transform="rotate(-0.000000, 64.575000, 132.754750)" x="64.575" y="132.75475">Detection latency (ms)</text>
    </g>
   </g>
   <g id="matplotlib.axis_2">
    <g id="ytick_1">
     <g id="line2d_12">
      <defs>
       <path d="M 0 0 
L -2 0 
" id="m59b52eb0d1" style="stroke:#1a1a1a;"/>
      </defs>
      <g>
       <use style="fill:#1a1a1a;stroke:#1a1a1a;" x="15.75" xlink:href="#m59b52eb0d1" y="106.094680851"/>
      </g>
     </g>
     <g id="text_5">
      <text style="fill:#262626;font-family:Arial;font-size:8.0px;font-style:normal;font-weight:400;text-anchor:end;" transform="rotate(-0.000000, 8.750000, 108.162806)" x="8.75" y="108.162805851">0</text>
     </g>
    </g>
    <g id="ytick_2">
     <g id="line2d_13">
      <g>
       <use style="fill:#1a1a1a;stroke:#1a1a1a;" x="15.75" xlink:href="#m59b52eb0d1" y="64.5414893617"/>
      </g>
     </g>
     <g id="text_6">
      <text style="fill:#262626;font-family:Arial;font-size:8.0px;font-style:normal;font-weight:400;text-anchor:end;" transform="rotate(-0.000000, 8.750000, 66.609614)" x="8.75" y="66.6096143617">40</text>
     </g>
    </g>
    <g id="ytick_3">
     <g id="line2d_14">
      <g>
       <use style="fill:#1a1a1a;stroke:#1a1a1a;" x="15.75" xlink:href="#m59b52eb0d1" y="22.9882978723"/>
      </g>
     </g>
     <g id="text_7">
      <text style="fill:#262626;font-family:Arial;font-size:8.0px;font-style:normal;font-weight:400;text-anchor:end;" transform="rotate(-0.000000, 8.750000, 25.056423)" x="8.75" y="25.0564228723">80</text>
     </g>
    </g>
    <g id="ytick_4">
     <g id="line2d_15">
      <defs>
       <path d="M 0 0 
L -2 0 
" id="m76bb8fa8d3" style="stroke:#1a1a1a;stroke-width:0.5;"/>
      </defs>
      <g>
       <use style="fill:#1a1a1a;stroke:#1a1a1a;stroke-width:0.5;" x="15.75" xlink:href="#m76bb8fa8d3" y="95.7063829787"/>
      </g>
     </g>
    </g>
    <g id="ytick_5">
     <g id="line2d_16">
      <g>
       <use style="fill:#1a1a1a;stroke:#1a1a1a;stroke-width:0.5;" x="15.75" xlink:href="#m76bb8fa8d3" y="85.3180851064"/>
      </g>
     </g>
    </g>
    <g id="ytick_6">
     <g id="line2d_17">
      <g>
       <use style="fill:#1a1a1a;stroke:#1a1a1a;stroke-width:0.5;" x="15.75" xlink:href="#m76bb8fa8d3" y="74.929787234"/>
      </g>
     </g>
    </g>
    <g id="ytick_7">
     <g id="line2d_18">
      <g>
       <use style="fill:#1a1a1a;stroke:#1a1a1a;stroke-width:0.5;" x="15.75" xlink:href="#m76bb8fa8d3" y="54.1531914894"/>
      </g>
     </g>
    </g>
    <g id="ytick_8">
     <g id="line2d_19">
      <g>
       <use style="fill:#1a1a1a;stroke:#1a1a1a;stroke-width:0.5;" x="15.75" xlink:href="#m76bb8fa8d3" y="43.764893617"/>
      </g>
     </g>
    </g>
    <g id="ytick_9">
     <g id="line2d_20">
      <g>
       <use style="fill:#1a1a1a;stroke:#1a1a1a;stroke-width:0.5;" x="15.75" xlink:href="#m76bb8fa8d3" y="33.3765957447"/>
      </g>
     </g>
    </g>
    <g id="ytick_10">
     <g id="line2d_21">
      <g>
       <use style="fill:#1a1a1a;stroke:#1a1a1a;stroke-width:0.5;" x="15.75" xlink:href="#m76bb8fa8d3" y="12.6"/>
      </g>
     </g>
    </g>
    <g id="text_8">
     <text style="fill:#262626;font-family:Arial;font-size:9.6px;font-style:normal;font-weight:400;text-anchor:middle;" transform="rotate(-90.000000, -3.368000, 61.425000)" x="-3.368" y="61.425">FSR (per min)</text>
    </g>
   </g>
   <g id="PolyCollection_1">
    <defs>
     <path d="M 18.987115 -100.886473 
L 16.008457 -100.886473 
L 21.873521 -75.220326 
L 26.999755 -57.940431 
L 32.207292 -46.799693 
L 35.919434 -39.829312 
L 39.15022 -34.986831 
L 43.187448 -31.608666 
L 45.351324 -29.126957 
L 48.889538 -27.548591 
L 52.718355 -26.134525 
L 55.916898 -24.861084 
L 59.710765 -23.781084 
L 62.440522 -23.060191 
L 65.791399 -22.4861 
L 67.497651 -21.911901 
L 70.43803 -21.454105 
L 73.107182 -21.196748 
L 74.861673 -21.027583 
L 77.667588 -20.91014 
L 80.539612 -20.776733 
L 84.587826 -20.684797 
L 87.935747 -20.577018 
L 87.764523 -20.488526 
L 90.227597 -20.384397 
L 91.868872 -20.313402 
L 94.826557 -20.275539 
L 94.49615 -20.273243 
L 97.413963 -20.25982 
L 99.011321 -20.217693 
L 103.052371 -20.180049 
L 104.839828 -20.163099 
L 109.635282 -20.081797 
L 111.485629 -20.070343 
L 116.253932 -20.043497 
L 117.501544 -20.059121 
L 124.103252 -20.059121 
L 124.103252 -20.059121 
L 122.82243 -20.043497 
L 117.30723 -20.070343 
L 115.209091 -20.081797 
L 110.128294 -20.163099 
L 108.271813 -20.180049 
L 104.060026 -20.217693 
L 102.106094 -20.25982 
L 98.595443 -20.273243 
L 98.977335 -20.275539 
L 95.539566 -20.313402 
L 94.158827 -20.384397 
L 91.372575 -20.488526 
L 91.818844 -20.577018 
L 88.285197 -20.684797 
L 83.877018 -20.776733 
L 84.704243 -20.91014 
L 81.346383 -21.027583 
L 79.486115 -21.196748 
L 76.309729 -21.454105 
L 72.814618 -21.911901 
L 71.162797 -22.4861 
L 67.919996 -23.060191 
L 64.401875 -23.781084 
L 60.299386 -24.861084 
L 57.129094 -26.134525 
L 52.9367 -27.548591 
L 49.266516 -29.126957 
L 47.025617 -31.608666 
L 42.996396 -34.986831 
L 39.754869 -39.829312 
L 35.710237 -46.799693 
L 30.360628 -57.940431 
L 24.727781 -75.220326 
L 18.987115 -100.886473 
z
" id="m74307ed73a" style="stroke:#ff0000;stroke-opacity:0.2;"/>
    </defs>
    <g clip-path="url(#p9fc8c838cb)">
     <use style="fill:#ff0000;fill-opacity:0.2;stroke:#ff0000;stroke-opacity:0.2;" x="0.0" xlink:href="#m74307ed73a" y="126.0"/>
    </g>
   </g>
   <g id="PolyCollection_2">
    <defs>
     <path d="M 16.909141 -105.200686 
L 15.297685 -105.200686 
L 20.999194 -79.840451 
L 26.294895 -63.465412 
L 31.876241 -52.517241 
L 36.075492 -45.64392 
L 38.75041 -41.132585 
L 42.72579 -37.78694 
L 44.770457 -35.403743 
L 47.256759 -33.760816 
L 50.510138 -32.3842 
L 54.671612 -30.956604 
L 57.943122 -29.6527 
L 60.623721 -28.779583 
L 63.275452 -27.615916 
L 65.067027 -26.531833 
L 67.71368 -25.635302 
L 71.52309 -25.007565 
L 74.084792 -24.366981 
L 75.981541 -23.783613 
L 76.930202 -23.401386 
L 80.751144 -23.033694 
L 83.793146 -22.691386 
L 86.389966 -22.413027 
L 89.557159 -22.13296 
L 90.812925 -21.83618 
L 94.230639 -21.528149 
L 96.244999 -21.299092 
L 99.149105 -21.220918 
L 101.153927 -21.080492 
L 104.89955 -20.927946 
L 106.670832 -20.880308 
L 111.740434 -20.768092 
L 113.713044 -20.678215 
L 119.160285 -20.647975 
L 119.839125 -20.634997 
L 126.830577 -20.634997 
L 126.830577 -20.634997 
L 125.491751 -20.647975 
L 119.73543 -20.678215 
L 117.400792 -20.768092 
L 112.090434 -20.880308 
L 110.078258 -20.927946 
L 106.110694 -21.080492 
L 104.16824 -21.220918 
L 100.44888 -21.299092 
L 98.272191 -21.528149 
L 94.655381 -21.83618 
L 93.35265 -22.13296 
L 90.169385 -22.413027 
L 87.333766 -22.691386 
L 84.11299 -23.033694 
L 80.259836 -23.401386 
L 79.253442 -23.783613 
L 77.303784 -24.366981 
L 74.726743 -25.007565 
L 70.68081 -25.635302 
L 68.112606 -26.531833 
L 66.29993 -27.615916 
L 63.547087 -28.779583 
L 60.68031 -29.6527 
L 57.268672 -30.956604 
L 53.091103 -32.3842 
L 49.878892 -33.760816 
L 47.398276 -35.403743 
L 45.109085 -37.78694 
L 41.274378 -41.132585 
L 38.474482 -45.64392 
L 34.074067 -52.517241 
L 28.149988 -63.465412 
L 22.723693 -79.840451 
L 16.909141 -105.200686 
z
" id="ma3e920c62a" style="stroke:#008000;stroke-opacity:0.2;"/>
    </defs>
    <g clip-path="url(#p9fc8c838cb)">
     <use style="fill:#008000;fill-opacity:0.2;stroke:#008000;stroke-opacity:0.2;" x="0.0" xlink:href="#ma3e920c62a" y="126.0"/>
    </g>
   </g>
   <g id="PolyCollection_3">
    <defs>
     <path d="M 17.186569 -102.979996 
L 15.664938 -102.979996 
L 21.457847 -77.581565 
L 26.563282 -61.116452 
L 32.797173 -50.079411 
L 36.831099 -43.171046 
L 39.678409 -38.626138 
L 43.787033 -35.166066 
L 45.701856 -32.856518 
L 48.981298 -31.140843 
L 52.770953 -29.777507 
L 55.728101 -28.348401 
L 58.873447 -26.991595 
L 61.764966 -26.182752 
L 64.565723 -25.052599 
L 66.524334 -24.116141 
L 70.006848 -23.408537 
L 73.403062 -22.876116 
L 75.876643 -22.404137 
L 78.303179 -21.998467 
L 79.617166 -21.670844 
L 83.837732 -21.555332 
L 87.193985 -21.338257 
L 88.842516 -21.136589 
L 91.330115 -20.979051 
L 92.81483 -20.87019 
L 95.48518 -20.719978 
L 95.044232 -20.651631 
L 97.9594 -20.661763 
L 100.036744 -20.540476 
L 104.038978 -20.486659 
L 105.688943 -20.489627 
L 110.489852 -20.376381 
L 112.486023 -20.336919 
L 117.656635 -20.297106 
L 118.568242 -20.2829 
L 125.105124 -20.2829 
L 125.105124 -20.2829 
L 124.170045 -20.297106 
L 118.553603 -20.336919 
L 116.38141 -20.376381 
L 110.830846 -20.489627 
L 108.945717 -20.486659 
L 104.645873 -20.540476 
L 102.672673 -20.661763 
L 99.131267 -20.651631 
L 99.665741 -20.719978 
L 96.744678 -20.87019 
L 95.084406 -20.979051 
L 92.533757 -21.136589 
L 90.872047 -21.338257 
L 87.376994 -21.555332 
L 82.854121 -21.670844 
L 81.503102 -21.998467 
L 79.105684 -22.404137 
L 76.520529 -22.876116 
L 72.950214 -23.408537 
L 69.271273 -24.116141 
L 67.383938 -25.052599 
L 64.266604 -26.182752 
L 61.301958 -26.991595 
L 58.000856 -28.348401 
L 55.013236 -29.777507 
L 51.297183 -31.140843 
L 47.919181 -32.856518 
L 46.101404 -35.166066 
L 41.908478 -38.626138 
L 38.899775 -43.171046 
L 34.878987 -50.079411 
L 28.233496 -61.116452 
L 23.148403 -77.581565 
L 17.186569 -102.979996 
z
" id="m6a220f380e" style="stroke:#800080;stroke-opacity:0.2;"/>
    </defs>
    <g clip-path="url(#p9fc8c838cb)">
     <use style="fill:#800080;fill-opacity:0.2;stroke:#800080;stroke-opacity:0.2;" x="0.0" xlink:href="#m6a220f380e" y="126.0"/>
    </g>
   </g>
   <g id="patch_3">
    <path clip-path="url(#p9fc8c838cb)" d="M 33.504545 108.17234 
L 69.013636 108.17234 
L 69.013636 77.007447 
L 33.504545 77.007447 
L 33.504545 108.17234 
z
" style="fill:none;opacity:0.5;stroke:#1a1a1a;stroke-dasharray:6.000000,6.000000;stroke-dashoffset:0.0;stroke-linejoin:miter;"/>
   </g>
   <g id="line2d_22">
    <path clip-path="url(#p9fc8c838cb)" d="M 17.488901 25.113527 
L 23.23274 50.779674 
L 28.691765 68.059569 
L 33.937611 79.200307 
L 37.800541 86.170688 
L 41.020575 91.013169 
L 45.072614 94.391334 
L 47.342774 96.873043 
L 50.802884 98.451409 
L 54.893099 99.865475 
L 58.160014 101.138916 
L 61.992567 102.218916 
L 65.094003 102.939809 
L 68.512695 103.5139 
L 70.091242 104.088099 
L 73.3534 104.545895 
L 76.284671 104.803252 
L 78.018405 104.972417 
L 81.182121 105.08986 
L 82.214255 105.223267 
L 86.467582 105.315203 
L 89.970353 105.422982 
L 89.591651 105.511474 
L 92.262426 105.615603 
L 93.764815 105.686598 
L 96.875298 105.724461 
L 96.575353 105.726757 
L 99.758755 105.74018 
L 101.537349 105.782307 
L 105.698374 105.819951 
L 107.430359 105.836901 
L 112.392975 105.918203 
L 114.412075 105.929657 
L 119.55253 105.956503 
L 120.787711 105.940879 
" style="fill:none;stroke:#ff0000;stroke-linecap:round;"/>
   </g>
   <g id="line2d_23">
    <path clip-path="url(#p9fc8c838cb)" d="M 17.488901 29.332031 
L 23.23274 53.935884 
L 28.691765 70.938499 
L 33.937611 81.820257 
L 37.800541 88.325186 
L 41.020575 92.863314 
L 45.072614 95.979761 
L 47.342774 98.168135 
L 50.802884 99.752355 
L 54.893099 100.956572 
L 58.160014 102.158067 
L 61.992567 103.087539 
L 65.094003 103.743643 
L 68.512695 104.181042 
L 70.091242 104.673125 
L 73.3534 105.110527 
L 76.284671 105.329227 
L 78.018405 105.438578 
L 81.182121 105.547928 
L 82.214255 105.438578 
L 86.467582 105.506922 
L 89.970353 105.602604 
L 89.591651 105.684616 
L 92.262426 105.76663 
L 93.764815 105.821304 
L 96.875298 105.862311 
L 96.575353 105.862311 
L 99.758755 105.87598 
L 101.537349 105.903317 
L 105.698374 105.930655 
L 107.430359 105.944324 
L 112.392975 106.012668 
L 114.412075 106.012668 
L 119.55253 106.026337 
L 120.787711 106.026337 
" style="fill:none;stroke:#ff0000;stroke-dasharray:1.000000,3.000000;stroke-dashoffset:0.0;"/>
   </g>
   <g id="line2d_24">
    <path clip-path="url(#p9fc8c838cb)" d="M 17.488901 20.963915 
L 23.23274 47.428119 
L 28.691765 65.252257 
L 33.937611 76.734027 
L 37.800541 84.169867 
L 41.020575 89.090699 
L 45.072614 92.752559 
L 47.342774 95.431597 
L 50.802884 97.237286 
L 54.893099 98.768199 
L 58.160014 100.080407 
L 61.992567 101.283258 
L 65.094003 102.103383 
L 68.512695 102.759487 
L 70.091242 103.470264 
L 73.3534 103.907674 
L 76.284671 104.289033 
L 78.018405 104.454421 
L 81.182121 104.618452 
L 82.214255 105.014848 
L 86.467582 105.110527 
L 89.970353 105.219877 
L 89.591651 105.342896 
L 92.262426 105.452247 
L 93.764815 105.547586 
L 96.875298 105.575266 
L 96.575353 105.588593 
L 99.758755 105.602604 
L 101.537349 105.656937 
L 105.698374 105.698285 
L 107.430359 105.711954 
L 112.392975 105.821304 
L 114.412075 105.834973 
L 119.55253 105.862311 
L 120.787711 105.848642 
" style="fill:none;stroke:#ff0000;stroke-dasharray:1.000000,3.000000;stroke-dashoffset:0.0;"/>
   </g>
   <g id="line2d_25">
    <path clip-path="url(#p9fc8c838cb)" d="M 16.110868 20.799314 
L 21.850694 46.159549 
L 27.231523 62.534588 
L 33.024672 73.482759 
L 37.25356 80.35608 
L 39.973598 84.867415 
L 43.962314 88.21306 
L 45.941573 90.596257 
L 48.576655 92.239184 
L 51.797381 93.6158 
L 55.964737 95.043396 
L 59.336294 96.3473 
L 62.071059 97.220417 
L 64.764915 98.384084 
L 66.559639 99.468167 
L 69.204747 100.364698 
L 73.114485 100.992435 
L 75.672714 101.633019 
L 77.533386 102.216387 
L 78.641312 102.598614 
L 82.394881 102.966306 
L 85.556563 103.308614 
L 88.24644 103.586973 
L 91.435749 103.86704 
L 92.706897 104.16382 
L 96.279392 104.471851 
L 98.259872 104.700908 
L 101.581341 104.779082 
L 103.516402 104.919508 
L 107.565632 105.072054 
L 109.379918 105.119692 
L 114.568426 105.231908 
L 116.739944 105.321785 
L 122.213117 105.352025 
L 123.361904 105.365003 
" style="fill:none;stroke:#008000;stroke-linecap:round;"/>
   </g>
   <g id="line2d_26">
    <path clip-path="url(#p9fc8c838cb)" d="M 16.110868 23.001803 
L 21.850694 47.812278 
L 27.231523 63.947902 
L 33.024672 74.795181 
L 37.25356 81.540822 
L 39.973598 85.899181 
L 43.962314 89.149601 
L 45.941573 91.551401 
L 48.576655 93.048976 
L 51.797381 94.424675 
L 55.964737 95.787329 
L 59.336294 97.069006 
L 62.071059 97.878483 
L 64.764915 98.985438 
L 66.559639 100.037088 
L 69.204747 100.914363 
L 73.114485 101.480656 
L 75.672714 102.10159 
L 77.533386 102.695209 
L 78.641312 103.00517 
L 82.394881 103.342795 
L 85.556563 103.666587 
L 88.24644 103.922581 
L 91.435749 104.192407 
L 92.706897 104.475727 
L 96.279392 104.759047 
L 98.259872 104.961411 
L 101.581341 105.015378 
L 103.516402 105.17761 
L 107.565632 105.285203 
L 109.379918 105.339168 
L 114.568426 105.433607 
L 116.739944 105.501401 
L 122.213117 105.528046 
L 123.361904 105.541537 
" style="fill:none;stroke:#008000;stroke-dasharray:1.000000,3.000000;stroke-dashoffset:0.0;"/>
   </g>
   <g id="line2d_27">
    <path clip-path="url(#p9fc8c838cb)" d="M 16.110868 18.657624 
L 21.850694 44.358481 
L 27.231523 61.060786 
L 33.024672 72.136088 
L 37.25356 79.22005 
L 39.973598 83.87419 
L 43.962314 87.233895 
L 45.941573 89.689273 
L 48.576655 91.362205 
L 51.797381 92.819267 
L 55.964737 94.26215 
L 59.336294 95.65213 
L 62.071059 96.542838 
L 64.764915 97.716581 
L 66.559639 98.903481 
L 69.204747 99.794241 
L 73.114485 100.482299 
L 75.672714 101.11639 
L 77.533386 101.736987 
L 78.641312 102.182209 
L 82.394881 102.559959 
L 85.556563 102.937719 
L 88.24644 103.221039 
L 91.435749 103.531337 
L 92.706897 103.841298 
L 96.279392 104.165429 
L 98.259872 104.435254 
L 101.581341 104.5162 
L 103.516402 104.678091 
L 107.565632 104.839993 
L 109.379918 104.89396 
L 114.568426 105.001884 
L 116.739944 105.12297 
L 122.213117 105.15029 
L 123.361904 105.163781 
" style="fill:none;stroke:#008000;stroke-dasharray:1.000000,3.000000;stroke-dashoffset:0.0;"/>
   </g>
   <g id="line2d_28">
    <path clip-path="url(#p9fc8c838cb)" d="M 16.406803 23.020004 
L 22.273109 48.418435 
L 27.406154 64.883548 
L 33.84009 75.920589 
L 37.876488 82.828954 
L 40.833166 87.373862 
L 44.888322 90.833934 
L 46.807588 93.143482 
L 50.167093 94.859157 
L 53.897445 96.222493 
L 56.851292 97.651599 
L 60.092299 99.008405 
L 63.045904 99.817248 
L 65.96795 100.947401 
L 67.851502 101.883859 
L 71.455806 102.591463 
L 74.980604 103.123884 
L 77.50181 103.595863 
L 79.920405 104.001533 
L 81.150317 104.329156 
L 85.644996 104.444668 
L 89.088189 104.661743 
L 90.675934 104.863411 
L 93.297427 105.020949 
L 94.748283 105.12981 
L 97.539323 105.280022 
L 97.026051 105.348369 
L 100.327274 105.338237 
L 102.28975 105.459524 
L 106.498601 105.513341 
L 108.232438 105.510373 
L 113.383701 105.623619 
L 115.474465 105.663081 
L 120.756587 105.702894 
L 121.953497 105.7171 
" style="fill:none;stroke:#800080;stroke-linecap:round;"/>
   </g>
   <g id="line2d_29">
    <path clip-path="url(#p9fc8c838cb)" d="M 16.406803 25.187397 
L 22.273109 50.119312 
L 27.406154 66.322693 
L 33.84009 77.129224 
L 37.876488 83.941947 
L 40.833166 88.353987 
L 44.888322 91.686008 
L 46.807588 93.939022 
L 50.167093 95.639301 
L 53.897445 96.934093 
L 56.851292 98.270064 
L 60.092299 99.619192 
L 63.045904 100.360881 
L 65.96795 101.467499 
L 67.851502 102.3441 
L 71.455806 103.018664 
L 74.980604 103.504348 
L 77.50181 103.922581 
L 79.920405 104.313825 
L 81.150317 104.61064 
L 85.644996 104.718564 
L 89.088189 104.920938 
L 90.675934 105.123307 
L 93.297427 105.271712 
L 94.748283 105.339168 
L 97.539323 105.474081 
L 97.026051 105.528046 
L 100.327274 105.528046 
L 102.28975 105.635977 
L 106.498601 105.676451 
L 108.232438 105.676451 
L 113.383701 105.77089 
L 115.474465 105.797873 
L 120.756587 105.838346 
L 121.953497 105.851838 
" style="fill:none;stroke:#800080;stroke-dasharray:1.000000,3.000000;stroke-dashoffset:0.0;"/>
   </g>
   <g id="line2d_30">
    <path clip-path="url(#p9fc8c838cb)" d="M 16.406803 20.923468 
L 22.273109 46.745766 
L 27.406154 63.38122 
L 33.84009 74.754433 
L 37.876488 81.769858 
L 40.833166 86.383924 
L 44.888322 89.999572 
L 46.807588 92.32011 
L 50.167093 94.073628 
L 53.897445 95.436599 
L 56.851292 97.015038 
L 60.092299 98.377324 
L 63.045904 99.268084 
L 65.96795 100.427995 
L 67.851502 101.426352 
L 71.455806 102.182209 
L 74.980604 102.72186 
L 77.50181 103.234186 
L 79.920405 103.679397 
L 81.150317 104.030516 
L 85.644996 104.151934 
L 89.088189 104.394781 
L 90.675934 104.61064 
L 93.297427 104.772531 
L 94.748283 104.907444 
L 97.539323 105.069342 
L 97.026051 105.15029 
L 100.327274 105.123307 
L 102.28975 105.271712 
L 106.498601 105.339168 
L 108.232438 105.325339 
L 113.383701 105.46059 
L 115.474465 105.501063 
L 120.756587 105.555029 
L 121.953497 105.56852 
" style="fill:none;stroke:#800080;stroke-dasharray:1.000000,3.000000;stroke-dashoffset:0.0;"/>
   </g>
   <g id="patch_4">
    <path d="M 15.75 110.25 
L 113.4 110.25 
" style="fill:none;stroke:#262626;stroke-linecap:square;stroke-linejoin:miter;stroke-width:0.5;"/>
   </g>
   <g id="patch_5">
    <path d="M 15.75 12.6 
L 113.4 12.6 
" style="fill:none;"/>
   </g>
   <g id="patch_6">
    <path d="M 15.75 110.25 
L 15.75 12.6 
" style="fill:none;stroke:#262626;stroke-linecap:square;stroke-linejoin:miter;stroke-width:0.5;"/>
   </g>
   <g id="patch_7">
    <path d="M 113.4 110.25 
L 113.4 12.6 
" style="fill:none;"/>
   </g>
  </g>
  <g id="axes_2">
   <g id="patch_8">
    <path d="M 55.06 52.2 
L 106.9 52.2 
L 106.9 23.4 
L 55.06 23.4 
L 55.06 52.2 
z
" style="fill:none;"/>
   </g>
   <g id="matplotlib.axis_3">
    <g id="xtick_12">
     <g id="line2d_31">
      <g>
       <use style="fill:#1a1a1a;stroke:#1a1a1a;" x="55.06" xlink:href="#mb3aebb2ca9" y="52.2"/>
      </g>
     </g>
     <g id="text_9">
      <text style="fill:#262626;font-family:Arial;font-size:8.0px;font-style:normal;font-weight:400;text-anchor:middle;" transform="rotate(-0.000000, 55.060000, 64.926250)" x="55.06" y="64.92625">40</text>
     </g>
    </g>
    <g id="xtick_13">
     <g id="line2d_32">
      <g>
       <use style="fill:#1a1a1a;stroke:#1a1a1a;" x="80.98" xlink:href="#mb3aebb2ca9" y="52.2"/>
      </g>
     </g>
     <g id="text_10">
      <text style="fill:#262626;font-family:Arial;font-size:8.0px;font-style:normal;font-weight:400;text-anchor:middle;" transform="rotate(-0.000000, 80.980000, 64.926250)" x="80.98" y="64.92625">50</text>
     </g>
    </g>
    <g id="xtick_14">
     <g id="line2d_33">
      <g>
       <use style="fill:#1a1a1a;stroke:#1a1a1a;" x="106.9" xlink:href="#mb3aebb2ca9" y="52.2"/>
      </g>
     </g>
     <g id="text_11">
      <text style="fill:#262626;font-family:Arial;font-size:8.0px;font-style:normal;font-weight:400;text-anchor:middle;" transform="rotate(-0.000000, 106.900000, 64.926250)" x="106.9" y="64.92625">60</text>
     </g>
    </g>
    <g id="xtick_15">
     <g id="line2d_34">
      <g>
       <use style="fill:#1a1a1a;stroke:#1a1a1a;stroke-width:0.5;" x="68.02" xlink:href="#meab8c6bac8" y="52.2"/>
      </g>
     </g>
    </g>
    <g id="xtick_16">
     <g id="line2d_35">
      <g>
       <use style="fill:#1a1a1a;stroke:#1a1a1a;stroke-width:0.5;" x="93.94" xlink:href="#meab8c6bac8" y="52.2"/>
      </g>
     </g>
    </g>
   </g>
   <g id="matplotlib.axis_4">
    <g id="ytick_11">
     <g id="line2d_36">
      <g>
       <use style="fill:#1a1a1a;stroke:#1a1a1a;" x="55.06" xlink:href="#m59b52eb0d1" y="50.28"/>
      </g>
     </g>
     <g id="text_12">
      <text style="fill:#262626;font-family:Arial;font-size:8.0px;font-style:normal;font-weight:400;text-anchor:end;" transform="rotate(-0.000000, 50.060000, 52.348125)" x="50.06" y="52.348125">0</text>
     </g>
    </g>
    <g id="ytick_12">
     <g id="line2d_37">
      <g>
       <use style="fill:#1a1a1a;stroke:#1a1a1a;" x="55.06" xlink:href="#m59b52eb0d1" y="31.08"/>
      </g>
     </g>
     <g id="text_13">
      <text style="fill:#262626;font-family:Arial;font-size:8.0px;font-style:normal;font-weight:400;text-anchor:end;" transform="rotate(-0.000000, 50.060000, 33.148125)" x="50.06" y="33.148125">20</text>
     </g>
    </g>
    <g id="ytick_13">
     <g id="line2d_38">
      <g>
       <use style="fill:#1a1a1a;stroke:#1a1a1a;stroke-width:0.5;" x="55.06" xlink:href="#m76bb8fa8d3" y="45.48"/>
      </g>
     </g>
    </g>
    <g id="ytick_14">
     <g id="line2d_39">
      <g>
       <use style="fill:#1a1a1a;stroke:#1a1a1a;stroke-width:0.5;" x="55.06" xlink:href="#m76bb8fa8d3" y="40.68"/>
      </g>
     </g>
    </g>
    <g id="ytick_15">
     <g id="line2d_40">
      <g>
       <use style="fill:#1a1a1a;stroke:#1a1a1a;stroke-width:0.5;" x="55.06" xlink:href="#m76bb8fa8d3" y="35.88"/>
      </g>
     </g>
    </g>
    <g id="ytick_16">
     <g id="line2d_41">
      <g>
       <use style="fill:#1a1a1a;stroke:#1a1a1a;stroke-width:0.5;" x="55.06" xlink:href="#m76bb8fa8d3" y="26.28"/>
      </g>
     </g>
    </g>
   </g>
   <g id="PolyCollection_4">
    <path clip-path="url(#p7aaa51aa5e)" d="M 33.86589 -24.55604 
L 29.517324 -24.55604 
L 38.079776 -0.837524 
L 45.563605 15.131117 
L 53.166129 25.426459 
L 58.585515 31.867905 
L 63.302165 36.342923 
L 69.196146 39.464741 
L 72.355204 41.75813 
L 77.520671 43.216724 
L 83.110391 44.523487 
L 87.779969 45.700295 
L 93.318665 46.698341 
L 97.303859 47.364531 
L 102.195831 47.895057 
L 104.686801 48.425684 
L 108.979484 48.848741 
L 112.876199 49.086569 
L 115.437594 49.242897 
L 119.533972 49.351428 
L 123.726862 49.474712 
L 129.636881 49.559672 
L 134.524538 49.659272 
L 134.274566 49.741048 
L 137.870428 49.837276 
L 140.266537 49.902884 
L 144.584485 49.937874 
L 144.102121 49.939996 
L 148.361859 49.9524 
L 150.693855 49.991331 
L 156.593416 50.026118 
L 159.202938 50.041781 
L 166.203858 50.116914 
L 168.905195 50.127499 
L 175.866478 50.152307 
L 177.687876 50.137869 
L 187.325762 50.137869 
L 187.325762 50.137869 
L 185.45588 50.152307 
L 177.404195 50.127499 
L 174.341105 50.116914 
L 166.923611 50.041781 
L 164.213319 50.026118 
L 158.064499 49.991331 
L 155.211938 49.9524 
L 150.086712 49.939996 
L 150.644238 49.937874 
L 145.625413 49.902884 
L 143.60966 49.837276 
L 139.541989 49.741048 
L 140.193501 49.659272 
L 135.034702 49.559672 
L 128.599168 49.474712 
L 129.806839 49.351428 
L 124.904674 49.242897 
L 122.188854 49.086569 
L 117.551623 48.848741 
L 112.449083 48.425684 
L 110.037577 47.895057 
L 105.303386 47.364531 
L 100.167254 46.698341 
L 94.177997 45.700295 
L 89.549664 44.523487 
L 83.429155 43.216724 
L 78.071024 41.75813 
L 74.799519 39.464741 
L 68.917227 36.342923 
L 64.184896 31.867905 
L 58.280106 25.426459 
L 50.470171 15.131117 
L 42.246733 -0.837524 
L 33.86589 -24.55604 
z
" style="fill:#ff0000;fill-opacity:0.2;stroke:#ff0000;stroke-opacity:0.2;"/>
   </g>
   <g id="PolyCollection_5">
    <path clip-path="url(#p7aaa51aa5e)" d="M 31.237258 -26.4907 
L 29.015817 -26.4907 
L 37.47293 -3.019584 
L 44.926395 12.196102 
L 54.027302 22.395616 
L 59.916462 28.779752 
L 64.073272 32.979778 
L 70.071484 36.177288 
L 72.866949 38.31158 
L 77.654632 39.897064 
L 83.187179 41.156946 
L 87.504343 42.477606 
L 92.096259 43.731454 
L 96.317609 44.478919 
L 100.406457 45.523312 
L 103.265848 46.388709 
L 108.349997 47.042618 
L 113.308156 47.534637 
L 116.919357 47.970801 
L 120.461875 48.345687 
L 122.380176 48.648449 
L 128.541813 48.755196 
L 133.441633 48.955798 
L 135.848337 49.142163 
L 139.480001 49.287746 
L 141.647548 49.388347 
L 145.546014 49.52716 
L 144.902271 49.590321 
L 149.158147 49.580958 
L 152.190878 49.693041 
L 158.033771 49.742774 
L 160.442568 49.740031 
L 167.451453 49.844684 
L 170.365677 49.881151 
L 177.914294 49.917943 
L 179.245156 49.931071 
L 188.788402 49.931071 
L 188.788402 49.931071 
L 187.423273 49.917943 
L 179.223785 49.881151 
L 176.052584 49.844684 
L 167.949272 49.740031 
L 165.197158 49.742774 
L 158.919781 49.693041 
L 156.039091 49.580958 
L 150.868964 49.590321 
L 151.649247 49.52716 
L 147.384766 49.388347 
L 144.960922 49.287746 
L 141.237209 49.142163 
L 138.811265 48.955798 
L 133.70881 48.755196 
L 127.105832 48.648449 
L 125.133469 48.345687 
L 121.633459 47.970801 
L 117.859371 47.534637 
L 112.647041 47.042618 
L 107.276125 46.388709 
L 104.52079 45.523312 
L 99.96977 44.478919 
L 95.641661 43.731454 
L 90.822355 42.477606 
L 86.460706 41.156946 
L 81.035611 39.897064 
L 76.10404 38.31158 
L 73.450253 36.177288 
L 67.328966 32.979778 
L 62.936537 28.779752 
L 57.066558 22.395616 
L 47.364754 12.196102 
L 39.940987 -3.019584 
L 31.237258 -26.4907 
z
" style="fill:#800080;fill-opacity:0.2;stroke:#800080;stroke-opacity:0.2;"/>
   </g>
   <g id="PolyCollection_6">
    <path clip-path="url(#p7aaa51aa5e)" d="M 30.832239 -28.542877 
L 28.479662 -28.542877 
L 36.803339 -5.107059 
L 44.534575 10.025389 
L 52.682825 20.142777 
L 58.813346 26.494528 
L 62.718479 30.663528 
L 68.522168 33.755295 
L 71.507193 35.957647 
L 75.136965 37.475903 
L 79.886597 38.748057 
L 85.961967 40.067323 
L 90.73807 41.272282 
L 94.651498 42.079144 
L 98.522779 43.154509 
L 101.138314 44.156327 
L 105.002183 44.984827 
L 110.563572 45.564929 
L 114.303419 46.156904 
L 117.072498 46.696003 
L 118.457456 47.049226 
L 124.03568 47.389016 
L 128.476722 47.705349 
L 132.267839 47.962585 
L 136.89165 48.2214 
L 138.724952 48.495659 
L 143.7145 48.780316 
L 146.65528 48.991992 
L 150.895007 49.064233 
L 153.821861 49.194003 
L 159.290126 49.334973 
L 161.876035 49.378996 
L 169.277186 49.482697 
L 172.157015 49.565754 
L 180.109485 49.593699 
L 181.10053 49.605692 
L 191.307404 49.605692 
L 191.307404 49.605692 
L 189.352842 49.593699 
L 180.949144 49.565754 
L 177.540787 49.482697 
L 169.788154 49.378996 
L 166.850562 49.334973 
L 161.058285 49.194003 
L 158.222481 49.064233 
L 152.792559 48.991992 
L 149.614793 48.780316 
L 144.334584 48.495659 
L 142.432717 48.2214 
L 137.785443 47.962585 
L 133.645701 47.705349 
L 128.943664 47.389016 
L 123.318415 47.049226 
L 121.849172 46.696003 
L 119.002852 46.156904 
L 115.240609 45.564929 
L 109.33392 44.984827 
L 105.584579 44.156327 
L 102.938238 43.154509 
L 98.919342 42.079144 
L 94.734111 41.272282 
L 89.753434 40.067323 
L 83.654568 38.748057 
L 78.965038 37.475903 
L 75.343566 35.957647 
L 72.001558 33.755295 
L 66.40324 30.663528 
L 62.31565 26.494528 
L 55.891449 20.142777 
L 47.242839 10.025389 
L 39.320948 -5.107059 
L 30.832239 -28.542877 
z
" style="fill:#008000;fill-opacity:0.2;stroke:#008000;stroke-opacity:0.2;"/>
   </g>
   <g id="line2d_42">
    <path clip-path="url(#p7aaa51aa5e)" d="M 31.678636 -24.55604 
M 40.006669 -1 
L 40.064111 -0.837524 
L 48.033784 15.131117 
L 55.692236 25.426459 
L 61.331758 31.867905 
L 66.03271 36.342923 
L 71.948314 39.464741 
L 75.262539 41.75813 
L 80.313979 43.216724 
L 86.285316 44.523487 
L 91.054711 45.700295 
L 96.649886 46.698341 
L 101.177696 47.364531 
L 106.168671 47.895057 
L 108.473205 48.425684 
L 113.235654 48.848741 
L 117.51504 49.086569 
L 120.046132 49.242897 
L 124.664866 49.351428 
L 126.171687 49.474712 
L 127 49.486045 
" style="fill:none;stroke:#ff0000;stroke-linecap:round;"/>
   </g>
   <g id="line2d_43">
    <path clip-path="url(#p7aaa51aa5e)" d="M 31.678636 -20.65765 
M 38.928491 -1 
L 40.064111 2.079182 
L 48.033784 17.791584 
L 55.692236 27.847598 
L 61.331758 33.858912 
L 66.03271 38.052672 
L 71.948314 40.932634 
L 75.262539 42.954946 
L 80.313979 44.41895 
L 86.285316 45.531788 
L 91.054711 46.642109 
L 96.649886 47.50105 
L 101.177696 48.107366 
L 106.168671 48.511574 
L 108.473205 48.966317 
L 113.235654 49.370527 
L 117.51504 49.572632 
L 120.046132 49.673684 
L 124.664866 49.774737 
L 126.171687 49.673684 
L 127 49.682109 
" style="fill:none;stroke:#ff0000;stroke-dasharray:1.000000,3.000000;stroke-dashoffset:0.0;"/>
   </g>
   <g id="line2d_44">
    <path clip-path="url(#p7aaa51aa5e)" d="M 31.678636 -28.390766 
M 41.484073 -1 
L 48.033784 12.536832 
L 55.692236 23.147328 
L 61.331758 30.018912 
L 66.03271 34.566336 
L 71.948314 37.950322 
L 75.262539 40.426066 
L 80.313979 42.094733 
L 86.285316 43.509475 
L 91.054711 44.722109 
L 96.649886 45.833683 
L 101.177696 46.591574 
L 106.168671 47.197891 
L 108.473205 47.854733 
L 113.235654 48.25895 
L 117.51504 48.61137 
L 120.046132 48.764208 
L 124.664866 48.915792 
L 126.171687 49.282109 
L 127 49.293903 
" style="fill:none;stroke:#ff0000;stroke-dasharray:1.000000,3.000000;stroke-dashoffset:0.0;"/>
   </g>
   <g id="line2d_45">
    <path clip-path="url(#p7aaa51aa5e)" d="M 29.666835 -26.4907 
M 39.089117 -1 
L 45.901966 12.196102 
L 54.359429 22.395616 
L 60.533216 28.779752 
L 64.504221 32.979778 
L 70.327378 36.177288 
L 73.216913 38.31158 
L 77.06389 39.897064 
L 81.765854 41.156946 
L 87.84981 42.477606 
L 92.771971 43.731454 
L 96.764477 44.478919 
L 100.697259 45.523312 
L 103.31739 46.388709 
L 107.179004 47.042618 
L 112.88686 47.534637 
L 116.62164 47.970801 
L 119.338049 48.345687 
L 120.955518 48.648449 
L 126.435384 48.755196 
L 127 48.779734 
" style="fill:none;stroke:#800080;stroke-linecap:round;"/>
   </g>
   <g id="line2d_46">
    <path clip-path="url(#p7aaa51aa5e)" d="M 29.666835 -24.487776 
M 38.281362 -1 
L 45.901966 13.52604 
L 54.359429 23.512536 
L 60.533216 29.808288 
L 64.504221 33.885528 
L 70.327378 36.964704 
L 73.216913 39.046752 
L 77.06389 40.618008 
L 81.765854 41.814547 
L 87.84981 43.049141 
L 92.771971 44.295893 
L 96.764477 44.981299 
L 100.697259 46.003944 
L 103.31739 46.814026 
L 107.179004 47.437402 
L 112.88686 47.88623 
L 116.62164 48.272726 
L 119.338049 48.634282 
L 120.955518 48.908573 
L 126.435384 49.008307 
L 127 49.031184 
" style="fill:none;stroke:#800080;stroke-dasharray:1.000000,3.000000;stroke-dashoffset:0.0;"/>
   </g>
   <g id="line2d_47">
    <path clip-path="url(#p7aaa51aa5e)" d="M 29.666835 -28.428144 
M 39.8683 -1 
L 45.901966 10.807776 
L 54.359429 21.317952 
L 60.533216 27.801024 
L 64.504221 32.06496 
L 70.327378 35.40624 
L 73.216913 37.550688 
L 77.06389 39.171144 
L 81.765854 40.430688 
L 87.84981 41.88935 
L 92.771971 43.148261 
L 96.764477 43.971427 
L 100.697259 45.04332 
L 103.31739 45.965919 
L 107.179004 46.664419 
L 112.88686 47.16312 
L 116.62164 47.636568 
L 119.338049 48.047996 
L 120.955518 48.37247 
L 126.435384 48.484675 
L 127 48.512127 
" style="fill:none;stroke:#800080;stroke-dasharray:1.000000,3.000000;stroke-dashoffset:0.0;"/>
   </g>
   <g id="line2d_48">
    <path clip-path="url(#p7aaa51aa5e)" d="M 29.666835 -28.542877 
M 40.178496 -1 
L 45.901966 10.025389 
L 54.359429 20.142777 
L 60.533216 26.494528 
L 64.504221 30.663528 
L 70.327378 33.755295 
L 73.216913 35.957647 
L 77.06389 37.475903 
L 81.765854 38.748057 
L 87.84981 40.067323 
L 92.771971 41.272282 
L 96.764477 42.079144 
L 100.697259 43.154509 
L 103.31739 44.156327 
L 107.179004 44.984827 
L 112.88686 45.564929 
L 116.62164 46.156904 
L 119.338049 46.696003 
L 120.955518 47.049226 
L 126.435384 47.389016 
L 127 47.427711 
" style="fill:none;stroke:#008000;stroke-linecap:round;"/>
   </g>
   <g id="line2d_49">
    <path clip-path="url(#p7aaa51aa5e)" d="M 29.666835 -26.50752 
M 39.405511 -1 
L 45.901966 11.331456 
L 54.359429 21.355608 
L 60.533216 27.589368 
L 64.504221 31.617 
L 70.327378 34.620768 
L 73.216913 36.840312 
L 77.06389 38.224246 
L 81.765854 39.495552 
L 87.84981 40.754803 
L 92.771971 41.939222 
L 96.764477 42.687274 
L 100.697259 43.71023 
L 103.31739 44.682077 
L 107.179004 45.492782 
L 112.88686 46.016102 
L 116.62164 46.589918 
L 119.338049 47.138491 
L 120.955518 47.424931 
L 126.435384 47.736936 
L 127 47.773538 
" style="fill:none;stroke:#008000;stroke-dasharray:1.000000,3.000000;stroke-dashoffset:0.0;"/>
   </g>
   <g id="line2d_50">
    <path clip-path="url(#p7aaa51aa5e)" d="M 29.666835 -30.522048 
M 40.983808 -1 
L 45.901966 8.663424 
L 54.359429 18.898296 
L 60.533216 25.444704 
L 64.504221 29.745672 
L 70.327378 32.850432 
L 73.216913 35.119488 
L 77.06389 36.665472 
L 81.765854 38.011968 
L 87.84981 39.34536 
L 92.771971 40.629864 
L 96.764477 41.452982 
L 100.697259 42.537658 
L 103.31739 43.634492 
L 107.179004 44.457658 
L 112.88686 45.093504 
L 116.62164 45.679478 
L 119.338049 46.252982 
L 120.955518 46.664419 
L 126.435384 47.013504 
L 127 47.056206 
" style="fill:none;stroke:#008000;stroke-dasharray:1.000000,3.000000;stroke-dashoffset:0.0;"/>
   </g>
   <g id="patch_9">
    <path d="M 55.06 52.2 
L 106.9 52.2 
" style="fill:none;stroke:#262626;stroke-linecap:square;stroke-linejoin:miter;stroke-width:0.3;"/>
   </g>
   <g id="patch_10">
    <path d="M 55.06 23.4 
L 106.9 23.4 
" style="fill:none;stroke:#262626;stroke-linecap:square;stroke-linejoin:miter;stroke-width:0.3;"/>
   </g>
   <g id="patch_11">
    <path d="M 55.06 52.2 
L 55.06 23.4 
" style="fill:none;stroke:#262626;stroke-linecap:square;stroke-linejoin:miter;stroke-width:0.3;"/>
   </g>
   <g id="patch_12">
    <path d="M 106.9 52.2 
L 106.9 23.4 
" style="fill:none;stroke:#262626;stroke-linecap:square;stroke-linejoin:miter;stroke-width:0.3;"/>
   </g>
  </g>
 </g>
 <defs>
  <clipPath id="p9fc8c838cb">
   <rect height="97.65" width="97.65" x="15.75" y="12.6"/>
  </clipPath>
  <clipPath id="p7aaa51aa5e">
   <rect height="28.8" width="51.84" x="55.06" y="23.4"/>
  </clipPath>
 </defs>
</svg>
