<?xml version="1.0" encoding="utf-8" standalone="no"?>
<!DOCTYPE svg PUBLIC "-//W3C//DTD SVG 1.1//EN"
  "http://www.w3.org/Graphics/SVG/1.1/DTD/svg11.dtd">
<!-- Created with matplotlib (http://matplotlib.org/) -->
<svg height="126pt" version="1.1" viewBox="0 0 126 126" width="126pt" xmlns="http://www.w3.org/2000/svg" xmlns:xlink="http://www.w3.org/1999/xlink">
 <defs>
  <style type="text/css">
*{stroke-linecap:butt;stroke-linejoin:round;stroke-miterlimit:100000;}
  </style>
 </defs>
 <g id="figure_1">
  <g id="patch_1">
   <path d="M 0 126 
L 126 126 
L 126 0 
L 0 0 
L 0 126 
z
" style="fill:none;"/>
  </g>
  <g id="axes_1">
   <g id="patch_2">
    <path d="M 15.75 110.25 
L 113.4 110.25 
L 113.4 12.6 
L 15.75 12.6 
L 15.75 110.25 
z
" style="fill:none;"/>
   </g>
   <g id="matplotlib.axis_1">
    <g id="xtick_1">
     <g id="line2d_1">
      <defs>
       <path d="M 0 0 
L 0 2 
" id="mcc8b4018a0" style="stroke:#1a1a1a;"/>
      </defs>
      <g>
       <use style="fill:#1a1a1a;stroke:#1a1a1a;" x="15.75" xlink:href="#mcc8b4018a0" y="110.25"/>
      </g>
     </g>
     <g id="text_1">
      <text style="fill:#262626;font-family:Arial;font-size:10.0px;font-style:normal;font-weight:400;text-anchor:middle;" transform="rotate(-0.000000, 15.750000, 124.407813)" x="15.75" y="124.4078125">25</text>
     </g>
    </g>
    <g id="xtick_2">
     <g id="line2d_2">
      <g>
       <use style="fill:#1a1a1a;stroke:#1a1a1a;" x="64.575" xlink:href="#mcc8b4018a0" y="110.25"/>
      </g>
     </g>
     <g id="text_2">
      <text style="fill:#262626;font-family:Arial;font-size:10.0px;font-style:normal;font-weight:400;text-anchor:middle;" transform="rotate(-0.000000, 64.575000, 124.407813)" x="64.575" y="124.4078125">50</text>
     </g>
    </g>
    <g id="xtick_3">
     <g id="line2d_3">
      <g>
       <use style="fill:#1a1a1a;stroke:#1a1a1a;" x="113.4" xlink:href="#mcc8b4018a0" y="110.25"/>
      </g>
     </g>
     <g id="text_3">
      <text style="fill:#262626;font-family:Arial;font-size:10.0px;font-style:normal;font-weight:400;text-anchor:middle;" transform="rotate(-0.000000, 113.400000, 124.407813)" x="113.4" y="124.4078125">75</text>
     </g>
    </g>
    <g id="xtick_4">
     <g id="line2d_4">
      <defs>
       <path d="M 0 0 
L 0 2 
" id="mf10103e8cd" style="stroke:#1a1a1a;stroke-width:0.5;"/>
      </defs>
      <g>
       <use style="fill:#1a1a1a;stroke:#1a1a1a;stroke-width:0.5;" x="25.515" xlink:href="#mf10103e8cd" y="110.25"/>
      </g>
     </g>
    </g>
    <g id="xtick_5">
     <g id="line2d_5">
      <g>
       <use style="fill:#1a1a1a;stroke:#1a1a1a;stroke-width:0.5;" x="35.28" xlink:href="#mf10103e8cd" y="110.25"/>
      </g>
     </g>
    </g>
    <g id="xtick_6">
     <g id="line2d_6">
      <g>
       <use style="fill:#1a1a1a;stroke:#1a1a1a;stroke-width:0.5;" x="45.045" xlink:href="#mf10103e8cd" y="110.25"/>
      </g>
     </g>
    </g>
    <g id="xtick_7">
     <g id="line2d_7">
      <g>
       <use style="fill:#1a1a1a;stroke:#1a1a1a;stroke-width:0.5;" x="54.81" xlink:href="#mf10103e8cd" y="110.25"/>
      </g>
     </g>
    </g>
    <g id="xtick_8">
     <g id="line2d_8">
      <g>
       <use style="fill:#1a1a1a;stroke:#1a1a1a;stroke-width:0.5;" x="74.34" xlink:href="#mf10103e8cd" y="110.25"/>
      </g>
     </g>
    </g>
    <g id="xtick_9">
     <g id="line2d_9">
      <g>
       <use style="fill:#1a1a1a;stroke:#1a1a1a;stroke-width:0.5;" x="84.105" xlink:href="#mf10103e8cd" y="110.25"/>
      </g>
     </g>
    </g>
    <g id="xtick_10">
     <g id="line2d_10">
      <g>
       <use style="fill:#1a1a1a;stroke:#1a1a1a;stroke-width:0.5;" x="93.87" xlink:href="#mf10103e8cd" y="110.25"/>
      </g>
     </g>
    </g>
    <g id="xtick_11">
     <g id="line2d_11">
      <g>
       <use style="fill:#1a1a1a;stroke:#1a1a1a;stroke-width:0.5;" x="103.635" xlink:href="#mf10103e8cd" y="110.25"/>
      </g>
     </g>
    </g>
    <g id="text_4">
     <text style="fill:#262626;font-family:Arial;font-size:12.0px;font-style:normal;font-weight:400;text-anchor:middle;" transform="rotate(-0.000000, 64.575000, 136.330938)" x="64.575" y="136.3309375">Detection latency (ms)</text>
    </g>
   </g>
   <g id="matplotlib.axis_2">
    <g id="ytick_1">
     <g id="line2d_12">
      <defs>
       <path d="M 0 0 
L -2 0 
" id="maf1f68fa54" style="stroke:#1a1a1a;"/>
      </defs>
      <g>
       <use style="fill:#1a1a1a;stroke:#1a1a1a;" x="15.75" xlink:href="#maf1f68fa54" y="106.094680851"/>
      </g>
     </g>
     <g id="text_5">
      <text style="fill:#262626;font-family:Arial;font-size:10.0px;font-style:normal;font-weight:400;text-anchor:end;" transform="rotate(-0.000000, 8.750000, 108.679837)" x="8.75" y="108.679837101">0</text>
     </g>
    </g>
    <g id="ytick_2">
     <g id="line2d_13">
      <g>
       <use style="fill:#1a1a1a;stroke:#1a1a1a;" x="15.75" xlink:href="#maf1f68fa54" y="64.5414893617"/>
      </g>
     </g>
     <g id="text_6">
      <text style="fill:#262626;font-family:Arial;font-size:10.0px;font-style:normal;font-weight:400;text-anchor:end;" transform="rotate(-0.000000, 8.750000, 67.126646)" x="8.75" y="67.1266456117">40</text>
     </g>
    </g>
    <g id="ytick_3">
     <g id="line2d_14">
      <g>
       <use style="fill:#1a1a1a;stroke:#1a1a1a;" x="15.75" xlink:href="#maf1f68fa54" y="22.9882978723"/>
      </g>
     </g>
     <g id="text_7">
      <text style="fill:#262626;font-family:Arial;font-size:10.0px;font-style:normal;font-weight:400;text-anchor:end;" transform="rotate(-0.000000, 8.750000, 25.573454)" x="8.75" y="25.5734541223">80</text>
     </g>
    </g>
    <g id="ytick_4">
     <g id="line2d_15">
      <defs>
       <path d="M 0 0 
L -2 0 
" id="m2c8e499a60" style="stroke:#1a1a1a;stroke-width:0.5;"/>
      </defs>
      <g>
       <use style="fill:#1a1a1a;stroke:#1a1a1a;stroke-width:0.5;" x="15.75" xlink:href="#m2c8e499a60" y="95.7063829787"/>
      </g>
     </g>
    </g>
    <g id="ytick_5">
     <g id="line2d_16">
      <g>
       <use style="fill:#1a1a1a;stroke:#1a1a1a;stroke-width:0.5;" x="15.75" xlink:href="#m2c8e499a60" y="85.3180851064"/>
      </g>
     </g>
    </g>
    <g id="ytick_6">
     <g id="line2d_17">
      <g>
       <use style="fill:#1a1a1a;stroke:#1a1a1a;stroke-width:0.5;" x="15.75" xlink:href="#m2c8e499a60" y="74.929787234"/>
      </g>
     </g>
    </g>
    <g id="ytick_7">
     <g id="line2d_18">
      <g>
       <use style="fill:#1a1a1a;stroke:#1a1a1a;stroke-width:0.5;" x="15.75" xlink:href="#m2c8e499a60" y="54.1531914894"/>
      </g>
     </g>
    </g>
    <g id="ytick_8">
     <g id="line2d_19">
      <g>
       <use style="fill:#1a1a1a;stroke:#1a1a1a;stroke-width:0.5;" x="15.75" xlink:href="#m2c8e499a60" y="43.764893617"/>
      </g>
     </g>
    </g>
    <g id="ytick_9">
     <g id="line2d_20">
      <g>
       <use style="fill:#1a1a1a;stroke:#1a1a1a;stroke-width:0.5;" x="15.75" xlink:href="#m2c8e499a60" y="33.3765957447"/>
      </g>
     </g>
    </g>
    <g id="ytick_10">
     <g id="line2d_21">
      <g>
       <use style="fill:#1a1a1a;stroke:#1a1a1a;stroke-width:0.5;" x="15.75" xlink:href="#m2c8e499a60" y="12.6"/>
      </g>
     </g>
    </g>
    <g id="text_8">
     <text style="fill:#262626;font-family:Arial;font-size:12.0px;font-style:normal;font-weight:400;text-anchor:middle;" transform="rotate(-90.000000, -6.097500, 61.425000)" x="-6.0975" y="61.425">FSR (per min)</text>
    </g>
   </g>
   <g id="PolyCollection_1">
    <defs>
     <path d="M 28.332871 -100.692515 
L 26.641296 -100.692515 
L 32.951937 -74.889788 
L 38.862399 -58.04702 
L 44.541027 -46.80814 
L 48.804862 -39.734283 
L 52.278638 -35.127798 
L 56.656724 -31.582273 
L 59.117531 -29.148813 
L 62.899492 -27.488968 
L 67.347397 -26.257258 
L 70.962436 -24.926366 
L 75.099354 -23.778623 
L 78.45848 -23.120511 
L 82.02076 -22.418754 
L 83.831451 -21.925529 
L 87.267886 -21.48609 
L 90.361905 -21.207383 
L 92.318875 -21.043494 
L 95.65513 -20.906464 
L 99.491999 -20.906464 
L 99.491999 -20.906464 
L 95.753621 -21.043494 
L 93.798927 -21.207383 
L 90.407278 -21.48609 
L 86.844231 -21.925529 
L 85.025132 -22.418754 
L 81.251404 -23.120511 
L 77.84729 -23.778623 
L 73.443862 -24.926366 
L 69.812623 -26.257258 
L 65.179736 -27.488968 
L 61.401846 -29.148813 
L 58.816056 -31.582273 
L 54.467678 -35.127798 
L 50.895906 -39.734283 
L 46.5954 -46.80814 
L 40.599215 -58.04702 
L 34.632675 -74.889788 
L 28.332871 -100.692515 
z
" id="m5ed2d2d69a" style="stroke:#1a1a1a;stroke-opacity:0.2;stroke-width:0.3;"/>
    </defs>
    <g clip-path="url(#pe628e173ce)">
     <use style="fill:#1a1a1a;fill-opacity:0.2;stroke:#1a1a1a;stroke-opacity:0.2;stroke-width:0.3;" x="0.0" xlink:href="#m5ed2d2d69a" y="126.0"/>
    </g>
   </g>
   <g id="patch_3">
    <path clip-path="url(#pe628e173ce)" d="M 45.045 108.17234 
L 84.105 108.17234 
L 84.105 77.007447 
L 45.045 77.007447 
L 45.045 108.17234 
z
" style="fill:none;opacity:0.5;stroke:#1a1a1a;stroke-dasharray:6.000000,6.000000;stroke-dashoffset:0.0;stroke-linejoin:miter;"/>
   </g>
   <g id="line2d_22">
    <path clip-path="url(#pe628e173ce)" d="M 27.487084 25.307485 
L 33.792306 51.110212 
L 39.730807 67.95298 
L 45.568214 79.19186 
L 49.850384 86.265717 
L 53.373158 90.872202 
L 57.73639 94.417727 
L 60.259689 96.851187 
L 64.039614 98.511032 
L 68.58001 99.742742 
L 72.203149 101.073634 
L 76.473322 102.221377 
L 79.854942 102.879489 
L 83.522946 103.581246 
L 85.337841 104.074471 
L 88.837582 104.51391 
L 92.080416 104.792617 
L 94.036248 104.956506 
L 97.573564 105.093536 
" style="fill:none;stroke:#1a1a1a;stroke-linecap:round;"/>
   </g>
   <g id="line2d_23">
    <path clip-path="url(#pe628e173ce)" d="M 27.487084 27.394427 
L 33.792306 52.870912 
L 39.730807 69.438572 
L 45.568214 80.400899 
L 49.850384 87.265676 
L 53.373158 91.787618 
L 57.73639 95.234131 
L 60.259689 97.569424 
L 64.039614 99.17099 
L 68.58001 100.320637 
L 72.203149 101.598333 
L 76.473322 102.667755 
L 79.854942 103.308058 
L 83.522946 103.950503 
L 85.337841 104.407109 
L 88.837582 104.809933 
L 92.080416 105.067297 
L 94.036248 105.205294 
L 97.573564 105.329629 
" style="fill:none;stroke:#1a1a1a;stroke-dasharray:1.000000,3.000000;stroke-dashoffset:0.0;"/>
   </g>
   <g id="line2d_24">
    <path clip-path="url(#pe628e173ce)" d="M 27.487084 23.220543 
L 33.792306 49.349512 
L 39.730807 66.467388 
L 45.568214 77.982821 
L 49.850384 85.265759 
L 53.373158 89.956786 
L 57.73639 93.601322 
L 60.259689 96.13295 
L 64.039614 97.851075 
L 68.58001 99.164848 
L 72.203149 100.548934 
L 76.473322 101.774999 
L 79.854942 102.45092 
L 83.522946 103.211989 
L 85.337841 103.741834 
L 88.837582 104.217887 
L 92.080416 104.517938 
L 94.036248 104.707719 
L 97.573564 104.857443 
" style="fill:none;stroke:#1a1a1a;stroke-dasharray:1.000000,3.000000;stroke-dashoffset:0.0;"/>
   </g>
   <g id="patch_4">
    <path d="M 15.75 110.25 
L 15.75 12.6 
" style="fill:none;stroke:#262626;stroke-linecap:square;stroke-linejoin:miter;stroke-width:0.5;"/>
   </g>
   <g id="patch_5">
    <path d="M 113.4 110.25 
L 113.4 12.6 
" style="fill:none;"/>
   </g>
   <g id="patch_6">
    <path d="M 15.75 110.25 
L 113.4 110.25 
" style="fill:none;stroke:#262626;stroke-linecap:square;stroke-linejoin:miter;stroke-width:0.5;"/>
   </g>
   <g id="patch_7">
    <path d="M 15.75 12.6 
L 113.4 12.6 
" style="fill:none;"/>
   </g>
  </g>
  <g id="axes_2">
   <g id="patch_8">
    <path d="M 51.86 52.2 
L 103.7 52.2 
L 103.7 23.4 
L 51.86 23.4 
L 51.86 52.2 
z
" style="fill:none;"/>
   </g>
   <g id="matplotlib.axis_3">
    <g id="xtick_12">
     <g id="line2d_25">
      <g>
       <use style="fill:#1a1a1a;stroke:#1a1a1a;" x="51.86" xlink:href="#mcc8b4018a0" y="52.2"/>
      </g>
     </g>
     <g id="text_9">
      <text style="fill:#262626;font-family:Arial;font-size:10.0px;font-style:normal;font-weight:400;text-anchor:middle;" transform="rotate(-0.000000, 51.860000, 66.357813)" x="51.86" y="66.3578125">40</text>
     </g>
    </g>
    <g id="xtick_13">
     <g id="line2d_26">
      <g>
       <use style="fill:#1a1a1a;stroke:#1a1a1a;" x="77.78" xlink:href="#mcc8b4018a0" y="52.2"/>
      </g>
     </g>
     <g id="text_10">
      <text style="fill:#262626;font-family:Arial;font-size:10.0px;font-style:normal;font-weight:400;text-anchor:middle;" transform="rotate(-0.000000, 77.780000, 66.357813)" x="77.78" y="66.3578125">50</text>
     </g>
    </g>
    <g id="xtick_14">
     <g id="line2d_27">
      <g>
       <use style="fill:#1a1a1a;stroke:#1a1a1a;" x="103.7" xlink:href="#mcc8b4018a0" y="52.2"/>
      </g>
     </g>
     <g id="text_11">
      <text style="fill:#262626;font-family:Arial;font-size:10.0px;font-style:normal;font-weight:400;text-anchor:middle;" transform="rotate(-0.000000, 103.700000, 66.357813)" x="103.7" y="66.3578125">60</text>
     </g>
    </g>
    <g id="xtick_15">
     <g id="line2d_28">
      <g>
       <use style="fill:#1a1a1a;stroke:#1a1a1a;stroke-width:0.5;" x="64.82" xlink:href="#mf10103e8cd" y="52.2"/>
      </g>
     </g>
    </g>
    <g id="xtick_16">
     <g id="line2d_29">
      <g>
       <use style="fill:#1a1a1a;stroke:#1a1a1a;stroke-width:0.5;" x="90.74" xlink:href="#mf10103e8cd" y="52.2"/>
      </g>
     </g>
    </g>
   </g>
   <g id="matplotlib.axis_4">
    <g id="ytick_11">
     <g id="line2d_30">
      <g>
       <use style="fill:#1a1a1a;stroke:#1a1a1a;" x="51.86" xlink:href="#maf1f68fa54" y="50.28"/>
      </g>
     </g>
     <g id="text_12">
      <text style="fill:#262626;font-family:Arial;font-size:10.0px;font-style:normal;font-weight:400;text-anchor:end;" transform="rotate(-0.000000, 46.860000, 52.865156)" x="46.86" y="52.86515625">0</text>
     </g>
    </g>
    <g id="ytick_12">
     <g id="line2d_31">
      <g>
       <use style="fill:#1a1a1a;stroke:#1a1a1a;" x="51.86" xlink:href="#maf1f68fa54" y="31.08"/>
      </g>
     </g>
     <g id="text_13">
      <text style="fill:#262626;font-family:Arial;font-size:10.0px;font-style:normal;font-weight:400;text-anchor:end;" transform="rotate(-0.000000, 46.860000, 33.665156)" x="46.86" y="33.66515625">20</text>
     </g>
    </g>
    <g id="ytick_13">
     <g id="line2d_32">
      <g>
       <use style="fill:#1a1a1a;stroke:#1a1a1a;stroke-width:0.5;" x="51.86" xlink:href="#m2c8e499a60" y="45.48"/>
      </g>
     </g>
    </g>
    <g id="ytick_14">
     <g id="line2d_33">
      <g>
       <use style="fill:#1a1a1a;stroke:#1a1a1a;stroke-width:0.5;" x="51.86" xlink:href="#m2c8e499a60" y="40.68"/>
      </g>
     </g>
    </g>
    <g id="ytick_15">
     <g id="line2d_34">
      <g>
       <use style="fill:#1a1a1a;stroke:#1a1a1a;stroke-width:0.5;" x="51.86" xlink:href="#m2c8e499a60" y="35.88"/>
      </g>
     </g>
    </g>
    <g id="ytick_16">
     <g id="line2d_35">
      <g>
       <use style="fill:#1a1a1a;stroke:#1a1a1a;stroke-width:0.5;" x="51.86" xlink:href="#m2c8e499a60" y="26.28"/>
      </g>
     </g>
    </g>
   </g>
   <g id="PolyCollection_2">
    <defs>
     <path d="M 29.679847 -150.3768 
L 27.434808 -150.3768 
L 35.81022 -126.532068 
L 43.65452 -110.967385 
L 51.191133 -100.581347 
L 56.850047 -94.044277 
L 61.460404 -89.787348 
L 67.270951 -86.510869 
L 70.536908 -84.262067 
L 75.556284 -82.728177 
L 81.459494 -81.589933 
L 86.257334 -80.360034 
L 91.747806 -79.299385 
L 96.206001 -78.691213 
L 100.93382 -78.042707 
L 103.336949 -77.586909 
L 107.897747 -77.180817 
L 112.004095 -76.923259 
L 114.601364 -76.771806 
L 119.029204 -76.645175 
L 124.121455 -76.645175 
L 124.121455 -76.645175 
L 119.15992 -76.771806 
L 116.565673 -76.923259 
L 112.064313 -77.180817 
L 107.335477 -77.586909 
L 104.921189 -78.042707 
L 99.912739 -78.691213 
L 95.394837 -79.299385 
L 89.550655 -80.360034 
L 84.731316 -81.589933 
L 78.582599 -82.728177 
L 73.568626 -84.262067 
L 70.136794 -86.510869 
L 64.365673 -89.787348 
L 59.625258 -94.044277 
L 53.917674 -100.581347 
L 45.959603 -110.967385 
L 38.040877 -126.532068 
L 29.679847 -150.3768 
z
" id="m5e6f908c1e" style="stroke:#1a1a1a;stroke-opacity:0.2;stroke-width:0.3;"/>
    </defs>
    <g clip-path="url(#p30bd8d0122)">
     <use style="fill:#1a1a1a;fill-opacity:0.2;stroke:#1a1a1a;stroke-opacity:0.2;stroke-width:0.3;" x="0.0" xlink:href="#m5e6f908c1e" y="126.0"/>
    </g>
   </g>
   <g id="line2d_36">
    <path clip-path="url(#p30bd8d0122)" d="M 28.557328 -24.3768 
M 36.76133 -1 
L 36.925549 -0.532068 
L 44.807061 15.032615 
L 52.554403 25.418653 
L 58.237652 31.955723 
L 62.913039 36.212652 
L 68.703872 39.489131 
L 72.052767 41.737933 
L 77.069441 43.271823 
L 83.095405 44.410067 
L 87.903995 45.639966 
L 93.571321 46.700615 
L 98.05937 47.308787 
L 102.927504 47.957293 
L 105.336213 48.413091 
L 109.98103 48.819183 
L 114.284884 49.076741 
L 116.880642 49.228194 
L 121.57533 49.354825 
" style="fill:none;stroke:#1a1a1a;stroke-linecap:round;"/>
   </g>
   <g id="line2d_37">
    <path clip-path="url(#p30bd8d0122)" d="M 28.557328 -22.448222 
M 36.180893 -1 
L 36.925549 1.095024 
L 44.807061 16.405476 
L 52.554403 26.535946 
L 58.237652 32.879801 
L 62.913039 37.058604 
L 68.703872 40.243584 
L 72.052767 42.401667 
L 77.069441 43.881701 
L 83.095405 44.94411 
L 87.903995 46.12485 
L 93.571321 47.11312 
L 98.05937 47.704835 
L 102.927504 48.298529 
L 105.336213 48.720486 
L 109.98103 49.092743 
L 114.284884 49.330577 
L 116.880642 49.458102 
L 121.57533 49.573003 
" style="fill:none;stroke:#1a1a1a;stroke-dasharray:1.000000,3.000000;stroke-dashoffset:0.0;"/>
   </g>
   <g id="line2d_38">
    <path clip-path="url(#p30bd8d0122)" d="M 28.557328 -26.305378 
M 37.503082 -1 
L 44.807061 13.659755 
L 52.554403 24.30136 
L 58.237652 31.031644 
L 62.913039 35.366701 
L 68.703872 38.734678 
L 72.052767 41.074198 
L 77.069441 42.661945 
L 83.095405 43.876025 
L 87.903995 45.155083 
L 93.571321 46.288109 
L 98.05937 46.91274 
L 102.927504 47.616056 
L 105.336213 48.105695 
L 109.98103 48.545624 
L 114.284884 48.822905 
L 116.880642 48.998285 
L 121.57533 49.136648 
" style="fill:none;stroke:#1a1a1a;stroke-dasharray:1.000000,3.000000;stroke-dashoffset:0.0;"/>
   </g>
   <g id="patch_9">
    <path d="M 51.86 52.2 
L 51.86 23.4 
" style="fill:none;stroke:#262626;stroke-linecap:square;stroke-linejoin:miter;stroke-width:0.3;"/>
   </g>
   <g id="patch_10">
    <path d="M 103.7 52.2 
L 103.7 23.4 
" style="fill:none;stroke:#262626;stroke-linecap:square;stroke-linejoin:miter;stroke-width:0.3;"/>
   </g>
   <g id="patch_11">
    <path d="M 51.86 52.2 
L 103.7 52.2 
" style="fill:none;stroke:#262626;stroke-linecap:square;stroke-linejoin:miter;stroke-width:0.3;"/>
   </g>
   <g id="patch_12">
    <path d="M 51.86 23.4 
L 103.7 23.4 
" style="fill:none;stroke:#262626;stroke-linecap:square;stroke-linejoin:miter;stroke-width:0.3;"/>
   </g>
  </g>
 </g>
 <defs>
  <clipPath id="pe628e173ce">
   <rect height="97.65" width="97.65" x="15.75" y="12.6"/>
  </clipPath>
  <clipPath id="p30bd8d0122">
   <rect height="28.8" width="51.84" x="51.86" y="23.4"/>
  </clipPath>
 </defs>
</svg>
