<?xml version="1.0" encoding="utf-8" standalone="no"?>
<!DOCTYPE svg PUBLIC "-//W3C//DTD SVG 1.1//EN"
  "http://www.w3.org/Graphics/SVG/1.1/DTD/svg11.dtd">
<!-- Created with matplotlib (http://matplotlib.org/) -->
<svg height="126pt" version="1.1" viewBox="0 0 126 126" width="126pt" xmlns="http://www.w3.org/2000/svg" xmlns:xlink="http://www.w3.org/1999/xlink">
 <defs>
  <style type="text/css">
*{stroke-linecap:butt;stroke-linejoin:round;stroke-miterlimit:100000;}
  </style>
 </defs>
 <g id="figure_1">
  <g id="patch_1">
   <path d="M 0 126 
L 126 126 
L 126 0 
L 0 0 
L 0 126 
z
" style="fill:none;"/>
  </g>
  <g id="axes_1">
   <g id="patch_2">
    <path d="M 15.75 110.25 
L 113.4 110.25 
L 113.4 12.6 
L 15.75 12.6 
L 15.75 110.25 
z
" style="fill:none;"/>
   </g>
   <g id="matplotlib.axis_1">
    <g id="xtick_1">
     <g id="line2d_1">
      <defs>
       <path d="M 0 0 
L 0 2 
" id="m80cdc722a9" style="stroke:#1a1a1a;"/>
      </defs>
      <g>
       <use style="fill:#1a1a1a;stroke:#1a1a1a;" x="33.5045454545" xlink:href="#m80cdc722a9" y="110.25"/>
      </g>
     </g>
     <g id="text_1">
      <text style="fill:#262626;font-family:Arial;font-size:8.0px;font-style:normal;font-weight:400;text-anchor:middle;" transform="rotate(-0.000000, 33.504545, 122.976250)" x="33.5045454545" y="122.97625">40</text>
     </g>
    </g>
    <g id="xtick_2">
     <g id="line2d_2">
      <g>
       <use style="fill:#1a1a1a;stroke:#1a1a1a;" x="69.0136363636" xlink:href="#m80cdc722a9" y="110.25"/>
      </g>
     </g>
     <g id="text_2">
      <text style="fill:#262626;font-family:Arial;font-size:8.0px;font-style:normal;font-weight:400;text-anchor:middle;" transform="rotate(-0.000000, 69.013636, 122.976250)" x="69.0136363636" y="122.97625">60</text>
     </g>
    </g>
    <g id="xtick_3">
     <g id="line2d_3">
      <g>
       <use style="fill:#1a1a1a;stroke:#1a1a1a;" x="104.522727273" xlink:href="#m80cdc722a9" y="110.25"/>
      </g>
     </g>
     <g id="text_3">
      <text style="fill:#262626;font-family:Arial;font-size:8.0px;font-style:normal;font-weight:400;text-anchor:middle;" transform="rotate(-0.000000, 104.522727, 122.976250)" x="104.522727273" y="122.97625">80</text>
     </g>
    </g>
    <g id="xtick_4">
     <g id="line2d_4">
      <defs>
       <path d="M 0 0 
L 0 2 
" id="m90d38d887a" style="stroke:#1a1a1a;stroke-width:0.5;"/>
      </defs>
      <g>
       <use style="fill:#1a1a1a;stroke:#1a1a1a;stroke-width:0.5;" x="24.6272727273" xlink:href="#m90d38d887a" y="110.25"/>
      </g>
     </g>
    </g>
    <g id="xtick_5">
     <g id="line2d_5">
      <g>
       <use style="fill:#1a1a1a;stroke:#1a1a1a;stroke-width:0.5;" x="42.3818181818" xlink:href="#m90d38d887a" y="110.25"/>
      </g>
     </g>
    </g>
    <g id="xtick_6">
     <g id="line2d_6">
      <g>
       <use style="fill:#1a1a1a;stroke:#1a1a1a;stroke-width:0.5;" x="51.2590909091" xlink:href="#m90d38d887a" y="110.25"/>
      </g>
     </g>
    </g>
    <g id="xtick_7">
     <g id="line2d_7">
      <g>
       <use style="fill:#1a1a1a;stroke:#1a1a1a;stroke-width:0.5;" x="60.1363636364" xlink:href="#m90d38d887a" y="110.25"/>
      </g>
     </g>
    </g>
    <g id="xtick_8">
     <g id="line2d_8">
      <g>
       <use style="fill:#1a1a1a;stroke:#1a1a1a;stroke-width:0.5;" x="77.8909090909" xlink:href="#m90d38d887a" y="110.25"/>
      </g>
     </g>
    </g>
    <g id="xtick_9">
     <g id="line2d_9">
      <g>
       <use style="fill:#1a1a1a;stroke:#1a1a1a;stroke-width:0.5;" x="86.7681818182" xlink:href="#m90d38d887a" y="110.25"/>
      </g>
     </g>
    </g>
    <g id="xtick_10">
     <g id="line2d_10">
      <g>
       <use style="fill:#1a1a1a;stroke:#1a1a1a;stroke-width:0.5;" x="95.6454545455" xlink:href="#m90d38d887a" y="110.25"/>
      </g>
     </g>
    </g>
    <g id="xtick_11">
     <g id="line2d_11">
      <g>
       <use style="fill:#1a1a1a;stroke:#1a1a1a;stroke-width:0.5;" x="113.4" xlink:href="#m90d38d887a" y="110.25"/>
      </g>
     </g>
    </g>
    <g id="text_4">
     <text style="fill:#262626;font-family:Arial;font-size:9.6px;font-style:normal;font-weight:400;text-anchor:middle;" transform="rotate(-0.000000, 64.575000, 132.754750)" x="64.575" y="132.75475">Detection latency (ms)</text>
    </g>
   </g>
   <g id="matplotlib.axis_2">
    <g id="ytick_1">
     <g id="line2d_12">
      <defs>
       <path d="M 0 0 
L -2 0 
" id="md7ef2c4b06" style="stroke:#1a1a1a;"/>
      </defs>
      <g>
       <use style="fill:#1a1a1a;stroke:#1a1a1a;" x="15.75" xlink:href="#md7ef2c4b06" y="106.18125"/>
      </g>
     </g>
     <g id="text_5">
      <text style="fill:#262626;font-family:Arial;font-size:8.0px;font-style:normal;font-weight:400;text-anchor:end;" transform="rotate(-0.000000, 8.750000, 108.249375)" x="8.75" y="108.249375">80</text>
     </g>
    </g>
    <g id="ytick_2">
     <g id="line2d_13">
      <g>
       <use style="fill:#1a1a1a;stroke:#1a1a1a;" x="15.75" xlink:href="#md7ef2c4b06" y="65.49375"/>
      </g>
     </g>
     <g id="text_6">
      <text style="fill:#262626;font-family:Arial;font-size:8.0px;font-style:normal;font-weight:400;text-anchor:end;" transform="rotate(-0.000000, 8.750000, 67.561875)" x="8.75" y="67.561875">90</text>
     </g>
    </g>
    <g id="ytick_3">
     <g id="line2d_14">
      <g>
       <use style="fill:#1a1a1a;stroke:#1a1a1a;" x="15.75" xlink:href="#md7ef2c4b06" y="24.80625"/>
      </g>
     </g>
     <g id="text_7">
      <text style="fill:#262626;font-family:Arial;font-size:8.0px;font-style:normal;font-weight:400;text-anchor:end;" transform="rotate(-0.000000, 8.750000, 26.874375)" x="8.75" y="26.874375">100</text>
     </g>
    </g>
    <g id="ytick_4">
     <g id="line2d_15">
      <defs>
       <path d="M 0 0 
L -2 0 
" id="mde4e52c981" style="stroke:#1a1a1a;stroke-width:0.5;"/>
      </defs>
      <g>
       <use style="fill:#1a1a1a;stroke:#1a1a1a;stroke-width:0.5;" x="15.75" xlink:href="#mde4e52c981" y="85.8375"/>
      </g>
     </g>
    </g>
    <g id="ytick_5">
     <g id="line2d_16">
      <g>
       <use style="fill:#1a1a1a;stroke:#1a1a1a;stroke-width:0.5;" x="15.75" xlink:href="#mde4e52c981" y="45.15"/>
      </g>
     </g>
    </g>
    <g id="text_8">
     <text style="fill:#262626;font-family:Arial;font-size:9.6px;font-style:normal;font-weight:400;text-anchor:middle;" transform="rotate(-90.000000, -7.816750, 61.425000)" x="-7.81675" y="61.425">TPR (%)</text>
    </g>
   </g>
   <g id="PolyCollection_1">
    <path clip-path="url(#p962f8f426f)" d="M 18.987115 25.520344 
L 16.008457 25.520344 
L 21.873521 25.772066 
L 26.999755 25.381883 
L 32.207292 25.350296 
L 35.919434 25.792417 
L 39.15022 25.306072 
L 43.187448 25.4042 
L 45.351324 25.873506 
L 48.889538 26.594004 
L 52.718355 28.763747 
L 55.916898 32.306321 
L 59.710765 36.879488 
L 62.440522 42.106258 
L 65.791399 50.803984 
L 67.497651 61.3871 
L 70.43803 73.047312 
L 73.107182 79.555783 
L 74.861673 92.475126 
L 77.667588 103.101876 
L 80.539612 111.472007 
L 84.587826 120.435715 
L 87.935747 126.872987 
L 87.764523 138.289134 
L 90.227597 148.704436 
L 91.868872 159.435678 
L 94.826557 168.263641 
L 94.49615 178.403096 
L 97.413963 191.444442 
L 99.011321 200.756033 
L 103.052371 207.931775 
L 104.839828 217.007233 
L 109.635282 223.33844 
L 111.485629 233.284222 
L 116.253932 242.012376 
L 117.501544 253.838352 
L 124.103252 253.838352 
L 124.103252 253.838352 
L 122.82243 242.012376 
L 117.30723 233.284222 
L 115.209091 223.33844 
L 110.128294 217.007233 
L 108.271813 207.931775 
L 104.060026 200.756033 
L 102.106094 191.444442 
L 98.595443 178.403096 
L 98.977335 168.263641 
L 95.539566 159.435678 
L 94.158827 148.704436 
L 91.372575 138.289134 
L 91.818844 126.872987 
L 88.285197 120.435715 
L 83.877018 111.472007 
L 84.704243 103.101876 
L 81.346383 92.475126 
L 79.486115 79.555783 
L 76.309729 73.047312 
L 72.814618 61.3871 
L 71.162797 50.803984 
L 67.919996 42.106258 
L 64.401875 36.879488 
L 60.299386 32.306321 
L 57.129094 28.763747 
L 52.9367 26.594004 
L 49.266516 25.873506 
L 47.025617 25.4042 
L 42.996396 25.306072 
L 39.754869 25.792417 
L 35.710237 25.350296 
L 30.360628 25.381883 
L 24.727781 25.772066 
L 18.987115 25.520344 
z
" style="fill:#ff0000;fill-opacity:0.2;stroke:#ff0000;stroke-opacity:0.2;"/>
   </g>
   <g id="PolyCollection_2">
    <path clip-path="url(#p962f8f426f)" d="M 16.909141 25.905879 
L 15.297685 25.905879 
L 20.999194 26.231995 
L 26.294895 25.663414 
L 31.876241 25.623248 
L 36.075492 25.594957 
L 38.75041 25.572739 
L 42.72579 25.140826 
L 44.770457 25.135539 
L 47.256759 25.141334 
L 50.510138 25.125726 
L 54.671612 25.11797 
L 57.943122 25.112284 
L 60.623721 25.113048 
L 63.275452 25.11157 
L 65.067027 25.098651 
L 67.71368 25.875416 
L 71.52309 26.10822 
L 74.084792 27.377856 
L 75.981541 30.84201 
L 76.930202 35.149512 
L 80.751144 39.271254 
L 83.793146 43.200528 
L 86.389966 49.054931 
L 89.557159 58.859171 
L 90.812925 66.278058 
L 94.230639 72.577413 
L 96.244999 79.716526 
L 99.149105 95.821177 
L 101.153927 105.831434 
L 104.89955 113.631068 
L 106.670832 125.540901 
L 111.740434 134.620745 
L 113.713044 147.78976 
L 119.160285 161.175677 
L 119.839125 177.367631 
L 126.830577 177.367631 
L 126.830577 177.367631 
L 125.491751 161.175677 
L 119.73543 147.78976 
L 117.400792 134.620745 
L 112.090434 125.540901 
L 110.078258 113.631068 
L 106.110694 105.831434 
L 104.16824 95.821177 
L 100.44888 79.716526 
L 98.272191 72.577413 
L 94.655381 66.278058 
L 93.35265 58.859171 
L 90.169385 49.054931 
L 87.333766 43.200528 
L 84.11299 39.271254 
L 80.259836 35.149512 
L 79.253442 30.84201 
L 77.303784 27.377856 
L 74.726743 26.10822 
L 70.68081 25.875416 
L 68.112606 25.098651 
L 66.29993 25.11157 
L 63.547087 25.113048 
L 60.68031 25.112284 
L 57.268672 25.11797 
L 53.091103 25.125726 
L 49.878892 25.141334 
L 47.398276 25.135539 
L 45.109085 25.140826 
L 41.274378 25.572739 
L 38.474482 25.594957 
L 34.074067 25.623248 
L 28.149988 25.663414 
L 22.723693 26.231995 
L 16.909141 25.905879 
z
" style="fill:#008000;fill-opacity:0.2;stroke:#008000;stroke-opacity:0.2;"/>
   </g>
   <g id="PolyCollection_3">
    <path clip-path="url(#p962f8f426f)" d="M 17.186569 25.724043 
L 15.664938 25.724043 
L 21.457847 25.996813 
L 26.563282 25.521241 
L 32.797173 25.476549 
L 36.831099 25.453121 
L 39.678409 25.436684 
L 43.787033 25.090155 
L 45.701856 25.085436 
L 48.981298 25.079217 
L 52.770953 25.063387 
L 55.728101 25.071458 
L 58.873447 25.372829 
L 61.764966 26.01459 
L 64.565723 28.391417 
L 66.524334 29.690386 
L 70.006848 35.330134 
L 73.403062 38.023919 
L 75.876643 43.161298 
L 78.303179 50.794191 
L 79.617166 56.144245 
L 83.837732 66.708501 
L 87.193985 73.641628 
L 88.842516 82.745631 
L 91.330115 94.632497 
L 92.81483 106.467196 
L 95.48518 115.748649 
L 95.044232 127.538603 
L 97.9594 144.000433 
L 100.036744 152.887134 
L 104.038978 161.10032 
L 105.688943 172.245081 
L 110.489852 179.574309 
L 112.486023 190.96063 
L 117.656635 201.667726 
L 118.568242 215.168973 
L 125.105124 215.168973 
L 125.105124 215.168973 
L 124.170045 201.667726 
L 118.553603 190.96063 
L 116.38141 179.574309 
L 110.830846 172.245081 
L 108.945717 161.10032 
L 104.645873 152.887134 
L 102.672673 144.000433 
L 99.131267 127.538603 
L 99.665741 115.748649 
L 96.744678 106.467196 
L 95.084406 94.632497 
L 92.533757 82.745631 
L 90.872047 73.641628 
L 87.376994 66.708501 
L 82.854121 56.144245 
L 81.503102 50.794191 
L 79.105684 43.161298 
L 76.520529 38.023919 
L 72.950214 35.330134 
L 69.271273 29.690386 
L 67.383938 28.391417 
L 64.266604 26.01459 
L 61.301958 25.372829 
L 58.000856 25.071458 
L 55.013236 25.063387 
L 51.297183 25.079217 
L 47.919181 25.085436 
L 46.101404 25.090155 
L 41.908478 25.436684 
L 38.899775 25.453121 
L 34.878987 25.476549 
L 28.233496 25.521241 
L 23.148403 25.996813 
L 17.186569 25.724043 
z
" style="fill:#800080;fill-opacity:0.2;stroke:#800080;stroke-opacity:0.2;"/>
   </g>
   <g id="patch_3">
    <path clip-path="url(#p962f8f426f)" d="M 42.381818 45.15 
L 92.094545 45.15 
L 92.094545 22.771875 
L 42.381818 22.771875 
L 42.381818 45.15 
z
" style="fill:none;opacity:0.5;stroke:#1a1a1a;stroke-dasharray:6.000000,6.000000;stroke-dashoffset:0.0;stroke-linejoin:miter;"/>
   </g>
   <g id="line2d_17">
    <path clip-path="url(#p962f8f426f)" d="M 17.488901 25.520344 
L 23.23274 25.772066 
L 28.691765 25.381883 
L 33.937611 25.350296 
L 37.800541 25.792417 
L 41.020575 25.306072 
L 45.072614 25.4042 
L 47.342774 25.873506 
L 50.802884 26.594004 
L 54.893099 28.763747 
L 58.160014 32.306321 
L 61.992567 36.879488 
L 65.094003 42.106258 
L 68.512695 50.803984 
L 70.091242 61.3871 
L 73.3534 73.047312 
L 76.284671 79.555783 
L 78.018405 92.475126 
L 81.182121 103.101876 
L 82.214255 111.472007 
L 86.467582 120.435715 
L 89.970353 126.872987 
L 89.96614 127 
" style="fill:none;stroke:#ff0000;stroke-linecap:round;"/>
   </g>
   <g id="line2d_18">
    <path clip-path="url(#p962f8f426f)" d="M 17.488901 26.455497 
L 23.23274 26.834054 
L 28.691765 26.197864 
L 33.937611 26.164114 
L 37.800541 26.725551 
L 41.020575 25.9455 
L 45.072614 26.101364 
L 47.342774 26.784242 
L 50.802884 27.753276 
L 54.893099 30.478108 
L 58.160014 34.608276 
L 61.992567 39.551258 
L 65.094003 45.275857 
L 68.512695 54.639413 
L 70.091242 65.778796 
L 73.3534 78.336892 
L 76.284671 84.955029 
L 78.018405 98.279565 
L 81.182121 109.024757 
L 82.214255 114.550689 
L 86.467582 123.771677 
L 88.236552 127 
" style="fill:none;stroke:#ff0000;stroke-dasharray:1.000000,3.000000;stroke-dashoffset:0.0;"/>
   </g>
   <g id="line2d_19">
    <path clip-path="url(#p962f8f426f)" d="M 17.488901 24.80625 
L 23.23274 25.030001 
L 28.691765 24.80625 
L 33.937611 24.80625 
L 37.800541 24.997888 
L 41.020575 24.80625 
L 45.072614 24.80625 
L 47.342774 25.159418 
L 50.802884 25.523154 
L 54.893099 27.334541 
L 58.160014 30.368628 
L 61.992567 34.279348 
L 65.094003 38.969426 
L 68.512695 47.019265 
L 70.091242 57.048805 
L 73.3534 67.768008 
L 76.284671 74.399979 
L 78.018405 86.989587 
L 81.182121 96.285714 
L 82.214255 108.197305 
L 86.467582 117.260761 
L 89.970353 123.750418 
L 89.859937 127 
" style="fill:none;stroke:#ff0000;stroke-dasharray:1.000000,3.000000;stroke-dashoffset:0.0;"/>
   </g>
   <g id="line2d_20">
    <path clip-path="url(#p962f8f426f)" d="M 16.110868 25.905879 
L 21.850694 26.231995 
L 27.231523 25.663414 
L 33.024672 25.623248 
L 37.25356 25.594957 
L 39.973598 25.572739 
L 43.962314 25.140826 
L 45.941573 25.135539 
L 48.576655 25.141334 
L 51.797381 25.125726 
L 55.964737 25.11797 
L 59.336294 25.112284 
L 62.071059 25.113048 
L 64.764915 25.11157 
L 66.559639 25.098651 
L 69.204747 25.875416 
L 73.114485 26.10822 
L 75.672714 27.377856 
L 77.533386 30.84201 
L 78.641312 35.149512 
L 82.394881 39.271254 
L 85.556563 43.200528 
L 88.24644 49.054931 
L 91.435749 58.859171 
L 92.706897 66.278058 
L 96.279392 72.577413 
L 98.259872 79.716526 
L 101.581341 95.821177 
L 103.516402 105.831434 
L 107.565632 113.631068 
L 109.379918 125.540901 
L 110.213693 127 
" style="fill:none;stroke:#008000;stroke-linecap:round;"/>
   </g>
   <g id="line2d_21">
    <path clip-path="url(#p962f8f426f)" d="M 16.110868 26.615348 
L 21.850694 26.990945 
L 27.231523 26.158499 
L 33.024672 26.135541 
L 37.25356 26.085496 
L 39.973598 26.057808 
L 43.962314 25.477197 
L 45.941573 25.462244 
L 48.576655 25.470311 
L 51.797381 25.444657 
L 55.964737 25.378835 
L 59.336294 25.415789 
L 62.071059 25.412117 
L 64.764915 25.409686 
L 66.559639 25.35071 
L 69.204747 26.373777 
L 73.114485 26.652639 
L 75.672714 28.184655 
L 77.533386 32.036948 
L 78.641312 36.637504 
L 82.394881 41.071902 
L 85.556563 45.198774 
L 88.24644 51.181037 
L 91.435749 61.363694 
L 92.706897 69.152258 
L 96.279392 75.443726 
L 98.259872 83.209718 
L 101.581341 99.249677 
L 103.516402 109.352271 
L 107.565632 117.431812 
L 109.000102 127 
" style="fill:none;stroke:#008000;stroke-dasharray:1.000000,3.000000;stroke-dashoffset:0.0;"/>
   </g>
   <g id="line2d_22">
    <path clip-path="url(#p962f8f426f)" d="M 16.110868 25.306289 
L 21.850694 25.567086 
L 27.231523 25.193992 
L 33.024672 25.179741 
L 37.25356 25.160618 
L 39.973598 25.147537 
L 43.962314 24.873791 
L 45.941573 24.872978 
L 48.576655 24.871757 
L 51.797381 24.870129 
L 55.964737 24.868909 
L 59.336294 24.868095 
L 62.071059 24.867678 
L 64.764915 24.866864 
L 66.559639 24.86605 
L 69.204747 25.4022 
L 73.114485 25.579699 
L 75.672714 26.664835 
L 77.533386 29.709023 
L 78.641312 33.677203 
L 82.394881 37.626546 
L 85.556563 41.332383 
L 88.24644 46.944176 
L 91.435749 56.19569 
L 92.706897 63.305525 
L 96.279392 69.639745 
L 98.259872 76.585875 
L 101.581341 92.446503 
L 103.516402 102.184141 
L 107.565632 109.79669 
L 109.379918 121.513297 
L 112.450088 127 
" style="fill:none;stroke:#008000;stroke-dasharray:1.000000,3.000000;stroke-dashoffset:0.0;"/>
   </g>
   <g id="line2d_23">
    <path clip-path="url(#p962f8f426f)" d="M 16.406803 25.724043 
L 22.273109 25.996813 
L 27.406154 25.521241 
L 33.84009 25.476549 
L 37.876488 25.453121 
L 40.833166 25.436684 
L 44.888322 25.090155 
L 46.807588 25.085436 
L 50.167093 25.079217 
L 53.897445 25.063387 
L 56.851292 25.071458 
L 60.092299 25.372829 
L 63.045904 26.01459 
L 65.96795 28.391417 
L 67.851502 29.690386 
L 71.455806 35.330134 
L 74.980604 38.023919 
L 77.50181 43.161298 
L 79.920405 50.794191 
L 81.150317 56.144245 
L 85.644996 66.708501 
L 89.088189 73.641628 
L 90.675934 82.745631 
L 93.297427 94.632497 
L 94.748283 106.467196 
L 97.539323 115.748649 
L 97.049499 127 
" style="fill:none;stroke:#800080;stroke-linecap:round;"/>
   </g>
   <g id="line2d_24">
    <path clip-path="url(#p962f8f426f)" d="M 16.406803 26.289157 
L 22.273109 26.628724 
L 27.406154 25.914059 
L 33.84009 25.908891 
L 37.876488 25.874338 
L 40.833166 25.85081 
L 44.888322 25.370209 
L 46.807588 25.353507 
L 50.167093 25.348228 
L 53.897445 25.328271 
L 56.851292 25.323002 
L 60.092299 25.715656 
L 63.045904 26.519204 
L 65.96795 29.163088 
L 67.851502 30.663277 
L 71.455806 36.712481 
L 74.980604 39.593888 
L 77.50181 45.01269 
L 79.920405 53.01587 
L 81.150317 58.415875 
L 85.644996 69.249105 
L 89.088189 76.222088 
L 90.675934 85.870396 
L 93.297427 97.775558 
L 94.748283 109.816261 
L 97.539323 119.209123 
L 97.208441 127 
" style="fill:none;stroke:#800080;stroke-dasharray:1.000000,3.000000;stroke-dashoffset:0.0;"/>
   </g>
   <g id="line2d_25">
    <path clip-path="url(#p962f8f426f)" d="M 16.406803 25.220845 
L 22.273109 25.496686 
L 27.406154 25.127254 
L 33.84009 25.109352 
L 37.876488 25.107236 
L 40.833166 25.091459 
L 44.888322 24.862399 
L 46.807588 24.861982 
L 50.167093 24.860761 
L 53.897445 24.858737 
L 56.851292 24.858737 
L 60.092299 25.058909 
L 63.045904 25.569954 
L 65.96795 27.6298 
L 67.851502 28.75901 
L 71.455806 33.968648 
L 74.980604 36.540027 
L 77.50181 41.310056 
L 79.920405 48.753071 
L 81.150317 53.946027 
L 85.644996 64.144929 
L 89.088189 70.742539 
L 90.675934 79.722067 
L 93.297427 91.473899 
L 94.748283 103.139341 
L 97.539323 112.141511 
L 97.026051 123.874799 
L 97.651155 127 
" style="fill:none;stroke:#800080;stroke-dasharray:1.000000,3.000000;stroke-dashoffset:0.0;"/>
   </g>
   <g id="patch_4">
    <path d="M 15.75 110.25 
L 113.4 110.25 
" style="fill:none;stroke:#262626;stroke-linecap:square;stroke-linejoin:miter;stroke-width:0.5;"/>
   </g>
   <g id="patch_5">
    <path d="M 15.75 12.6 
L 113.4 12.6 
" style="fill:none;"/>
   </g>
   <g id="patch_6">
    <path d="M 15.75 110.25 
L 15.75 12.6 
" style="fill:none;stroke:#262626;stroke-linecap:square;stroke-linejoin:miter;stroke-width:0.5;"/>
   </g>
   <g id="patch_7">
    <path d="M 113.4 110.25 
L 113.4 12.6 
" style="fill:none;"/>
   </g>
  </g>
  <g id="axes_2">
   <g id="patch_8">
    <path d="M 37.42 93.78 
L 89.26 93.78 
L 89.26 64.98 
L 37.42 64.98 
L 37.42 93.78 
z
" style="fill:none;"/>
   </g>
   <g id="matplotlib.axis_3">
    <g id="xtick_12">
     <g id="line2d_26">
      <g>
       <use style="fill:#1a1a1a;stroke:#1a1a1a;" x="37.42" xlink:href="#m80cdc722a9" y="93.78"/>
      </g>
     </g>
     <g id="text_9">
      <text style="fill:#262626;font-family:Arial;font-size:8.0px;font-style:normal;font-weight:400;text-anchor:middle;" transform="rotate(-0.000000, 37.420000, 106.506250)" x="37.42" y="106.50625">40</text>
     </g>
    </g>
    <g id="xtick_13">
     <g id="line2d_27">
      <g>
       <use style="fill:#1a1a1a;stroke:#1a1a1a;" x="53.1290909091" xlink:href="#m80cdc722a9" y="93.78"/>
      </g>
     </g>
     <g id="text_10">
      <text style="fill:#262626;font-family:Arial;font-size:8.0px;font-style:normal;font-weight:400;text-anchor:middle;" transform="rotate(-0.000000, 53.129091, 106.506250)" x="53.1290909091" y="106.50625">50</text>
     </g>
    </g>
    <g id="xtick_14">
     <g id="line2d_28">
      <g>
       <use style="fill:#1a1a1a;stroke:#1a1a1a;" x="68.8381818182" xlink:href="#m80cdc722a9" y="93.78"/>
      </g>
     </g>
     <g id="text_11">
      <text style="fill:#262626;font-family:Arial;font-size:8.0px;font-style:normal;font-weight:400;text-anchor:middle;" transform="rotate(-0.000000, 68.838182, 106.506250)" x="68.8381818182" y="106.50625">60</text>
     </g>
    </g>
    <g id="xtick_15">
     <g id="line2d_29">
      <g>
       <use style="fill:#1a1a1a;stroke:#1a1a1a;" x="84.5472727273" xlink:href="#m80cdc722a9" y="93.78"/>
      </g>
     </g>
     <g id="text_12">
      <text style="fill:#262626;font-family:Arial;font-size:8.0px;font-style:normal;font-weight:400;text-anchor:middle;" transform="rotate(-0.000000, 84.547273, 106.506250)" x="84.5472727273" y="106.50625">70</text>
     </g>
    </g>
    <g id="xtick_16">
     <g id="line2d_30">
      <g>
       <use style="fill:#1a1a1a;stroke:#1a1a1a;stroke-width:0.5;" x="45.2745454545" xlink:href="#m90d38d887a" y="93.78"/>
      </g>
     </g>
    </g>
    <g id="xtick_17">
     <g id="line2d_31">
      <g>
       <use style="fill:#1a1a1a;stroke:#1a1a1a;stroke-width:0.5;" x="60.9836363636" xlink:href="#m90d38d887a" y="93.78"/>
      </g>
     </g>
    </g>
    <g id="xtick_18">
     <g id="line2d_32">
      <g>
       <use style="fill:#1a1a1a;stroke:#1a1a1a;stroke-width:0.5;" x="76.6927272727" xlink:href="#m90d38d887a" y="93.78"/>
      </g>
     </g>
    </g>
   </g>
   <g id="matplotlib.axis_4">
    <g id="ytick_6">
     <g id="line2d_33">
      <g>
       <use style="fill:#1a1a1a;stroke:#1a1a1a;" x="37.42" xlink:href="#md7ef2c4b06" y="93.78"/>
      </g>
     </g>
     <g id="text_13">
      <text style="fill:#262626;font-family:Arial;font-size:8.0px;font-style:normal;font-weight:400;text-anchor:end;" transform="rotate(-0.000000, 32.420000, 95.848125)" x="32.42" y="95.848125">95</text>
     </g>
    </g>
    <g id="ytick_7">
     <g id="line2d_34">
      <g>
       <use style="fill:#1a1a1a;stroke:#1a1a1a;" x="37.42" xlink:href="#md7ef2c4b06" y="67.5981818182"/>
      </g>
     </g>
     <g id="text_14">
      <text style="fill:#262626;font-family:Arial;font-size:8.0px;font-style:normal;font-weight:400;text-anchor:end;" transform="rotate(-0.000000, 32.420000, 69.666307)" x="32.42" y="69.6663068182">100</text>
     </g>
    </g>
    <g id="ytick_8">
     <g id="line2d_35">
      <g>
       <use style="fill:#1a1a1a;stroke:#1a1a1a;stroke-width:0.5;" x="37.42" xlink:href="#mde4e52c981" y="88.5436363636"/>
      </g>
     </g>
    </g>
    <g id="ytick_9">
     <g id="line2d_36">
      <g>
       <use style="fill:#1a1a1a;stroke:#1a1a1a;stroke-width:0.5;" x="37.42" xlink:href="#mde4e52c981" y="83.3072727273"/>
      </g>
     </g>
    </g>
    <g id="ytick_10">
     <g id="line2d_37">
      <g>
       <use style="fill:#1a1a1a;stroke:#1a1a1a;stroke-width:0.5;" x="37.42" xlink:href="#mde4e52c981" y="78.0709090909"/>
      </g>
     </g>
    </g>
    <g id="ytick_11">
     <g id="line2d_38">
      <g>
       <use style="fill:#1a1a1a;stroke:#1a1a1a;stroke-width:0.5;" x="37.42" xlink:href="#mde4e52c981" y="72.8345454545"/>
      </g>
     </g>
    </g>
   </g>
   <g id="PolyCollection_4">
    <path clip-path="url(#p7e54ed88c9)" d="M 24.575085 68.5172 
L 21.93959 68.5172 
L 27.128955 68.841159 
L 31.664609 68.339004 
L 36.2722 68.298353 
L 39.556676 68.86735 
L 42.415251 68.241439 
L 45.987361 68.367727 
L 47.901942 68.971709 
L 51.032528 69.89897 
L 54.420237 72.691366 
L 57.250285 77.250557 
L 60.60707 83.13609 
L 63.022339 89.862792 
L 65.98717 101.056514 
L 67.496849 114.676678 
L 70.098475 129.683035 
L 72.460121 138.059248 
L 74.012481 154.686069 
L 76.495134 168.362389 
L 79.03628 179.134506 
L 82.61811 190.670539 
L 85.580326 198.955122 
L 85.428828 213.647374 
L 87.608138 227.051566 
L 89.060326 240.862365 
L 91.677264 252.223697 
L 91.384922 265.272883 
L 93.966581 282.056718 
L 95.379912 294.040466 
L 98.955403 303.275439 
L 100.536932 314.955291 
L 104.779914 323.103372 
L 106.417088 335.903306 
L 110.636047 347.136188 
L 111.739925 362.355876 
L 117.581068 362.355876 
L 117.581068 362.355876 
L 116.447806 347.136188 
L 111.567997 335.903306 
L 109.711579 323.103372 
L 105.216128 314.955291 
L 103.573527 303.275439 
L 99.846969 294.040466 
L 98.118144 282.056718 
L 95.011946 265.272883 
L 95.349841 252.223697 
L 92.308129 240.862365 
L 91.086461 227.051566 
L 88.621206 213.647374 
L 89.016061 198.955122 
L 85.889516 190.670539 
L 81.989193 179.134506 
L 82.721114 168.362389 
L 79.750105 154.686069 
L 78.104154 138.059248 
L 75.293711 129.683035 
L 72.201263 114.676678 
L 70.739744 101.056514 
L 67.870537 89.862792 
L 64.75773 83.13609 
L 61.127877 77.250557 
L 58.322827 72.691366 
L 54.613427 69.89897 
L 51.366075 68.971709 
L 49.383345 68.367727 
L 45.81832 68.241439 
L 42.95024 68.86735 
L 39.37158 68.298353 
L 34.638285 68.339004 
L 29.654384 68.841159 
L 24.575085 68.5172 
z
" style="fill:#ff0000;fill-opacity:0.2;stroke:#ff0000;stroke-opacity:0.2;"/>
   </g>
   <g id="PolyCollection_5">
    <path clip-path="url(#p7e54ed88c9)" d="M 22.981975 68.779355 
L 21.635647 68.779355 
L 26.76117 69.130403 
L 31.278421 68.518354 
L 36.794122 68.460837 
L 40.36331 68.430687 
L 42.882589 68.409532 
L 46.517869 67.96356 
L 48.21209 67.957486 
L 51.113717 67.949483 
L 54.466775 67.92911 
L 57.083238 67.939497 
L 59.866217 68.327353 
L 62.424612 69.153281 
L 64.902701 72.212188 
L 66.635665 73.883924 
L 69.716968 81.142116 
L 72.721913 84.60894 
L 74.910519 91.220597 
L 77.0575 101.04391 
L 78.220106 107.929276 
L 81.954432 121.525167 
L 84.92402 130.447901 
L 86.382629 142.16449 
L 88.583637 157.462543 
L 89.897302 172.693459 
L 92.260008 184.638421 
L 91.869861 199.81175 
L 94.44918 220.997649 
L 96.287199 232.434577 
L 99.828346 243.004711 
L 101.288223 257.347695 
L 105.536032 266.7802 
L 107.302229 281.434067 
L 111.877148 295.213788 
L 112.683731 312.589504 
L 118.467516 312.589504 
L 118.467516 312.589504 
L 117.640165 295.213788 
L 112.670779 281.434067 
L 110.748839 266.7802 
L 105.837741 257.347695 
L 104.169793 243.004711 
L 100.365322 232.434577 
L 98.619449 220.997649 
L 95.486039 199.81175 
L 95.958938 184.638421 
L 93.374403 172.693459 
L 91.905407 157.462543 
L 89.648611 142.16449 
L 88.178343 130.447901 
L 85.085945 121.525167 
L 81.084141 107.929276 
L 79.888769 101.04391 
L 77.767551 91.220597 
L 75.480225 84.60894 
L 72.321237 81.142116 
L 69.066136 73.883924 
L 67.396237 72.212188 
L 64.638042 69.153281 
L 62.014946 68.327353 
L 59.094155 67.939497 
L 56.450731 67.92911 
L 53.162795 67.949483 
L 50.173963 67.957486 
L 48.565608 67.96356 
L 44.855737 68.409532 
L 42.193659 68.430687 
L 38.636096 68.460837 
L 32.756214 68.518354 
L 28.256962 69.130403 
L 22.981975 68.779355 
z
" style="fill:#800080;fill-opacity:0.2;stroke:#800080;stroke-opacity:0.2;"/>
   </g>
   <g id="PolyCollection_6">
    <path clip-path="url(#p7e54ed88c9)" d="M 22.736509 69.013372 
L 21.310704 69.013372 
L 26.355357 69.433074 
L 31.040954 68.701327 
L 35.979288 68.649635 
L 39.694755 68.613225 
L 42.061502 68.584632 
L 45.578889 68.028772 
L 47.387995 68.021968 
L 49.587857 68.029426 
L 52.466423 68.009338 
L 56.148465 67.999356 
L 59.043073 67.992039 
L 61.414847 67.993022 
L 63.761078 67.99112 
L 65.346251 67.974494 
L 67.68799 68.974167 
L 71.058528 69.27378 
L 73.325103 70.907764 
L 75.003332 75.36603 
L 75.842701 80.909661 
L 79.223442 86.214224 
L 81.914983 91.271086 
L 84.21263 98.805533 
L 87.014939 111.423306 
L 88.126031 120.9712 
L 91.15 129.078287 
L 92.932291 138.26612 
L 95.501823 158.99234 
L 97.275674 171.875252 
L 100.589773 181.913155 
L 102.156991 197.240766 
L 106.642537 208.926263 
L 108.387888 225.874404 
L 113.207567 243.101692 
L 113.8082 263.940269 
L 119.994184 263.940269 
L 119.994184 263.940269 
L 118.809601 243.101692 
L 113.716451 225.874404 
L 111.65078 208.926263 
L 106.952214 197.240766 
L 105.171856 181.913155 
L 101.661385 171.875252 
L 99.942716 158.99234 
L 96.651854 138.26612 
L 94.725935 129.078287 
L 91.525809 120.9712 
L 90.373162 111.423306 
L 87.556632 98.805533 
L 85.047698 91.271086 
L 82.197978 86.214224 
L 78.788736 80.909661 
L 77.898286 75.36603 
L 76.173243 70.907764 
L 73.893096 69.27378 
L 70.313285 68.974167 
L 68.040957 67.974494 
L 66.437114 67.99112 
L 64.001419 67.993022 
L 61.464916 67.992039 
L 58.446324 67.999356 
L 54.750041 68.009338 
L 51.907902 68.029426 
L 49.713071 68.021968 
L 47.687611 68.028772 
L 44.294691 68.584632 
L 41.817363 68.613225 
L 37.923908 68.649635 
L 32.682327 68.701327 
L 27.881181 69.433074 
L 22.736509 69.013372 
z
" style="fill:#008000;fill-opacity:0.2;stroke:#008000;stroke-opacity:0.2;"/>
   </g>
   <g id="line2d_39">
    <path clip-path="url(#p7e54ed88c9)" d="M 23.249476 68.5172 
L 28.331583 68.841159 
L 33.161688 68.339004 
L 37.803174 68.298353 
L 41.221065 68.86735 
L 44.070127 68.241439 
L 47.655342 68.367727 
L 49.663963 68.971709 
L 52.725442 69.89897 
L 56.344434 72.691366 
L 59.234976 77.250557 
L 62.625991 83.13609 
L 65.370119 89.862792 
L 68.394952 101.056514 
L 69.791639 114.676678 
L 72.161916 127 
" style="fill:none;stroke:#ff0000;stroke-linecap:round;"/>
   </g>
   <g id="line2d_40">
    <path clip-path="url(#p7e54ed88c9)" d="M 23.249476 69.720716 
L 28.331583 70.207907 
L 33.161688 69.389149 
L 37.803174 69.345713 
L 41.221065 70.068266 
L 44.070127 69.064364 
L 47.655342 69.264956 
L 49.663963 70.143801 
L 52.725442 71.390919 
L 56.344434 74.897699 
L 59.234976 80.213105 
L 62.625991 86.57458 
L 65.370119 93.941974 
L 68.394952 105.992601 
L 69.791639 120.328665 
L 70.983064 127 
" style="fill:none;stroke:#ff0000;stroke-dasharray:1.000000,3.000000;stroke-dashoffset:0.0;"/>
   </g>
   <g id="line2d_41">
    <path clip-path="url(#p7e54ed88c9)" d="M 23.249476 67.598182 
L 28.331583 67.886143 
L 33.161688 67.598182 
L 37.803174 67.598182 
L 41.221065 67.844815 
L 44.070127 67.598182 
L 47.655342 67.598182 
L 49.663963 68.052698 
L 52.725442 68.520816 
L 56.344434 70.852019 
L 59.234976 74.756801 
L 62.625991 79.789785 
L 65.370119 85.82578 
L 68.394952 96.18569 
L 69.791639 109.093418 
L 72.677972 122.888723 
L 73.927261 127 
" style="fill:none;stroke:#ff0000;stroke-dasharray:1.000000,3.000000;stroke-dashoffset:0.0;"/>
   </g>
   <g id="line2d_42">
    <path clip-path="url(#p7e54ed88c9)" d="M 22.292044 68.779355 
L 27.482508 69.130403 
L 32.024188 68.518354 
L 37.716887 68.460837 
L 41.288263 68.430687 
L 43.904309 68.409532 
L 47.492282 67.96356 
L 49.190434 67.957486 
L 52.162899 67.949483 
L 55.463487 67.92911 
L 58.077029 67.939497 
L 60.944648 68.327353 
L 63.557976 69.153281 
L 66.143381 72.212188 
L 67.809934 73.883924 
L 70.998996 81.142116 
L 74.117711 84.60894 
L 76.348455 91.220597 
L 78.488411 101.04391 
L 79.576628 107.929276 
L 83.553487 121.525167 
L 85.422772 127 
" style="fill:none;stroke:#800080;stroke-linecap:round;"/>
   </g>
   <g id="line2d_43">
    <path clip-path="url(#p7e54ed88c9)" d="M 22.292044 69.50664 
L 27.482508 69.943654 
L 32.024188 69.0239 
L 37.716887 69.017249 
L 41.288263 68.97278 
L 43.904309 68.9425 
L 47.492282 68.323981 
L 49.190434 68.302486 
L 52.162899 68.295692 
L 55.463487 68.270007 
L 58.077029 68.263226 
L 60.944648 68.768561 
L 63.557976 69.802704 
L 66.143381 73.205306 
L 67.809934 75.136006 
L 70.998996 82.921156 
L 74.117711 86.629444 
L 76.348455 93.603286 
L 78.488411 103.903148 
L 79.576628 110.852797 
L 83.553487 124.794851 
L 84.302093 127 
" style="fill:none;stroke:#800080;stroke-dasharray:1.000000,3.000000;stroke-dashoffset:0.0;"/>
   </g>
   <g id="line2d_44">
    <path clip-path="url(#p7e54ed88c9)" d="M 22.292044 68.131754 
L 27.482508 68.486753 
L 32.024188 68.011305 
L 37.716887 67.988265 
L 41.288263 67.985542 
L 43.904309 67.965238 
L 47.492282 67.670444 
L 49.190434 67.669907 
L 52.162899 67.668336 
L 55.463487 67.665731 
L 58.077029 67.665731 
L 60.944648 67.923347 
L 63.557976 68.581047 
L 66.143381 71.232009 
L 67.809934 72.68527 
L 70.998996 79.389923 
L 74.117711 82.699213 
L 76.348455 88.838103 
L 78.488411 98.417049 
L 79.576628 105.100233 
L 83.553487 118.225924 
L 86.599998 126.716858 
L 86.634417 127 
" style="fill:none;stroke:#800080;stroke-dasharray:1.000000,3.000000;stroke-dashoffset:0.0;"/>
   </g>
   <g id="line2d_45">
    <path clip-path="url(#p7e54ed88c9)" d="M 22.030203 69.013372 
L 27.108758 69.433074 
L 31.869676 68.701327 
L 36.995411 68.649635 
L 40.737101 68.613225 
L 43.14377 68.584632 
L 46.672956 68.028772 
L 48.42419 68.021968 
L 50.755691 68.029426 
L 53.605366 68.009338 
L 57.292612 67.999356 
L 60.27574 67.992039 
L 62.695441 67.993022 
L 65.078945 67.99112 
L 66.666903 67.974494 
L 69.007275 68.974167 
L 72.466582 69.27378 
L 74.730085 70.907764 
L 76.376394 75.36603 
L 77.356678 80.909661 
L 80.677808 86.214224 
L 83.475241 91.271086 
L 85.855225 98.805533 
L 88.677102 111.423306 
L 89.801804 120.9712 
L 92.152406 127 
" style="fill:none;stroke:#008000;stroke-linecap:round;"/>
   </g>
   <g id="line2d_46">
    <path clip-path="url(#p7e54ed88c9)" d="M 22.030203 69.926439 
L 27.108758 70.409821 
L 31.869676 69.338487 
L 36.995411 69.308941 
L 40.737101 69.244534 
L 43.14377 69.2089 
L 46.672956 68.461671 
L 48.42419 68.442428 
L 50.755691 68.452809 
L 53.605366 68.419793 
L 57.292612 68.335082 
L 60.27574 68.382641 
L 62.695441 68.377916 
L 65.078945 68.374787 
L 66.666903 68.298886 
L 69.007275 69.615543 
L 72.466582 69.974431 
L 74.730085 71.946092 
L 76.376394 76.903881 
L 77.356678 82.824663 
L 80.677808 88.531606 
L 83.475241 93.842771 
L 85.855225 101.54177 
L 88.677102 114.646556 
L 89.801804 124.670212 
L 90.711317 127 
" style="fill:none;stroke:#008000;stroke-dasharray:1.000000,3.000000;stroke-dashoffset:0.0;"/>
   </g>
   <g id="line2d_47">
    <path clip-path="url(#p7e54ed88c9)" d="M 22.030203 68.241718 
L 27.108758 68.577356 
L 31.869676 68.097194 
L 36.995411 68.078854 
L 40.737101 68.054243 
L 43.14377 68.037408 
L 46.672956 67.685105 
L 48.42419 67.684058 
L 50.755691 67.682487 
L 53.605366 67.680393 
L 57.292612 67.678822 
L 60.27574 67.677775 
L 62.695441 67.677238 
L 65.078945 67.676191 
L 66.666903 67.675143 
L 69.007275 68.365152 
L 72.466582 68.593588 
L 74.730085 69.990127 
L 76.376394 73.907908 
L 77.356678 79.014842 
L 80.677808 84.097532 
L 83.475241 88.866838 
L 85.855225 96.089053 
L 88.677102 107.995484 
L 89.801804 117.145636 
L 92.962721 125.297594 
L 93.296427 127 
" style="fill:none;stroke:#008000;stroke-dasharray:1.000000,3.000000;stroke-dashoffset:0.0;"/>
   </g>
   <g id="patch_9">
    <path d="M 37.42 93.78 
L 89.26 93.78 
" style="fill:none;stroke:#262626;stroke-linecap:square;stroke-linejoin:miter;stroke-width:0.3;"/>
   </g>
   <g id="patch_10">
    <path d="M 37.42 64.98 
L 89.26 64.98 
" style="fill:none;stroke:#262626;stroke-linecap:square;stroke-linejoin:miter;stroke-width:0.3;"/>
   </g>
   <g id="patch_11">
    <path d="M 37.42 93.78 
L 37.42 64.98 
" style="fill:none;stroke:#262626;stroke-linecap:square;stroke-linejoin:miter;stroke-width:0.3;"/>
   </g>
   <g id="patch_12">
    <path d="M 89.26 93.78 
L 89.26 64.98 
" style="fill:none;stroke:#262626;stroke-linecap:square;stroke-linejoin:miter;stroke-width:0.3;"/>
   </g>
  </g>
 </g>
 <defs>
  <clipPath id="p962f8f426f">
   <rect height="97.65" width="97.65" x="15.75" y="12.6"/>
  </clipPath>
  <clipPath id="p7e54ed88c9">
   <rect height="28.8" width="51.84" x="37.42" y="64.98"/>
  </clipPath>
 </defs>
</svg>
