<?xml version="1.0" encoding="utf-8" standalone="no"?>
<!DOCTYPE svg PUBLIC "-//W3C//DTD SVG 1.1//EN"
  "http://www.w3.org/Graphics/SVG/1.1/DTD/svg11.dtd">
<!-- Created with matplotlib (http://matplotlib.org/) -->
<svg height="126pt" version="1.1" viewBox="0 0 126 126" width="126pt" xmlns="http://www.w3.org/2000/svg" xmlns:xlink="http://www.w3.org/1999/xlink">
 <defs>
  <style type="text/css">
*{stroke-linecap:butt;stroke-linejoin:round;stroke-miterlimit:100000;}
  </style>
 </defs>
 <g id="figure_1">
  <g id="patch_1">
   <path d="M 0 126 
L 126 126 
L 126 0 
L 0 0 
L 0 126 
z
" style="fill:none;"/>
  </g>
  <g id="axes_1">
   <g id="patch_2">
    <path d="M 15.75 110.25 
L 113.4 110.25 
L 113.4 12.6 
L 15.75 12.6 
L 15.75 110.25 
z
" style="fill:none;"/>
   </g>
   <g id="matplotlib.axis_1">
    <g id="xtick_1">
     <g id="line2d_1">
      <defs>
       <path d="M 0 0 
L 0 2 
" id="mb17109eb4b" style="stroke:#1a1a1a;"/>
      </defs>
      <g>
       <use style="fill:#1a1a1a;stroke:#1a1a1a;" x="29.7" xlink:href="#mb17109eb4b" y="110.25"/>
      </g>
     </g>
     <g id="text_1">
      <text style="fill:#262626;font-family:Arial;font-size:10.0px;font-style:normal;font-weight:400;text-anchor:middle;" transform="rotate(-0.000000, 29.700000, 124.407813)" x="29.7" y="124.4078125">2</text>
     </g>
    </g>
    <g id="xtick_2">
     <g id="line2d_2">
      <g>
       <use style="fill:#1a1a1a;stroke:#1a1a1a;" x="66.9" xlink:href="#mb17109eb4b" y="110.25"/>
      </g>
     </g>
     <g id="text_2">
      <text style="fill:#262626;font-family:Arial;font-size:10.0px;font-style:normal;font-weight:400;text-anchor:middle;" transform="rotate(-0.000000, 66.900000, 124.407813)" x="66.9" y="124.4078125">4</text>
     </g>
    </g>
    <g id="xtick_3">
     <g id="line2d_3">
      <g>
       <use style="fill:#1a1a1a;stroke:#1a1a1a;" x="104.1" xlink:href="#mb17109eb4b" y="110.25"/>
      </g>
     </g>
     <g id="text_3">
      <text style="fill:#262626;font-family:Arial;font-size:10.0px;font-style:normal;font-weight:400;text-anchor:middle;" transform="rotate(-0.000000, 104.100000, 124.407813)" x="104.1" y="124.4078125">6</text>
     </g>
    </g>
    <g id="xtick_4">
     <g id="line2d_4">
      <defs>
       <path d="M 0 0 
L 0 2 
" id="m84dab2dc67" style="stroke:#1a1a1a;stroke-width:0.5;"/>
      </defs>
      <g>
       <use style="fill:#1a1a1a;stroke:#1a1a1a;stroke-width:0.5;" x="48.3" xlink:href="#m84dab2dc67" y="110.25"/>
      </g>
     </g>
    </g>
    <g id="xtick_5">
     <g id="line2d_5">
      <g>
       <use style="fill:#1a1a1a;stroke:#1a1a1a;stroke-width:0.5;" x="85.5" xlink:href="#m84dab2dc67" y="110.25"/>
      </g>
     </g>
    </g>
    <g id="text_4">
     <text style="fill:#262626;font-family:Arial;font-size:12.0px;font-style:normal;font-weight:400;text-anchor:middle;" transform="rotate(-0.000000, 64.575000, 136.330938)" x="64.575" y="136.3309375">Threshold (z-units)</text>
    </g>
   </g>
   <g id="matplotlib.axis_2">
    <g id="ytick_1">
     <g id="line2d_6">
      <defs>
       <path d="M 0 0 
L -2 0 
" id="m111f18a397" style="stroke:#1a1a1a;"/>
      </defs>
      <g>
       <use style="fill:#1a1a1a;stroke:#1a1a1a;" x="15.75" xlink:href="#m111f18a397" y="110.25"/>
      </g>
     </g>
     <g id="text_5">
      <text style="fill:#262626;font-family:Arial;font-size:10.0px;font-style:normal;font-weight:400;text-anchor:end;" transform="rotate(-0.000000, 8.750000, 112.835156)" x="8.75" y="112.83515625">25</text>
     </g>
    </g>
    <g id="ytick_2">
     <g id="line2d_7">
      <g>
       <use style="fill:#1a1a1a;stroke:#1a1a1a;" x="15.75" xlink:href="#m111f18a397" y="61.425"/>
      </g>
     </g>
     <g id="text_6">
      <text style="fill:#262626;font-family:Arial;font-size:10.0px;font-style:normal;font-weight:400;text-anchor:end;" transform="rotate(-0.000000, 8.750000, 64.010156)" x="8.75" y="64.01015625">50</text>
     </g>
    </g>
    <g id="ytick_3">
     <g id="line2d_8">
      <g>
       <use style="fill:#1a1a1a;stroke:#1a1a1a;" x="15.75" xlink:href="#m111f18a397" y="12.6"/>
      </g>
     </g>
     <g id="text_7">
      <text style="fill:#262626;font-family:Arial;font-size:10.0px;font-style:normal;font-weight:400;text-anchor:end;" transform="rotate(-0.000000, 8.750000, 15.185156)" x="8.75" y="15.18515625">75</text>
     </g>
    </g>
    <g id="ytick_4">
     <g id="line2d_9">
      <defs>
       <path d="M 0 0 
L -2 0 
" id="m09329cf26c" style="stroke:#1a1a1a;stroke-width:0.5;"/>
      </defs>
      <g>
       <use style="fill:#1a1a1a;stroke:#1a1a1a;stroke-width:0.5;" x="15.75" xlink:href="#m09329cf26c" y="100.485"/>
      </g>
     </g>
    </g>
    <g id="ytick_5">
     <g id="line2d_10">
      <g>
       <use style="fill:#1a1a1a;stroke:#1a1a1a;stroke-width:0.5;" x="15.75" xlink:href="#m09329cf26c" y="90.72"/>
      </g>
     </g>
    </g>
    <g id="ytick_6">
     <g id="line2d_11">
      <g>
       <use style="fill:#1a1a1a;stroke:#1a1a1a;stroke-width:0.5;" x="15.75" xlink:href="#m09329cf26c" y="80.955"/>
      </g>
     </g>
    </g>
    <g id="ytick_7">
     <g id="line2d_12">
      <g>
       <use style="fill:#1a1a1a;stroke:#1a1a1a;stroke-width:0.5;" x="15.75" xlink:href="#m09329cf26c" y="71.19"/>
      </g>
     </g>
    </g>
    <g id="ytick_8">
     <g id="line2d_13">
      <g>
       <use style="fill:#1a1a1a;stroke:#1a1a1a;stroke-width:0.5;" x="15.75" xlink:href="#m09329cf26c" y="51.66"/>
      </g>
     </g>
    </g>
    <g id="ytick_9">
     <g id="line2d_14">
      <g>
       <use style="fill:#1a1a1a;stroke:#1a1a1a;stroke-width:0.5;" x="15.75" xlink:href="#m09329cf26c" y="41.895"/>
      </g>
     </g>
    </g>
    <g id="ytick_10">
     <g id="line2d_15">
      <g>
       <use style="fill:#1a1a1a;stroke:#1a1a1a;stroke-width:0.5;" x="15.75" xlink:href="#m09329cf26c" y="32.13"/>
      </g>
     </g>
    </g>
    <g id="ytick_11">
     <g id="line2d_16">
      <g>
       <use style="fill:#1a1a1a;stroke:#1a1a1a;stroke-width:0.5;" x="15.75" xlink:href="#m09329cf26c" y="22.365"/>
      </g>
     </g>
    </g>
    <g id="text_8">
     <text style="fill:#262626;font-family:Arial;font-size:12.0px;font-style:normal;font-weight:400;text-anchor:middle;" transform="rotate(-90.000000, -6.097500, 61.425000)" x="-6.0975" y="61.425">Detection latency (ms)</text>
    </g>
   </g>
   <g id="PolyCollection_1">
    <defs>
     <path d="M 20.4 -28.332871 
L 20.4 -26.641296 
L 25.05 -32.951937 
L 29.7 -38.862399 
L 34.35 -44.541027 
L 39 -48.804862 
L 43.65 -52.278638 
L 48.3 -56.656724 
L 52.95 -59.117531 
L 57.6 -62.899492 
L 62.25 -67.347397 
L 66.9 -70.962436 
L 71.55 -75.099354 
L 76.2 -78.45848 
L 80.85 -82.02076 
L 85.5 -83.831451 
L 90.15 -87.267886 
L 94.8 -90.361905 
L 99.45 -92.318875 
L 104.1 -95.65513 
L 104.1 -99.491999 
L 104.1 -99.491999 
L 99.45 -95.753621 
L 94.8 -93.798927 
L 90.15 -90.407278 
L 85.5 -86.844231 
L 80.85 -85.025132 
L 76.2 -81.251404 
L 71.55 -77.84729 
L 66.9 -73.443862 
L 62.25 -69.812623 
L 57.6 -65.179736 
L 52.95 -61.401846 
L 48.3 -58.816056 
L 43.65 -54.467678 
L 39 -50.895906 
L 34.35 -46.5954 
L 29.7 -40.599215 
L 25.05 -34.632675 
L 20.4 -28.332871 
z
" id="maab2c4e7a9" style="stroke:#1a1a1a;stroke-opacity:0.2;stroke-width:0.3;"/>
    </defs>
    <g clip-path="url(#p3497175c81)">
     <use style="fill:#1a1a1a;fill-opacity:0.2;stroke:#1a1a1a;stroke-opacity:0.2;stroke-width:0.3;" x="0.0" xlink:href="#maab2c4e7a9" y="126.0"/>
    </g>
   </g>
   <g id="line2d_17">
    <path clip-path="url(#p3497175c81)" d="M 20.4 98.512916 
L 25.05 92.207694 
L 29.7 86.269193 
L 34.35 80.431786 
L 39 76.149616 
L 43.65 72.626842 
L 48.3 68.26361 
L 52.95 65.740311 
L 57.6 61.960386 
L 62.25 57.41999 
L 66.9 53.796851 
L 71.55 49.526678 
L 76.2 46.145058 
L 80.85 42.477054 
L 85.5 40.662159 
L 90.15 37.162418 
L 94.8 33.919584 
L 99.45 31.963752 
L 104.1 28.426436 
" style="fill:none;stroke:#1a1a1a;stroke-linecap:round;"/>
   </g>
   <g id="patch_3">
    <path d="M 15.75 110.25 
L 15.75 12.6 
" style="fill:none;stroke:#262626;stroke-linecap:square;stroke-linejoin:miter;stroke-width:0.5;"/>
   </g>
   <g id="patch_4">
    <path d="M 113.4 110.25 
L 113.4 12.6 
" style="fill:none;"/>
   </g>
   <g id="patch_5">
    <path d="M 15.75 110.25 
L 113.4 110.25 
" style="fill:none;stroke:#262626;stroke-linecap:square;stroke-linejoin:miter;stroke-width:0.5;"/>
   </g>
   <g id="patch_6">
    <path d="M 15.75 12.6 
L 113.4 12.6 
" style="fill:none;"/>
   </g>
  </g>
 </g>
 <defs>
  <clipPath id="p3497175c81">
   <rect height="97.65" width="97.65" x="15.75" y="12.6"/>
  </clipPath>
 </defs>
</svg>
