<?xml version="1.0" encoding="utf-8" standalone="no"?>
<!DOCTYPE svg PUBLIC "-//W3C//DTD SVG 1.1//EN"
  "http://www.w3.org/Graphics/SVG/1.1/DTD/svg11.dtd">
<!-- Created with matplotlib (http://matplotlib.org/) -->
<svg height="126pt" version="1.1" viewBox="0 0 126 126" width="126pt" xmlns="http://www.w3.org/2000/svg" xmlns:xlink="http://www.w3.org/1999/xlink">
 <defs>
  <style type="text/css">
*{stroke-linecap:butt;stroke-linejoin:round;stroke-miterlimit:100000;}
  </style>
 </defs>
 <g id="figure_1">
  <g id="patch_1">
   <path d="M 0 126 
L 126 126 
L 126 0 
L 0 0 
L 0 126 
z
" style="fill:none;"/>
  </g>
  <g id="axes_1">
   <g id="patch_2">
    <path d="M 15.75 110.25 
L 113.4 110.25 
L 113.4 12.6 
L 15.75 12.6 
L 15.75 110.25 
z
" style="fill:none;"/>
   </g>
   <g id="matplotlib.axis_1">
    <g id="xtick_1">
     <g id="line2d_1">
      <defs>
       <path d="M 0 0 
L 0 2 
" id="m63db668611" style="stroke:#1a1a1a;"/>
      </defs>
      <g>
       <use style="fill:#1a1a1a;stroke:#1a1a1a;" x="15.75" xlink:href="#m63db668611" y="110.25"/>
      </g>
     </g>
     <g id="text_1">
      <text style="fill:#262626;font-family:Arial;font-size:10.0px;font-style:normal;font-weight:400;text-anchor:middle;" transform="rotate(-0.000000, 15.750000, 124.407813)" x="15.75" y="124.4078125">25</text>
     </g>
    </g>
    <g id="xtick_2">
     <g id="line2d_2">
      <g>
       <use style="fill:#1a1a1a;stroke:#1a1a1a;" x="64.575" xlink:href="#m63db668611" y="110.25"/>
      </g>
     </g>
     <g id="text_2">
      <text style="fill:#262626;font-family:Arial;font-size:10.0px;font-style:normal;font-weight:400;text-anchor:middle;" transform="rotate(-0.000000, 64.575000, 124.407813)" x="64.575" y="124.4078125">50</text>
     </g>
    </g>
    <g id="xtick_3">
     <g id="line2d_3">
      <g>
       <use style="fill:#1a1a1a;stroke:#1a1a1a;" x="113.4" xlink:href="#m63db668611" y="110.25"/>
      </g>
     </g>
     <g id="text_3">
      <text style="fill:#262626;font-family:Arial;font-size:10.0px;font-style:normal;font-weight:400;text-anchor:middle;" transform="rotate(-0.000000, 113.400000, 124.407813)" x="113.4" y="124.4078125">75</text>
     </g>
    </g>
    <g id="xtick_4">
     <g id="line2d_4">
      <defs>
       <path d="M 0 0 
L 0 2 
" id="me5955ca345" style="stroke:#1a1a1a;stroke-width:0.5;"/>
      </defs>
      <g>
       <use style="fill:#1a1a1a;stroke:#1a1a1a;stroke-width:0.5;" x="25.515" xlink:href="#me5955ca345" y="110.25"/>
      </g>
     </g>
    </g>
    <g id="xtick_5">
     <g id="line2d_5">
      <g>
       <use style="fill:#1a1a1a;stroke:#1a1a1a;stroke-width:0.5;" x="35.28" xlink:href="#me5955ca345" y="110.25"/>
      </g>
     </g>
    </g>
    <g id="xtick_6">
     <g id="line2d_6">
      <g>
       <use style="fill:#1a1a1a;stroke:#1a1a1a;stroke-width:0.5;" x="45.045" xlink:href="#me5955ca345" y="110.25"/>
      </g>
     </g>
    </g>
    <g id="xtick_7">
     <g id="line2d_7">
      <g>
       <use style="fill:#1a1a1a;stroke:#1a1a1a;stroke-width:0.5;" x="54.81" xlink:href="#me5955ca345" y="110.25"/>
      </g>
     </g>
    </g>
    <g id="xtick_8">
     <g id="line2d_8">
      <g>
       <use style="fill:#1a1a1a;stroke:#1a1a1a;stroke-width:0.5;" x="74.34" xlink:href="#me5955ca345" y="110.25"/>
      </g>
     </g>
    </g>
    <g id="xtick_9">
     <g id="line2d_9">
      <g>
       <use style="fill:#1a1a1a;stroke:#1a1a1a;stroke-width:0.5;" x="84.105" xlink:href="#me5955ca345" y="110.25"/>
      </g>
     </g>
    </g>
    <g id="xtick_10">
     <g id="line2d_10">
      <g>
       <use style="fill:#1a1a1a;stroke:#1a1a1a;stroke-width:0.5;" x="93.87" xlink:href="#me5955ca345" y="110.25"/>
      </g>
     </g>
    </g>
    <g id="xtick_11">
     <g id="line2d_11">
      <g>
       <use style="fill:#1a1a1a;stroke:#1a1a1a;stroke-width:0.5;" x="103.635" xlink:href="#me5955ca345" y="110.25"/>
      </g>
     </g>
    </g>
    <g id="text_4">
     <text style="fill:#262626;font-family:Arial;font-size:12.0px;font-style:normal;font-weight:400;text-anchor:middle;" transform="rotate(-0.000000, 64.575000, 136.330938)" x="64.575" y="136.3309375">Detection latency (ms)</text>
    </g>
   </g>
   <g id="matplotlib.axis_2">
    <g id="ytick_1">
     <g id="line2d_12">
      <defs>
       <path d="M 0 0 
L -2 0 
" id="m0a1ce42c91" style="stroke:#1a1a1a;"/>
      </defs>
      <g>
       <use style="fill:#1a1a1a;stroke:#1a1a1a;" x="15.75" xlink:href="#m0a1ce42c91" y="110.25"/>
      </g>
     </g>
     <g id="text_5">
      <text style="fill:#262626;font-family:Arial;font-size:10.0px;font-style:normal;font-weight:400;text-anchor:end;" transform="rotate(-0.000000, 8.750000, 112.835156)" x="8.75" y="112.83515625">75</text>
     </g>
    </g>
    <g id="ytick_2">
     <g id="line2d_13">
      <g>
       <use style="fill:#1a1a1a;stroke:#1a1a1a;" x="15.75" xlink:href="#m0a1ce42c91" y="23.0625"/>
      </g>
     </g>
     <g id="text_6">
      <text style="fill:#262626;font-family:Arial;font-size:10.0px;font-style:normal;font-weight:400;text-anchor:end;" transform="rotate(-0.000000, 8.750000, 25.647656)" x="8.75" y="25.64765625">100</text>
     </g>
    </g>
    <g id="ytick_3">
     <g id="line2d_14">
      <defs>
       <path d="M 0 0 
L -2 0 
" id="m73568d4955" style="stroke:#1a1a1a;stroke-width:0.5;"/>
      </defs>
      <g>
       <use style="fill:#1a1a1a;stroke:#1a1a1a;stroke-width:0.5;" x="15.75" xlink:href="#m73568d4955" y="92.8125"/>
      </g>
     </g>
    </g>
    <g id="ytick_4">
     <g id="line2d_15">
      <g>
       <use style="fill:#1a1a1a;stroke:#1a1a1a;stroke-width:0.5;" x="15.75" xlink:href="#m73568d4955" y="75.375"/>
      </g>
     </g>
    </g>
    <g id="ytick_5">
     <g id="line2d_16">
      <g>
       <use style="fill:#1a1a1a;stroke:#1a1a1a;stroke-width:0.5;" x="15.75" xlink:href="#m73568d4955" y="57.9375"/>
      </g>
     </g>
    </g>
    <g id="ytick_6">
     <g id="line2d_17">
      <g>
       <use style="fill:#1a1a1a;stroke:#1a1a1a;stroke-width:0.5;" x="15.75" xlink:href="#m73568d4955" y="40.5"/>
      </g>
     </g>
    </g>
    <g id="text_7">
     <text style="fill:#262626;font-family:Arial;font-size:12.0px;font-style:normal;font-weight:400;text-anchor:middle;" transform="rotate(-90.000000, -11.658437, 61.425000)" x="-11.6584375" y="61.425">TPR (%)</text>
    </g>
   </g>
   <g id="PolyCollection_1">
    <defs>
     <path d="M 28.332871 -102.293812 
L 26.641296 -102.293812 
L 32.951937 -102.098204 
L 38.862399 -102.447496 
L 44.541027 -102.470987 
L 48.804862 -102.103028 
L 52.278638 -102.499376 
L 56.656724 -102.431736 
L 59.117531 -101.982335 
L 62.899492 -101.347772 
L 67.347397 -99.527858 
L 70.962436 -96.418871 
L 75.099354 -92.409338 
L 78.45848 -87.937965 
L 82.02076 -80.562263 
L 83.831451 -71.41478 
L 87.267886 -61.482405 
L 90.361905 -55.712679 
L 92.318875 -44.608852 
L 95.65513 -35.585143 
L 99.491999 -35.585143 
L 99.491999 -35.585143 
L 95.753621 -44.608852 
L 93.798927 -55.712679 
L 90.407278 -61.482405 
L 86.844231 -71.41478 
L 85.025132 -80.562263 
L 81.251404 -87.937965 
L 77.84729 -92.409338 
L 73.443862 -96.418871 
L 69.812623 -99.527858 
L 65.179736 -101.347772 
L 61.401846 -101.982335 
L 58.816056 -102.431736 
L 54.467678 -102.499376 
L 50.895906 -102.103028 
L 46.5954 -102.470987 
L 40.599215 -102.447496 
L 34.632675 -102.098204 
L 28.332871 -102.293812 
z
" id="md29ec51329" style="stroke:#1a1a1a;stroke-opacity:0.2;stroke-width:0.3;"/>
    </defs>
    <g clip-path="url(#p265959d490)">
     <use style="fill:#1a1a1a;fill-opacity:0.2;stroke:#1a1a1a;stroke-opacity:0.2;stroke-width:0.3;" x="0.0" xlink:href="#md29ec51329" y="126.0"/>
    </g>
   </g>
   <g id="patch_3">
    <path clip-path="url(#p265959d490)" d="M 45.045 40.5 
L 84.105 40.5 
L 84.105 21.31875 
L 45.045 21.31875 
L 45.045 40.5 
z
" style="fill:none;opacity:0.5;stroke:#1a1a1a;stroke-dasharray:6.000000,6.000000;stroke-dashoffset:0.0;stroke-linejoin:miter;"/>
   </g>
   <g id="line2d_18">
    <path clip-path="url(#p265959d490)" d="M 27.487084 23.706188 
L 33.792306 23.901796 
L 39.730807 23.552504 
L 45.568214 23.529013 
L 49.850384 23.896972 
L 53.373158 23.500624 
L 57.73639 23.568264 
L 60.259689 24.017665 
L 64.039614 24.652228 
L 68.58001 26.472142 
L 72.203149 29.581129 
L 76.473322 33.590662 
L 79.854942 38.062035 
L 83.522946 45.437737 
L 85.337841 54.58522 
L 88.837582 64.517595 
L 92.080416 70.287321 
L 94.036248 81.391148 
L 97.573564 90.414857 
" style="fill:none;stroke:#1a1a1a;stroke-linecap:round;"/>
   </g>
   <g id="line2d_19">
    <path clip-path="url(#p265959d490)" d="M 27.487084 24.086554 
L 33.792306 24.305176 
L 39.730807 23.848002 
L 45.568214 23.816247 
L 49.850384 24.274666 
L 53.373158 23.764015 
L 57.73639 23.848041 
L 60.259689 24.391254 
L 64.039614 25.141551 
L 68.58001 27.177799 
L 72.203149 30.502914 
L 76.473322 34.79739 
L 79.854942 39.460672 
L 83.522946 47.150302 
L 85.337841 56.544614 
L 88.837582 66.638821 
L 92.080416 72.498138 
L 94.036248 83.892703 
L 97.573564 93.067292 
" style="fill:none;stroke:#1a1a1a;stroke-dasharray:1.000000,3.000000;stroke-dashoffset:0.0;"/>
   </g>
   <g id="line2d_20">
    <path clip-path="url(#p265959d490)" d="M 27.487084 23.325822 
L 33.792306 23.498416 
L 39.730807 23.257006 
L 45.568214 23.241779 
L 49.850384 23.519277 
L 53.373158 23.237232 
L 57.73639 23.288486 
L 60.259689 23.644076 
L 64.039614 24.162904 
L 68.58001 25.766485 
L 72.203149 28.659344 
L 76.473322 32.383933 
L 79.854942 36.663397 
L 83.522946 43.725171 
L 85.337841 52.625825 
L 88.837582 62.396369 
L 92.080416 68.076504 
L 94.036248 78.889594 
L 97.573564 87.762421 
" style="fill:none;stroke:#1a1a1a;stroke-dasharray:1.000000,3.000000;stroke-dashoffset:0.0;"/>
   </g>
   <g id="patch_4">
    <path d="M 15.75 110.25 
L 15.75 12.6 
" style="fill:none;stroke:#262626;stroke-linecap:square;stroke-linejoin:miter;stroke-width:0.5;"/>
   </g>
   <g id="patch_5">
    <path d="M 113.4 110.25 
L 113.4 12.6 
" style="fill:none;"/>
   </g>
   <g id="patch_6">
    <path d="M 15.75 110.25 
L 113.4 110.25 
" style="fill:none;stroke:#262626;stroke-linecap:square;stroke-linejoin:miter;stroke-width:0.5;"/>
   </g>
   <g id="patch_7">
    <path d="M 15.75 12.6 
L 113.4 12.6 
" style="fill:none;"/>
   </g>
  </g>
  <g id="axes_2">
   <g id="patch_8">
    <path d="M 39.26 93.78 
L 91.1 93.78 
L 91.1 64.98 
L 39.26 64.98 
L 39.26 93.78 
z
" style="fill:none;"/>
   </g>
   <g id="matplotlib.axis_3">
    <g id="xtick_12">
     <g id="line2d_21">
      <g>
       <use style="fill:#1a1a1a;stroke:#1a1a1a;" x="39.26" xlink:href="#m63db668611" y="93.78"/>
      </g>
     </g>
     <g id="text_8">
      <text style="fill:#262626;font-family:Arial;font-size:10.0px;font-style:normal;font-weight:400;text-anchor:middle;" transform="rotate(-0.000000, 39.260000, 107.937813)" x="39.26" y="107.9378125">40</text>
     </g>
    </g>
    <g id="xtick_13">
     <g id="line2d_22">
      <g>
       <use style="fill:#1a1a1a;stroke:#1a1a1a;" x="65.18" xlink:href="#m63db668611" y="93.78"/>
      </g>
     </g>
     <g id="text_9">
      <text style="fill:#262626;font-family:Arial;font-size:10.0px;font-style:normal;font-weight:400;text-anchor:middle;" transform="rotate(-0.000000, 65.180000, 107.937813)" x="65.18" y="107.9378125">50</text>
     </g>
    </g>
    <g id="xtick_14">
     <g id="line2d_23">
      <g>
       <use style="fill:#1a1a1a;stroke:#1a1a1a;" x="91.1" xlink:href="#m63db668611" y="93.78"/>
      </g>
     </g>
     <g id="text_10">
      <text style="fill:#262626;font-family:Arial;font-size:10.0px;font-style:normal;font-weight:400;text-anchor:middle;" transform="rotate(-0.000000, 91.100000, 107.937813)" x="91.1" y="107.9378125">60</text>
     </g>
    </g>
    <g id="xtick_15">
     <g id="line2d_24">
      <g>
       <use style="fill:#1a1a1a;stroke:#1a1a1a;stroke-width:0.5;" x="52.22" xlink:href="#me5955ca345" y="93.78"/>
      </g>
     </g>
    </g>
    <g id="xtick_16">
     <g id="line2d_25">
      <g>
       <use style="fill:#1a1a1a;stroke:#1a1a1a;stroke-width:0.5;" x="78.14" xlink:href="#me5955ca345" y="93.78"/>
      </g>
     </g>
    </g>
   </g>
   <g id="matplotlib.axis_4">
    <g id="ytick_7">
     <g id="line2d_26">
      <g>
       <use style="fill:#1a1a1a;stroke:#1a1a1a;" x="39.26" xlink:href="#m0a1ce42c91" y="93.78"/>
      </g>
     </g>
     <g id="text_11">
      <text style="fill:#262626;font-family:Arial;font-size:10.0px;font-style:normal;font-weight:400;text-anchor:end;" transform="rotate(-0.000000, 34.260000, 96.365156)" x="34.26" y="96.36515625">95</text>
     </g>
    </g>
    <g id="ytick_8">
     <g id="line2d_27">
      <g>
       <use style="fill:#1a1a1a;stroke:#1a1a1a;" x="39.26" xlink:href="#m0a1ce42c91" y="67.5981818182"/>
      </g>
     </g>
     <g id="text_12">
      <text style="fill:#262626;font-family:Arial;font-size:10.0px;font-style:normal;font-weight:400;text-anchor:end;" transform="rotate(-0.000000, 34.260000, 70.183338)" x="34.26" y="70.1833380682">100</text>
     </g>
    </g>
    <g id="ytick_9">
     <g id="line2d_28">
      <g>
       <use style="fill:#1a1a1a;stroke:#1a1a1a;stroke-width:0.5;" x="39.26" xlink:href="#m73568d4955" y="88.5436363636"/>
      </g>
     </g>
    </g>
    <g id="ytick_10">
     <g id="line2d_29">
      <g>
       <use style="fill:#1a1a1a;stroke:#1a1a1a;stroke-width:0.5;" x="39.26" xlink:href="#m73568d4955" y="83.3072727273"/>
      </g>
     </g>
    </g>
    <g id="ytick_11">
     <g id="line2d_30">
      <g>
       <use style="fill:#1a1a1a;stroke:#1a1a1a;stroke-width:0.5;" x="39.26" xlink:href="#m73568d4955" y="78.0709090909"/>
      </g>
     </g>
    </g>
    <g id="ytick_12">
     <g id="line2d_31">
      <g>
       <use style="fill:#1a1a1a;stroke:#1a1a1a;stroke-width:0.5;" x="39.26" xlink:href="#m73568d4955" y="72.8345454545"/>
      </g>
     </g>
    </g>
   </g>
   <g id="PolyCollection_2">
    <defs>
     <path d="M 17.079847 -57.435342 
L 14.834808 -57.435342 
L 23.21022 -57.141643 
L 31.05452 -57.666094 
L 38.591133 -57.701364 
L 44.250047 -57.148887 
L 48.860404 -57.74399 
L 54.670951 -57.642431 
L 57.936908 -56.967671 
L 62.956284 -56.014896 
L 68.859494 -53.282356 
L 73.657334 -48.614317 
L 79.147806 -42.594139 
L 83.606001 -35.880522 
L 88.33382 -24.806155 
L 90.736949 -11.071517 
L 95.297747 3.841609 
L 99.404095 12.504657 
L 102.001364 29.17668 
L 106.429204 42.725474 
L 111.521455 42.725474 
L 111.521455 42.725474 
L 106.55992 29.17668 
L 103.965673 12.504657 
L 99.464313 3.841609 
L 94.735477 -11.071517 
L 92.321189 -24.806155 
L 87.312739 -35.880522 
L 82.794837 -42.594139 
L 76.950655 -48.614317 
L 72.131316 -53.282356 
L 65.982599 -56.014896 
L 60.968626 -56.967671 
L 57.536794 -57.642431 
L 51.765673 -57.74399 
L 47.025258 -57.148887 
L 41.317674 -57.701364 
L 33.359603 -57.666094 
L 25.440877 -57.141643 
L 17.079847 -57.435342 
z
" id="m3f515a9a20" style="stroke:#1a1a1a;stroke-opacity:0.2;stroke-width:0.3;"/>
    </defs>
    <g clip-path="url(#pef1585737b)">
     <use style="fill:#1a1a1a;fill-opacity:0.2;stroke:#1a1a1a;stroke-opacity:0.2;stroke-width:0.3;" x="0.0" xlink:href="#m3f515a9a20" y="126.0"/>
    </g>
   </g>
   <g id="line2d_32">
    <path clip-path="url(#pef1585737b)" d="M 15.957328 68.564658 
L 24.325549 68.858357 
L 32.207061 68.333906 
L 39.954403 68.298636 
L 45.637652 68.851113 
L 50.313039 68.25601 
L 56.103872 68.357569 
L 59.452767 69.032329 
L 64.469441 69.985104 
L 70.495405 72.717644 
L 75.303995 77.385683 
L 80.971321 83.405861 
L 85.45937 90.119478 
L 90.327504 101.193845 
L 92.736213 114.928483 
L 96.495988 127 
" style="fill:none;stroke:#1a1a1a;stroke-linecap:round;"/>
   </g>
   <g id="line2d_33">
    <path clip-path="url(#pef1585737b)" d="M 15.957328 69.135765 
L 24.325549 69.464018 
L 32.207061 68.777586 
L 39.954403 68.729908 
L 45.637652 69.418208 
L 50.313039 68.651483 
L 56.103872 68.777645 
L 59.452767 69.59326 
L 64.469441 70.719807 
L 70.495405 73.777165 
L 75.303995 78.769712 
L 80.971321 85.217724 
L 85.45937 92.219485 
L 90.327504 103.765205 
L 92.736213 117.870448 
L 95.534101 127 
" style="fill:none;stroke:#1a1a1a;stroke-dasharray:1.000000,3.000000;stroke-dashoffset:0.0;"/>
   </g>
   <g id="line2d_34">
    <path clip-path="url(#pef1585737b)" d="M 15.957328 67.993551 
L 24.325549 68.252695 
L 32.207061 67.890226 
L 39.954403 67.867364 
L 45.637652 68.284017 
L 50.313039 67.860537 
L 56.103872 67.937492 
L 59.452767 68.471398 
L 64.469441 69.250402 
L 70.495405 71.658123 
L 75.303995 76.001654 
L 80.971321 81.593999 
L 85.45937 88.01947 
L 90.327504 98.622486 
L 92.736213 111.986517 
L 97.38103 126.65666 
L 97.554294 127 
" style="fill:none;stroke:#1a1a1a;stroke-dasharray:1.000000,3.000000;stroke-dashoffset:0.0;"/>
   </g>
   <g id="patch_9">
    <path d="M 39.26 93.78 
L 39.26 64.98 
" style="fill:none;stroke:#262626;stroke-linecap:square;stroke-linejoin:miter;stroke-width:0.3;"/>
   </g>
   <g id="patch_10">
    <path d="M 91.1 93.78 
L 91.1 64.98 
" style="fill:none;stroke:#262626;stroke-linecap:square;stroke-linejoin:miter;stroke-width:0.3;"/>
   </g>
   <g id="patch_11">
    <path d="M 39.26 93.78 
L 91.1 93.78 
" style="fill:none;stroke:#262626;stroke-linecap:square;stroke-linejoin:miter;stroke-width:0.3;"/>
   </g>
   <g id="patch_12">
    <path d="M 39.26 64.98 
L 91.1 64.98 
" style="fill:none;stroke:#262626;stroke-linecap:square;stroke-linejoin:miter;stroke-width:0.3;"/>
   </g>
  </g>
 </g>
 <defs>
  <clipPath id="pef1585737b">
   <rect height="28.8" width="51.84" x="39.26" y="64.98"/>
  </clipPath>
  <clipPath id="p265959d490">
   <rect height="97.65" width="97.65" x="15.75" y="12.6"/>
  </clipPath>
 </defs>
</svg>
