<?xml version="1.0" encoding="utf-8" standalone="no"?>
<!DOCTYPE svg PUBLIC "-//W3C//DTD SVG 1.1//EN"
  "http://www.w3.org/Graphics/SVG/1.1/DTD/svg11.dtd">
<!-- Created with matplotlib (http://matplotlib.org/) -->
<svg height="126pt" version="1.1" viewBox="0 0 126 126" width="126pt" xmlns="http://www.w3.org/2000/svg" xmlns:xlink="http://www.w3.org/1999/xlink">
 <defs>
  <style type="text/css">
*{stroke-linecap:butt;stroke-linejoin:round;stroke-miterlimit:100000;}
  </style>
 </defs>
 <g id="figure_1">
  <g id="patch_1">
   <path d="M 0 126 
L 126 126 
L 126 0 
L 0 0 
L 0 126 
z
" style="fill:none;"/>
  </g>
  <g id="axes_1">
   <g id="patch_2">
    <path d="M 15.75 110.25 
L 113.4 110.25 
L 113.4 12.6 
L 15.75 12.6 
L 15.75 110.25 
z
" style="fill:none;"/>
   </g>
   <g id="matplotlib.axis_1">
    <g id="xtick_1">
     <g id="line2d_1">
      <defs>
       <path d="M 0 0 
L 0 2 
" id="m11256dc5fa" style="stroke:#1a1a1a;"/>
      </defs>
      <g>
       <use style="fill:#1a1a1a;stroke:#1a1a1a;" x="23.6675675676" xlink:href="#m11256dc5fa" y="110.25"/>
      </g>
     </g>
     <g id="text_1">
      <text style="fill:#262626;font-family:Arial;font-size:7.5px;font-style:normal;font-weight:400;text-anchor:middle;" transform="rotate(-0.000000, 23.667568, 122.618359)" x="23.6675675676" y="122.618359375">2</text>
     </g>
    </g>
    <g id="xtick_2">
     <g id="line2d_2">
      <g>
       <use style="fill:#1a1a1a;stroke:#1a1a1a;" x="44.7810810811" xlink:href="#m11256dc5fa" y="110.25"/>
      </g>
     </g>
     <g id="text_2">
      <text style="fill:#262626;font-family:Arial;font-size:7.5px;font-style:normal;font-weight:400;text-anchor:middle;" transform="rotate(-0.000000, 44.781081, 122.618359)" x="44.7810810811" y="122.618359375">4</text>
     </g>
    </g>
    <g id="xtick_3">
     <g id="line2d_3">
      <g>
       <use style="fill:#1a1a1a;stroke:#1a1a1a;" x="65.8945945946" xlink:href="#m11256dc5fa" y="110.25"/>
      </g>
     </g>
     <g id="text_3">
      <text style="fill:#262626;font-family:Arial;font-size:7.5px;font-style:normal;font-weight:400;text-anchor:middle;" transform="rotate(-0.000000, 65.894595, 122.618359)" x="65.8945945946" y="122.618359375">6</text>
     </g>
    </g>
    <g id="xtick_4">
     <g id="line2d_4">
      <defs>
       <path d="M 0 0 
L 0 2 
" id="ma04668da92" style="stroke:#1a1a1a;stroke-width:0.5;"/>
      </defs>
      <g>
       <use style="fill:#1a1a1a;stroke:#1a1a1a;stroke-width:0.5;" x="34.2243243243" xlink:href="#ma04668da92" y="110.25"/>
      </g>
     </g>
    </g>
    <g id="xtick_5">
     <g id="line2d_5">
      <g>
       <use style="fill:#1a1a1a;stroke:#1a1a1a;stroke-width:0.5;" x="55.3378378378" xlink:href="#ma04668da92" y="110.25"/>
      </g>
     </g>
    </g>
    <g id="xtick_6">
     <g id="line2d_6">
      <g>
       <use style="fill:#1a1a1a;stroke:#1a1a1a;stroke-width:0.5;" x="76.4513513514" xlink:href="#ma04668da92" y="110.25"/>
      </g>
     </g>
    </g>
    <g id="xtick_7">
     <g id="line2d_7">
      <g>
       <use style="fill:#1a1a1a;stroke:#1a1a1a;stroke-width:0.5;" x="97.5648648649" xlink:href="#ma04668da92" y="110.25"/>
      </g>
     </g>
    </g>
    <g id="text_4">
     <text style="fill:#262626;font-family:Arial;font-size:9.0px;font-style:normal;font-weight:400;text-anchor:middle;" transform="rotate(-0.000000, 64.575000, 131.860703)" x="64.575" y="131.860703125">Threshold (z-units)</text>
    </g>
   </g>
   <g id="matplotlib.axis_2">
    <g id="ytick_1">
     <g id="line2d_8">
      <defs>
       <path d="M 0 0 
L -2 0 
" id="mf6913b41aa" style="stroke:#1a1a1a;"/>
      </defs>
      <g>
       <use style="fill:#1a1a1a;stroke:#1a1a1a;" x="15.75" xlink:href="#mf6913b41aa" y="110.25"/>
      </g>
     </g>
     <g id="text_5">
      <text style="fill:#262626;font-family:Arial;font-size:7.5px;font-style:normal;font-weight:400;text-anchor:end;" transform="rotate(-0.000000, 8.750000, 112.188867)" x="8.75" y="112.188867187">20</text>
     </g>
    </g>
    <g id="ytick_2">
     <g id="line2d_9">
      <g>
       <use style="fill:#1a1a1a;stroke:#1a1a1a;" x="15.75" xlink:href="#mf6913b41aa" y="77.7"/>
      </g>
     </g>
     <g id="text_6">
      <text style="fill:#262626;font-family:Arial;font-size:7.5px;font-style:normal;font-weight:400;text-anchor:end;" transform="rotate(-0.000000, 8.750000, 79.638867)" x="8.75" y="79.6388671875">30</text>
     </g>
    </g>
    <g id="ytick_3">
     <g id="line2d_10">
      <g>
       <use style="fill:#1a1a1a;stroke:#1a1a1a;" x="15.75" xlink:href="#mf6913b41aa" y="45.15"/>
      </g>
     </g>
     <g id="text_7">
      <text style="fill:#262626;font-family:Arial;font-size:7.5px;font-style:normal;font-weight:400;text-anchor:end;" transform="rotate(-0.000000, 8.750000, 47.088867)" x="8.75" y="47.0888671875">40</text>
     </g>
    </g>
    <g id="ytick_4">
     <g id="line2d_11">
      <defs>
       <path d="M 0 0 
L -2 0 
" id="m435ce8c3e5" style="stroke:#1a1a1a;stroke-width:0.5;"/>
      </defs>
      <g>
       <use style="fill:#1a1a1a;stroke:#1a1a1a;stroke-width:0.5;" x="15.75" xlink:href="#m435ce8c3e5" y="93.975"/>
      </g>
     </g>
    </g>
    <g id="ytick_5">
     <g id="line2d_12">
      <g>
       <use style="fill:#1a1a1a;stroke:#1a1a1a;stroke-width:0.5;" x="15.75" xlink:href="#m435ce8c3e5" y="61.425"/>
      </g>
     </g>
    </g>
    <g id="ytick_6">
     <g id="line2d_13">
      <g>
       <use style="fill:#1a1a1a;stroke:#1a1a1a;stroke-width:0.5;" x="15.75" xlink:href="#m435ce8c3e5" y="28.875"/>
      </g>
     </g>
    </g>
    <g id="text_8">
     <text style="fill:#262626;font-family:Arial;font-size:9.0px;font-style:normal;font-weight:400;text-anchor:middle;" transform="rotate(-90.000000, -2.685625, 61.425000)" x="-2.685625" y="61.425">Relative latency (%)</text>
    </g>
   </g>
   <g id="PolyCollection_1">
    <defs>
     <path d="M 18.389189 -20.177557 
L 18.389189 -17.651514 
L 21.028378 -23.742823 
L 23.667568 -28.607209 
L 26.306757 -34.35134 
L 28.945946 -38.4616 
L 31.585135 -41.781407 
L 34.224324 -46.17464 
L 36.863514 -48.613367 
L 39.502703 -51.677901 
L 42.141892 -54.693617 
L 44.781081 -57.292336 
L 47.42027 -60.176494 
L 50.059459 -63.510281 
L 52.698649 -66.296919 
L 55.337838 -68.253695 
L 57.977027 -70.068252 
L 60.616216 -73.512237 
L 63.255405 -76.417544 
L 65.894595 -77.485648 
L 68.533784 -78.564998 
L 71.172973 -80.385235 
L 73.812162 -82.507047 
L 76.451351 -84.135166 
L 79.090541 -86.106735 
L 81.72973 -88.068589 
L 84.368919 -89.941874 
L 87.008108 -90.551186 
L 89.647297 -90.533885 
L 92.286486 -91.477485 
L 94.925676 -94.192383 
L 97.564865 -94.448804 
L 100.204054 -96.926299 
L 102.843243 -97.242733 
L 105.482432 -99.258417 
L 108.121622 -99.293676 
L 108.121622 -103.258852 
L 108.121622 -103.258852 
L 105.482432 -103.02057 
L 102.843243 -101.015905 
L 100.204054 -100.68833 
L 97.564865 -98.150545 
L 94.925676 -97.693356 
L 92.286486 -94.868284 
L 89.647297 -94.065316 
L 87.008108 -93.80988 
L 84.368919 -93.080142 
L 81.72973 -91.115985 
L 79.090541 -89.276764 
L 76.451351 -87.313689 
L 73.812162 -85.453498 
L 71.172973 -83.506926 
L 68.533784 -81.574945 
L 65.894595 -80.564732 
L 63.255405 -79.534109 
L 60.616216 -76.631203 
L 57.977027 -73.184809 
L 55.337838 -71.269388 
L 52.698649 -69.255625 
L 50.059459 -66.486564 
L 47.42027 -62.971441 
L 44.781081 -60.153148 
L 42.141892 -57.608055 
L 39.502703 -54.505926 
L 36.863514 -51.567076 
L 34.224324 -49.039569 
L 31.585135 -44.555953 
L 28.945946 -41.214532 
L 26.306757 -37.119816 
L 23.667568 -31.108457 
L 21.028378 -26.115629 
L 18.389189 -20.177557 
z
" id="me63a0537d6" style="stroke:#ff0000;stroke-opacity:0.2;"/>
    </defs>
    <g clip-path="url(#p0989623475)">
     <use style="fill:#ff0000;fill-opacity:0.2;stroke:#ff0000;stroke-opacity:0.2;" x="0.0" xlink:href="#me63a0537d6" y="126.0"/>
    </g>
   </g>
   <g id="line2d_14">
    <path clip-path="url(#p0989623475)" d="M 18.389189 107.076097 
L 21.028378 101.08331 
L 23.667568 96.098787 
L 26.306757 90.246181 
L 28.945946 86.165854 
L 31.585135 82.780955 
L 34.224324 78.386352 
L 36.863514 75.933346 
L 39.502703 72.960424 
L 42.141892 69.85164 
L 44.781081 67.269415 
L 47.42027 64.426343 
L 50.059459 60.98345 
L 52.698649 58.23263 
L 55.337838 56.22296 
L 57.977027 54.366922 
L 60.616216 50.903042 
L 63.255405 48.008651 
L 65.894595 46.981128 
L 68.533784 45.919671 
L 71.172973 44.11977 
L 73.812162 41.96989 
L 76.451351 40.249556 
L 79.090541 38.359948 
L 81.72973 36.426114 
L 84.368919 34.410574 
L 87.008108 33.847624 
L 89.647297 33.646593 
L 92.286486 32.729607 
L 94.925676 30.03189 
L 97.564865 29.709816 
L 100.204054 27.27605 
L 102.843243 26.937441 
L 105.482432 24.863909 
L 108.121622 24.665778 
" style="fill:none;stroke:#ff0000;stroke-linecap:round;"/>
   </g>
   <g id="patch_3">
    <path d="M 15.75 110.25 
L 113.4 110.25 
" style="fill:none;stroke:#262626;stroke-linecap:square;stroke-linejoin:miter;stroke-width:0.5;"/>
   </g>
   <g id="patch_4">
    <path d="M 15.75 12.6 
L 113.4 12.6 
" style="fill:none;"/>
   </g>
   <g id="patch_5">
    <path d="M 15.75 110.25 
L 15.75 12.6 
" style="fill:none;stroke:#262626;stroke-linecap:square;stroke-linejoin:miter;stroke-width:0.5;"/>
   </g>
   <g id="patch_6">
    <path d="M 113.4 110.25 
L 113.4 12.6 
" style="fill:none;"/>
   </g>
  </g>
 </g>
 <defs>
  <clipPath id="p0989623475">
   <rect height="97.65" width="97.65" x="15.75" y="12.6"/>
  </clipPath>
 </defs>
</svg>
