<?xml version="1.0" encoding="utf-8" standalone="no"?>
<!DOCTYPE svg PUBLIC "-//W3C//DTD SVG 1.1//EN"
  "http://www.w3.org/Graphics/SVG/1.1/DTD/svg11.dtd">
<!-- Created with matplotlib (http://matplotlib.org/) -->
<svg height="126pt" version="1.1" viewBox="0 0 126 126" width="126pt" xmlns="http://www.w3.org/2000/svg" xmlns:xlink="http://www.w3.org/1999/xlink">
 <defs>
  <style type="text/css">
*{stroke-linecap:butt;stroke-linejoin:round;stroke-miterlimit:100000;}
  </style>
 </defs>
 <g id="figure_1">
  <g id="patch_1">
   <path d="M 0 126 
L 126 126 
L 126 0 
L 0 0 
L 0 126 
z
" style="fill:none;"/>
  </g>
  <g id="axes_1">
   <g id="patch_2">
    <path d="M 15.75 110.25 
L 113.4 110.25 
L 113.4 12.6 
L 15.75 12.6 
L 15.75 110.25 
z
" style="fill:none;"/>
   </g>
   <g id="matplotlib.axis_1">
    <g id="xtick_1">
     <g id="line2d_1">
      <defs>
       <path d="M 0 0 
L 0 2 
" id="m55cab63b5a" style="stroke:#1a1a1a;"/>
      </defs>
      <g>
       <use style="fill:#1a1a1a;stroke:#1a1a1a;" x="15.75" xlink:href="#m55cab63b5a" y="110.25"/>
      </g>
     </g>
     <g id="text_1">
      <text style="fill:#262626;font-family:Arial;font-size:7.5px;font-style:normal;font-weight:400;text-anchor:middle;" transform="rotate(-0.000000, 15.750000, 122.618359)" x="15.75" y="122.618359375">0</text>
     </g>
    </g>
    <g id="xtick_2">
     <g id="line2d_2">
      <g>
       <use style="fill:#1a1a1a;stroke:#1a1a1a;" x="37.45" xlink:href="#m55cab63b5a" y="110.25"/>
      </g>
     </g>
     <g id="text_2">
      <text style="fill:#262626;font-family:Arial;font-size:7.5px;font-style:normal;font-weight:400;text-anchor:middle;" transform="rotate(-0.000000, 37.450000, 122.618359)" x="37.45" y="122.618359375">100</text>
     </g>
    </g>
    <g id="xtick_3">
     <g id="line2d_3">
      <g>
       <use style="fill:#1a1a1a;stroke:#1a1a1a;" x="59.15" xlink:href="#m55cab63b5a" y="110.25"/>
      </g>
     </g>
     <g id="text_3">
      <text style="fill:#262626;font-family:Arial;font-size:7.5px;font-style:normal;font-weight:400;text-anchor:middle;" transform="rotate(-0.000000, 59.150000, 122.618359)" x="59.15" y="122.618359375">200</text>
     </g>
    </g>
    <g id="xtick_4">
     <g id="line2d_4">
      <g>
       <use style="fill:#1a1a1a;stroke:#1a1a1a;" x="80.85" xlink:href="#m55cab63b5a" y="110.25"/>
      </g>
     </g>
     <g id="text_4">
      <text style="fill:#262626;font-family:Arial;font-size:7.5px;font-style:normal;font-weight:400;text-anchor:middle;" transform="rotate(-0.000000, 80.850000, 122.618359)" x="80.85" y="122.618359375">300</text>
     </g>
    </g>
    <g id="xtick_5">
     <g id="line2d_5">
      <g>
       <use style="fill:#1a1a1a;stroke:#1a1a1a;" x="102.55" xlink:href="#m55cab63b5a" y="110.25"/>
      </g>
     </g>
     <g id="text_5">
      <text style="fill:#262626;font-family:Arial;font-size:7.5px;font-style:normal;font-weight:400;text-anchor:middle;" transform="rotate(-0.000000, 102.550000, 122.618359)" x="102.55" y="122.618359375">400</text>
     </g>
    </g>
    <g id="xtick_6">
     <g id="line2d_6">
      <defs>
       <path d="M 0 0 
L 0 2 
" id="m880a5d283c" style="stroke:#1a1a1a;stroke-width:0.5;"/>
      </defs>
      <g>
       <use style="fill:#1a1a1a;stroke:#1a1a1a;stroke-width:0.5;" x="26.6" xlink:href="#m880a5d283c" y="110.25"/>
      </g>
     </g>
    </g>
    <g id="xtick_7">
     <g id="line2d_7">
      <g>
       <use style="fill:#1a1a1a;stroke:#1a1a1a;stroke-width:0.5;" x="48.3" xlink:href="#m880a5d283c" y="110.25"/>
      </g>
     </g>
    </g>
    <g id="xtick_8">
     <g id="line2d_8">
      <g>
       <use style="fill:#1a1a1a;stroke:#1a1a1a;stroke-width:0.5;" x="70.0" xlink:href="#m880a5d283c" y="110.25"/>
      </g>
     </g>
    </g>
    <g id="xtick_9">
     <g id="line2d_9">
      <g>
       <use style="fill:#1a1a1a;stroke:#1a1a1a;stroke-width:0.5;" x="91.7" xlink:href="#m880a5d283c" y="110.25"/>
      </g>
     </g>
    </g>
    <g id="xtick_10">
     <g id="line2d_10">
      <g>
       <use style="fill:#1a1a1a;stroke:#1a1a1a;stroke-width:0.5;" x="113.4" xlink:href="#m880a5d283c" y="110.25"/>
      </g>
     </g>
    </g>
    <g id="text_6">
     <text style="fill:#262626;font-family:Arial;font-size:9.0px;font-style:normal;font-weight:400;text-anchor:middle;" transform="rotate(-0.000000, 64.575000, 131.860703)" x="64.575" y="131.860703125">Durations (ms)</text>
    </g>
   </g>
   <g id="matplotlib.axis_2">
    <g id="ytick_1">
     <g id="line2d_11">
      <defs>
       <path d="M 0 0 
L -2 0 
" id="mf410a3cc58" style="stroke:#1a1a1a;"/>
      </defs>
      <g>
       <use style="fill:#1a1a1a;stroke:#1a1a1a;" x="15.75" xlink:href="#mf410a3cc58" y="110.25"/>
      </g>
     </g>
     <g id="text_7">
      <text style="fill:#262626;font-family:Arial;font-size:7.5px;font-style:normal;font-weight:400;text-anchor:end;" transform="rotate(-0.000000, 8.750000, 112.188867)" x="8.75" y="112.188867187">0</text>
     </g>
    </g>
    <g id="ytick_2">
     <g id="line2d_12">
      <g>
       <use style="fill:#1a1a1a;stroke:#1a1a1a;" x="15.75" xlink:href="#mf410a3cc58" y="69.5625"/>
      </g>
     </g>
     <g id="text_8">
      <text style="fill:#262626;font-family:Arial;font-size:7.5px;font-style:normal;font-weight:400;text-anchor:end;" transform="rotate(-0.000000, 8.750000, 71.501367)" x="8.75" y="71.5013671875">50</text>
     </g>
    </g>
    <g id="ytick_3">
     <g id="line2d_13">
      <g>
       <use style="fill:#1a1a1a;stroke:#1a1a1a;" x="15.75" xlink:href="#mf410a3cc58" y="28.875"/>
      </g>
     </g>
     <g id="text_9">
      <text style="fill:#262626;font-family:Arial;font-size:7.5px;font-style:normal;font-weight:400;text-anchor:end;" transform="rotate(-0.000000, 8.750000, 30.813867)" x="8.75" y="30.8138671875">100</text>
     </g>
    </g>
    <g id="ytick_4">
     <g id="line2d_14">
      <defs>
       <path d="M 0 0 
L -2 0 
" id="m78401b3696" style="stroke:#1a1a1a;stroke-width:0.5;"/>
      </defs>
      <g>
       <use style="fill:#1a1a1a;stroke:#1a1a1a;stroke-width:0.5;" x="15.75" xlink:href="#m78401b3696" y="89.90625"/>
      </g>
     </g>
    </g>
    <g id="ytick_5">
     <g id="line2d_15">
      <g>
       <use style="fill:#1a1a1a;stroke:#1a1a1a;stroke-width:0.5;" x="15.75" xlink:href="#m78401b3696" y="49.21875"/>
      </g>
     </g>
    </g>
    <g id="text_10">
     <text style="fill:#262626;font-family:Arial;font-size:9.0px;font-style:normal;font-weight:400;text-anchor:middle;" transform="rotate(-90.000000, -6.750859, 61.425000)" x="-6.750859375" y="61.425">Counts</text>
    </g>
   </g>
   <g id="patch_3">
    <path clip-path="url(#pdba3eef253)" d="M 23.272667 110.25 
L 29.059333 110.25 
L 29.059333 72.00375 
L 23.272667 72.00375 
z
" style="fill:#696969;opacity:0.4;stroke:#1a1a1a;stroke-linejoin:miter;stroke-width:0.3;"/>
   </g>
   <g id="patch_4">
    <path clip-path="url(#pdba3eef253)" d="M 29.059333 110.25 
L 34.846 110.25 
L 34.846 25.62 
L 29.059333 25.62 
z
" style="fill:#696969;opacity:0.4;stroke:#1a1a1a;stroke-linejoin:miter;stroke-width:0.3;"/>
   </g>
   <g id="patch_5">
    <path clip-path="url(#pdba3eef253)" d="M 34.846 110.25 
L 40.632667 110.25 
L 40.632667 31.31625 
L 34.846 31.31625 
z
" style="fill:#696969;opacity:0.4;stroke:#1a1a1a;stroke-linejoin:miter;stroke-width:0.3;"/>
   </g>
   <g id="patch_6">
    <path clip-path="url(#pdba3eef253)" d="M 40.632667 110.25 
L 46.419333 110.25 
L 46.419333 59.7975 
L 40.632667 59.7975 
z
" style="fill:#696969;opacity:0.4;stroke:#1a1a1a;stroke-linejoin:miter;stroke-width:0.3;"/>
   </g>
   <g id="patch_7">
    <path clip-path="url(#pdba3eef253)" d="M 46.419333 110.25 
L 52.206 110.25 
L 52.206 67.935 
L 46.419333 67.935 
z
" style="fill:#696969;opacity:0.4;stroke:#1a1a1a;stroke-linejoin:miter;stroke-width:0.3;"/>
   </g>
   <g id="patch_8">
    <path clip-path="url(#pdba3eef253)" d="M 52.206 110.25 
L 57.992667 110.25 
L 57.992667 85.8375 
L 52.206 85.8375 
z
" style="fill:#696969;opacity:0.4;stroke:#1a1a1a;stroke-linejoin:miter;stroke-width:0.3;"/>
   </g>
   <g id="patch_9">
    <path clip-path="url(#pdba3eef253)" d="M 57.992667 110.25 
L 63.779333 110.25 
L 63.779333 96.41625 
L 57.992667 96.41625 
z
" style="fill:#696969;opacity:0.4;stroke:#1a1a1a;stroke-linejoin:miter;stroke-width:0.3;"/>
   </g>
   <g id="patch_10">
    <path clip-path="url(#pdba3eef253)" d="M 63.779333 110.25 
L 69.566 110.25 
L 69.566 98.8575 
L 63.779333 98.8575 
z
" style="fill:#696969;opacity:0.4;stroke:#1a1a1a;stroke-linejoin:miter;stroke-width:0.3;"/>
   </g>
   <g id="patch_11">
    <path clip-path="url(#pdba3eef253)" d="M 69.566 110.25 
L 75.352667 110.25 
L 75.352667 98.8575 
L 69.566 98.8575 
z
" style="fill:#696969;opacity:0.4;stroke:#1a1a1a;stroke-linejoin:miter;stroke-width:0.3;"/>
   </g>
   <g id="patch_12">
    <path clip-path="url(#pdba3eef253)" d="M 75.352667 110.25 
L 81.139333 110.25 
L 81.139333 105.3675 
L 75.352667 105.3675 
z
" style="fill:#696969;opacity:0.4;stroke:#1a1a1a;stroke-linejoin:miter;stroke-width:0.3;"/>
   </g>
   <g id="patch_13">
    <path clip-path="url(#pdba3eef253)" d="M 81.139333 110.25 
L 86.926 110.25 
L 86.926 104.55375 
L 81.139333 104.55375 
z
" style="fill:#696969;opacity:0.4;stroke:#1a1a1a;stroke-linejoin:miter;stroke-width:0.3;"/>
   </g>
   <g id="patch_14">
    <path clip-path="url(#pdba3eef253)" d="M 86.926 110.25 
L 92.712667 110.25 
L 92.712667 106.18125 
L 86.926 106.18125 
z
" style="fill:#696969;opacity:0.4;stroke:#1a1a1a;stroke-linejoin:miter;stroke-width:0.3;"/>
   </g>
   <g id="patch_15">
    <path clip-path="url(#pdba3eef253)" d="M 92.712667 110.25 
L 98.499333 110.25 
L 98.499333 106.995 
L 92.712667 106.995 
z
" style="fill:#696969;opacity:0.4;stroke:#1a1a1a;stroke-linejoin:miter;stroke-width:0.3;"/>
   </g>
   <g id="patch_16">
    <path clip-path="url(#pdba3eef253)" d="M 98.499333 110.25 
L 104.286 110.25 
L 104.286 108.6225 
L 98.499333 108.6225 
z
" style="fill:#696969;opacity:0.4;stroke:#1a1a1a;stroke-linejoin:miter;stroke-width:0.3;"/>
   </g>
   <g id="patch_17">
    <path clip-path="url(#pdba3eef253)" d="M 104.286 110.25 
L 110.072667 110.25 
L 110.072667 108.6225 
L 104.286 108.6225 
z
" style="fill:#696969;opacity:0.4;stroke:#1a1a1a;stroke-linejoin:miter;stroke-width:0.3;"/>
   </g>
   <g id="patch_18">
    <path clip-path="url(#pdba3eef253)" d="M 110.072667 110.25 
L 115.859333 110.25 
L 115.859333 109.43625 
L 110.072667 109.43625 
z
" style="fill:#696969;opacity:0.4;stroke:#1a1a1a;stroke-linejoin:miter;stroke-width:0.3;"/>
   </g>
   <g id="patch_19">
    <path clip-path="url(#pdba3eef253)" d="M 115.859333 110.25 
L 121.646 110.25 
L 121.646 110.25 
L 115.859333 110.25 
z
" style="fill:#696969;opacity:0.4;stroke:#1a1a1a;stroke-linejoin:miter;stroke-width:0.3;"/>
   </g>
   <g id="patch_20">
    <path clip-path="url(#pdba3eef253)" d="M 121.646 110.25 
L 127.432667 110.25 
L 127.432667 108.6225 
L 121.646 108.6225 
z
" style="fill:#696969;opacity:0.4;stroke:#1a1a1a;stroke-linejoin:miter;stroke-width:0.3;"/>
   </g>
   <g id="patch_21">
    <path clip-path="url(#pdba3eef253)" d="M 127.432667 110.25 
L 133.219333 110.25 
L 133.219333 109.43625 
L 127.432667 109.43625 
z
" style="fill:#696969;opacity:0.4;stroke:#1a1a1a;stroke-linejoin:miter;stroke-width:0.3;"/>
   </g>
   <g id="patch_22">
    <path clip-path="url(#pdba3eef253)" d="M 133.219333 110.25 
L 139.006 110.25 
L 139.006 110.25 
L 133.219333 110.25 
z
" style="fill:#696969;opacity:0.4;stroke:#1a1a1a;stroke-linejoin:miter;stroke-width:0.3;"/>
   </g>
   <g id="patch_23">
    <path clip-path="url(#pdba3eef253)" d="M 139.006 110.25 
L 144.792667 110.25 
L 144.792667 110.25 
L 139.006 110.25 
z
" style="fill:#696969;opacity:0.4;stroke:#1a1a1a;stroke-linejoin:miter;stroke-width:0.3;"/>
   </g>
   <g id="patch_24">
    <path clip-path="url(#pdba3eef253)" d="M 144.792667 110.25 
L 150.579333 110.25 
L 150.579333 110.25 
L 144.792667 110.25 
z
" style="fill:#696969;opacity:0.4;stroke:#1a1a1a;stroke-linejoin:miter;stroke-width:0.3;"/>
   </g>
   <g id="patch_25">
    <path clip-path="url(#pdba3eef253)" d="M 150.579333 110.25 
L 156.366 110.25 
L 156.366 110.25 
L 150.579333 110.25 
z
" style="fill:#696969;opacity:0.4;stroke:#1a1a1a;stroke-linejoin:miter;stroke-width:0.3;"/>
   </g>
   <g id="patch_26">
    <path clip-path="url(#pdba3eef253)" d="M 156.366 110.25 
L 162.152667 110.25 
L 162.152667 110.25 
L 156.366 110.25 
z
" style="fill:#696969;opacity:0.4;stroke:#1a1a1a;stroke-linejoin:miter;stroke-width:0.3;"/>
   </g>
   <g id="patch_27">
    <path clip-path="url(#pdba3eef253)" d="M 162.152667 110.25 
L 167.939333 110.25 
L 167.939333 110.25 
L 162.152667 110.25 
z
" style="fill:#696969;opacity:0.4;stroke:#1a1a1a;stroke-linejoin:miter;stroke-width:0.3;"/>
   </g>
   <g id="patch_28">
    <path clip-path="url(#pdba3eef253)" d="M 167.939333 110.25 
L 173.726 110.25 
L 173.726 109.43625 
L 167.939333 109.43625 
z
" style="fill:#696969;opacity:0.4;stroke:#1a1a1a;stroke-linejoin:miter;stroke-width:0.3;"/>
   </g>
   <g id="patch_29">
    <path clip-path="url(#pdba3eef253)" d="M 173.726 110.25 
L 179.512667 110.25 
L 179.512667 110.25 
L 173.726 110.25 
z
" style="fill:#696969;opacity:0.4;stroke:#1a1a1a;stroke-linejoin:miter;stroke-width:0.3;"/>
   </g>
   <g id="patch_30">
    <path clip-path="url(#pdba3eef253)" d="M 179.512667 110.25 
L 185.299333 110.25 
L 185.299333 110.25 
L 179.512667 110.25 
z
" style="fill:#696969;opacity:0.4;stroke:#1a1a1a;stroke-linejoin:miter;stroke-width:0.3;"/>
   </g>
   <g id="patch_31">
    <path clip-path="url(#pdba3eef253)" d="M 185.299333 110.25 
L 191.086 110.25 
L 191.086 110.25 
L 185.299333 110.25 
z
" style="fill:#696969;opacity:0.4;stroke:#1a1a1a;stroke-linejoin:miter;stroke-width:0.3;"/>
   </g>
   <g id="patch_32">
    <path clip-path="url(#pdba3eef253)" d="M 191.086 110.25 
L 196.872667 110.25 
L 196.872667 109.43625 
L 191.086 109.43625 
z
" style="fill:#696969;opacity:0.4;stroke:#1a1a1a;stroke-linejoin:miter;stroke-width:0.3;"/>
   </g>
   <g id="patch_33">
    <path clip-path="url(#pdba3eef253)" d="M 196.872667 110.25 
L 202.659333 110.25 
L 202.659333 110.25 
L 196.872667 110.25 
z
" style="fill:#696969;opacity:0.4;stroke:#1a1a1a;stroke-linejoin:miter;stroke-width:0.3;"/>
   </g>
   <g id="patch_34">
    <path clip-path="url(#pdba3eef253)" d="M 202.659333 110.25 
L 208.446 110.25 
L 208.446 110.25 
L 202.659333 110.25 
z
" style="fill:#696969;opacity:0.4;stroke:#1a1a1a;stroke-linejoin:miter;stroke-width:0.3;"/>
   </g>
   <g id="patch_35">
    <path clip-path="url(#pdba3eef253)" d="M 208.446 110.25 
L 214.232667 110.25 
L 214.232667 110.25 
L 208.446 110.25 
z
" style="fill:#696969;opacity:0.4;stroke:#1a1a1a;stroke-linejoin:miter;stroke-width:0.3;"/>
   </g>
   <g id="patch_36">
    <path clip-path="url(#pdba3eef253)" d="M 214.232667 110.25 
L 220.019333 110.25 
L 220.019333 110.25 
L 214.232667 110.25 
z
" style="fill:#696969;opacity:0.4;stroke:#1a1a1a;stroke-linejoin:miter;stroke-width:0.3;"/>
   </g>
   <g id="patch_37">
    <path clip-path="url(#pdba3eef253)" d="M 220.019333 110.25 
L 225.806 110.25 
L 225.806 110.25 
L 220.019333 110.25 
z
" style="fill:#696969;opacity:0.4;stroke:#1a1a1a;stroke-linejoin:miter;stroke-width:0.3;"/>
   </g>
   <g id="patch_38">
    <path clip-path="url(#pdba3eef253)" d="M 225.806 110.25 
L 231.592667 110.25 
L 231.592667 110.25 
L 225.806 110.25 
z
" style="fill:#696969;opacity:0.4;stroke:#1a1a1a;stroke-linejoin:miter;stroke-width:0.3;"/>
   </g>
   <g id="patch_39">
    <path clip-path="url(#pdba3eef253)" d="M 231.592667 110.25 
L 237.379333 110.25 
L 237.379333 110.25 
L 231.592667 110.25 
z
" style="fill:#696969;opacity:0.4;stroke:#1a1a1a;stroke-linejoin:miter;stroke-width:0.3;"/>
   </g>
   <g id="patch_40">
    <path clip-path="url(#pdba3eef253)" d="M 237.379333 110.25 
L 243.166 110.25 
L 243.166 110.25 
L 237.379333 110.25 
z
" style="fill:#696969;opacity:0.4;stroke:#1a1a1a;stroke-linejoin:miter;stroke-width:0.3;"/>
   </g>
   <g id="patch_41">
    <path clip-path="url(#pdba3eef253)" d="M 243.166 110.25 
L 248.952667 110.25 
L 248.952667 110.25 
L 243.166 110.25 
z
" style="fill:#696969;opacity:0.4;stroke:#1a1a1a;stroke-linejoin:miter;stroke-width:0.3;"/>
   </g>
   <g id="patch_42">
    <path clip-path="url(#pdba3eef253)" d="M 248.952667 110.25 
L 254.739333 110.25 
L 254.739333 110.25 
L 248.952667 110.25 
z
" style="fill:#696969;opacity:0.4;stroke:#1a1a1a;stroke-linejoin:miter;stroke-width:0.3;"/>
   </g>
   <g id="patch_43">
    <path clip-path="url(#pdba3eef253)" d="M 254.739333 110.25 
L 260.526 110.25 
L 260.526 110.25 
L 254.739333 110.25 
z
" style="fill:#696969;opacity:0.4;stroke:#1a1a1a;stroke-linejoin:miter;stroke-width:0.3;"/>
   </g>
   <g id="patch_44">
    <path clip-path="url(#pdba3eef253)" d="M 260.526 110.25 
L 266.312667 110.25 
L 266.312667 110.25 
L 260.526 110.25 
z
" style="fill:#696969;opacity:0.4;stroke:#1a1a1a;stroke-linejoin:miter;stroke-width:0.3;"/>
   </g>
   <g id="patch_45">
    <path clip-path="url(#pdba3eef253)" d="M 266.312667 110.25 
L 272.099333 110.25 
L 272.099333 110.25 
L 266.312667 110.25 
z
" style="fill:#696969;opacity:0.4;stroke:#1a1a1a;stroke-linejoin:miter;stroke-width:0.3;"/>
   </g>
   <g id="patch_46">
    <path clip-path="url(#pdba3eef253)" d="M 272.099333 110.25 
L 277.886 110.25 
L 277.886 110.25 
L 272.099333 110.25 
z
" style="fill:#696969;opacity:0.4;stroke:#1a1a1a;stroke-linejoin:miter;stroke-width:0.3;"/>
   </g>
   <g id="patch_47">
    <path clip-path="url(#pdba3eef253)" d="M 277.886 110.25 
L 283.672667 110.25 
L 283.672667 110.25 
L 277.886 110.25 
z
" style="fill:#696969;opacity:0.4;stroke:#1a1a1a;stroke-linejoin:miter;stroke-width:0.3;"/>
   </g>
   <g id="patch_48">
    <path clip-path="url(#pdba3eef253)" d="M 283.672667 110.25 
L 289.459333 110.25 
L 289.459333 110.25 
L 283.672667 110.25 
z
" style="fill:#696969;opacity:0.4;stroke:#1a1a1a;stroke-linejoin:miter;stroke-width:0.3;"/>
   </g>
   <g id="patch_49">
    <path clip-path="url(#pdba3eef253)" d="M 289.459333 110.25 
L 295.246 110.25 
L 295.246 110.25 
L 289.459333 110.25 
z
" style="fill:#696969;opacity:0.4;stroke:#1a1a1a;stroke-linejoin:miter;stroke-width:0.3;"/>
   </g>
   <g id="patch_50">
    <path clip-path="url(#pdba3eef253)" d="M 295.246 110.25 
L 301.032667 110.25 
L 301.032667 110.25 
L 295.246 110.25 
z
" style="fill:#696969;opacity:0.4;stroke:#1a1a1a;stroke-linejoin:miter;stroke-width:0.3;"/>
   </g>
   <g id="patch_51">
    <path clip-path="url(#pdba3eef253)" d="M 301.032667 110.25 
L 306.819333 110.25 
L 306.819333 110.25 
L 301.032667 110.25 
z
" style="fill:#696969;opacity:0.4;stroke:#1a1a1a;stroke-linejoin:miter;stroke-width:0.3;"/>
   </g>
   <g id="patch_52">
    <path clip-path="url(#pdba3eef253)" d="M 306.819333 110.25 
L 312.606 110.25 
L 312.606 109.43625 
L 306.819333 109.43625 
z
" style="fill:#696969;opacity:0.4;stroke:#1a1a1a;stroke-linejoin:miter;stroke-width:0.3;"/>
   </g>
   <g id="patch_53">
    <path d="M 15.75 110.25 
L 113.4 110.25 
" style="fill:none;stroke:#262626;stroke-linecap:square;stroke-linejoin:miter;stroke-width:1.25;"/>
   </g>
   <g id="patch_54">
    <path d="M 15.75 12.6 
L 113.4 12.6 
" style="fill:none;"/>
   </g>
   <g id="patch_55">
    <path d="M 15.75 110.25 
L 15.75 12.6 
" style="fill:none;stroke:#262626;stroke-linecap:square;stroke-linejoin:miter;stroke-width:1.25;"/>
   </g>
   <g id="patch_56">
    <path d="M 113.4 110.25 
L 113.4 12.6 
" style="fill:none;"/>
   </g>
   <g id="text_11">
    <text style="fill:#262626;font-family:Arial;font-size:9.0px;font-style:normal;font-weight:400;text-anchor:middle;" transform="rotate(-0.000000, 64.575000, 7.600000)" x="64.575" y="7.6">Ripple Durations</text>
   </g>
  </g>
 </g>
 <defs>
  <clipPath id="pdba3eef253">
   <rect height="97.65" width="97.65" x="15.75" y="12.6"/>
  </clipPath>
 </defs>
</svg>
