<?xml version="1.0" encoding="utf-8" standalone="no"?>
<!DOCTYPE svg PUBLIC "-//W3C//DTD SVG 1.1//EN"
  "http://www.w3.org/Graphics/SVG/1.1/DTD/svg11.dtd">
<!-- Created with matplotlib (http://matplotlib.org/) -->
<svg height="126pt" version="1.1" viewBox="0 0 126 126" width="126pt" xmlns="http://www.w3.org/2000/svg" xmlns:xlink="http://www.w3.org/1999/xlink">
 <defs>
  <style type="text/css">
*{stroke-linecap:butt;stroke-linejoin:round;stroke-miterlimit:100000;}
  </style>
 </defs>
 <g id="figure_1">
  <g id="patch_1">
   <path d="M 0 126 
L 126 126 
L 126 0 
L 0 0 
L 0 126 
z
" style="fill:none;"/>
  </g>
  <g id="axes_1">
   <g id="patch_2">
    <path d="M 15.75 110.25 
L 113.4 110.25 
L 113.4 12.6 
L 15.75 12.6 
L 15.75 110.25 
z
" style="fill:none;"/>
   </g>
   <g id="matplotlib.axis_1">
    <g id="xtick_1">
     <g id="line2d_1">
      <defs>
       <path d="M 0 0 
L 0 2 
" id="m26b0376759" style="stroke:#1a1a1a;"/>
      </defs>
      <g>
       <use style="fill:#1a1a1a;stroke:#1a1a1a;" x="19.9053191489" xlink:href="#m26b0376759" y="110.25"/>
      </g>
     </g>
     <g id="text_1">
      <text style="fill:#262626;font-family:Arial;font-size:8.0px;font-style:normal;font-weight:400;text-anchor:middle;" transform="rotate(-0.000000, 19.905319, 122.976250)" x="19.9053191489" y="122.97625">0</text>
     </g>
    </g>
    <g id="xtick_2">
     <g id="line2d_2">
      <g>
       <use style="fill:#1a1a1a;stroke:#1a1a1a;" x="61.4585106383" xlink:href="#m26b0376759" y="110.25"/>
      </g>
     </g>
     <g id="text_2">
      <text style="fill:#262626;font-family:Arial;font-size:8.0px;font-style:normal;font-weight:400;text-anchor:middle;" transform="rotate(-0.000000, 61.458511, 122.976250)" x="61.4585106383" y="122.97625">40</text>
     </g>
    </g>
    <g id="xtick_3">
     <g id="line2d_3">
      <g>
       <use style="fill:#1a1a1a;stroke:#1a1a1a;" x="103.011702128" xlink:href="#m26b0376759" y="110.25"/>
      </g>
     </g>
     <g id="text_3">
      <text style="fill:#262626;font-family:Arial;font-size:8.0px;font-style:normal;font-weight:400;text-anchor:middle;" transform="rotate(-0.000000, 103.011702, 122.976250)" x="103.011702128" y="122.97625">80</text>
     </g>
    </g>
    <g id="xtick_4">
     <g id="line2d_4">
      <defs>
       <path d="M 0 0 
L 0 2 
" id="m2b2d889f81" style="stroke:#1a1a1a;stroke-width:0.5;"/>
      </defs>
      <g>
       <use style="fill:#1a1a1a;stroke:#1a1a1a;stroke-width:0.5;" x="30.2936170213" xlink:href="#m2b2d889f81" y="110.25"/>
      </g>
     </g>
    </g>
    <g id="xtick_5">
     <g id="line2d_5">
      <g>
       <use style="fill:#1a1a1a;stroke:#1a1a1a;stroke-width:0.5;" x="40.6819148936" xlink:href="#m2b2d889f81" y="110.25"/>
      </g>
     </g>
    </g>
    <g id="xtick_6">
     <g id="line2d_6">
      <g>
       <use style="fill:#1a1a1a;stroke:#1a1a1a;stroke-width:0.5;" x="51.070212766" xlink:href="#m2b2d889f81" y="110.25"/>
      </g>
     </g>
    </g>
    <g id="xtick_7">
     <g id="line2d_7">
      <g>
       <use style="fill:#1a1a1a;stroke:#1a1a1a;stroke-width:0.5;" x="71.8468085106" xlink:href="#m2b2d889f81" y="110.25"/>
      </g>
     </g>
    </g>
    <g id="xtick_8">
     <g id="line2d_8">
      <g>
       <use style="fill:#1a1a1a;stroke:#1a1a1a;stroke-width:0.5;" x="82.235106383" xlink:href="#m2b2d889f81" y="110.25"/>
      </g>
     </g>
    </g>
    <g id="xtick_9">
     <g id="line2d_9">
      <g>
       <use style="fill:#1a1a1a;stroke:#1a1a1a;stroke-width:0.5;" x="92.6234042553" xlink:href="#m2b2d889f81" y="110.25"/>
      </g>
     </g>
    </g>
    <g id="xtick_10">
     <g id="line2d_10">
      <g>
       <use style="fill:#1a1a1a;stroke:#1a1a1a;stroke-width:0.5;" x="113.4" xlink:href="#m2b2d889f81" y="110.25"/>
      </g>
     </g>
    </g>
    <g id="text_4">
     <text style="fill:#262626;font-family:Arial;font-size:9.6px;font-style:normal;font-weight:400;text-anchor:middle;" transform="rotate(-0.000000, 64.575000, 132.754750)" x="64.575" y="132.75475">FSR (per min)</text>
    </g>
   </g>
   <g id="matplotlib.axis_2">
    <g id="ytick_1">
     <g id="line2d_11">
      <defs>
       <path d="M 0 0 
L -2 0 
" id="m1ed855a096" style="stroke:#1a1a1a;"/>
      </defs>
      <g>
       <use style="fill:#1a1a1a;stroke:#1a1a1a;" x="15.75" xlink:href="#m1ed855a096" y="24.80625"/>
      </g>
     </g>
     <g id="text_5">
      <text style="fill:#262626;font-family:Arial;font-size:8.0px;font-style:normal;font-weight:400;text-anchor:end;" transform="rotate(-0.000000, 8.750000, 26.874375)" x="8.75" y="26.874375">100</text>
     </g>
    </g>
    <g id="ytick_2">
     <g id="line2d_12">
      <defs>
       <path d="M 0 0 
L -2 0 
" id="mc8a7cb59c2" style="stroke:#1a1a1a;stroke-width:0.5;"/>
      </defs>
      <g>
       <use style="fill:#1a1a1a;stroke:#1a1a1a;stroke-width:0.5;" x="15.75" xlink:href="#mc8a7cb59c2" y="106.18125"/>
      </g>
     </g>
    </g>
    <g id="ytick_3">
     <g id="line2d_13">
      <g>
       <use style="fill:#1a1a1a;stroke:#1a1a1a;stroke-width:0.5;" x="15.75" xlink:href="#mc8a7cb59c2" y="85.8375"/>
      </g>
     </g>
    </g>
    <g id="ytick_4">
     <g id="line2d_14">
      <g>
       <use style="fill:#1a1a1a;stroke:#1a1a1a;stroke-width:0.5;" x="15.75" xlink:href="#mc8a7cb59c2" y="65.49375"/>
      </g>
     </g>
    </g>
    <g id="ytick_5">
     <g id="line2d_15">
      <g>
       <use style="fill:#1a1a1a;stroke:#1a1a1a;stroke-width:0.5;" x="15.75" xlink:href="#mc8a7cb59c2" y="45.15"/>
      </g>
     </g>
    </g>
    <g id="text_6">
     <text style="fill:#262626;font-family:Arial;font-size:9.6px;font-style:normal;font-weight:400;text-anchor:middle;" transform="rotate(-90.000000, -7.816750, 61.425000)" x="-7.81675" y="61.425">TPR (%)</text>
    </g>
   </g>
   <g id="PolyCollection_1">
    <path clip-path="url(#p3dc18fdd18)" d="M 105.036085 25.520344 
L 96.667969 25.520344 
L 72.064116 25.772066 
L 55.061501 25.381883 
L 44.179743 25.350296 
L 37.674814 25.792417 
L 33.136686 25.306072 
L 30.020239 25.4042 
L 27.831865 25.873506 
L 26.247645 26.594004 
L 25.043428 28.763747 
L 23.841933 32.306321 
L 22.912461 36.879488 
L 22.256357 42.106258 
L 21.818958 50.803984 
L 21.326875 61.3871 
L 20.889473 73.047312 
L 20.670773 79.555783 
L 20.561422 92.475126 
L 20.452072 103.101876 
L 20.561422 111.472007 
L 20.493078 120.435715 
L 20.397396 126.872987 
L 20.315384 138.289134 
L 20.23337 148.704436 
L 20.178696 159.435678 
L 20.137689 168.263641 
L 20.137689 178.403096 
L 20.12402 191.444442 
L 20.096683 200.756033 
L 20.069345 207.931775 
L 20.055676 217.007233 
L 19.987332 223.33844 
L 19.987332 233.284222 
L 19.973663 242.012376 
L 19.973663 253.838352 
L 20.151358 253.838352 
L 20.151358 253.838352 
L 20.137689 242.012376 
L 20.165027 233.284222 
L 20.178696 223.33844 
L 20.288046 217.007233 
L 20.301715 207.931775 
L 20.343063 200.756033 
L 20.397396 191.444442 
L 20.411407 178.403096 
L 20.424734 168.263641 
L 20.452414 159.435678 
L 20.547753 148.704436 
L 20.657104 138.289134 
L 20.780123 126.872987 
L 20.889473 120.435715 
L 20.985152 111.472007 
L 21.381548 103.101876 
L 21.545579 92.475126 
L 21.710967 79.555783 
L 22.092326 73.047312 
L 22.529736 61.3871 
L 23.240513 50.803984 
L 23.896617 42.106258 
L 24.716742 36.879488 
L 25.919593 32.306321 
L 27.231801 28.763747 
L 28.762714 26.594004 
L 30.568403 25.873506 
L 33.247441 25.4042 
L 36.909301 25.306072 
L 41.830133 25.792417 
L 49.265973 25.350296 
L 60.747743 25.381883 
L 78.571881 25.772066 
L 105.036085 25.520344 
z
" style="fill:#ff0000;fill-opacity:0.2;stroke:#ff0000;stroke-opacity:0.2;"/>
   </g>
   <g id="PolyCollection_2">
    <path clip-path="url(#p3dc18fdd18)" d="M 107.342376 25.905879 
L 102.998197 25.905879 
L 78.187722 26.231995 
L 62.052098 25.663414 
L 51.204819 25.623248 
L 44.459178 25.594957 
L 40.100819 25.572739 
L 36.850399 25.140826 
L 34.448599 25.135539 
L 32.951024 25.141334 
L 31.575325 25.125726 
L 30.212671 25.11797 
L 28.930994 25.112284 
L 28.121517 25.113048 
L 27.014562 25.11157 
L 25.962912 25.098651 
L 25.085637 25.875416 
L 24.519344 26.10822 
L 23.89841 27.377856 
L 23.304791 30.84201 
L 22.99483 35.149512 
L 22.657205 39.271254 
L 22.333413 43.200528 
L 22.077419 49.054931 
L 21.807593 58.859171 
L 21.524273 66.278058 
L 21.240953 72.577413 
L 21.038589 79.716526 
L 20.984622 95.821177 
L 20.82239 105.831434 
L 20.714797 113.631068 
L 20.660832 125.540901 
L 20.566393 134.620745 
L 20.498599 147.78976 
L 20.471954 161.175677 
L 20.458463 177.367631 
L 20.836219 177.367631 
L 20.836219 177.367631 
L 20.84971 161.175677 
L 20.87703 147.78976 
L 20.998116 134.620745 
L 21.10604 125.540901 
L 21.160007 113.631068 
L 21.321909 105.831434 
L 21.4838 95.821177 
L 21.564746 79.716526 
L 21.834572 72.577413 
L 22.158702 66.278058 
L 22.468663 58.859171 
L 22.778961 49.054931 
L 23.062281 43.200528 
L 23.440041 39.271254 
L 23.817791 35.149512 
L 24.263013 30.84201 
L 24.88361 27.377856 
L 25.517701 26.10822 
L 26.205759 25.875416 
L 27.096519 25.098651 
L 28.283419 25.11157 
L 29.457162 25.113048 
L 30.34787 25.112284 
L 31.73785 25.11797 
L 33.180733 25.125726 
L 34.637795 25.141334 
L 36.310727 25.135539 
L 38.766105 25.140826 
L 42.12581 25.572739 
L 46.77995 25.594957 
L 53.863912 25.623248 
L 64.939214 25.663414 
L 81.641519 26.231995 
L 107.342376 25.905879 
z
" style="fill:#008000;fill-opacity:0.2;stroke:#008000;stroke-opacity:0.2;"/>
   </g>
   <g id="PolyCollection_3">
    <path clip-path="url(#p3dc18fdd18)" d="M 105.076532 25.724043 
L 100.812603 25.724043 
L 75.880688 25.996813 
L 59.677307 25.521241 
L 48.870776 25.476549 
L 42.058053 25.453121 
L 37.646013 25.436684 
L 34.313992 25.090155 
L 32.060978 25.085436 
L 30.360699 25.079217 
L 29.065907 25.063387 
L 27.729936 25.071458 
L 26.380808 25.372829 
L 25.639119 26.01459 
L 24.532501 28.391417 
L 23.6559 29.690386 
L 22.981336 35.330134 
L 22.495652 38.023919 
L 22.077419 43.161298 
L 21.686175 50.794191 
L 21.38936 56.144245 
L 21.281436 66.708501 
L 21.079062 73.641628 
L 20.876693 82.745631 
L 20.728288 94.632497 
L 20.660832 106.467196 
L 20.525919 115.748649 
L 20.471954 127.538603 
L 20.471954 144.000433 
L 20.364023 152.887134 
L 20.323549 161.10032 
L 20.323549 172.245081 
L 20.22911 179.574309 
L 20.202127 190.96063 
L 20.161654 201.667726 
L 20.148162 215.168973 
L 20.43148 215.168973 
L 20.43148 215.168973 
L 20.444971 201.667726 
L 20.498937 190.96063 
L 20.53941 179.574309 
L 20.674661 172.245081 
L 20.660832 161.10032 
L 20.728288 152.887134 
L 20.876693 144.000433 
L 20.84971 127.538603 
L 20.930658 115.748649 
L 21.092556 106.467196 
L 21.227469 94.632497 
L 21.38936 82.745631 
L 21.605219 73.641628 
L 21.848066 66.708501 
L 21.969484 56.144245 
L 22.320603 50.794191 
L 22.765814 43.161298 
L 23.27814 38.023919 
L 23.817791 35.330134 
L 24.573648 29.690386 
L 25.572005 28.391417 
L 26.731916 26.01459 
L 27.622676 25.372829 
L 28.984962 25.071458 
L 30.563401 25.063387 
L 31.926372 25.079217 
L 33.67989 25.085436 
L 36.000428 25.090155 
L 39.616076 25.436684 
L 44.230142 25.453121 
L 51.245567 25.476549 
L 62.61878 25.521241 
L 79.254234 25.996813 
L 105.076532 25.724043 
z
" style="fill:#800080;fill-opacity:0.2;stroke:#800080;stroke-opacity:0.2;"/>
   </g>
   <g id="patch_3">
    <path clip-path="url(#p3dc18fdd18)" d="M 17.82766 45.15 
L 46.914894 45.15 
L 46.914894 22.771875 
L 17.82766 22.771875 
L 17.82766 45.15 
z
" style="fill:none;opacity:0.5;stroke:#1a1a1a;stroke-dasharray:6.000000,6.000000;stroke-dashoffset:0.0;stroke-linejoin:miter;"/>
   </g>
   <g id="line2d_16">
    <path clip-path="url(#p3dc18fdd18)" d="M 100.886473 25.520344 
L 75.220326 25.772066 
L 57.940431 25.381883 
L 46.799693 25.350296 
L 39.829312 25.792417 
L 34.986831 25.306072 
L 31.608666 25.4042 
L 29.126957 25.873506 
L 27.548591 26.594004 
L 26.134525 28.763747 
L 24.861084 32.306321 
L 23.781084 36.879488 
L 23.060191 42.106258 
L 22.4861 50.803984 
L 21.911901 61.3871 
L 21.454105 73.047312 
L 21.196748 79.555783 
L 21.027583 92.475126 
L 20.91014 103.101876 
L 20.776733 111.472007 
L 20.684797 120.435715 
L 20.577018 126.872987 
L 20.576034 127 
" style="fill:none;stroke:#ff0000;stroke-linecap:round;"/>
   </g>
   <g id="line2d_17">
    <path clip-path="url(#p3dc18fdd18)" d="M 100.886473 26.455497 
L 75.220326 26.834054 
L 57.940431 26.197864 
L 46.799693 26.164114 
L 39.829312 26.725551 
L 34.986831 25.9455 
L 31.608666 26.101364 
L 29.126957 26.784242 
L 27.548591 27.753276 
L 26.134525 30.478108 
L 24.861084 34.608276 
L 23.781084 39.551258 
L 23.060191 45.275857 
L 22.4861 54.639413 
L 21.911901 65.778796 
L 21.454105 78.336892 
L 21.196748 84.955029 
L 21.027583 98.279565 
L 20.91014 109.024757 
L 20.776733 114.550689 
L 20.684797 123.771677 
L 20.630367 127 
" style="fill:none;stroke:#ff0000;stroke-dasharray:1.000000,3.000000;stroke-dashoffset:0.0;"/>
   </g>
   <g id="line2d_18">
    <path clip-path="url(#p3dc18fdd18)" d="M 100.886473 24.80625 
L 75.220326 25.030001 
L 57.940431 24.80625 
L 46.799693 24.80625 
L 39.829312 24.997888 
L 34.986831 24.80625 
L 31.608666 24.80625 
L 29.126957 25.159418 
L 27.548591 25.523154 
L 26.134525 27.334541 
L 24.861084 30.368628 
L 23.781084 34.279348 
L 23.060191 38.969426 
L 22.4861 47.019265 
L 21.911901 57.048805 
L 21.454105 67.768008 
L 21.196748 74.399979 
L 21.027583 86.989587 
L 20.91014 96.285714 
L 20.776733 108.197305 
L 20.684797 117.260761 
L 20.577018 123.750418 
L 20.551217 127 
" style="fill:none;stroke:#ff0000;stroke-dasharray:1.000000,3.000000;stroke-dashoffset:0.0;"/>
   </g>
   <g id="line2d_19">
    <path clip-path="url(#p3dc18fdd18)" d="M 105.200686 25.905879 
L 79.840451 26.231995 
L 63.465412 25.663414 
L 52.517241 25.623248 
L 45.64392 25.594957 
L 41.132585 25.572739 
L 37.78694 25.140826 
L 35.403743 25.135539 
L 33.760816 25.141334 
L 32.3842 25.125726 
L 30.956604 25.11797 
L 29.6527 25.112284 
L 28.779583 25.113048 
L 27.615916 25.11157 
L 26.531833 25.098651 
L 25.635302 25.875416 
L 25.007565 26.10822 
L 24.366981 27.377856 
L 23.783613 30.84201 
L 23.401386 35.149512 
L 23.033694 39.271254 
L 22.691386 43.200528 
L 22.413027 49.054931 
L 22.13296 58.859171 
L 21.83618 66.278058 
L 21.528149 72.577413 
L 21.299092 79.716526 
L 21.220918 95.821177 
L 21.080492 105.831434 
L 20.927946 113.631068 
L 20.880308 125.540901 
L 20.862276 127 
" style="fill:none;stroke:#008000;stroke-linecap:round;"/>
   </g>
   <g id="line2d_20">
    <path clip-path="url(#p3dc18fdd18)" d="M 105.200686 26.615348 
L 79.840451 26.990945 
L 63.465412 26.158499 
L 52.517241 26.135541 
L 45.64392 26.085496 
L 41.132585 26.057808 
L 37.78694 25.477197 
L 35.403743 25.462244 
L 33.760816 25.470311 
L 32.3842 25.444657 
L 30.956604 25.378835 
L 29.6527 25.415789 
L 28.779583 25.412117 
L 27.615916 25.409686 
L 26.531833 25.35071 
L 25.635302 26.373777 
L 25.007565 26.652639 
L 24.366981 28.184655 
L 23.783613 32.036948 
L 23.401386 36.637504 
L 23.033694 41.071902 
L 22.691386 45.198774 
L 22.413027 51.181037 
L 22.13296 61.363694 
L 21.83618 69.152258 
L 21.528149 75.443726 
L 21.299092 83.209718 
L 21.220918 99.249677 
L 21.080492 109.352271 
L 20.927946 117.431812 
L 20.890281 127 
" style="fill:none;stroke:#008000;stroke-dasharray:1.000000,3.000000;stroke-dashoffset:0.0;"/>
   </g>
   <g id="line2d_21">
    <path clip-path="url(#p3dc18fdd18)" d="M 105.200686 25.306289 
L 79.840451 25.567086 
L 63.465412 25.193992 
L 52.517241 25.179741 
L 45.64392 25.160618 
L 41.132585 25.147537 
L 37.78694 24.873791 
L 35.403743 24.872978 
L 33.760816 24.871757 
L 32.3842 24.870129 
L 30.956604 24.868909 
L 29.6527 24.868095 
L 28.779583 24.867678 
L 27.615916 24.866864 
L 26.531833 24.86605 
L 25.635302 25.4022 
L 25.007565 25.579699 
L 24.366981 26.664835 
L 23.783613 29.709023 
L 23.401386 33.677203 
L 23.033694 37.626546 
L 22.691386 41.332383 
L 22.413027 46.944176 
L 22.13296 56.19569 
L 21.83618 63.305525 
L 21.528149 69.639745 
L 21.299092 76.585875 
L 21.220918 92.446503 
L 21.080492 102.184141 
L 20.927946 109.79669 
L 20.880308 121.513297 
L 20.813907 127 
" style="fill:none;stroke:#008000;stroke-dasharray:1.000000,3.000000;stroke-dashoffset:0.0;"/>
   </g>
   <g id="line2d_22">
    <path clip-path="url(#p3dc18fdd18)" d="M 102.979996 25.724043 
L 77.581565 25.996813 
L 61.116452 25.521241 
L 50.079411 25.476549 
L 43.171046 25.453121 
L 38.626138 25.436684 
L 35.166066 25.090155 
L 32.856518 25.085436 
L 31.140843 25.079217 
L 29.777507 25.063387 
L 28.348401 25.071458 
L 26.991595 25.372829 
L 26.182752 26.01459 
L 25.052599 28.391417 
L 24.116141 29.690386 
L 23.408537 35.330134 
L 22.876116 38.023919 
L 22.404137 43.161298 
L 21.998467 50.794191 
L 21.670844 56.144245 
L 21.555332 66.708501 
L 21.338257 73.641628 
L 21.136589 82.745631 
L 20.979051 94.632497 
L 20.87019 106.467196 
L 20.719978 115.748649 
L 20.654753 127 
" style="fill:none;stroke:#800080;stroke-linecap:round;"/>
   </g>
   <g id="line2d_23">
    <path clip-path="url(#p3dc18fdd18)" d="M 102.979996 26.289157 
L 77.581565 26.628724 
L 61.116452 25.914059 
L 50.079411 25.908891 
L 43.171046 25.874338 
L 38.626138 25.85081 
L 35.166066 25.370209 
L 32.856518 25.353507 
L 31.140843 25.348228 
L 29.777507 25.328271 
L 28.348401 25.323002 
L 26.991595 25.715656 
L 26.182752 26.519204 
L 25.052599 29.163088 
L 24.116141 30.663277 
L 23.408537 36.712481 
L 22.876116 39.593888 
L 22.404137 45.01269 
L 21.998467 53.01587 
L 21.670844 58.415875 
L 21.555332 69.249105 
L 21.338257 76.222088 
L 21.136589 85.870396 
L 20.979051 97.775558 
L 20.87019 109.816261 
L 20.719978 119.209123 
L 20.675918 127 
" style="fill:none;stroke:#800080;stroke-dasharray:1.000000,3.000000;stroke-dashoffset:0.0;"/>
   </g>
   <g id="line2d_24">
    <path clip-path="url(#p3dc18fdd18)" d="M 102.979996 25.220845 
L 77.581565 25.496686 
L 61.116452 25.127254 
L 50.079411 25.109352 
L 43.171046 25.107236 
L 38.626138 25.091459 
L 35.166066 24.862399 
L 32.856518 24.861982 
L 31.140843 24.860761 
L 29.777507 24.858737 
L 28.348401 24.858737 
L 26.991595 25.058909 
L 26.182752 25.569954 
L 25.052599 27.6298 
L 24.116141 28.75901 
L 23.408537 33.968648 
L 22.876116 36.540027 
L 22.404137 41.310056 
L 21.998467 48.753071 
L 21.670844 53.946027 
L 21.555332 64.144929 
L 21.338257 70.742539 
L 21.136589 79.722067 
L 20.979051 91.473899 
L 20.87019 103.139341 
L 20.719978 112.141511 
L 20.651631 123.874799 
L 20.653549 127 
" style="fill:none;stroke:#800080;stroke-dasharray:1.000000,3.000000;stroke-dashoffset:0.0;"/>
   </g>
   <g id="patch_4">
    <path d="M 15.75 110.25 
L 113.4 110.25 
" style="fill:none;stroke:#262626;stroke-linecap:square;stroke-linejoin:miter;stroke-width:0.5;"/>
   </g>
   <g id="patch_5">
    <path d="M 15.75 12.6 
L 113.4 12.6 
" style="fill:none;"/>
   </g>
   <g id="patch_6">
    <path d="M 15.75 110.25 
L 15.75 12.6 
" style="fill:none;stroke:#262626;stroke-linecap:square;stroke-linejoin:miter;stroke-width:0.5;"/>
   </g>
   <g id="patch_7">
    <path d="M 113.4 110.25 
L 113.4 12.6 
" style="fill:none;"/>
   </g>
  </g>
  <g id="axes_2">
   <g id="patch_8">
    <path d="M 48.76 93.78 
L 100.6 93.78 
L 100.6 64.98 
L 48.76 64.98 
L 48.76 93.78 
z
" style="fill:none;"/>
   </g>
   <g id="matplotlib.axis_3">
    <g id="xtick_11">
     <g id="line2d_25">
      <g>
       <use style="fill:#1a1a1a;stroke:#1a1a1a;" x="48.76" xlink:href="#m26b0376759" y="93.78"/>
      </g>
     </g>
     <g id="text_7">
      <text style="fill:#262626;font-family:Arial;font-size:8.0px;font-style:normal;font-weight:400;text-anchor:middle;" transform="rotate(-0.000000, 48.760000, 106.506250)" x="48.76" y="106.50625">0</text>
     </g>
    </g>
    <g id="xtick_12">
     <g id="line2d_26">
      <g>
       <use style="fill:#1a1a1a;stroke:#1a1a1a;" x="64.96" xlink:href="#m26b0376759" y="93.78"/>
      </g>
     </g>
     <g id="text_8">
      <text style="fill:#262626;font-family:Arial;font-size:8.0px;font-style:normal;font-weight:400;text-anchor:middle;" transform="rotate(-0.000000, 64.960000, 106.506250)" x="64.96" y="106.50625">5</text>
     </g>
    </g>
    <g id="xtick_13">
     <g id="line2d_27">
      <g>
       <use style="fill:#1a1a1a;stroke:#1a1a1a;" x="81.16" xlink:href="#m26b0376759" y="93.78"/>
      </g>
     </g>
     <g id="text_9">
      <text style="fill:#262626;font-family:Arial;font-size:8.0px;font-style:normal;font-weight:400;text-anchor:middle;" transform="rotate(-0.000000, 81.160000, 106.506250)" x="81.16" y="106.50625">10</text>
     </g>
    </g>
    <g id="xtick_14">
     <g id="line2d_28">
      <g>
       <use style="fill:#1a1a1a;stroke:#1a1a1a;" x="97.36" xlink:href="#m26b0376759" y="93.78"/>
      </g>
     </g>
     <g id="text_10">
      <text style="fill:#262626;font-family:Arial;font-size:8.0px;font-style:normal;font-weight:400;text-anchor:middle;" transform="rotate(-0.000000, 97.360000, 106.506250)" x="97.36" y="106.50625">15</text>
     </g>
    </g>
   </g>
   <g id="matplotlib.axis_4">
    <g id="ytick_6">
     <g id="line2d_29">
      <g>
       <use style="fill:#1a1a1a;stroke:#1a1a1a;" x="48.76" xlink:href="#m1ed855a096" y="93.78"/>
      </g>
     </g>
     <g id="text_11">
      <text style="fill:#262626;font-family:Arial;font-size:8.0px;font-style:normal;font-weight:400;text-anchor:end;" transform="rotate(-0.000000, 43.760000, 95.848125)" x="43.76" y="95.848125">95</text>
     </g>
    </g>
    <g id="ytick_7">
     <g id="line2d_30">
      <g>
       <use style="fill:#1a1a1a;stroke:#1a1a1a;" x="48.76" xlink:href="#m1ed855a096" y="67.5981818182"/>
      </g>
     </g>
     <g id="text_12">
      <text style="fill:#262626;font-family:Arial;font-size:8.0px;font-style:normal;font-weight:400;text-anchor:end;" transform="rotate(-0.000000, 43.760000, 69.666307)" x="43.76" y="69.6663068182">100</text>
     </g>
    </g>
    <g id="ytick_8">
     <g id="line2d_31">
      <g>
       <use style="fill:#1a1a1a;stroke:#1a1a1a;stroke-width:0.5;" x="48.76" xlink:href="#mc8a7cb59c2" y="88.5436363636"/>
      </g>
     </g>
    </g>
    <g id="ytick_9">
     <g id="line2d_32">
      <g>
       <use style="fill:#1a1a1a;stroke:#1a1a1a;stroke-width:0.5;" x="48.76" xlink:href="#mc8a7cb59c2" y="83.3072727273"/>
      </g>
     </g>
    </g>
    <g id="ytick_10">
     <g id="line2d_33">
      <g>
       <use style="fill:#1a1a1a;stroke:#1a1a1a;stroke-width:0.5;" x="48.76" xlink:href="#mc8a7cb59c2" y="78.0709090909"/>
      </g>
     </g>
    </g>
    <g id="ytick_11">
     <g id="line2d_34">
      <g>
       <use style="fill:#1a1a1a;stroke:#1a1a1a;stroke-width:0.5;" x="48.76" xlink:href="#mc8a7cb59c2" y="72.8345454545"/>
      </g>
     </g>
    </g>
   </g>
   <g id="PolyCollection_4">
    <path clip-path="url(#pb53cfdd0fd)" d="M 314.273837 68.5172 
L 288.174567 68.5172 
L 211.437759 68.841159 
L 158.408404 68.339004 
L 124.469355 68.298353 
L 104.181172 68.86735 
L 90.027232 68.241439 
L 80.307362 68.367727 
L 73.482056 68.971709 
L 68.541042 69.89897 
L 64.785216 72.691366 
L 61.037883 77.250557 
L 58.138958 83.13609 
L 56.092638 89.862792 
L 54.728436 101.056514 
L 53.193681 114.676678 
L 51.829472 129.683035 
L 51.147368 138.059248 
L 50.806316 154.686069 
L 50.465264 168.362389 
L 50.806316 179.134506 
L 50.593156 190.670539 
L 50.294736 198.955122 
L 50.038948 213.647374 
L 49.783156 227.051566 
L 49.612632 240.862365 
L 49.484736 252.223697 
L 49.484736 265.272883 
L 49.442104 282.056718 
L 49.356844 294.040466 
L 49.27158 303.275439 
L 49.228948 314.955291 
L 49.01579 323.103372 
L 49.01579 335.903306 
L 48.973158 347.136188 
L 48.973158 362.355876 
L 49.527368 362.355876 
L 49.527368 362.355876 
L 49.484736 347.136188 
L 49.57 335.903306 
L 49.612632 323.103372 
L 49.953684 314.955291 
L 49.996316 303.275439 
L 50.125278 294.040466 
L 50.294736 282.056718 
L 50.338434 265.272883 
L 50.38 252.223697 
L 50.46633 240.862365 
L 50.763684 227.051566 
L 51.104736 213.647374 
L 51.48842 198.955122 
L 51.829472 190.670539 
L 52.127883 179.134506 
L 53.364202 168.362389 
L 53.875798 154.686069 
L 54.391625 138.059248 
L 55.581042 129.683035 
L 56.945277 114.676678 
L 59.162117 101.056514 
L 61.208436 89.862792 
L 63.766319 83.13609 
L 67.517883 77.250557 
L 71.610521 72.691366 
L 76.385277 69.89897 
L 82.017029 68.971709 
L 90.372665 68.367727 
L 101.793616 68.241439 
L 117.141172 68.86735 
L 140.332768 68.298353 
L 176.143192 68.339004 
L 231.734788 68.841159 
L 314.273837 68.5172 
z
" style="fill:#ff0000;fill-opacity:0.2;stroke:#ff0000;stroke-opacity:0.2;"/>
   </g>
   <g id="PolyCollection_5">
    <path clip-path="url(#pb53cfdd0fd)" d="M 321.466912 69.013372 
L 307.91788 69.013372 
L 230.536636 69.433074 
L 180.211336 68.701327 
L 146.379823 68.649635 
L 125.340883 68.613225 
L 111.747625 68.584632 
L 101.609908 68.028772 
L 94.118947 68.021968 
L 89.448171 68.029426 
L 85.157512 68.009338 
L 80.907539 67.999356 
L 76.910124 67.992039 
L 74.385452 67.993022 
L 70.932974 67.99112 
L 67.652991 67.974494 
L 64.916861 68.974167 
L 63.150654 69.27378 
L 61.214026 70.907764 
L 59.362593 75.36603 
L 58.395857 80.909661 
L 57.342842 86.214224 
L 56.332967 91.271086 
L 55.534548 98.805533 
L 54.692991 111.423306 
L 53.809346 120.9712 
L 52.9257 129.078287 
L 52.294548 138.26612 
L 52.12623 158.99234 
L 51.620247 171.875252 
L 51.284676 181.913155 
L 51.116365 197.240766 
L 50.821819 208.926263 
L 50.610378 225.874404 
L 50.527274 243.101692 
L 50.485196 263.940269 
L 51.663377 263.940269 
L 51.663377 263.940269 
L 51.705455 243.101692 
L 51.790663 225.874404 
L 52.168318 208.926263 
L 52.504922 197.240766 
L 52.67324 181.913155 
L 53.178194 171.875252 
L 53.683115 158.99234 
L 53.935576 138.26612 
L 54.777134 129.078287 
L 55.788061 120.9712 
L 56.754797 111.423306 
L 57.722585 98.805533 
L 58.60623 91.271086 
L 59.784424 86.214224 
L 60.962585 80.909661 
L 62.351184 75.36603 
L 64.28676 70.907764 
L 66.264424 69.27378 
L 68.410406 68.974167 
L 71.188591 67.974494 
L 74.890406 67.99112 
L 78.551184 67.993022 
L 81.329209 67.992039 
L 85.66441 67.999356 
L 90.164608 68.009338 
L 94.709032 68.029426 
L 99.926728 68.021968 
L 107.584792 68.028772 
L 118.063357 68.584632 
L 132.579124 68.613225 
L 154.673251 68.649635 
L 189.215944 68.701327 
L 241.308664 69.433074 
L 321.466912 69.013372 
z
" style="fill:#008000;fill-opacity:0.2;stroke:#008000;stroke-opacity:0.2;"/>
   </g>
   <g id="PolyCollection_6">
    <path clip-path="url(#pb53cfdd0fd)" d="M 314.399986 68.779355 
L 301.101244 68.779355 
L 223.341244 69.130403 
L 172.804615 68.518354 
L 139.100191 68.460837 
L 117.852028 68.430687 
L 104.091343 68.409532 
L 93.699124 67.96356 
L 86.672212 67.957486 
L 81.369223 67.949483 
L 77.330903 67.92911 
L 73.164151 67.939497 
L 68.956363 68.327353 
L 66.643115 69.153281 
L 63.19169 72.212188 
L 60.457664 73.883924 
L 58.35377 81.142116 
L 56.838972 84.60894 
L 55.534548 91.220597 
L 54.3143 101.04391 
L 53.388567 107.929276 
L 53.051963 121.525167 
L 52.420779 130.447901 
L 51.789611 142.16449 
L 51.326754 157.462543 
L 51.116365 172.693459 
L 50.695586 184.638421 
L 50.527274 199.81175 
L 50.527274 220.997649 
L 50.190648 232.434577 
L 50.064414 243.004711 
L 50.064414 257.347695 
L 49.769869 266.7802 
L 49.685713 281.434067 
L 49.55948 295.213788 
L 49.517402 312.589504 
L 50.401041 312.589504 
L 50.401041 312.589504 
L 50.443118 295.213788 
L 50.61143 281.434067 
L 50.737664 266.7802 
L 51.159494 257.347695 
L 51.116365 243.004711 
L 51.326754 232.434577 
L 51.789611 220.997649 
L 51.705455 199.81175 
L 51.957922 184.638421 
L 52.462866 172.693459 
L 52.883645 157.462543 
L 53.388567 142.16449 
L 54.061806 130.447901 
L 54.819221 121.525167 
L 55.197912 107.929276 
L 56.293015 101.04391 
L 57.681581 91.220597 
L 59.27947 84.60894 
L 60.962585 81.142116 
L 63.320024 73.883924 
L 66.433793 72.212188 
L 70.051433 69.153281 
L 72.829619 68.327353 
L 77.078442 67.939497 
L 82.001428 67.92911 
L 86.252389 67.949483 
L 91.721428 67.957486 
L 98.95894 67.96356 
L 110.23576 68.409532 
L 124.626544 68.430687 
L 146.506912 68.460837 
L 181.978756 68.518354 
L 233.862974 69.130403 
L 314.399986 68.779355 
z
" style="fill:#800080;fill-opacity:0.2;stroke:#800080;stroke-opacity:0.2;"/>
   </g>
   <g id="line2d_35">
    <path clip-path="url(#pb53cfdd0fd)" d="M 301.331636 68.5172 
M 127 68.445987 
L 110.900821 68.86735 
L 95.797636 68.241439 
L 85.261499 68.367727 
L 77.52131 68.971709 
L 72.598556 69.89897 
L 68.188233 72.691366 
L 64.216505 77.250557 
L 60.848099 83.13609 
L 58.599709 89.862792 
L 56.809183 101.056514 
L 55.018316 114.676678 
L 53.845783 127 
" style="fill:none;stroke:#ff0000;stroke-linecap:round;"/>
   </g>
   <g id="line2d_36">
    <path clip-path="url(#pb53cfdd0fd)" d="M 301.331636 69.720716 
M 127 69.533189 
L 110.900821 70.068266 
L 95.797636 69.064364 
L 85.261499 69.264956 
L 77.52131 70.143801 
L 72.598556 71.390919 
L 68.188233 74.897699 
L 64.216505 80.213105 
L 60.848099 86.57458 
L 58.599709 93.941974 
L 56.809183 105.992601 
L 55.018316 120.328665 
L 54.42894 127 
" style="fill:none;stroke:#ff0000;stroke-dasharray:1.000000,3.000000;stroke-dashoffset:0.0;"/>
   </g>
   <g id="line2d_37">
    <path clip-path="url(#pb53cfdd0fd)" d="M 301.331636 67.598182 
M 127 67.662174 
L 110.900821 67.844815 
L 95.797636 67.598182 
L 85.261499 67.598182 
L 77.52131 68.052698 
L 72.598556 68.520816 
L 68.188233 70.852019 
L 64.216505 74.756801 
L 60.848099 79.789785 
L 58.599709 85.82578 
L 56.809183 96.18569 
L 55.018316 109.093418 
L 53.590499 122.888723 
L 53.203863 127 
" style="fill:none;stroke:#ff0000;stroke-dasharray:1.000000,3.000000;stroke-dashoffset:0.0;"/>
   </g>
   <g id="line2d_38">
    <path clip-path="url(#pb53cfdd0fd)" d="M 314.787209 69.013372 
M 127 68.609088 
L 114.965592 68.584632 
L 104.53088 68.028772 
L 97.097941 68.021968 
L 91.973827 68.029426 
L 87.680307 68.009338 
L 83.227786 67.999356 
L 79.161049 67.992039 
L 76.43789 67.993022 
L 72.808533 67.99112 
L 69.427396 67.974494 
L 66.631208 68.974167 
L 64.673365 69.27378 
L 62.67545 70.907764 
L 60.855989 75.36603 
L 59.663863 80.909661 
L 58.517071 86.214224 
L 57.449447 91.271086 
L 56.581276 98.805533 
L 55.707775 111.423306 
L 54.78215 120.9712 
L 54.067718 127 
" style="fill:none;stroke:#008000;stroke-linecap:round;"/>
   </g>
   <g id="line2d_39">
    <path clip-path="url(#pb53cfdd0fd)" d="M 314.787209 69.926439 
M 127 69.239378 
L 114.965592 69.2089 
L 104.53088 68.461671 
L 97.097941 68.442428 
L 91.973827 68.452809 
L 87.680307 68.419793 
L 83.227786 68.335082 
L 79.161049 68.382641 
L 76.43789 68.377916 
L 72.808533 68.374787 
L 69.427396 68.298886 
L 66.631208 69.615543 
L 64.673365 69.974431 
L 62.67545 71.946092 
L 60.855989 76.903881 
L 59.663863 82.824663 
L 58.517071 88.531606 
L 57.449447 93.842771 
L 56.581276 101.54177 
L 55.707775 114.646556 
L 54.78215 124.670212 
L 54.505717 127 
" style="fill:none;stroke:#008000;stroke-dasharray:1.000000,3.000000;stroke-dashoffset:0.0;"/>
   </g>
   <g id="line2d_40">
    <path clip-path="url(#pb53cfdd0fd)" d="M 314.787209 68.241718 
M 127 68.051807 
L 114.965592 68.037408 
L 104.53088 67.685105 
L 97.097941 67.684058 
L 91.973827 67.682487 
L 87.680307 67.680393 
L 83.227786 67.678822 
L 79.161049 67.677775 
L 76.43789 67.677238 
L 72.808533 67.676191 
L 69.427396 67.675143 
L 66.631208 68.365152 
L 64.673365 68.593588 
L 62.67545 69.990127 
L 60.855989 73.907908 
L 59.663863 79.014842 
L 58.517071 84.097532 
L 57.449447 88.866838 
L 56.581276 96.089053 
L 55.707775 107.995484 
L 54.78215 117.145636 
L 53.821435 125.297594 
L 53.685385 127 
" style="fill:none;stroke:#008000;stroke-dasharray:1.000000,3.000000;stroke-dashoffset:0.0;"/>
   </g>
   <g id="line2d_41">
    <path clip-path="url(#pb53cfdd0fd)" d="M 307.861111 68.779355 
M 127 68.43863 
L 121.323337 68.430687 
L 107.148249 68.409532 
L 96.356653 67.96356 
L 89.153416 67.957486 
L 83.802408 67.949483 
L 79.550308 67.92911 
L 75.093079 67.939497 
L 70.861344 68.327353 
L 68.338647 69.153281 
L 64.813821 72.212188 
L 61.893108 73.883924 
L 59.686164 81.142116 
L 58.0256 84.60894 
L 56.553547 91.220597 
L 55.288306 101.04391 
L 54.266485 107.929276 
L 53.906214 121.525167 
L 53.490798 127 
" style="fill:none;stroke:#800080;stroke-linecap:round;"/>
   </g>
   <g id="line2d_42">
    <path clip-path="url(#pb53cfdd0fd)" d="M 307.861111 69.50664 
M 127 68.984496 
L 121.323337 68.97278 
L 107.148249 68.9425 
L 96.356653 68.323981 
L 89.153416 68.302486 
L 83.802408 68.295692 
L 79.550308 68.270007 
L 75.093079 68.263226 
L 70.861344 68.768561 
L 68.338647 69.802704 
L 64.813821 73.205306 
L 61.893108 75.136006 
L 59.686164 82.921156 
L 58.0256 86.629444 
L 56.553547 93.603286 
L 55.288306 103.903148 
L 54.266485 110.852797 
L 53.906214 124.794851 
L 53.739849 127 
" style="fill:none;stroke:#800080;stroke-dasharray:1.000000,3.000000;stroke-dashoffset:0.0;"/>
   </g>
   <g id="line2d_43">
    <path clip-path="url(#pb53cfdd0fd)" d="M 307.861111 68.131754 
M 127 67.986259 
L 121.323337 67.985542 
L 107.148249 67.965238 
L 96.356653 67.670444 
L 89.153416 67.669907 
L 83.802408 67.668336 
L 79.550308 67.665731 
L 75.093079 67.665731 
L 70.861344 67.923347 
L 68.338647 68.581047 
L 64.813821 71.232009 
L 61.893108 72.68527 
L 59.686164 79.389923 
L 58.0256 82.699213 
L 56.553547 88.838103 
L 55.288306 98.417049 
L 54.266485 105.100233 
L 53.906214 118.225924 
L 53.22918 126.716858 
L 53.21377 127 
" style="fill:none;stroke:#800080;stroke-dasharray:1.000000,3.000000;stroke-dashoffset:0.0;"/>
   </g>
   <g id="patch_9">
    <path d="M 48.76 93.78 
L 100.6 93.78 
" style="fill:none;stroke:#262626;stroke-linecap:square;stroke-linejoin:miter;stroke-width:0.3;"/>
   </g>
   <g id="patch_10">
    <path d="M 48.76 64.98 
L 100.6 64.98 
" style="fill:none;stroke:#262626;stroke-linecap:square;stroke-linejoin:miter;stroke-width:0.3;"/>
   </g>
   <g id="patch_11">
    <path d="M 48.76 93.78 
L 48.76 64.98 
" style="fill:none;stroke:#262626;stroke-linecap:square;stroke-linejoin:miter;stroke-width:0.3;"/>
   </g>
   <g id="patch_12">
    <path d="M 100.6 93.78 
L 100.6 64.98 
" style="fill:none;stroke:#262626;stroke-linecap:square;stroke-linejoin:miter;stroke-width:0.3;"/>
   </g>
  </g>
 </g>
 <defs>
  <clipPath id="pb53cfdd0fd">
   <rect height="28.8" width="51.84" x="48.76" y="64.98"/>
  </clipPath>
  <clipPath id="p3dc18fdd18">
   <rect height="97.65" width="97.65" x="15.75" y="12.6"/>
  </clipPath>
 </defs>
</svg>
