<?xml version="1.0" encoding="utf-8" standalone="no"?>
<!DOCTYPE svg PUBLIC "-//W3C//DTD SVG 1.1//EN"
  "http://www.w3.org/Graphics/SVG/1.1/DTD/svg11.dtd">
<!-- Created with matplotlib (http://matplotlib.org/) -->
<svg height="126pt" version="1.1" viewBox="0 0 126 126" width="126pt" xmlns="http://www.w3.org/2000/svg" xmlns:xlink="http://www.w3.org/1999/xlink">
 <defs>
  <style type="text/css">
*{stroke-linecap:butt;stroke-linejoin:round;stroke-miterlimit:100000;}
  </style>
 </defs>
 <g id="figure_1">
  <g id="patch_1">
   <path d="M 0 126 
L 126 126 
L 126 0 
L 0 0 
L 0 126 
z
" style="fill:none;"/>
  </g>
  <g id="axes_1">
   <g id="patch_2">
    <path d="M 15.75 110.25 
L 113.4 110.25 
L 113.4 12.6 
L 15.75 12.6 
L 15.75 110.25 
z
" style="fill:none;"/>
   </g>
   <g id="matplotlib.axis_1">
    <g id="xtick_1">
     <g id="line2d_1">
      <defs>
       <path d="M 0 0 
L 0 2 
" id="m49d424f5c5" style="stroke:#1a1a1a;"/>
      </defs>
      <g>
       <use style="fill:#1a1a1a;stroke:#1a1a1a;" x="23.6675675676" xlink:href="#m49d424f5c5" y="110.25"/>
      </g>
     </g>
     <g id="text_1">
      <text style="fill:#262626;font-family:Arial;font-size:8.0px;font-style:normal;font-weight:400;text-anchor:middle;" transform="rotate(-0.000000, 23.667568, 122.976250)" x="23.6675675676" y="122.97625">2</text>
     </g>
    </g>
    <g id="xtick_2">
     <g id="line2d_2">
      <g>
       <use style="fill:#1a1a1a;stroke:#1a1a1a;" x="44.7810810811" xlink:href="#m49d424f5c5" y="110.25"/>
      </g>
     </g>
     <g id="text_2">
      <text style="fill:#262626;font-family:Arial;font-size:8.0px;font-style:normal;font-weight:400;text-anchor:middle;" transform="rotate(-0.000000, 44.781081, 122.976250)" x="44.7810810811" y="122.97625">4</text>
     </g>
    </g>
    <g id="xtick_3">
     <g id="line2d_3">
      <g>
       <use style="fill:#1a1a1a;stroke:#1a1a1a;" x="65.8945945946" xlink:href="#m49d424f5c5" y="110.25"/>
      </g>
     </g>
     <g id="text_3">
      <text style="fill:#262626;font-family:Arial;font-size:8.0px;font-style:normal;font-weight:400;text-anchor:middle;" transform="rotate(-0.000000, 65.894595, 122.976250)" x="65.8945945946" y="122.97625">6</text>
     </g>
    </g>
    <g id="xtick_4">
     <g id="line2d_4">
      <g>
       <use style="fill:#1a1a1a;stroke:#1a1a1a;" x="87.0081081081" xlink:href="#m49d424f5c5" y="110.25"/>
      </g>
     </g>
     <g id="text_4">
      <text style="fill:#262626;font-family:Arial;font-size:8.0px;font-style:normal;font-weight:400;text-anchor:middle;" transform="rotate(-0.000000, 87.008108, 122.976250)" x="87.0081081081" y="122.97625">8</text>
     </g>
    </g>
    <g id="xtick_5">
     <g id="line2d_5">
      <g>
       <use style="fill:#1a1a1a;stroke:#1a1a1a;" x="108.121621622" xlink:href="#m49d424f5c5" y="110.25"/>
      </g>
     </g>
     <g id="text_5">
      <text style="fill:#262626;font-family:Arial;font-size:8.0px;font-style:normal;font-weight:400;text-anchor:middle;" transform="rotate(-0.000000, 108.121622, 122.976250)" x="108.121621622" y="122.97625">10</text>
     </g>
    </g>
    <g id="xtick_6">
     <g id="line2d_6">
      <defs>
       <path d="M 0 0 
L 0 2 
" id="m802222290f" style="stroke:#1a1a1a;stroke-width:0.5;"/>
      </defs>
      <g>
       <use style="fill:#1a1a1a;stroke:#1a1a1a;stroke-width:0.5;" x="34.2243243243" xlink:href="#m802222290f" y="110.25"/>
      </g>
     </g>
    </g>
    <g id="xtick_7">
     <g id="line2d_7">
      <g>
       <use style="fill:#1a1a1a;stroke:#1a1a1a;stroke-width:0.5;" x="55.3378378378" xlink:href="#m802222290f" y="110.25"/>
      </g>
     </g>
    </g>
    <g id="xtick_8">
     <g id="line2d_8">
      <g>
       <use style="fill:#1a1a1a;stroke:#1a1a1a;stroke-width:0.5;" x="76.4513513514" xlink:href="#m802222290f" y="110.25"/>
      </g>
     </g>
    </g>
    <g id="xtick_9">
     <g id="line2d_9">
      <g>
       <use style="fill:#1a1a1a;stroke:#1a1a1a;stroke-width:0.5;" x="97.5648648649" xlink:href="#m802222290f" y="110.25"/>
      </g>
     </g>
    </g>
    <g id="text_6">
     <text style="fill:#262626;font-family:Arial;font-size:9.6px;font-style:normal;font-weight:400;text-anchor:middle;" transform="rotate(-0.000000, 64.575000, 132.754750)" x="64.575" y="132.75475">Threshold (z-units)</text>
    </g>
   </g>
   <g id="matplotlib.axis_2">
    <g id="ytick_1">
     <g id="line2d_10">
      <defs>
       <path d="M 0 0 
L -2 0 
" id="mb083af9f97" style="stroke:#1a1a1a;"/>
      </defs>
      <g>
       <use style="fill:#1a1a1a;stroke:#1a1a1a;" x="15.75" xlink:href="#mb083af9f97" y="106.18125"/>
      </g>
     </g>
     <g id="text_7">
      <text style="fill:#262626;font-family:Arial;font-size:8.0px;font-style:normal;font-weight:400;text-anchor:end;" transform="rotate(-0.000000, 8.750000, 108.249375)" x="8.75" y="108.249375">80</text>
     </g>
    </g>
    <g id="ytick_2">
     <g id="line2d_11">
      <g>
       <use style="fill:#1a1a1a;stroke:#1a1a1a;" x="15.75" xlink:href="#mb083af9f97" y="24.80625"/>
      </g>
     </g>
     <g id="text_8">
      <text style="fill:#262626;font-family:Arial;font-size:8.0px;font-style:normal;font-weight:400;text-anchor:end;" transform="rotate(-0.000000, 8.750000, 26.874375)" x="8.75" y="26.874375">100</text>
     </g>
    </g>
    <g id="ytick_3">
     <g id="line2d_12">
      <defs>
       <path d="M 0 0 
L -2 0 
" id="mb4629e3ad5" style="stroke:#1a1a1a;stroke-width:0.5;"/>
      </defs>
      <g>
       <use style="fill:#1a1a1a;stroke:#1a1a1a;stroke-width:0.5;" x="15.75" xlink:href="#mb4629e3ad5" y="85.8375"/>
      </g>
     </g>
    </g>
    <g id="ytick_4">
     <g id="line2d_13">
      <g>
       <use style="fill:#1a1a1a;stroke:#1a1a1a;stroke-width:0.5;" x="15.75" xlink:href="#mb4629e3ad5" y="65.49375"/>
      </g>
     </g>
    </g>
    <g id="ytick_5">
     <g id="line2d_14">
      <g>
       <use style="fill:#1a1a1a;stroke:#1a1a1a;stroke-width:0.5;" x="15.75" xlink:href="#mb4629e3ad5" y="45.15"/>
      </g>
     </g>
    </g>
    <g id="text_9">
     <text style="fill:#262626;font-family:Arial;font-size:9.6px;font-style:normal;font-weight:400;text-anchor:middle;" transform="rotate(-90.000000, -7.816750, 61.425000)" x="-7.81675" y="61.425">TPR (%)</text>
    </g>
   </g>
   <g id="PolyCollection_1">
    <path clip-path="url(#p65f0847db5)" d="M 18.389189 24.80625 
L 18.389189 26.455497 
L 21.028378 26.834054 
L 23.667568 26.197864 
L 26.306757 26.164114 
L 28.945946 26.725551 
L 31.585135 25.9455 
L 34.224324 26.101364 
L 36.863514 26.784242 
L 39.502703 27.753276 
L 42.141892 30.478108 
L 44.781081 34.608276 
L 47.42027 39.551258 
L 50.059459 45.275857 
L 52.698649 54.639413 
L 55.337838 65.778796 
L 57.977027 78.336892 
L 60.616216 84.955029 
L 63.255405 98.279565 
L 65.894595 109.024757 
L 68.533784 114.550689 
L 71.172973 123.771677 
L 73.812162 130.164141 
L 76.451351 141.774736 
L 79.090541 151.936032 
L 81.72973 163.072048 
L 84.368919 171.807797 
L 87.008108 181.896517 
L 89.647297 195.07648 
L 92.286486 204.67521 
L 94.925676 211.671589 
L 97.564865 220.814426 
L 100.204054 226.789314 
L 102.843243 236.96477 
L 105.482432 245.732672 
L 108.121622 257.489681 
L 108.121622 250.39786 
L 108.121622 250.39786 
L 105.482432 238.451613 
L 102.843243 229.700881 
L 100.204054 219.579581 
L 97.564865 213.401357 
L 94.925676 204.12479 
L 92.286486 197.236956 
L 89.647297 187.784954 
L 87.008108 174.783915 
L 84.368919 164.632465 
L 81.72973 156.058663 
L 79.090541 145.160068 
L 76.451351 134.895761 
L 73.812162 123.750418 
L 71.172973 117.260761 
L 68.533784 108.197305 
L 65.894595 96.285714 
L 63.255405 86.989587 
L 60.616216 74.399979 
L 57.977027 67.768008 
L 55.337838 57.048805 
L 52.698649 47.019265 
L 50.059459 38.969426 
L 47.42027 34.279348 
L 44.781081 30.368628 
L 42.141892 27.334541 
L 39.502703 25.523154 
L 36.863514 25.159418 
L 34.224324 24.80625 
L 31.585135 24.80625 
L 28.945946 24.997888 
L 26.306757 24.80625 
L 23.667568 24.80625 
L 21.028378 25.030001 
L 18.389189 24.80625 
z
" style="fill:#ff0000;fill-opacity:0.2;stroke:#ff0000;stroke-opacity:0.2;"/>
   </g>
   <g id="PolyCollection_2">
    <path clip-path="url(#p65f0847db5)" d="M 44.781081 25.306289 
L 44.781081 26.615348 
L 47.42027 26.990945 
L 50.059459 26.158499 
L 52.698649 26.135541 
L 55.337838 26.085496 
L 57.977027 26.057808 
L 60.616216 25.477197 
L 63.255405 25.462244 
L 65.894595 25.470311 
L 68.533784 25.444657 
L 71.172973 25.378835 
L 73.812162 25.415789 
L 76.451351 25.412117 
L 79.090541 25.409686 
L 81.72973 25.35071 
L 84.368919 26.373777 
L 87.008108 26.652639 
L 89.647297 28.184655 
L 92.286486 32.036948 
L 94.925676 36.637504 
L 97.564865 41.071902 
L 100.204054 45.198774 
L 102.843243 51.181037 
L 105.482432 61.363694 
L 108.121622 69.152258 
L 110.760811 75.443726 
L 113.4 83.209718 
L 116.039189 99.249677 
L 118.678378 109.352271 
L 121.317568 117.431812 
L 123.956757 129.533444 
L 126.595946 138.736041 
L 129.235135 152.005048 
L 131.874324 165.448972 
L 134.513514 181.861048 
L 134.513514 173.147596 
L 134.513514 173.147596 
L 131.874324 156.944816 
L 129.235135 143.750379 
L 126.595946 130.785683 
L 123.956757 121.513297 
L 121.317568 109.79669 
L 118.678378 102.184141 
L 116.039189 92.446503 
L 113.4 76.585875 
L 110.760811 69.639745 
L 108.121622 63.305525 
L 105.482432 56.19569 
L 102.843243 46.944176 
L 100.204054 41.332383 
L 97.564865 37.626546 
L 94.925676 33.677203 
L 92.286486 29.709023 
L 89.647297 26.664835 
L 87.008108 25.579699 
L 84.368919 25.4022 
L 81.72973 24.86605 
L 79.090541 24.866864 
L 76.451351 24.867678 
L 73.812162 24.868095 
L 71.172973 24.868909 
L 68.533784 24.870129 
L 65.894595 24.871757 
L 63.255405 24.872978 
L 60.616216 24.873791 
L 57.977027 25.147537 
L 55.337838 25.160618 
L 52.698649 25.179741 
L 50.059459 25.193992 
L 47.42027 25.567086 
L 44.781081 25.306289 
z
" style="fill:#008000;fill-opacity:0.2;stroke:#008000;stroke-opacity:0.2;"/>
   </g>
   <g id="PolyCollection_3">
    <path clip-path="url(#p65f0847db5)" d="M 34.224324 25.220845 
L 34.224324 26.289157 
L 36.863514 26.628724 
L 39.502703 25.914059 
L 42.141892 25.908891 
L 44.781081 25.874338 
L 47.42027 25.85081 
L 50.059459 25.370209 
L 52.698649 25.353507 
L 55.337838 25.348228 
L 57.977027 25.328271 
L 60.616216 25.323002 
L 63.255405 25.715656 
L 65.894595 26.519204 
L 68.533784 29.163088 
L 71.172973 30.663277 
L 73.812162 36.712481 
L 76.451351 39.593888 
L 79.090541 45.01269 
L 81.72973 53.01587 
L 84.368919 58.415875 
L 87.008108 69.249105 
L 89.647297 76.222088 
L 92.286486 85.870396 
L 94.925676 97.775558 
L 97.564865 109.816261 
L 100.204054 119.209123 
L 102.843243 131.294511 
L 105.482432 147.875867 
L 108.121622 156.690763 
L 110.760811 165.2033 
L 113.4 176.132126 
L 116.039189 183.588049 
L 118.678378 194.943544 
L 121.317568 205.675045 
L 123.956757 219.402407 
L 123.956757 211.200702 
L 123.956757 211.200702 
L 121.317568 197.707557 
L 118.678378 187.126621 
L 116.039189 175.648616 
L 113.4 168.52575 
L 110.760811 157.05572 
L 108.121622 149.169465 
L 105.482432 140.379236 
L 102.843243 123.874799 
L 100.204054 112.141511 
L 97.564865 103.139341 
L 94.925676 91.473899 
L 92.286486 79.722067 
L 89.647297 70.742539 
L 87.008108 64.144929 
L 84.368919 53.946027 
L 81.72973 48.753071 
L 79.090541 41.310056 
L 76.451351 36.540027 
L 73.812162 33.968648 
L 71.172973 28.75901 
L 68.533784 27.6298 
L 65.894595 25.569954 
L 63.255405 25.058909 
L 60.616216 24.858737 
L 57.977027 24.858737 
L 55.337838 24.860761 
L 52.698649 24.861982 
L 50.059459 24.862399 
L 47.42027 25.091459 
L 44.781081 25.107236 
L 42.141892 25.109352 
L 39.502703 25.127254 
L 36.863514 25.496686 
L 34.224324 25.220845 
z
" style="fill:#800080;fill-opacity:0.2;stroke:#800080;stroke-opacity:0.2;"/>
   </g>
   <g id="line2d_15">
    <path clip-path="url(#p65f0847db5)" d="M 18.389189 25.520344 
L 21.028378 25.772066 
L 23.667568 25.381883 
L 26.306757 25.350296 
L 28.945946 25.792417 
L 31.585135 25.306072 
L 34.224324 25.4042 
L 36.863514 25.873506 
L 39.502703 26.594004 
L 42.141892 28.763747 
L 44.781081 32.306321 
L 47.42027 36.879488 
L 50.059459 42.106258 
L 52.698649 50.803984 
L 55.337838 61.3871 
L 57.977027 73.047312 
L 60.616216 79.555783 
L 63.255405 92.475126 
L 65.894595 103.101876 
L 68.533784 111.472007 
L 71.172973 120.435715 
L 73.812162 126.872987 
L 73.841525 127 
" style="fill:none;stroke:#ff0000;stroke-linecap:round;"/>
   </g>
   <g id="line2d_16">
    <path clip-path="url(#p65f0847db5)" d="M 44.781081 25.905879 
L 47.42027 26.231995 
L 50.059459 25.663414 
L 52.698649 25.623248 
L 55.337838 25.594957 
L 57.977027 25.572739 
L 60.616216 25.140826 
L 63.255405 25.135539 
L 65.894595 25.141334 
L 68.533784 25.125726 
L 71.172973 25.11797 
L 73.812162 25.112284 
L 76.451351 25.113048 
L 79.090541 25.11157 
L 81.72973 25.098651 
L 84.368919 25.875416 
L 87.008108 26.10822 
L 89.647297 27.377856 
L 92.286486 30.84201 
L 94.925676 35.149512 
L 97.564865 39.271254 
L 100.204054 43.200528 
L 102.843243 49.054931 
L 105.482432 58.859171 
L 108.121622 66.278058 
L 110.760811 72.577413 
L 113.4 79.716526 
L 116.039189 95.821177 
L 118.678378 105.831434 
L 121.317568 113.631068 
L 123.956757 125.540901 
L 124.380865 127 
" style="fill:none;stroke:#008000;stroke-linecap:round;"/>
   </g>
   <g id="line2d_17">
    <path clip-path="url(#p65f0847db5)" d="M 34.224324 25.724043 
L 36.863514 25.996813 
L 39.502703 25.521241 
L 42.141892 25.476549 
L 44.781081 25.453121 
L 47.42027 25.436684 
L 50.059459 25.090155 
L 52.698649 25.085436 
L 55.337838 25.079217 
L 57.977027 25.063387 
L 60.616216 25.071458 
L 63.255405 25.372829 
L 65.894595 26.01459 
L 68.533784 28.391417 
L 71.172973 29.690386 
L 73.812162 35.330134 
L 76.451351 38.023919 
L 79.090541 43.161298 
L 81.72973 50.794191 
L 84.368919 56.144245 
L 87.008108 66.708501 
L 89.647297 73.641628 
L 92.286486 82.745631 
L 94.925676 94.632497 
L 97.564865 106.467196 
L 100.204054 115.748649 
L 102.722677 127 
" style="fill:none;stroke:#800080;stroke-linecap:round;"/>
   </g>
   <g id="patch_3">
    <path d="M 15.75 110.25 
L 113.4 110.25 
" style="fill:none;stroke:#262626;stroke-linecap:square;stroke-linejoin:miter;stroke-width:0.5;"/>
   </g>
   <g id="patch_4">
    <path d="M 15.75 12.6 
L 113.4 12.6 
" style="fill:none;"/>
   </g>
   <g id="patch_5">
    <path d="M 15.75 110.25 
L 15.75 12.6 
" style="fill:none;stroke:#262626;stroke-linecap:square;stroke-linejoin:miter;stroke-width:0.5;"/>
   </g>
   <g id="patch_6">
    <path d="M 113.4 110.25 
L 113.4 12.6 
" style="fill:none;"/>
   </g>
  </g>
 </g>
 <defs>
  <clipPath id="p65f0847db5">
   <rect height="97.65" width="97.65" x="15.75" y="12.6"/>
  </clipPath>
 </defs>
</svg>
