<?xml version="1.0" encoding="utf-8" standalone="no"?>
<!DOCTYPE svg PUBLIC "-//W3C//DTD SVG 1.1//EN"
  "http://www.w3.org/Graphics/SVG/1.1/DTD/svg11.dtd">
<!-- Created with matplotlib (http://matplotlib.org/) -->
<svg height="126pt" version="1.1" viewBox="0 0 126 126" width="126pt" xmlns="http://www.w3.org/2000/svg" xmlns:xlink="http://www.w3.org/1999/xlink">
 <defs>
  <style type="text/css">
*{stroke-linecap:butt;stroke-linejoin:round;stroke-miterlimit:100000;}
  </style>
 </defs>
 <g id="figure_1">
  <g id="patch_1">
   <path d="M 0 126 
L 126 126 
L 126 0 
L 0 0 
L 0 126 
z
" style="fill:none;"/>
  </g>
  <g id="axes_1">
   <g id="patch_2">
    <path d="M 15.75 110.25 
L 113.4 110.25 
L 113.4 12.6 
L 15.75 12.6 
L 15.75 110.25 
z
" style="fill:none;"/>
   </g>
   <g id="matplotlib.axis_1">
    <g id="xtick_1">
     <g id="line2d_1">
      <defs>
       <path d="M 0 0 
L 0 2 
" id="mf664da3fc5" style="stroke:#1a1a1a;"/>
      </defs>
      <g>
       <use style="fill:#1a1a1a;stroke:#1a1a1a;" x="29.7" xlink:href="#mf664da3fc5" y="110.25"/>
      </g>
     </g>
     <g id="text_1">
      <text style="fill:#262626;font-family:Arial;font-size:10.0px;font-style:normal;font-weight:400;text-anchor:middle;" transform="rotate(-0.000000, 29.700000, 124.407813)" x="29.7" y="124.4078125">2</text>
     </g>
    </g>
    <g id="xtick_2">
     <g id="line2d_2">
      <g>
       <use style="fill:#1a1a1a;stroke:#1a1a1a;" x="66.9" xlink:href="#mf664da3fc5" y="110.25"/>
      </g>
     </g>
     <g id="text_2">
      <text style="fill:#262626;font-family:Arial;font-size:10.0px;font-style:normal;font-weight:400;text-anchor:middle;" transform="rotate(-0.000000, 66.900000, 124.407813)" x="66.9" y="124.4078125">4</text>
     </g>
    </g>
    <g id="xtick_3">
     <g id="line2d_3">
      <g>
       <use style="fill:#1a1a1a;stroke:#1a1a1a;" x="104.1" xlink:href="#mf664da3fc5" y="110.25"/>
      </g>
     </g>
     <g id="text_3">
      <text style="fill:#262626;font-family:Arial;font-size:10.0px;font-style:normal;font-weight:400;text-anchor:middle;" transform="rotate(-0.000000, 104.100000, 124.407813)" x="104.1" y="124.4078125">6</text>
     </g>
    </g>
    <g id="xtick_4">
     <g id="line2d_4">
      <defs>
       <path d="M 0 0 
L 0 2 
" id="mcbf85c95fd" style="stroke:#1a1a1a;stroke-width:0.5;"/>
      </defs>
      <g>
       <use style="fill:#1a1a1a;stroke:#1a1a1a;stroke-width:0.5;" x="48.3" xlink:href="#mcbf85c95fd" y="110.25"/>
      </g>
     </g>
    </g>
    <g id="xtick_5">
     <g id="line2d_5">
      <g>
       <use style="fill:#1a1a1a;stroke:#1a1a1a;stroke-width:0.5;" x="85.5" xlink:href="#mcbf85c95fd" y="110.25"/>
      </g>
     </g>
    </g>
    <g id="text_4">
     <text style="fill:#262626;font-family:Arial;font-size:12.0px;font-style:normal;font-weight:400;text-anchor:middle;" transform="rotate(-0.000000, 64.575000, 136.330938)" x="64.575" y="136.3309375">Threshold (z-units)</text>
    </g>
   </g>
   <g id="matplotlib.axis_2">
    <g id="ytick_1">
     <g id="line2d_6">
      <defs>
       <path d="M 0 0 
L -2 0 
" id="m7ff0b47c55" style="stroke:#1a1a1a;"/>
      </defs>
      <g>
       <use style="fill:#1a1a1a;stroke:#1a1a1a;" x="15.75" xlink:href="#m7ff0b47c55" y="110.25"/>
      </g>
     </g>
     <g id="text_5">
      <text style="fill:#262626;font-family:Arial;font-size:10.0px;font-style:normal;font-weight:400;text-anchor:end;" transform="rotate(-0.000000, 8.750000, 112.835156)" x="8.75" y="112.83515625">75</text>
     </g>
    </g>
    <g id="ytick_2">
     <g id="line2d_7">
      <g>
       <use style="fill:#1a1a1a;stroke:#1a1a1a;" x="15.75" xlink:href="#m7ff0b47c55" y="23.0625"/>
      </g>
     </g>
     <g id="text_6">
      <text style="fill:#262626;font-family:Arial;font-size:10.0px;font-style:normal;font-weight:400;text-anchor:end;" transform="rotate(-0.000000, 8.750000, 25.647656)" x="8.75" y="25.64765625">100</text>
     </g>
    </g>
    <g id="ytick_3">
     <g id="line2d_8">
      <defs>
       <path d="M 0 0 
L -2 0 
" id="m35b9d4a622" style="stroke:#1a1a1a;stroke-width:0.5;"/>
      </defs>
      <g>
       <use style="fill:#1a1a1a;stroke:#1a1a1a;stroke-width:0.5;" x="15.75" xlink:href="#m35b9d4a622" y="92.8125"/>
      </g>
     </g>
    </g>
    <g id="ytick_4">
     <g id="line2d_9">
      <g>
       <use style="fill:#1a1a1a;stroke:#1a1a1a;stroke-width:0.5;" x="15.75" xlink:href="#m35b9d4a622" y="75.375"/>
      </g>
     </g>
    </g>
    <g id="ytick_5">
     <g id="line2d_10">
      <g>
       <use style="fill:#1a1a1a;stroke:#1a1a1a;stroke-width:0.5;" x="15.75" xlink:href="#m35b9d4a622" y="57.9375"/>
      </g>
     </g>
    </g>
    <g id="ytick_6">
     <g id="line2d_11">
      <g>
       <use style="fill:#1a1a1a;stroke:#1a1a1a;stroke-width:0.5;" x="15.75" xlink:href="#m35b9d4a622" y="40.5"/>
      </g>
     </g>
    </g>
    <g id="text_7">
     <text style="fill:#262626;font-family:Arial;font-size:12.0px;font-style:normal;font-weight:400;text-anchor:middle;" transform="rotate(-90.000000, -11.658437, 61.425000)" x="-11.6584375" y="61.425">TPR (%)</text>
    </g>
   </g>
   <g id="PolyCollection_1">
    <defs>
     <path d="M 20.4 -102.674178 
L 20.4 -101.913446 
L 25.05 -101.694824 
L 29.7 -102.151998 
L 34.35 -102.183753 
L 39 -101.725334 
L 43.65 -102.235985 
L 48.3 -102.151959 
L 52.95 -101.608746 
L 57.6 -100.858449 
L 62.25 -98.822201 
L 66.9 -95.497086 
L 71.55 -91.20261 
L 76.2 -86.539328 
L 80.85 -78.849698 
L 85.5 -69.455386 
L 90.15 -59.361179 
L 94.8 -53.501862 
L 99.45 -42.107297 
L 104.1 -32.932708 
L 104.1 -38.237579 
L 104.1 -38.237579 
L 99.45 -47.110406 
L 94.8 -57.923496 
L 90.15 -63.603631 
L 85.5 -73.374175 
L 80.85 -82.274829 
L 76.2 -89.336603 
L 71.55 -93.616067 
L 66.9 -97.340656 
L 62.25 -100.233515 
L 57.6 -101.837096 
L 52.95 -102.355924 
L 48.3 -102.711514 
L 43.65 -102.762768 
L 39 -102.480723 
L 34.35 -102.758221 
L 29.7 -102.742994 
L 25.05 -102.501584 
L 20.4 -102.674178 
z
" id="mfbaec4159b" style="stroke:#1a1a1a;stroke-opacity:0.2;stroke-width:0.3;"/>
    </defs>
    <g clip-path="url(#pcb2b7a352b)">
     <use style="fill:#1a1a1a;fill-opacity:0.2;stroke:#1a1a1a;stroke-opacity:0.2;stroke-width:0.3;" x="0.0" xlink:href="#mfbaec4159b" y="126.0"/>
    </g>
   </g>
   <g id="patch_3">
    <path clip-path="url(#pcb2b7a352b)" d="M 35.28 40.5 
L 76.2 40.5 
L 76.2 16.0875 
L 35.28 16.0875 
L 35.28 40.5 
z
" style="fill:none;opacity:0.5;stroke:#1a1a1a;stroke-dasharray:6.000000,6.000000;stroke-dashoffset:0.0;stroke-linejoin:miter;"/>
   </g>
   <g id="line2d_12">
    <path clip-path="url(#pcb2b7a352b)" d="M 20.4 23.706188 
L 25.05 23.901796 
L 29.7 23.552504 
L 34.35 23.529013 
L 39 23.896972 
L 43.65 23.500624 
L 48.3 23.568264 
L 52.95 24.017665 
L 57.6 24.652228 
L 62.25 26.472142 
L 66.9 29.581129 
L 71.55 33.590662 
L 76.2 38.062035 
L 80.85 45.437737 
L 85.5 54.58522 
L 90.15 64.517595 
L 94.8 70.287321 
L 99.45 81.391148 
L 104.1 90.414857 
" style="fill:none;stroke:#1a1a1a;stroke-linecap:round;"/>
   </g>
   <g id="patch_4">
    <path d="M 15.75 110.25 
L 15.75 12.6 
" style="fill:none;stroke:#262626;stroke-linecap:square;stroke-linejoin:miter;stroke-width:0.5;"/>
   </g>
   <g id="patch_5">
    <path d="M 113.4 110.25 
L 113.4 12.6 
" style="fill:none;"/>
   </g>
   <g id="patch_6">
    <path d="M 15.75 110.25 
L 113.4 110.25 
" style="fill:none;stroke:#262626;stroke-linecap:square;stroke-linejoin:miter;stroke-width:0.5;"/>
   </g>
   <g id="patch_7">
    <path d="M 15.75 12.6 
L 113.4 12.6 
" style="fill:none;"/>
   </g>
  </g>
  <g id="axes_2">
   <g id="patch_8">
    <path d="M 38 94.41 
L 89.84 94.41 
L 89.84 65.61 
L 38 65.61 
L 38 94.41 
z
" style="fill:none;"/>
   </g>
   <g id="matplotlib.axis_3">
    <g id="xtick_6">
     <g id="line2d_13">
      <g>
       <use style="fill:#1a1a1a;stroke:#1a1a1a;" x="38.0" xlink:href="#mf664da3fc5" y="94.41"/>
      </g>
     </g>
     <g id="text_8">
      <text style="fill:#262626;font-family:Arial;font-size:10.0px;font-style:normal;font-weight:400;text-anchor:middle;" transform="rotate(-0.000000, 38.000000, 108.567813)" x="38.0" y="108.5678125">2</text>
     </g>
    </g>
    <g id="xtick_7">
     <g id="line2d_14">
      <g>
       <use style="fill:#1a1a1a;stroke:#1a1a1a;" x="55.28" xlink:href="#mf664da3fc5" y="94.41"/>
      </g>
     </g>
     <g id="text_9">
      <text style="fill:#262626;font-family:Arial;font-size:10.0px;font-style:normal;font-weight:400;text-anchor:middle;" transform="rotate(-0.000000, 55.280000, 108.567813)" x="55.28" y="108.5678125">3</text>
     </g>
    </g>
    <g id="xtick_8">
     <g id="line2d_15">
      <g>
       <use style="fill:#1a1a1a;stroke:#1a1a1a;" x="72.56" xlink:href="#mf664da3fc5" y="94.41"/>
      </g>
     </g>
     <g id="text_10">
      <text style="fill:#262626;font-family:Arial;font-size:10.0px;font-style:normal;font-weight:400;text-anchor:middle;" transform="rotate(-0.000000, 72.560000, 108.567813)" x="72.56" y="108.5678125">4</text>
     </g>
    </g>
    <g id="xtick_9">
     <g id="line2d_16">
      <g>
       <use style="fill:#1a1a1a;stroke:#1a1a1a;" x="89.84" xlink:href="#mf664da3fc5" y="94.41"/>
      </g>
     </g>
     <g id="text_11">
      <text style="fill:#262626;font-family:Arial;font-size:10.0px;font-style:normal;font-weight:400;text-anchor:middle;" transform="rotate(-0.000000, 89.840000, 108.567813)" x="89.84" y="108.5678125">5</text>
     </g>
    </g>
    <g id="xtick_10">
     <g id="line2d_17">
      <g>
       <use style="fill:#1a1a1a;stroke:#1a1a1a;stroke-width:0.5;" x="46.64" xlink:href="#mcbf85c95fd" y="94.41"/>
      </g>
     </g>
    </g>
    <g id="xtick_11">
     <g id="line2d_18">
      <g>
       <use style="fill:#1a1a1a;stroke:#1a1a1a;stroke-width:0.5;" x="63.92" xlink:href="#mcbf85c95fd" y="94.41"/>
      </g>
     </g>
    </g>
    <g id="xtick_12">
     <g id="line2d_19">
      <g>
       <use style="fill:#1a1a1a;stroke:#1a1a1a;stroke-width:0.5;" x="81.2" xlink:href="#mcbf85c95fd" y="94.41"/>
      </g>
     </g>
    </g>
   </g>
   <g id="matplotlib.axis_4">
    <g id="ytick_7">
     <g id="line2d_20">
      <g>
       <use style="fill:#1a1a1a;stroke:#1a1a1a;" x="38.0" xlink:href="#m7ff0b47c55" y="89.9792307692"/>
      </g>
     </g>
     <g id="text_12">
      <text style="fill:#262626;font-family:Arial;font-size:10.0px;font-style:normal;font-weight:400;text-anchor:end;" transform="rotate(-0.000000, 33.000000, 92.564387)" x="33.0" y="92.5643870192">95</text>
     </g>
    </g>
    <g id="ytick_8">
     <g id="line2d_21">
      <g>
       <use style="fill:#1a1a1a;stroke:#1a1a1a;" x="38.0" xlink:href="#m7ff0b47c55" y="67.8253846154"/>
      </g>
     </g>
     <g id="text_13">
      <text style="fill:#262626;font-family:Arial;font-size:10.0px;font-style:normal;font-weight:400;text-anchor:end;" transform="rotate(-0.000000, 33.000000, 70.410541)" x="33.0" y="70.4105408654">100</text>
     </g>
    </g>
    <g id="ytick_9">
     <g id="line2d_22">
      <g>
       <use style="fill:#1a1a1a;stroke:#1a1a1a;stroke-width:0.5;" x="38.0" xlink:href="#m35b9d4a622" y="85.5484615385"/>
      </g>
     </g>
    </g>
    <g id="ytick_10">
     <g id="line2d_23">
      <g>
       <use style="fill:#1a1a1a;stroke:#1a1a1a;stroke-width:0.5;" x="38.0" xlink:href="#m35b9d4a622" y="81.1176923077"/>
      </g>
     </g>
    </g>
    <g id="ytick_11">
     <g id="line2d_24">
      <g>
       <use style="fill:#1a1a1a;stroke:#1a1a1a;stroke-width:0.5;" x="38.0" xlink:href="#m35b9d4a622" y="76.6869230769"/>
      </g>
     </g>
    </g>
    <g id="ytick_12">
     <g id="line2d_25">
      <g>
       <use style="fill:#1a1a1a;stroke:#1a1a1a;stroke-width:0.5;" x="38.0" xlink:href="#m35b9d4a622" y="72.2561538462"/>
      </g>
     </g>
    </g>
   </g>
   <g id="PolyCollection_2">
    <defs>
     <path d="M 29.36 -57.840072 
L 29.36 -56.873584 
L 33.68 -56.595831 
L 38 -57.176658 
L 42.32 -57.217001 
L 46.64 -56.634593 
L 50.96 -57.28336 
L 55.28 -57.176608 
L 59.6 -56.486472 
L 63.92 -55.53324 
L 68.24 -52.946245 
L 72.56 -48.721782 
L 76.88 -43.265772 
L 81.2 -37.341205 
L 85.52 -27.57175 
L 89.84 -15.636544 
L 94.16 -2.812143 
L 98.48 4.631952 
L 102.8 19.108421 
L 107.12 30.764475 
L 107.12 24.024789 
L 107.12 24.024789 
L 102.8 12.752114 
L 98.48 -0.985608 
L 94.16 -8.202057 
L 89.84 -20.615254 
L 85.52 -31.923281 
L 81.2 -40.895064 
L 76.88 -46.332001 
L 72.56 -51.063985 
L 68.24 -54.73928 
L 63.92 -56.776583 
L 59.6 -57.43574 
L 55.28 -57.887507 
L 50.96 -57.952623 
L 46.64 -57.594293 
L 42.32 -57.946846 
L 38 -57.927501 
L 33.68 -57.620797 
L 29.36 -57.840072 
z
" id="m36bd96ee64" style="stroke:#1a1a1a;stroke-opacity:0.2;stroke-width:0.3;"/>
    </defs>
    <g clip-path="url(#p4bc417e336)">
     <use style="fill:#1a1a1a;fill-opacity:0.2;stroke:#1a1a1a;stroke-opacity:0.2;stroke-width:0.3;" x="0.0" xlink:href="#m36bd96ee64" y="126.0"/>
    </g>
   </g>
   <g id="line2d_26">
    <path clip-path="url(#p4bc417e336)" d="M 29.36 68.643172 
L 33.68 68.891686 
L 38 68.447921 
L 42.32 68.418077 
L 46.64 68.885557 
L 50.96 68.382008 
L 55.28 68.467943 
L 59.6 69.038894 
L 63.92 69.845088 
L 68.24 72.157237 
L 72.56 76.107117 
L 76.88 81.201114 
L 81.2 86.881866 
L 85.52 96.252484 
L 89.84 107.874101 
L 94.16 120.4929 
L 97.994875 127 
" style="fill:none;stroke:#1a1a1a;stroke-linecap:round;"/>
   </g>
   <g id="patch_9">
    <path d="M 38 94.41 
L 38 65.61 
" style="fill:none;stroke:#262626;stroke-linecap:square;stroke-linejoin:miter;stroke-width:0.3;"/>
   </g>
   <g id="patch_10">
    <path d="M 89.84 94.41 
L 89.84 65.61 
" style="fill:none;stroke:#262626;stroke-linecap:square;stroke-linejoin:miter;stroke-width:0.3;"/>
   </g>
   <g id="patch_11">
    <path d="M 38 94.41 
L 89.84 94.41 
" style="fill:none;stroke:#262626;stroke-linecap:square;stroke-linejoin:miter;stroke-width:0.3;"/>
   </g>
   <g id="patch_12">
    <path d="M 38 65.61 
L 89.84 65.61 
" style="fill:none;stroke:#262626;stroke-linecap:square;stroke-linejoin:miter;stroke-width:0.3;"/>
   </g>
  </g>
 </g>
 <defs>
  <clipPath id="pcb2b7a352b">
   <rect height="97.65" width="97.65" x="15.75" y="12.6"/>
  </clipPath>
  <clipPath id="p4bc417e336">
   <rect height="28.8" width="51.84" x="38.0" y="65.61"/>
  </clipPath>
 </defs>
</svg>
