<?xml version="1.0" encoding="utf-8" standalone="no"?>
<!DOCTYPE svg PUBLIC "-//W3C//DTD SVG 1.1//EN"
  "http://www.w3.org/Graphics/SVG/1.1/DTD/svg11.dtd">
<!-- Created with matplotlib (http://matplotlib.org/) -->
<svg height="126pt" version="1.1" viewBox="0 0 126 126" width="126pt" xmlns="http://www.w3.org/2000/svg" xmlns:xlink="http://www.w3.org/1999/xlink">
 <defs>
  <style type="text/css">
*{stroke-linecap:butt;stroke-linejoin:round;stroke-miterlimit:100000;}
  </style>
 </defs>
 <g id="figure_1">
  <g id="patch_1">
   <path d="M 0 126 
L 126 126 
L 126 0 
L 0 0 
L 0 126 
z
" style="fill:none;"/>
  </g>
  <g id="axes_1">
   <g id="patch_2">
    <path d="M 15.75 110.25 
L 113.4 110.25 
L 113.4 12.6 
L 15.75 12.6 
L 15.75 110.25 
z
" style="fill:none;"/>
   </g>
   <g id="matplotlib.axis_1">
    <g id="xtick_1">
     <g id="line2d_1">
      <defs>
       <path d="M 0 0 
L 0 2 
" id="m192c8128b6" style="stroke:#1a1a1a;"/>
      </defs>
      <g>
       <use style="fill:#1a1a1a;stroke:#1a1a1a;" x="24.62727272727273" xlink:href="#m192c8128b6" y="110.25"/>
      </g>
     </g>
     <g id="text_1">
      <text style="fill:#262626;font-family:Arial;font-size:8.0px;font-style:normal;font-weight:400;text-anchor:middle;" transform="rotate(-0.000000, 24.627273, 122.976250)" x="24.62727272727273" y="122.97625">2</text>
     </g>
    </g>
    <g id="xtick_2">
     <g id="line2d_2">
      <g>
       <use style="fill:#1a1a1a;stroke:#1a1a1a;" x="48.300000000000004" xlink:href="#m192c8128b6" y="110.25"/>
      </g>
     </g>
     <g id="text_2">
      <text style="fill:#262626;font-family:Arial;font-size:8.0px;font-style:normal;font-weight:400;text-anchor:middle;" transform="rotate(-0.000000, 48.300000, 122.976250)" x="48.300000000000004" y="122.97625">4</text>
     </g>
    </g>
    <g id="xtick_3">
     <g id="line2d_3">
      <g>
       <use style="fill:#1a1a1a;stroke:#1a1a1a;" x="71.97272727272728" xlink:href="#m192c8128b6" y="110.25"/>
      </g>
     </g>
     <g id="text_3">
      <text style="fill:#262626;font-family:Arial;font-size:8.0px;font-style:normal;font-weight:400;text-anchor:middle;" transform="rotate(-0.000000, 71.972727, 122.976250)" x="71.97272727272728" y="122.97625">6</text>
     </g>
    </g>
    <g id="xtick_4">
     <g id="line2d_4">
      <g>
       <use style="fill:#1a1a1a;stroke:#1a1a1a;" x="95.64545454545456" xlink:href="#m192c8128b6" y="110.25"/>
      </g>
     </g>
     <g id="text_4">
      <text style="fill:#262626;font-family:Arial;font-size:8.0px;font-style:normal;font-weight:400;text-anchor:middle;" transform="rotate(-0.000000, 95.645455, 122.976250)" x="95.64545454545456" y="122.97625">8</text>
     </g>
    </g>
    <g id="xtick_5">
     <g id="line2d_5">
      <defs>
       <path d="M 0 0 
L 0 2 
" id="ma6d76b9019" style="stroke:#1a1a1a;stroke-width:0.5;"/>
      </defs>
      <g>
       <use style="fill:#1a1a1a;stroke:#1a1a1a;stroke-width:0.5;" x="36.46363636363637" xlink:href="#ma6d76b9019" y="110.25"/>
      </g>
     </g>
    </g>
    <g id="xtick_6">
     <g id="line2d_6">
      <g>
       <use style="fill:#1a1a1a;stroke:#1a1a1a;stroke-width:0.5;" x="60.13636363636364" xlink:href="#ma6d76b9019" y="110.25"/>
      </g>
     </g>
    </g>
    <g id="xtick_7">
     <g id="line2d_7">
      <g>
       <use style="fill:#1a1a1a;stroke:#1a1a1a;stroke-width:0.5;" x="83.80909090909091" xlink:href="#ma6d76b9019" y="110.25"/>
      </g>
     </g>
    </g>
    <g id="xtick_8">
     <g id="line2d_8">
      <g>
       <use style="fill:#1a1a1a;stroke:#1a1a1a;stroke-width:0.5;" x="107.4818181818182" xlink:href="#ma6d76b9019" y="110.25"/>
      </g>
     </g>
    </g>
    <g id="text_5">
     <text style="fill:#262626;font-family:Arial;font-size:9.6px;font-style:normal;font-weight:400;text-anchor:middle;" transform="rotate(-0.000000, 64.575000, 132.754750)" x="64.575" y="132.75475">Threshold  (z-units)</text>
    </g>
   </g>
   <g id="matplotlib.axis_2">
    <g id="ytick_1">
     <g id="line2d_9">
      <defs>
       <path d="M 0 0 
L -2 0 
" id="m563ccb77ec" style="stroke:#1a1a1a;"/>
      </defs>
      <g>
       <use style="fill:#1a1a1a;stroke:#1a1a1a;" x="15.75" xlink:href="#m563ccb77ec" y="104.5891304347826"/>
      </g>
     </g>
     <g id="text_6">
      <text style="fill:#262626;font-family:Arial;font-size:8.0px;font-style:normal;font-weight:400;text-anchor:end;" transform="rotate(-0.000000, 8.750000, 106.657255)" x="8.75" y="106.6572554347826">0</text>
     </g>
    </g>
    <g id="ytick_2">
     <g id="line2d_10">
      <g>
       <use style="fill:#1a1a1a;stroke:#1a1a1a;" x="15.75" xlink:href="#m563ccb77ec" y="62.132608695652166"/>
      </g>
     </g>
     <g id="text_7">
      <text style="fill:#262626;font-family:Arial;font-size:8.0px;font-style:normal;font-weight:400;text-anchor:end;" transform="rotate(-0.000000, 8.750000, 64.200734)" x="8.75" y="64.20073369565216">30</text>
     </g>
    </g>
    <g id="ytick_3">
     <g id="line2d_11">
      <g>
       <use style="fill:#1a1a1a;stroke:#1a1a1a;" x="15.75" xlink:href="#m563ccb77ec" y="19.67608695652173"/>
      </g>
     </g>
     <g id="text_8">
      <text style="fill:#262626;font-family:Arial;font-size:8.0px;font-style:normal;font-weight:400;text-anchor:end;" transform="rotate(-0.000000, 8.750000, 21.744212)" x="8.75" y="21.744211956521724">60</text>
     </g>
    </g>
    <g id="ytick_4">
     <g id="line2d_12">
      <defs>
       <path d="M 0 0 
L -2 0 
" id="ma87f6a9202" style="stroke:#1a1a1a;stroke-width:0.5;"/>
      </defs>
      <g>
       <use style="fill:#1a1a1a;stroke:#1a1a1a;stroke-width:0.5;" x="15.75" xlink:href="#ma87f6a9202" y="83.36086956521739"/>
      </g>
     </g>
    </g>
    <g id="ytick_5">
     <g id="line2d_13">
      <g>
       <use style="fill:#1a1a1a;stroke:#1a1a1a;stroke-width:0.5;" x="15.75" xlink:href="#ma87f6a9202" y="40.90434782608695"/>
      </g>
     </g>
    </g>
    <g id="text_9">
     <text style="fill:#262626;font-family:Arial;font-size:9.6px;font-style:normal;font-weight:400;text-anchor:middle;" transform="rotate(-90.000000, -3.368000, 61.425000)" x="-3.368000000000001" y="61.425">FSR (per min)</text>
    </g>
   </g>
   <g id="PolyCollection_1">
    <defs>
     <path d="M 18.709091 -97.553712 
L 18.709091 -92.906255 
L 21.668182 -70.225291 
L 24.627273 -55.63677 
L 27.586364 -46.131179 
L 30.545455 -40.181181 
L 33.504545 -35.985443 
L 36.463636 -32.974682 
L 39.422727 -30.498051 
L 42.381818 -28.710333 
L 45.340909 -27.163643 
L 48.3 -25.95059 
L 51.259091 -24.818557 
L 54.218182 -24.37166 
L 57.177273 -23.71991 
L 60.136364 -23.193331 
L 63.095455 -22.863335 
L 66.054545 -22.532016 
L 69.013636 -22.379177 
L 71.972727 -22.248555 
L 74.931818 -22.174343 
L 77.890909 -22.05415 
L 80.85 -21.943583 
L 83.809091 -21.888426 
L 86.768182 -21.814884 
L 89.727273 -21.727431 
L 92.686364 -21.70494 
L 95.645455 -21.671568 
L 98.604545 -21.652947 
L 101.563636 -21.634325 
L 104.522727 -21.576284 
L 107.481818 -21.576284 
L 110.440909 -21.521146 
L 113.4 -21.503976 
L 116.359091 -21.484387 
L 119.318182 -21.502767 
L 119.318182 -21.70881 
L 119.318182 -21.70881 
L 116.359091 -21.690188 
L 113.4 -21.746052 
L 110.440909 -21.764674 
L 107.481818 -21.870355 
L 104.522727 -21.876401 
L 101.563636 -21.950887 
L 98.604545 -21.999011 
L 95.645455 -22.03577 
L 92.686364 -22.062614 
L 89.727273 -22.127669 
L 86.768182 -22.219566 
L 83.809091 -22.341934 
L 80.85 -22.416418 
L 77.890909 -22.546768 
L 74.931818 -22.71436 
L 71.972727 -22.807472 
L 69.013636 -22.993677 
L 66.054545 -23.217472 
L 63.095455 -23.579895 
L 60.136364 -23.999231 
L 57.177273 -24.613733 
L 54.218182 -25.380823 
L 51.259091 -25.843135 
L 48.3 -27.165275 
L 45.340909 -28.560477 
L 42.381818 -30.162871 
L 39.422727 -32.18151 
L 36.463636 -34.818186 
L 33.504545 -38.154975 
L 30.545455 -42.676351 
L 27.586364 -48.989862 
L 24.627273 -59.007252 
L 21.668182 -74.092358 
L 18.709091 -97.553712 
z
" id="m143eb21d57" style="stroke:#ff0000;stroke-opacity:0.2;"/>
    </defs>
    <g clip-path="url(#p6cd92e913e)">
     <use style="fill:#ff0000;fill-opacity:0.2;stroke:#ff0000;stroke-opacity:0.2;" x="0.0" xlink:href="#m143eb21d57" y="126.0"/>
    </g>
   </g>
   <g id="PolyCollection_2">
    <defs>
     <path d="M 18.709091 -102.206904 
L 18.709091 -97.483333 
L 21.668182 -75.042089 
L 24.627273 -60.759892 
L 27.586364 -51.16677 
L 30.545455 -45.267331 
L 33.504545 -41.002962 
L 36.463636 -38.006629 
L 39.422727 -35.52629 
L 42.381818 -33.431033 
L 45.340909 -31.739657 
L 48.3 -30.23255 
L 51.259091 -28.689134 
L 54.218182 -27.770163 
L 57.177273 -26.391699 
L 60.136364 -25.435974 
L 63.095455 -24.682413 
L 66.054545 -24.1494 
L 69.013636 -23.579188 
L 71.972727 -23.30349 
L 74.931818 -23.083402 
L 77.890909 -22.770489 
L 80.85 -22.550396 
L 83.809091 -22.384981 
L 86.768182 -22.274704 
L 89.727273 -22.072529 
L 92.686364 -22.017391 
L 95.645455 -21.999011 
L 98.604545 -21.943873 
L 101.563636 -21.851976 
L 104.522727 -21.778458 
L 107.481818 -21.778458 
L 110.440909 -21.70494 
L 113.4 -21.686561 
L 116.359091 -21.649802 
L 119.318182 -21.668182 
L 119.318182 -22.017391 
L 119.318182 -22.017391 
L 116.359091 -21.999011 
L 113.4 -22.03577 
L 110.440909 -22.090908 
L 107.481818 -22.164428 
L 104.522727 -22.164428 
L 101.563636 -22.293084 
L 98.604545 -22.40382 
L 95.645455 -22.458958 
L 92.686364 -22.495257 
L 89.727273 -22.587154 
L 86.768182 -22.826087 
L 83.809091 -23.009881 
L 80.85 -23.212059 
L 77.890909 -23.469374 
L 74.931818 -23.855332 
L 71.972727 -24.113107 
L 69.013636 -24.406715 
L 66.054545 -25.068845 
L 63.095455 -25.748426 
L 60.136364 -26.575493 
L 57.177273 -27.678718 
L 54.218182 -29.167456 
L 51.259091 -30.215085 
L 48.3 -31.923911 
L 45.340909 -33.467786 
L 42.381818 -35.305729 
L 39.422727 -37.695528 
L 36.463636 -40.195085 
L 33.504545 -43.466183 
L 30.545455 -47.91407 
L 27.586364 -54.089513 
L 24.627273 -64.290117 
L 21.668182 -78.791566 
L 18.709091 -102.206904 
z
" id="m1548587765" style="stroke:#800080;stroke-opacity:0.2;"/>
    </defs>
    <g clip-path="url(#p6cd92e913e)">
     <use style="fill:#800080;fill-opacity:0.2;stroke:#800080;stroke-opacity:0.2;" x="0.0" xlink:href="#m1548587765" y="126.0"/>
    </g>
   </g>
   <g id="PolyCollection_3">
    <defs>
     <path d="M 18.709091 -105.217528 
L 18.709091 -100.426221 
L 21.668182 -78.182881 
L 24.627273 -64.175314 
L 27.586364 -54.668478 
L 30.545455 -48.861049 
L 33.504545 -44.707018 
L 36.463636 -41.586322 
L 39.422727 -39.064857 
L 42.381818 -36.996376 
L 45.340909 -35.27274 
L 48.3 -33.839379 
L 51.259091 -32.369733 
L 54.218182 -31.38951 
L 57.177273 -29.865434 
L 60.136364 -28.559075 
L 63.095455 -27.452758 
L 66.054545 -26.563719 
L 69.013636 -25.801666 
L 71.972727 -25.148048 
L 74.931818 -24.748871 
L 77.890909 -24.09616 
L 80.85 -23.715141 
L 83.809091 -23.370408 
L 86.768182 -23.080104 
L 89.727273 -22.807942 
L 92.686364 -22.680937 
L 95.645455 -22.57162 
L 98.604545 -22.408325 
L 101.563636 -22.263629 
L 104.522727 -22.136169 
L 107.481818 -22.064046 
L 110.440909 -21.973328 
L 113.4 -21.93704 
L 116.359091 -21.93704 
L 119.318182 -21.93704 
L 119.318182 -22.390636 
L 119.318182 -22.390636 
L 116.359091 -22.372491 
L 113.4 -22.372491 
L 110.440909 -22.426923 
L 107.481818 -22.590217 
L 104.522727 -22.663246 
L 101.563636 -22.826087 
L 98.604545 -23.007532 
L 95.645455 -23.207106 
L 92.686364 -23.334108 
L 89.727273 -23.515553 
L 86.768182 -23.805856 
L 83.809091 -24.169186 
L 80.85 -24.586037 
L 77.890909 -25.040082 
L 74.931818 -25.81981 
L 71.972727 -26.237129 
L 69.013636 -26.962881 
L 66.054545 -27.833777 
L 63.095455 -28.831689 
L 60.136364 -30.047319 
L 57.177273 -31.480679 
L 54.218182 -33.095485 
L 51.259091 -34.165969 
L 48.3 -35.871876 
L 45.340909 -37.287093 
L 42.381818 -39.119202 
L 39.422727 -41.423912 
L 36.463636 -43.891941 
L 33.504545 -47.012184 
L 30.545455 -51.656613 
L 27.586364 -57.87989 
L 24.627273 -67.441664 
L 21.668182 -82.355933 
L 18.709091 -105.217528 
z
" id="m084dc19fce" style="stroke:#008000;stroke-opacity:0.2;"/>
    </defs>
    <g clip-path="url(#p6cd92e913e)">
     <use style="fill:#008000;fill-opacity:0.2;stroke:#008000;stroke-opacity:0.2;" x="0.0" xlink:href="#m084dc19fce" y="126.0"/>
    </g>
   </g>
   <g id="line2d_14">
    <path clip-path="url(#p6cd92e913e)" d="M 18.709091 30.767367 
L 21.668182 53.832399 
L 24.627273 68.706916 
L 27.586364 78.423584 
L 30.545455 84.518326 
L 33.504545 88.926018 
L 36.463636 92.103841 
L 39.422727 94.659084 
L 42.381818 96.590505 
L 45.340909 98.156324 
L 48.3 99.454958 
L 51.259091 100.686429 
L 54.218182 101.119427 
L 57.177273 101.822254 
L 60.136364 102.404394 
L 63.095455 102.786755 
L 66.054545 103.109819 
L 69.013636 103.331838 
L 71.972727 103.473532 
L 74.931818 103.557196 
L 77.890909 103.717012 
L 80.85 103.834192 
L 83.809091 103.902197 
L 86.768182 103.994101 
L 89.727273 104.085138 
L 92.686364 104.121592 
L 95.645455 104.148447 
L 98.604545 104.179529 
L 101.563636 104.220718 
L 104.522727 104.276328 
L 107.481818 104.294614 
L 110.440909 104.365832 
L 113.4 104.383551 
L 116.359091 104.422925 
L 119.318182 104.400814 
" style="fill:none;stroke:#ff0000;stroke-linecap:round;"/>
   </g>
   <g id="line2d_15">
    <path clip-path="url(#p6cd92e913e)" d="M 18.709091 26.260892 
L 21.668182 49.054713 
L 24.627273 63.551522 
L 27.586364 73.408507 
L 30.545455 79.351483 
L 33.504545 83.741582 
L 36.463636 86.939622 
L 39.422727 89.402377 
L 42.381818 91.656764 
L 45.340909 93.417368 
L 48.3 94.938763 
L 51.259091 96.547553 
L 54.218182 97.514422 
L 57.177273 98.943295 
L 60.136364 99.993809 
L 63.095455 100.785321 
L 66.054545 101.383663 
L 69.013636 102.019298 
L 71.972727 102.306403 
L 74.931818 102.536955 
L 77.890909 102.908054 
L 80.85 103.140719 
L 83.809091 103.300915 
L 86.768182 103.469914 
L 89.727273 103.673834 
L 92.686364 103.763084 
L 95.645455 103.776979 
L 98.604545 103.833753 
L 101.563636 103.950941 
L 104.522727 104.023522 
L 107.481818 104.038501 
L 110.440909 104.113434 
L 113.4 104.142216 
L 116.359091 104.183147 
L 119.318182 104.166201 
" style="fill:none;stroke:#800080;stroke-linecap:round;"/>
   </g>
   <g id="line2d_16">
    <path clip-path="url(#p6cd92e913e)" d="M 18.709091 23.274151 
L 21.668182 45.694349 
L 24.627273 60.178394 
L 27.586364 69.765655 
L 30.545455 75.719584 
L 33.504545 80.130765 
L 36.463636 83.277099 
L 39.422727 85.795353 
L 42.381818 87.956225 
L 45.340909 89.719767 
L 48.3 91.139504 
L 51.259091 92.723113 
L 54.218182 93.799459 
L 57.177273 95.34542 
L 60.136364 96.710506 
L 63.095455 97.856034 
L 66.054545 98.81869 
L 69.013636 99.642819 
L 71.972727 100.316262 
L 74.931818 100.750299 
L 77.890909 101.42465 
L 80.85 101.858069 
L 83.809091 102.243789 
L 86.768182 102.564608 
L 89.727273 102.86398 
L 92.686364 103.013105 
L 95.645455 103.12859 
L 98.604545 103.30513 
L 101.563636 103.467426 
L 104.522727 103.598152 
L 107.481818 103.676152 
L 110.440909 103.809636 
L 113.4 103.846305 
L 116.359091 103.864702 
L 119.318182 103.845633 
" style="fill:none;stroke:#008000;stroke-linecap:round;"/>
   </g>
   <g id="patch_3">
    <path d="M 113.4 110.25 
L 113.4 12.6 
" style="fill:none;"/>
   </g>
   <g id="patch_4">
    <path d="M 15.75 12.6 
L 113.4 12.6 
" style="fill:none;"/>
   </g>
   <g id="patch_5">
    <path d="M 15.75 110.25 
L 113.4 110.25 
" style="fill:none;stroke:#262626;stroke-linecap:square;stroke-linejoin:miter;stroke-width:0.5;"/>
   </g>
   <g id="patch_6">
    <path d="M 15.75 110.25 
L 15.75 12.6 
" style="fill:none;stroke:#262626;stroke-linecap:square;stroke-linejoin:miter;stroke-width:0.5;"/>
   </g>
  </g>
 </g>
 <defs>
  <clipPath id="p6cd92e913e">
   <rect height="97.65" width="97.65" x="15.75" y="12.599999999999994"/>
  </clipPath>
 </defs>
</svg>
