<?xml version="1.0" encoding="utf-8" standalone="no"?>
<!DOCTYPE svg PUBLIC "-//W3C//DTD SVG 1.1//EN"
  "http://www.w3.org/Graphics/SVG/1.1/DTD/svg11.dtd">
<!-- Created with matplotlib (http://matplotlib.org/) -->
<svg height="72pt" version="1.1" viewBox="0 0 188 72" width="188pt" xmlns="http://www.w3.org/2000/svg" xmlns:xlink="http://www.w3.org/1999/xlink">
 <defs>
  <style type="text/css">
*{stroke-linecap:butt;stroke-linejoin:round;stroke-miterlimit:100000;}
  </style>
 </defs>
 <g id="figure_1">
  <g id="patch_1">
   <path d="M 0 72.8475 
L 188.5175 72.8475 
L 188.5175 0 
L 0 0 
L 0 72.8475 
z
" style="fill:none;"/>
  </g>
  <g id="axes_1">
   <g id="patch_2">
    <path d="M 125.5175 63 
L 181.3175 63 
L 181.3175 7.2 
L 125.5175 7.2 
L 125.5175 63 
z
" style="fill:none;"/>
   </g>
   <g id="PathCollection_1">
    <defs>
     <path d="M 0 3.535534 
C 0.937635 3.535534 1.836992 3.163008 2.5 2.5 
C 3.163008 1.836992 3.535534 0.937635 3.535534 0 
C 3.535534 -0.937635 3.163008 -1.836992 2.5 -2.5 
C 1.836992 -3.163008 0.937635 -3.535534 0 -3.535534 
C -0.937635 -3.535534 -1.836992 -3.163008 -2.5 -2.5 
C -3.163008 -1.836992 -3.535534 -0.937635 -3.535534 0 
C -3.535534 0.937635 -3.163008 1.836992 -2.5 2.5 
C -1.836992 3.163008 -0.937635 3.535534 0 3.535534 
z
" id="m617dfb3d24" style="stroke:#1a1a1a;stroke-width:0.3;"/>
    </defs>
    <g clip-path="url(#p5cc7a45d3d)">
     <use style="fill:#1a1a1a;stroke:#1a1a1a;stroke-width:0.3;" x="4427043785.52" xlink:href="#m617dfb3d24" y="-1394313597.0"/>
    </g>
   </g>
   <g id="PathCollection_2">
    <defs>
     <path d="M 0 3.535534 
C 0.937635 3.535534 1.836992 3.163008 2.5 2.5 
C 3.163008 1.836992 3.535534 0.937635 3.535534 0 
C 3.535534 -0.937635 3.163008 -1.836992 2.5 -2.5 
C 1.836992 -3.163008 0.937635 -3.535534 0 -3.535534 
C -0.937635 -3.535534 -1.836992 -3.163008 -2.5 -2.5 
C -3.163008 -1.836992 -3.535534 -0.937635 -3.535534 0 
C -3.535534 0.937635 -3.163008 1.836992 -2.5 2.5 
C -1.836992 3.163008 -0.937635 3.535534 0 3.535534 
z
" id="m4488d1d704" style="stroke:#ff0000;stroke-width:0.3;"/>
    </defs>
    <g clip-path="url(#p5cc7a45d3d)">
     <use style="fill:#ff0000;stroke:#ff0000;stroke-width:0.3;" x="2896527905.52" xlink:href="#m4488d1d704" y="-1394257797.0"/>
    </g>
   </g>
   <g id="PathCollection_3">
    <defs>
     <path d="M 0 3.535534 
C 0.937635 3.535534 1.836992 3.163008 2.5 2.5 
C 3.163008 1.836992 3.535534 0.937635 3.535534 0 
C 3.535534 -0.937635 3.163008 -1.836992 2.5 -2.5 
C 1.836992 -3.163008 0.937635 -3.535534 0 -3.535534 
C -0.937635 -3.535534 -1.836992 -3.163008 -2.5 -2.5 
C -3.163008 -1.836992 -3.535534 -0.937635 -3.535534 0 
C -3.535534 0.937635 -3.163008 1.836992 -2.5 2.5 
C -1.836992 3.163008 -0.937635 3.535534 0 3.535534 
z
" id="m1b6f6a7eac" style="stroke:#1a1a1a;stroke-opacity:0.1;stroke-width:0.3;"/>
    </defs>
    <g clip-path="url(#p5cc7a45d3d)">
     <use style="fill:#1a1a1a;fill-opacity:0.1;stroke:#1a1a1a;stroke-opacity:0.1;stroke-width:0.3;" x="3120397505.52" xlink:href="#m1b6f6a7eac" y="-1394245242.0"/>
    </g>
   </g>
   <g id="PathCollection_4">
    <defs>
     <path d="M 0 3.535534 
C 0.937635 3.535534 1.836992 3.163008 2.5 2.5 
C 3.163008 1.836992 3.535534 0.937635 3.535534 0 
C 3.535534 -0.937635 3.163008 -1.836992 2.5 -2.5 
C 1.836992 -3.163008 0.937635 -3.535534 0 -3.535534 
C -0.937635 -3.535534 -1.836992 -3.163008 -2.5 -2.5 
C -3.163008 -1.836992 -3.535534 -0.937635 -3.535534 0 
C -3.535534 0.937635 -3.163008 1.836992 -2.5 2.5 
C -1.836992 3.163008 -0.937635 3.535534 0 3.535534 
z
" id="ma3489bf983" style="stroke:#ff0000;stroke-opacity:0.01;stroke-width:0.3;"/>
    </defs>
    <g clip-path="url(#p5cc7a45d3d)">
     <use style="fill:#ff0000;fill-opacity:0.01;stroke:#ff0000;stroke-opacity:0.01;stroke-width:0.3;" x="1987060445.52" xlink:href="#ma3489bf983" y="-1394327547.0"/>
    </g>
   </g>
   <g id="PathCollection_5">
    <g clip-path="url(#p5cc7a45d3d)">
     <use style="fill:#1a1a1a;fill-opacity:0.1;stroke:#1a1a1a;stroke-opacity:0.1;stroke-width:0.3;" x="2296610945.52" xlink:href="#m1b6f6a7eac" y="-1393950897.0"/>
    </g>
   </g>
   <g id="PathCollection_6">
    <g clip-path="url(#p5cc7a45d3d)">
     <use style="fill:#ff0000;fill-opacity:0.01;stroke:#ff0000;stroke-opacity:0.01;stroke-width:0.3;" x="1396450925.52" xlink:href="#ma3489bf983" y="-1393871382.0"/>
    </g>
   </g>
   <g id="PathCollection_7">
    <g clip-path="url(#p5cc7a45d3d)">
     <use style="fill:#1a1a1a;fill-opacity:0.1;stroke:#1a1a1a;stroke-opacity:0.1;stroke-width:0.3;" x="1495730285.52" xlink:href="#m1b6f6a7eac" y="-1394486577.0"/>
    </g>
   </g>
   <g id="PathCollection_8">
    <g clip-path="url(#p5cc7a45d3d)">
     <use style="fill:#ff0000;fill-opacity:0.01;stroke:#ff0000;stroke-opacity:0.01;stroke-width:0.3;" x="1015995365.52" xlink:href="#ma3489bf983" y="-1394231292.0"/>
    </g>
   </g>
   <g id="PathCollection_9">
    <g clip-path="url(#p5cc7a45d3d)">
     <use style="fill:#1a1a1a;fill-opacity:0.1;stroke:#1a1a1a;stroke-opacity:0.1;stroke-width:0.3;" x="1198612025.52" xlink:href="#m1b6f6a7eac" y="-1393864407.0"/>
    </g>
   </g>
   <g id="PathCollection_10">
    <g clip-path="url(#p5cc7a45d3d)">
     <use style="fill:#ff0000;fill-opacity:0.01;stroke:#ff0000;stroke-opacity:0.01;stroke-width:0.3;" x="815706845.517" xlink:href="#ma3489bf983" y="-1391716107.0"/>
    </g>
   </g>
   <g id="PathCollection_11">
    <g clip-path="url(#p5cc7a45d3d)">
     <use style="fill:#1a1a1a;fill-opacity:0.1;stroke:#1a1a1a;stroke-opacity:0.1;stroke-width:0.3;" x="981639305.517" xlink:href="#m1b6f6a7eac" y="-1394221527.0"/>
    </g>
   </g>
   <g id="PathCollection_12">
    <g clip-path="url(#p5cc7a45d3d)">
     <use style="fill:#ff0000;fill-opacity:0.01;stroke:#ff0000;stroke-opacity:0.01;stroke-width:0.3;" x="652715045.517" xlink:href="#ma3489bf983" y="-1391985342.0"/>
    </g>
   </g>
   <g id="PathCollection_13">
    <g clip-path="url(#p5cc7a45d3d)">
     <use style="fill:#1a1a1a;fill-opacity:0.1;stroke:#1a1a1a;stroke-opacity:0.1;stroke-width:0.3;" x="708732665.517" xlink:href="#m1b6f6a7eac" y="-1394690247.0"/>
    </g>
   </g>
   <g id="PathCollection_14">
    <g clip-path="url(#p5cc7a45d3d)">
     <use style="fill:#ff0000;fill-opacity:0.01;stroke:#ff0000;stroke-opacity:0.01;stroke-width:0.3;" x="485532665.517" xlink:href="#ma3489bf983" y="-1389499452.0"/>
    </g>
   </g>
   <g id="PathCollection_15">
    <g clip-path="url(#p5cc7a45d3d)">
     <use style="fill:#1a1a1a;fill-opacity:0.1;stroke:#1a1a1a;stroke-opacity:0.1;stroke-width:0.3;" x="689425865.517" xlink:href="#m1b6f6a7eac" y="-1393356627.0"/>
    </g>
   </g>
   <g id="PathCollection_16">
    <g clip-path="url(#p5cc7a45d3d)">
     <use style="fill:#ff0000;fill-opacity:0.01;stroke:#ff0000;stroke-opacity:0.01;stroke-width:0.3;" x="390600125.517" xlink:href="#ma3489bf983" y="-1386864297.0"/>
    </g>
   </g>
   <g id="PathCollection_17">
    <g clip-path="url(#p5cc7a45d3d)">
     <use style="fill:#1a1a1a;fill-opacity:0.1;stroke:#1a1a1a;stroke-opacity:0.1;stroke-width:0.3;" x="570320765.517" xlink:href="#m1b6f6a7eac" y="-1391059062.0"/>
    </g>
   </g>
   <g id="PathCollection_18">
    <g clip-path="url(#p5cc7a45d3d)">
     <use style="fill:#ff0000;fill-opacity:0.01;stroke:#ff0000;stroke-opacity:0.01;stroke-width:0.3;" x="290594807.517" xlink:href="#ma3489bf983" y="-1378617057.0"/>
    </g>
   </g>
   <g id="PathCollection_19">
    <g clip-path="url(#p5cc7a45d3d)">
     <use style="fill:#1a1a1a;fill-opacity:0.1;stroke:#1a1a1a;stroke-opacity:0.1;stroke-width:0.3;" x="525694715.517" xlink:href="#m1b6f6a7eac" y="-1388327652.0"/>
    </g>
   </g>
   <g id="PathCollection_20">
    <g clip-path="url(#p5cc7a45d3d)">
     <use style="fill:#ff0000;fill-opacity:0.01;stroke:#ff0000;stroke-opacity:0.01;stroke-width:0.3;" x="262847699.517" xlink:href="#ma3489bf983" y="-1361733372.0"/>
    </g>
   </g>
   <g id="PathCollection_21">
    <g clip-path="url(#p5cc7a45d3d)">
     <use style="fill:#1a1a1a;fill-opacity:0.1;stroke:#1a1a1a;stroke-opacity:0.1;stroke-width:0.3;" x="421036235.517" xlink:href="#m1b6f6a7eac" y="-1384576497.0"/>
    </g>
   </g>
   <g id="PathCollection_22">
    <g clip-path="url(#p5cc7a45d3d)">
     <use style="fill:#ff0000;fill-opacity:0.01;stroke:#ff0000;stroke-opacity:0.01;stroke-width:0.3;" x="226136879.517" xlink:href="#ma3489bf983" y="-1348056792.0"/>
    </g>
   </g>
   <g id="PathCollection_23">
    <g clip-path="url(#p5cc7a45d3d)">
     <use style="fill:#1a1a1a;fill-opacity:0.1;stroke:#1a1a1a;stroke-opacity:0.1;stroke-width:0.3;" x="337736879.517" xlink:href="#m1b6f6a7eac" y="-1370428407.0"/>
    </g>
   </g>
   <g id="PathCollection_24">
    <g clip-path="url(#p5cc7a45d3d)">
     <use style="fill:#ff0000;fill-opacity:0.01;stroke:#ff0000;stroke-opacity:0.01;stroke-width:0.3;" x="144210761.517" xlink:href="#ma3489bf983" y="-1315443087.0"/>
    </g>
   </g>
   <g id="PathCollection_25">
    <g clip-path="url(#p5cc7a45d3d)">
     <use style="fill:#1a1a1a;fill-opacity:0.1;stroke:#1a1a1a;stroke-opacity:0.1;stroke-width:0.3;" x="304364015.517" xlink:href="#m1b6f6a7eac" y="-1357030827.0"/>
    </g>
   </g>
   <g id="PathCollection_26">
    <g clip-path="url(#p5cc7a45d3d)">
     <use style="fill:#ff0000;fill-opacity:0.01;stroke:#ff0000;stroke-opacity:0.01;stroke-width:0.3;" x="142036235.517" xlink:href="#ma3489bf983" y="-1275502842.0"/>
    </g>
   </g>
   <g id="PathCollection_27">
    <g clip-path="url(#p5cc7a45d3d)">
     <use style="fill:#1a1a1a;fill-opacity:0.1;stroke:#1a1a1a;stroke-opacity:0.1;stroke-width:0.3;" x="273927347.517" xlink:href="#m1b6f6a7eac" y="-1338100677.0"/>
    </g>
   </g>
   <g id="PathCollection_28">
    <g clip-path="url(#p5cc7a45d3d)">
     <use style="fill:#ff0000;fill-opacity:0.01;stroke:#ff0000;stroke-opacity:0.01;stroke-width:0.3;" x="96381791.5175" xlink:href="#ma3489bf983" y="-1217925612.0"/>
    </g>
   </g>
   <g id="PathCollection_29">
    <g clip-path="url(#p5cc7a45d3d)">
     <use style="fill:#1a1a1a;fill-opacity:0.1;stroke:#1a1a1a;stroke-opacity:0.1;stroke-width:0.3;" x="229073633.517" xlink:href="#m1b6f6a7eac" y="-1308385782.0"/>
    </g>
   </g>
   <g id="PathCollection_30">
    <g clip-path="url(#p5cc7a45d3d)">
     <use style="fill:#ff0000;fill-opacity:0.01;stroke:#ff0000;stroke-opacity:0.01;stroke-width:0.3;" x="89859887.5175" xlink:href="#ma3489bf983" y="-1150226262.0"/>
    </g>
   </g>
   <g id="PathCollection_31">
    <g clip-path="url(#p5cc7a45d3d)">
     <use style="fill:#1a1a1a;fill-opacity:0.1;stroke:#1a1a1a;stroke-opacity:0.1;stroke-width:0.3;" x="189426617.517" xlink:href="#m1b6f6a7eac" y="-1283967702.0"/>
    </g>
   </g>
   <g id="PathCollection_32">
    <g clip-path="url(#p5cc7a45d3d)">
     <use style="fill:#ff0000;fill-opacity:0.01;stroke:#ff0000;stroke-opacity:0.01;stroke-width:0.3;" x="69568775.5175" xlink:href="#ma3489bf983" y="-1104664167.0"/>
    </g>
   </g>
   <g id="PathCollection_33">
    <g clip-path="url(#p5cc7a45d3d)">
     <use style="fill:#1a1a1a;fill-opacity:0.1;stroke:#1a1a1a;stroke-opacity:0.1;stroke-width:0.3;" x="187957961.517" xlink:href="#m1b6f6a7eac" y="-1288585152.0"/>
    </g>
   </g>
   <g id="PathCollection_34">
    <g clip-path="url(#p5cc7a45d3d)">
     <use style="fill:#ff0000;fill-opacity:0.01;stroke:#ff0000;stroke-opacity:0.01;stroke-width:0.3;" x="58002551.5175" xlink:href="#ma3489bf983" y="-1051889922.0"/>
    </g>
   </g>
   <g id="PathCollection_35">
    <g clip-path="url(#p5cc7a45d3d)">
     <use style="fill:#1a1a1a;fill-opacity:0.1;stroke:#1a1a1a;stroke-opacity:0.1;stroke-width:0.3;" x="164501315.517" xlink:href="#m1b6f6a7eac" y="-1263913182.0"/>
    </g>
   </g>
   <g id="PathCollection_36">
    <g clip-path="url(#p5cc7a45d3d)">
     <use style="fill:#ff0000;fill-opacity:0.01;stroke:#ff0000;stroke-opacity:0.01;stroke-width:0.3;" x="49278054.1175" xlink:href="#ma3489bf983" y="-987433947.0"/>
    </g>
   </g>
   <g id="PathCollection_37">
    <g clip-path="url(#p5cc7a45d3d)">
     <use style="fill:#1a1a1a;fill-opacity:0.1;stroke:#1a1a1a;stroke-opacity:0.1;stroke-width:0.3;" x="123919649.517" xlink:href="#m1b6f6a7eac" y="-1225471167.0"/>
    </g>
   </g>
   <g id="PathCollection_38">
    <g clip-path="url(#p5cc7a45d3d)">
     <use style="fill:#ff0000;fill-opacity:0.01;stroke:#ff0000;stroke-opacity:0.01;stroke-width:0.3;" x="34508017.3175" xlink:href="#ma3489bf983" y="-912579642.0"/>
    </g>
   </g>
   <g id="legend_1">
    <g id="PathCollection_39">
     <path d="M 29.6 32.583034 
C 30.537635 32.583034 31.436992 32.210508 32.1 31.5475 
C 32.763008 30.884492 33.135534 29.985135 33.135534 29.0475 
C 33.135534 28.109865 32.763008 27.210508 32.1 26.5475 
C 31.436992 25.884492 30.537635 25.511966 29.6 25.511966 
C 28.662365 25.511966 27.763008 25.884492 27.1 26.5475 
C 26.436992 27.210508 26.064466 28.109865 26.064466 29.0475 
C 26.064466 29.985135 26.436992 30.884492 27.1 31.5475 
C 27.763008 32.210508 28.662365 32.583034 29.6 32.583034 
z
" style="fill:#1a1a1a;stroke:#1a1a1a;stroke-width:0.3;"/>
     <path d="M 29.6 32.583034 
C 30.537635 32.583034 31.436992 32.210508 32.1 31.5475 
C 32.763008 30.884492 33.135534 29.985135 33.135534 29.0475 
C 33.135534 28.109865 32.763008 27.210508 32.1 26.5475 
C 31.436992 25.884492 30.537635 25.511966 29.6 25.511966 
C 28.662365 25.511966 27.763008 25.884492 27.1 26.5475 
C 26.436992 27.210508 26.064466 28.109865 26.064466 29.0475 
C 26.064466 29.985135 26.436992 30.884492 27.1 31.5475 
C 27.763008 32.210508 28.662365 32.583034 29.6 32.583034 
z
" style="fill:#1a1a1a;stroke:#1a1a1a;stroke-width:0.3;"/>
     <path d="M 29.6 32.583034 
C 30.537635 32.583034 31.436992 32.210508 32.1 31.5475 
C 32.763008 30.884492 33.135534 29.985135 33.135534 29.0475 
C 33.135534 28.109865 32.763008 27.210508 32.1 26.5475 
C 31.436992 25.884492 30.537635 25.511966 29.6 25.511966 
C 28.662365 25.511966 27.763008 25.884492 27.1 26.5475 
C 26.436992 27.210508 26.064466 28.109865 26.064466 29.0475 
C 26.064466 29.985135 26.436992 30.884492 27.1 31.5475 
C 27.763008 32.210508 28.662365 32.583034 29.6 32.583034 
z
" style="fill:#1a1a1a;stroke:#1a1a1a;stroke-width:0.3;"/>
    </g>
    <g id="text_1">
     <!-- Single Channel -->
     <defs>
      <path d="M 4.5 23 
L 13.421875 23.78125 
Q 14.0625 18.40625 16.375 14.96875 
Q 18.703125 11.53125 23.578125 9.40625 
Q 28.46875 7.28125 34.578125 7.28125 
Q 39.984375 7.28125 44.140625 8.890625 
Q 48.296875 10.5 50.3125 13.296875 
Q 52.34375 16.109375 52.34375 19.4375 
Q 52.34375 22.796875 50.390625 25.3125 
Q 48.4375 27.828125 43.953125 29.546875 
Q 41.0625 30.671875 31.203125 33.03125 
Q 21.34375 35.40625 17.390625 37.5 
Q 12.25 40.1875 9.734375 44.15625 
Q 7.234375 48.140625 7.234375 53.078125 
Q 7.234375 58.5 10.296875 63.203125 
Q 13.375 67.921875 19.28125 70.359375 
Q 25.203125 72.796875 32.421875 72.796875 
Q 40.375 72.796875 46.453125 70.234375 
Q 52.546875 67.671875 55.8125 62.6875 
Q 59.078125 57.71875 59.328125 51.421875 
L 50.25 50.734375 
Q 49.515625 57.515625 45.28125 60.984375 
Q 41.0625 64.453125 32.8125 64.453125 
Q 24.21875 64.453125 20.28125 61.296875 
Q 16.359375 58.15625 16.359375 53.71875 
Q 16.359375 49.859375 19.140625 47.359375 
Q 21.875 44.875 33.421875 42.265625 
Q 44.96875 39.65625 49.265625 37.703125 
Q 55.515625 34.8125 58.484375 30.390625 
Q 61.46875 25.984375 61.46875 20.21875 
Q 61.46875 14.5 58.203125 9.4375 
Q 54.9375 4.390625 48.796875 1.578125 
Q 42.671875 -1.21875 35.015625 -1.21875 
Q 25.296875 -1.21875 18.71875 1.609375 
Q 12.15625 4.4375 8.421875 10.125 
Q 4.6875 15.828125 4.5 23 
" id="ArialMT-53"/>
      <path d="M 6.59375 0 
L 6.59375 71.578125 
L 15.375 71.578125 
L 15.375 45.90625 
Q 21.53125 53.03125 30.90625 53.03125 
Q 36.671875 53.03125 40.921875 50.75 
Q 45.171875 48.484375 47 44.484375 
Q 48.828125 40.484375 48.828125 32.859375 
L 48.828125 0 
L 40.046875 0 
L 40.046875 32.859375 
Q 40.046875 39.453125 37.1875 42.453125 
Q 34.328125 45.453125 29.109375 45.453125 
Q 25.203125 45.453125 21.75 43.421875 
Q 18.3125 41.40625 16.84375 37.9375 
Q 15.375 34.46875 15.375 28.375 
L 15.375 0 
z
" id="ArialMT-68"/>
      <path d="M 42.09375 16.703125 
L 51.171875 15.578125 
Q 49.03125 7.625 43.21875 3.21875 
Q 37.40625 -1.171875 28.375 -1.171875 
Q 17 -1.171875 10.328125 5.828125 
Q 3.65625 12.84375 3.65625 25.484375 
Q 3.65625 38.578125 10.390625 45.796875 
Q 17.140625 53.03125 27.875 53.03125 
Q 38.28125 53.03125 44.875 45.953125 
Q 51.46875 38.875 51.46875 26.03125 
Q 51.46875 25.25 51.421875 23.6875 
L 12.75 23.6875 
Q 13.234375 15.140625 17.578125 10.59375 
Q 21.921875 6.0625 28.421875 6.0625 
Q 33.25 6.0625 36.671875 8.59375 
Q 40.09375 11.140625 42.09375 16.703125 
M 13.234375 30.90625 
L 42.1875 30.90625 
Q 41.609375 37.453125 38.875 40.71875 
Q 34.671875 45.796875 27.984375 45.796875 
Q 21.921875 45.796875 17.796875 41.75 
Q 13.671875 37.703125 13.234375 30.90625 
" id="ArialMT-65"/>
      <path d="M 4.984375 -4.296875 
L 13.53125 -5.5625 
Q 14.0625 -9.515625 16.5 -11.328125 
Q 19.78125 -13.765625 25.4375 -13.765625 
Q 31.546875 -13.765625 34.859375 -11.328125 
Q 38.1875 -8.890625 39.359375 -4.5 
Q 40.046875 -1.8125 39.984375 6.78125 
Q 34.234375 0 25.640625 0 
Q 14.9375 0 9.078125 7.71875 
Q 3.21875 15.4375 3.21875 26.21875 
Q 3.21875 33.640625 5.90625 39.90625 
Q 8.59375 46.1875 13.6875 49.609375 
Q 18.796875 53.03125 25.6875 53.03125 
Q 34.859375 53.03125 40.828125 45.609375 
L 40.828125 51.859375 
L 48.921875 51.859375 
L 48.921875 7.03125 
Q 48.921875 -5.078125 46.453125 -10.125 
Q 44 -15.1875 38.640625 -18.109375 
Q 33.296875 -21.046875 25.484375 -21.046875 
Q 16.21875 -21.046875 10.5 -16.875 
Q 4.78125 -12.703125 4.984375 -4.296875 
M 12.25 26.859375 
Q 12.25 16.65625 16.296875 11.96875 
Q 20.359375 7.28125 26.46875 7.28125 
Q 32.515625 7.28125 36.609375 11.9375 
Q 40.71875 16.609375 40.71875 26.5625 
Q 40.71875 36.078125 36.5 40.90625 
Q 32.28125 45.75 26.3125 45.75 
Q 20.453125 45.75 16.34375 40.984375 
Q 12.25 36.234375 12.25 26.859375 
" id="ArialMT-67"/>
      <path d="M 6.640625 61.46875 
L 6.640625 71.578125 
L 15.4375 71.578125 
L 15.4375 61.46875 
z
M 6.640625 0 
L 6.640625 51.859375 
L 15.4375 51.859375 
L 15.4375 0 
z
" id="ArialMT-69"/>
      <path d="M 6.390625 0 
L 6.390625 71.578125 
L 15.1875 71.578125 
L 15.1875 0 
z
" id="ArialMT-6c"/>
      <path d="M 58.796875 25.09375 
L 68.265625 22.703125 
Q 65.28125 11.03125 57.546875 4.90625 
Q 49.8125 -1.21875 38.625 -1.21875 
Q 27.046875 -1.21875 19.796875 3.484375 
Q 12.546875 8.203125 8.765625 17.140625 
Q 4.984375 26.078125 4.984375 36.328125 
Q 4.984375 47.515625 9.25 55.828125 
Q 13.53125 64.15625 21.40625 68.46875 
Q 29.296875 72.796875 38.765625 72.796875 
Q 49.515625 72.796875 56.828125 67.328125 
Q 64.15625 61.859375 67.046875 51.953125 
L 57.71875 49.75 
Q 55.21875 57.5625 50.484375 61.125 
Q 45.75 64.703125 38.578125 64.703125 
Q 30.328125 64.703125 24.78125 60.734375 
Q 19.234375 56.78125 16.984375 50.109375 
Q 14.75 43.453125 14.75 36.375 
Q 14.75 27.25 17.40625 20.4375 
Q 20.0625 13.625 25.671875 10.25 
Q 31.296875 6.890625 37.84375 6.890625 
Q 45.796875 6.890625 51.3125 11.46875 
Q 56.84375 16.0625 58.796875 25.09375 
" id="ArialMT-43"/>
      <path d="M 6.59375 0 
L 6.59375 51.859375 
L 14.5 51.859375 
L 14.5 44.484375 
Q 20.21875 53.03125 31 53.03125 
Q 35.6875 53.03125 39.625 51.34375 
Q 43.5625 49.65625 45.515625 46.921875 
Q 47.46875 44.1875 48.25 40.4375 
Q 48.734375 37.984375 48.734375 31.890625 
L 48.734375 0 
L 39.9375 0 
L 39.9375 31.546875 
Q 39.9375 36.921875 38.90625 39.578125 
Q 37.890625 42.234375 35.28125 43.8125 
Q 32.671875 45.40625 29.15625 45.40625 
Q 23.53125 45.40625 19.453125 41.84375 
Q 15.375 38.28125 15.375 28.328125 
L 15.375 0 
z
" id="ArialMT-6e"/>
      <path id="ArialMT-20"/>
      <path d="M 40.4375 6.390625 
Q 35.546875 2.25 31.03125 0.53125 
Q 26.515625 -1.171875 21.34375 -1.171875 
Q 12.796875 -1.171875 8.203125 3 
Q 3.609375 7.171875 3.609375 13.671875 
Q 3.609375 17.484375 5.34375 20.625 
Q 7.078125 23.78125 9.890625 25.6875 
Q 12.703125 27.59375 16.21875 28.5625 
Q 18.796875 29.25 24.03125 29.890625 
Q 34.671875 31.15625 39.703125 32.90625 
Q 39.75 34.71875 39.75 35.203125 
Q 39.75 40.578125 37.25 42.78125 
Q 33.890625 45.75 27.25 45.75 
Q 21.046875 45.75 18.09375 43.578125 
Q 15.140625 41.40625 13.71875 35.890625 
L 5.125 37.0625 
Q 6.296875 42.578125 8.984375 45.96875 
Q 11.671875 49.359375 16.75 51.1875 
Q 21.828125 53.03125 28.515625 53.03125 
Q 35.15625 53.03125 39.296875 51.46875 
Q 43.453125 49.90625 45.40625 47.53125 
Q 47.359375 45.171875 48.140625 41.546875 
Q 48.578125 39.3125 48.578125 33.453125 
L 48.578125 21.734375 
Q 48.578125 9.46875 49.140625 6.21875 
Q 49.703125 2.984375 51.375 0 
L 42.1875 0 
Q 40.828125 2.734375 40.4375 6.390625 
M 39.703125 26.03125 
Q 34.90625 24.078125 25.34375 22.703125 
Q 19.921875 21.921875 17.671875 20.9375 
Q 15.4375 19.96875 14.203125 18.09375 
Q 12.984375 16.21875 12.984375 13.921875 
Q 12.984375 10.40625 15.640625 8.0625 
Q 18.3125 5.71875 23.4375 5.71875 
Q 28.515625 5.71875 32.46875 7.9375 
Q 36.421875 10.15625 38.28125 14.015625 
Q 39.703125 17 39.703125 22.796875 
z
" id="ArialMT-61"/>
     </defs>
     <g style="fill:#262626;" transform="translate(58.4 33.2475)scale(0.16 -0.16)">
      <use xlink:href="#ArialMT-53"/>
      <use x="66.69921875" xlink:href="#ArialMT-69"/>
      <use x="88.916015625" xlink:href="#ArialMT-6e"/>
      <use x="144.53125" xlink:href="#ArialMT-67"/>
      <use x="200.146484375" xlink:href="#ArialMT-6c"/>
      <use x="222.36328125" xlink:href="#ArialMT-65"/>
      <use x="277.978515625" xlink:href="#ArialMT-20"/>
      <use x="305.76171875" xlink:href="#ArialMT-43"/>
      <use x="377.978515625" xlink:href="#ArialMT-68"/>
      <use x="433.59375" xlink:href="#ArialMT-61"/>
      <use x="489.208984375" xlink:href="#ArialMT-6e"/>
      <use x="544.82421875" xlink:href="#ArialMT-6e"/>
      <use x="600.439453125" xlink:href="#ArialMT-65"/>
      <use x="656.0546875" xlink:href="#ArialMT-6c"/>
     </g>
    </g>
    <g id="PathCollection_40">
     <path d="M 29.6 55.403034 
C 30.537635 55.403034 31.436992 55.030508 32.1 54.3675 
C 32.763008 53.704492 33.135534 52.805135 33.135534 51.8675 
C 33.135534 50.929865 32.763008 50.030508 32.1 49.3675 
C 31.436992 48.704492 30.537635 48.331966 29.6 48.331966 
C 28.662365 48.331966 27.763008 48.704492 27.1 49.3675 
C 26.436992 50.030508 26.064466 50.929865 26.064466 51.8675 
C 26.064466 52.805135 26.436992 53.704492 27.1 54.3675 
C 27.763008 55.030508 28.662365 55.403034 29.6 55.403034 
z
" style="fill:#ff0000;stroke:#ff0000;stroke-width:0.3;"/>
     <path d="M 29.6 55.403034 
C 30.537635 55.403034 31.436992 55.030508 32.1 54.3675 
C 32.763008 53.704492 33.135534 52.805135 33.135534 51.8675 
C 33.135534 50.929865 32.763008 50.030508 32.1 49.3675 
C 31.436992 48.704492 30.537635 48.331966 29.6 48.331966 
C 28.662365 48.331966 27.763008 48.704492 27.1 49.3675 
C 26.436992 50.030508 26.064466 50.929865 26.064466 51.8675 
C 26.064466 52.805135 26.436992 53.704492 27.1 54.3675 
C 27.763008 55.030508 28.662365 55.403034 29.6 55.403034 
z
" style="fill:#ff0000;stroke:#ff0000;stroke-width:0.3;"/>
     <path d="M 29.6 55.403034 
C 30.537635 55.403034 31.436992 55.030508 32.1 54.3675 
C 32.763008 53.704492 33.135534 52.805135 33.135534 51.8675 
C 33.135534 50.929865 32.763008 50.030508 32.1 49.3675 
C 31.436992 48.704492 30.537635 48.331966 29.6 48.331966 
C 28.662365 48.331966 27.763008 48.704492 27.1 49.3675 
C 26.436992 50.030508 26.064466 50.929865 26.064466 51.8675 
C 26.064466 52.805135 26.436992 53.704492 27.1 54.3675 
C 27.763008 55.030508 28.662365 55.403034 29.6 55.403034 
z
" style="fill:#ff0000;stroke:#ff0000;stroke-width:0.3;"/>
    </g>
    <g id="text_2">
     <!-- Two Channel -->
     <defs>
      <path d="M 16.15625 0 
L 0.296875 51.859375 
L 9.375 51.859375 
L 17.625 21.921875 
L 20.703125 10.796875 
Q 20.90625 11.625 23.390625 21.484375 
L 31.640625 51.859375 
L 40.671875 51.859375 
L 48.4375 21.78125 
L 51.03125 11.859375 
L 54 21.875 
L 62.890625 51.859375 
L 71.4375 51.859375 
L 55.21875 0 
L 46.09375 0 
L 37.84375 31.0625 
L 35.84375 39.890625 
L 25.34375 0 
z
" id="ArialMT-77"/>
      <path d="M 3.328125 25.921875 
Q 3.328125 40.328125 11.328125 47.265625 
Q 18.015625 53.03125 27.640625 53.03125 
Q 38.328125 53.03125 45.109375 46.015625 
Q 51.90625 39.015625 51.90625 26.65625 
Q 51.90625 16.65625 48.90625 10.90625 
Q 45.90625 5.171875 40.15625 2 
Q 34.421875 -1.171875 27.640625 -1.171875 
Q 16.75 -1.171875 10.03125 5.8125 
Q 3.328125 12.796875 3.328125 25.921875 
M 12.359375 25.921875 
Q 12.359375 15.96875 16.703125 11.015625 
Q 21.046875 6.0625 27.640625 6.0625 
Q 34.1875 6.0625 38.53125 11.03125 
Q 42.875 16.015625 42.875 26.21875 
Q 42.875 35.84375 38.5 40.796875 
Q 34.125 45.75 27.640625 45.75 
Q 21.046875 45.75 16.703125 40.8125 
Q 12.359375 35.890625 12.359375 25.921875 
" id="ArialMT-6f"/>
      <path d="M 25.921875 0 
L 25.921875 63.140625 
L 2.34375 63.140625 
L 2.34375 71.578125 
L 59.078125 71.578125 
L 59.078125 63.140625 
L 35.40625 63.140625 
L 35.40625 0 
z
" id="ArialMT-54"/>
     </defs>
     <g style="fill:#262626;" transform="translate(58.4 56.0675)scale(0.16 -0.16)">
      <use xlink:href="#ArialMT-54"/>
      <use x="61.005859375" xlink:href="#ArialMT-77"/>
      <use x="133.22265625" xlink:href="#ArialMT-6f"/>
      <use x="188.837890625" xlink:href="#ArialMT-20"/>
      <use x="216.62109375" xlink:href="#ArialMT-43"/>
      <use x="288.837890625" xlink:href="#ArialMT-68"/>
      <use x="344.453125" xlink:href="#ArialMT-61"/>
      <use x="400.068359375" xlink:href="#ArialMT-6e"/>
      <use x="455.68359375" xlink:href="#ArialMT-6e"/>
      <use x="511.298828125" xlink:href="#ArialMT-65"/>
      <use x="566.9140625" xlink:href="#ArialMT-6c"/>
     </g>
    </g>
   </g>
  </g>
 </g>
 <defs>
  <clipPath id="p5cc7a45d3d">
   <rect height="55.8" width="55.8" x="125.5175" y="7.2"/>
  </clipPath>
 </defs>
</svg>
