<?xml version="1.0" encoding="utf-8" standalone="no"?>
<!DOCTYPE svg PUBLIC "-//W3C//DTD SVG 1.1//EN"
  "http://www.w3.org/Graphics/SVG/1.1/DTD/svg11.dtd">
<!-- Created with matplotlib (http://matplotlib.org/) -->
<svg height="112pt" version="1.1" viewBox="0 0 112 112" width="112pt" xmlns="http://www.w3.org/2000/svg" xmlns:xlink="http://www.w3.org/1999/xlink">
 <defs>
  <style type="text/css">
*{stroke-linecap:butt;stroke-linejoin:round;stroke-miterlimit:100000;}
  </style>
 </defs>
 <g id="figure_1">
  <g id="patch_1">
   <path d="M 0 112.05 
L 112.05 112.05 
L 112.05 0 
L 0 0 
L 0 112.05 
z
" style="fill:none;"/>
  </g>
  <g id="axes_1">
   <g id="patch_2">
    <path d="M 7.2 104.85 
L 104.85 104.85 
L 104.85 7.2 
L 7.2 7.2 
L 7.2 104.85 
z
" style="fill:none;"/>
   </g>
   <g id="PolyCollection_1">
    <path clip-path="url(#p18dbb5353d)" d="M 146475007.2 -2441089228.372425 
L 146475007.2 -2437516323.870075 
L 170887507.2 -2438114340.451495 
L 195300007.2 -2438324173.551541 
L 219712507.2 -2438443817.037753 
L 244125007.2 -2438562244.205888 
L 268537507.2 -2438685669.715936 
L 292950007.2 -2438703953.911493 
L 317362507.2 -2436647959.223944 
L 341775007.2 -2432456280.377452 
L 366187507.2 -2425952455.928156 
L 390600007.2 -2416931713.286963 
L 415012507.2 -2391722611.87377 
L 439425007.2 -2372008053.559303 
L 463837507.2 -2329790639.819896 
L 488250007.2 -2287363626.03423 
L 512662507.2 -2240039158.210932 
L 537075007.2 -2222805289.733124 
L 561487507.2 -2181442543.623505 
L 585900007.2 -2127017588.553995 
L 585900007.2 -2157537801.738505 
L 585900007.2 -2157537801.738505 
L 561487507.2 -2210224780.128995 
L 537075007.2 -2249479423.004376 
L 512662507.2 -2266473305.216568 
L 488250007.2 -2310176497.57827 
L 463837507.2 -2348960833.785104 
L 439425007.2 -2387734549.758196 
L 415012507.2 -2404896757.15623 
L 390600007.2 -2425790134.683038 
L 366187507.2 -2432944665.351844 
L 341775007.2 -2437537713.665049 
L 317362507.2 -2440091125.566057 
L 292950007.2 -2441116364.331007 
L 268537507.2 -2441078084.764065 
L 244125007.2 -2441097552.084112 
L 219712507.2 -2441103457.157248 
L 195300007.2 -2441130679.80096 
L 170887507.2 -2441007267.628504 
L 146475007.2 -2441089228.372425 
z
" style="fill:#1a1a1a;fill-opacity:0.2;stroke:#1a1a1a;stroke-opacity:0.2;stroke-width:0.3;"/>
   </g>
   <g id="PolyCollection_2">
    <path clip-path="url(#p18dbb5353d)" d="M 146475007.2 -2441087605.22475 
L 146475007.2 -2438202585.815251 
L 170887507.2 -2438419528.679956 
L 195300007.2 -2438564514.488401 
L 219712507.2 -2438696320.28752 
L 244125007.2 -2436025338.433764 
L 268537507.2 -2434209683.580098 
L 292950007.2 -2427951030.949678 
L 317362507.2 -2423116311.374006 
L 341775007.2 -2404606595.087394 
L 366187507.2 -2376570128.689225 
L 390600007.2 -2343807114.041166 
L 415012507.2 -2298013474.103244 
L 439425007.2 -2225305436.236442 
L 463837507.2 -2115904575.076969 
L 488250007.2 -2008367409.398554 
L 512662507.2 -1917005554.992504 
L 537075007.2 -1823396505.576133 
L 561487507.2 -1715927999.211487 
L 585900007.2 -1613446811.8043 
L 585900007.2 -1656555242.573201 
L 585900007.2 -1656555242.573201 
L 561487507.2 -1759247832.383513 
L 537075007.2 -1863717113.671368 
L 512662507.2 -1955275529.184996 
L 488250007.2 -2045062578.553946 
L 463837507.2 -2147963716.423031 
L 439425007.2 -2251606753.761058 
L 415012507.2 -2318871446.519257 
L 390600007.2 -2361806092.451334 
L 366187507.2 -2391178168.285775 
L 341775007.2 -2415314373.365106 
L 317362507.2 -2430570161.963493 
L 292950007.2 -2434318691.852822 
L 268537507.2 -2438643673.349903 
L 244125007.2 -2439759935.333736 
L 219712507.2 -2441103291.27248 
L 195300007.2 -2441142842.234099 
L 170887507.2 -2441127291.442544 
L 146475007.2 -2441087605.22475 
z
" style="fill:#ff0000;fill-opacity:0.2;stroke:#ff0000;stroke-opacity:0.2;stroke-width:0.3;"/>
   </g>
   <g id="line2d_1">
    <path clip-path="url(#p18dbb5353d)" d="M 146475007.2 -2439302776.12125 
" style="fill:none;stroke:#1a1a1a;stroke-linecap:round;"/>
   </g>
   <g id="line2d_2">
    <path clip-path="url(#p18dbb5353d)" d="M 146475007.2 -2439645095.52 
" style="fill:none;stroke:#ff0000;stroke-linecap:round;"/>
   </g>
   <g id="legend_1">
    <g id="line2d_3">
     <path d="M 20.99125 17.42375 
L 36.99125 17.42375 
" style="fill:none;stroke:#1a1a1a;stroke-linecap:round;"/>
    </g>
    <g id="line2d_4"/>
    <g id="text_1">
     <text style="fill:#262626;font-family:Arial;font-size:8.0px;font-style:normal;font-weight:400;text-anchor:start;" transform="rotate(-0.000000, 43.391250, 20.223750)" x="43.39125" y="20.22375">Single Channel</text>
    </g>
    <g id="line2d_5">
     <path d="M 20.99125 28.83375 
L 36.99125 28.83375 
" style="fill:none;stroke:#ff0000;stroke-linecap:round;"/>
    </g>
    <g id="line2d_6"/>
    <g id="text_2">
     <text style="fill:#262626;font-family:Arial;font-size:8.0px;font-style:normal;font-weight:400;text-anchor:start;" transform="rotate(-0.000000, 43.391250, 31.633750)" x="43.39125" y="31.63375">Two Channel</text>
    </g>
    <g id="patch_3">
     <path d="M 20.99125 43.0475 
L 36.99125 43.0475 
L 36.99125 37.4475 
L 20.99125 37.4475 
z
" style="fill:#1a1a1a;opacity:0.2;stroke:#1a1a1a;stroke-linejoin:miter;stroke-width:0.3;"/>
    </g>
    <g id="text_3">
     <text style="fill:#262626;font-family:Arial;font-size:8.0px;font-style:normal;font-weight:400;text-anchor:start;" transform="rotate(-0.000000, 43.391250, 43.047500)" x="43.39125" y="43.0475">Single Channel</text>
    </g>
    <g id="patch_4">
     <path d="M 20.99125 54.4575 
L 36.99125 54.4575 
L 36.99125 48.8575 
L 20.99125 48.8575 
z
" style="fill:#ff0000;opacity:0.2;stroke:#ff0000;stroke-linejoin:miter;stroke-width:0.3;"/>
    </g>
    <g id="text_4">
     <text style="fill:#262626;font-family:Arial;font-size:8.0px;font-style:normal;font-weight:400;text-anchor:start;" transform="rotate(-0.000000, 43.391250, 54.457500)" x="43.39125" y="54.4575">Two Channel</text>
    </g>
   </g>
  </g>
 </g>
 <defs>
  <clipPath id="p18dbb5353d">
   <rect height="97.65" width="97.65" x="7.2" y="7.2"/>
  </clipPath>
 </defs>
</svg>
