<?xml version="1.0" encoding="utf-8" standalone="no"?>
<!DOCTYPE svg PUBLIC "-//W3C//DTD SVG 1.1//EN"
  "http://www.w3.org/Graphics/SVG/1.1/DTD/svg11.dtd">
<!-- Created with matplotlib (http://matplotlib.org/) -->
<svg height="126pt" version="1.1" viewBox="0 0 126 126" width="126pt" xmlns="http://www.w3.org/2000/svg" xmlns:xlink="http://www.w3.org/1999/xlink">
 <defs>
  <style type="text/css">
*{stroke-linecap:butt;stroke-linejoin:round;stroke-miterlimit:100000;}
  </style>
 </defs>
 <g id="figure_1">
  <g id="patch_1">
   <path d="M 0 126 
L 126 126 
L 126 0 
L 0 0 
L 0 126 
z
" style="fill:none;"/>
  </g>
  <g id="axes_1">
   <g id="patch_2">
    <path d="M 15.75 110.25 
L 113.4 110.25 
L 113.4 12.6 
L 15.75 12.6 
L 15.75 110.25 
z
" style="fill:none;"/>
   </g>
   <g id="matplotlib.axis_1">
    <g id="xtick_1">
     <g id="line2d_1">
      <defs>
       <path d="M 0 0 
L 0 2 
" id="m2481b8fc19" style="stroke:#1a1a1a;"/>
      </defs>
      <g>
       <use style="fill:#1a1a1a;stroke:#1a1a1a;" x="19.905319148936172" xlink:href="#m2481b8fc19" y="110.25"/>
      </g>
     </g>
     <g id="text_1">
      <text style="fill:#262626;font-family:Arial;font-size:8.0px;font-style:normal;font-weight:400;text-anchor:middle;" transform="rotate(-0.000000, 19.905319, 122.976250)" x="19.905319148936172" y="122.97625">0</text>
     </g>
    </g>
    <g id="xtick_2">
     <g id="line2d_2">
      <g>
       <use style="fill:#1a1a1a;stroke:#1a1a1a;" x="61.45851063829788" xlink:href="#m2481b8fc19" y="110.25"/>
      </g>
     </g>
     <g id="text_2">
      <text style="fill:#262626;font-family:Arial;font-size:8.0px;font-style:normal;font-weight:400;text-anchor:middle;" transform="rotate(-0.000000, 61.458511, 122.976250)" x="61.45851063829788" y="122.97625">40</text>
     </g>
    </g>
    <g id="xtick_3">
     <g id="line2d_3">
      <g>
       <use style="fill:#1a1a1a;stroke:#1a1a1a;" x="103.01170212765959" xlink:href="#m2481b8fc19" y="110.25"/>
      </g>
     </g>
     <g id="text_3">
      <text style="fill:#262626;font-family:Arial;font-size:8.0px;font-style:normal;font-weight:400;text-anchor:middle;" transform="rotate(-0.000000, 103.011702, 122.976250)" x="103.01170212765959" y="122.97625">80</text>
     </g>
    </g>
    <g id="xtick_4">
     <g id="line2d_4">
      <defs>
       <path d="M 0 0 
L 0 2 
" id="m0c7cc8db87" style="stroke:#1a1a1a;stroke-width:0.5;"/>
      </defs>
      <g>
       <use style="fill:#1a1a1a;stroke:#1a1a1a;stroke-width:0.5;" x="30.2936170212766" xlink:href="#m0c7cc8db87" y="110.25"/>
      </g>
     </g>
    </g>
    <g id="xtick_5">
     <g id="line2d_5">
      <g>
       <use style="fill:#1a1a1a;stroke:#1a1a1a;stroke-width:0.5;" x="40.68191489361703" xlink:href="#m0c7cc8db87" y="110.25"/>
      </g>
     </g>
    </g>
    <g id="xtick_6">
     <g id="line2d_6">
      <g>
       <use style="fill:#1a1a1a;stroke:#1a1a1a;stroke-width:0.5;" x="51.07021276595745" xlink:href="#m0c7cc8db87" y="110.25"/>
      </g>
     </g>
    </g>
    <g id="xtick_7">
     <g id="line2d_7">
      <g>
       <use style="fill:#1a1a1a;stroke:#1a1a1a;stroke-width:0.5;" x="71.84680851063831" xlink:href="#m0c7cc8db87" y="110.25"/>
      </g>
     </g>
    </g>
    <g id="xtick_8">
     <g id="line2d_8">
      <g>
       <use style="fill:#1a1a1a;stroke:#1a1a1a;stroke-width:0.5;" x="82.23510638297873" xlink:href="#m0c7cc8db87" y="110.25"/>
      </g>
     </g>
    </g>
    <g id="xtick_9">
     <g id="line2d_9">
      <g>
       <use style="fill:#1a1a1a;stroke:#1a1a1a;stroke-width:0.5;" x="92.62340425531916" xlink:href="#m0c7cc8db87" y="110.25"/>
      </g>
     </g>
    </g>
    <g id="xtick_10">
     <g id="line2d_10">
      <g>
       <use style="fill:#1a1a1a;stroke:#1a1a1a;stroke-width:0.5;" x="113.4" xlink:href="#m0c7cc8db87" y="110.25"/>
      </g>
     </g>
    </g>
    <g id="text_4">
     <text style="fill:#262626;font-family:Arial;font-size:9.6px;font-style:normal;font-weight:400;text-anchor:middle;" transform="rotate(-0.000000, 64.575000, 132.754750)" x="64.575" y="132.75475">FSR (per minute)</text>
    </g>
   </g>
   <g id="matplotlib.axis_2">
    <g id="ytick_1">
     <g id="line2d_11">
      <defs>
       <path d="M 0 0 
L -2 0 
" id="m068551cfc2" style="stroke:#1a1a1a;"/>
      </defs>
      <g>
       <use style="fill:#1a1a1a;stroke:#1a1a1a;" x="15.75" xlink:href="#m068551cfc2" y="110.25000000000001"/>
      </g>
     </g>
     <g id="text_5">
      <text style="fill:#262626;font-family:Arial;font-size:8.0px;font-style:normal;font-weight:400;text-anchor:end;" transform="rotate(-0.000000, 8.750000, 112.318125)" x="8.75" y="112.31812500000001">50</text>
     </g>
    </g>
    <g id="ytick_2">
     <g id="line2d_12">
      <g>
       <use style="fill:#1a1a1a;stroke:#1a1a1a;" x="15.75" xlink:href="#m068551cfc2" y="64.18867924528303"/>
      </g>
     </g>
     <g id="text_6">
      <text style="fill:#262626;font-family:Arial;font-size:8.0px;font-style:normal;font-weight:400;text-anchor:end;" transform="rotate(-0.000000, 8.750000, 66.256804)" x="8.75" y="66.25680424528304">75</text>
     </g>
    </g>
    <g id="ytick_3">
     <g id="line2d_13">
      <g>
       <use style="fill:#1a1a1a;stroke:#1a1a1a;" x="15.75" xlink:href="#m068551cfc2" y="18.127358490566053"/>
      </g>
     </g>
     <g id="text_7">
      <text style="fill:#262626;font-family:Arial;font-size:8.0px;font-style:normal;font-weight:400;text-anchor:end;" transform="rotate(-0.000000, 8.750000, 20.195483)" x="8.75" y="20.195483490566048">100</text>
     </g>
    </g>
    <g id="ytick_4">
     <g id="line2d_14">
      <defs>
       <path d="M 0 0 
L -2 0 
" id="md0655ebba7" style="stroke:#1a1a1a;stroke-width:0.5;"/>
      </defs>
      <g>
       <use style="fill:#1a1a1a;stroke:#1a1a1a;stroke-width:0.5;" x="15.75" xlink:href="#md0655ebba7" y="101.03773584905662"/>
      </g>
     </g>
    </g>
    <g id="ytick_5">
     <g id="line2d_15">
      <g>
       <use style="fill:#1a1a1a;stroke:#1a1a1a;stroke-width:0.5;" x="15.75" xlink:href="#md0655ebba7" y="91.82547169811322"/>
      </g>
     </g>
    </g>
    <g id="ytick_6">
     <g id="line2d_16">
      <g>
       <use style="fill:#1a1a1a;stroke:#1a1a1a;stroke-width:0.5;" x="15.75" xlink:href="#md0655ebba7" y="82.61320754716982"/>
      </g>
     </g>
    </g>
    <g id="ytick_7">
     <g id="line2d_17">
      <g>
       <use style="fill:#1a1a1a;stroke:#1a1a1a;stroke-width:0.5;" x="15.75" xlink:href="#md0655ebba7" y="73.40094339622641"/>
      </g>
     </g>
    </g>
    <g id="ytick_8">
     <g id="line2d_18">
      <g>
       <use style="fill:#1a1a1a;stroke:#1a1a1a;stroke-width:0.5;" x="15.75" xlink:href="#md0655ebba7" y="54.976415094339615"/>
      </g>
     </g>
    </g>
    <g id="ytick_9">
     <g id="line2d_19">
      <g>
       <use style="fill:#1a1a1a;stroke:#1a1a1a;stroke-width:0.5;" x="15.75" xlink:href="#md0655ebba7" y="45.76415094339623"/>
      </g>
     </g>
    </g>
    <g id="ytick_10">
     <g id="line2d_20">
      <g>
       <use style="fill:#1a1a1a;stroke:#1a1a1a;stroke-width:0.5;" x="15.75" xlink:href="#md0655ebba7" y="36.55188679245285"/>
      </g>
     </g>
    </g>
    <g id="ytick_11">
     <g id="line2d_21">
      <g>
       <use style="fill:#1a1a1a;stroke:#1a1a1a;stroke-width:0.5;" x="15.75" xlink:href="#md0655ebba7" y="27.339622641509436"/>
      </g>
     </g>
    </g>
    <g id="text_8">
     <text style="fill:#262626;font-family:Arial;font-size:9.6px;font-style:normal;font-weight:400;text-anchor:middle;" transform="rotate(-90.000000, -7.816750, 61.425000)" x="-7.816750000000001" y="61.425">TPR (%)</text>
    </g>
   </g>
   <g id="PolyCollection_1">
    <defs>
     <path d="M 104.788963 -107.740392 
L 100.030157 -107.740392 
L 75.015528 -107.7543 
L 58.929599 -107.765099 
L 48.034311 -107.769081 
L 41.255972 -107.775722 
L 36.958133 -107.776364 
L 33.560085 -107.772875 
L 31.35976 -107.666249 
L 29.815023 -107.42142 
L 28.553245 -107.022884 
L 27.2176 -106.405723 
L 26.096971 -104.646249 
L 25.463512 -103.250033 
L 24.559639 -100.212558 
L 23.937323 -97.157944 
L 23.250895 -93.796029 
L 22.871448 -92.412487 
L 22.461049 -89.354876 
L 22.147 -85.344277 
L 22.857841 -85.344277 
L 22.857841 -85.344277 
L 23.254516 -89.354876 
L 23.678037 -92.412487 
L 24.156325 -93.796029 
L 24.880834 -97.157944 
L 25.591541 -100.212558 
L 26.583509 -103.250033 
L 27.287114 -104.646249 
L 28.516668 -106.405723 
L 29.992907 -107.022884 
L 31.346159 -107.42142 
L 33.032603 -107.666249 
L 35.364769 -107.772875 
L 38.877922 -107.776364 
L 43.579731 -107.775722 
L 50.633104 -107.769081 
L 61.950604 -107.765099 
L 78.531873 -107.7543 
L 104.788963 -107.740392 
z
" id="m00eeec6aa2" style="stroke:#1a1a1a;stroke-opacity:0.2;stroke-width:1.5;"/>
    </defs>
    <g clip-path="url(#pc60223b6f8)">
     <use style="fill:#1a1a1a;fill-opacity:0.2;stroke:#1a1a1a;stroke-opacity:0.2;stroke-width:1.5;" x="0.0" xlink:href="#m00eeec6aa2" y="126.0"/>
    </g>
   </g>
   <g id="PolyCollection_2">
    <defs>
     <path d="M 75.797405 -107.762943 
L 72.385974 -107.762943 
L 55.737182 -107.76914 
L 45.028586 -107.773685 
L 38.051078 -107.780772 
L 33.683526 -107.640667 
L 30.603677 -107.521604 
L 28.393649 -107.115639 
L 26.575697 -106.784553 
L 25.263436 -105.509143 
L 24.1281 -103.561803 
L 23.237667 -101.261582 
L 22.406707 -97.918598 
L 22.078665 -92.638125 
L 21.600253 -84.546545 
L 21.213722 -76.731273 
L 20.971491 -69.746229 
L 20.728288 -62.762824 
L 20.616098 -54.683773 
L 20.520216 -46.992317 
L 20.930484 -46.992317 
L 20.930484 -46.992317 
L 21.067167 -54.683773 
L 21.231442 -62.762824 
L 21.497476 -69.746229 
L 21.805287 -76.731273 
L 22.256357 -84.546545 
L 22.819434 -92.638125 
L 23.158791 -97.918598 
L 24.129298 -101.261582 
L 25.153435 -103.561803 
L 26.329661 -105.509143 
L 27.811428 -106.784553 
L 29.74686 -107.115639 
L 32.196205 -107.521604 
L 35.515087 -107.640667 
L 40.149473 -107.780772 
L 47.502664 -107.773685 
L 58.575774 -107.76914 
L 75.797405 -107.762943 
z
" id="mc5ec6751b1" style="stroke:#ff0000;stroke-opacity:0.2;stroke-width:1.5;"/>
    </defs>
    <g clip-path="url(#pc60223b6f8)">
     <use style="fill:#ff0000;fill-opacity:0.2;stroke:#ff0000;stroke-opacity:0.2;stroke-width:1.5;" x="0.0" xlink:href="#mc5ec6751b1" y="126.0"/>
    </g>
   </g>
   <g id="patch_3">
    <path clip-path="url(#pc60223b6f8)" d="M 19.905319 29.182075 
L 40.681915 29.182075 
L 40.681915 17.206132 
L 19.905319 17.206132 
L 19.905319 29.182075 
z
" style="fill:none;opacity:0.5;stroke:#1a1a1a;stroke-dasharray:6.000000,6.000000;stroke-dashoffset:0.0;stroke-linejoin:miter;"/>
   </g>
   <g id="line2d_22">
    <path clip-path="url(#pc60223b6f8)" d="M 102.906889 18.259608 
L 77.555835 18.2457 
L 60.638381 18.234901 
L 49.531597 18.230919 
L 42.63147 18.224278 
L 37.957666 18.223636 
L 34.59246 18.227125 
L 32.197357 18.333751 
L 30.702807 18.57858 
L 29.286499 18.977116 
L 27.926561 19.594277 
L 26.79965 21.353751 
L 25.931188 22.749967 
L 25.188425 25.787442 
L 24.414551 28.842056 
L 23.687917 32.203971 
L 23.214812 33.587513 
L 22.813332 36.645124 
L 22.488561 40.655723 
" style="fill:none;stroke:#1a1a1a;stroke-linecap:round;"/>
   </g>
   <g id="line2d_23">
    <path clip-path="url(#pc60223b6f8)" d="M 102.906889 18.391755 
L 77.555835 18.377412 
L 60.638381 18.356951 
L 49.531597 18.372962 
L 42.63147 18.363764 
L 37.957666 18.328808 
L 34.59246 18.326901 
L 32.197357 18.48519 
L 30.702807 18.804653 
L 29.286499 19.271895 
L 27.926561 19.979033 
L 26.79965 21.819284 
L 25.931188 23.313693 
L 25.188425 26.268596 
L 24.414551 29.487075 
L 23.687917 33.341021 
L 23.214812 34.634442 
L 22.813332 37.825934 
L 22.488561 42.08019 
" style="fill:none;stroke:#1a1a1a;stroke-dasharray:1.000000,3.000000;stroke-dashoffset:0.0;"/>
   </g>
   <g id="line2d_24">
    <path clip-path="url(#pc60223b6f8)" d="M 102.906889 18.156838 
L 77.555835 18.152416 
L 60.638381 18.150573 
L 49.531597 18.17102 
L 42.63147 18.169551 
L 37.957666 18.147994 
L 34.59246 18.147621 
L 32.197357 18.226662 
L 30.702807 18.421188 
L 29.286499 18.769767 
L 27.926561 19.278693 
L 26.79965 20.89563 
L 25.931188 22.212592 
L 25.188425 24.904494 
L 24.414551 27.860097 
L 23.687917 31.458237 
L 23.214812 32.674265 
L 22.813332 35.691199 
L 22.488561 39.722352 
" style="fill:none;stroke:#1a1a1a;stroke-dasharray:1.000000,3.000000;stroke-dashoffset:0.0;"/>
   </g>
   <g id="line2d_25">
    <path clip-path="url(#pc60223b6f8)" d="M 74.518132 18.237057 
L 57.456939 18.23086 
L 46.371861 18.226315 
L 39.208307 18.219228 
L 34.599129 18.359333 
L 31.342452 18.478396 
L 29.152599 18.884361 
L 27.267123 19.215447 
L 25.82725 20.490857 
L 24.59919 22.438197 
L 23.673428 24.738418 
L 22.835858 28.081402 
L 22.470135 33.361875 
L 21.955969 41.453455 
L 21.514302 49.268727 
L 21.227858 56.253771 
L 20.994832 63.237176 
L 20.823426 71.316227 
L 20.734907 79.007683 
" style="fill:none;stroke:#ff0000;stroke-linecap:round;"/>
   </g>
   <g id="line2d_26">
    <path clip-path="url(#pc60223b6f8)" d="M 74.518132 18.369641 
L 57.456939 18.33217 
L 46.371861 18.335565 
L 39.208307 18.352958 
L 34.599129 18.556475 
L 31.342452 18.668519 
L 29.152599 19.11869 
L 27.267123 19.4976 
L 25.82725 20.895713 
L 24.59919 23.013649 
L 23.673428 25.347811 
L 22.835858 28.90001 
L 22.470135 34.335398 
L 21.955969 42.617057 
L 21.514302 50.804821 
L 21.227858 57.967872 
L 20.994832 65.118892 
L 20.823426 72.99688 
L 20.734907 80.83653 
" style="fill:none;stroke:#ff0000;stroke-dasharray:1.000000,3.000000;stroke-dashoffset:0.0;"/>
   </g>
   <g id="line2d_27">
    <path clip-path="url(#pc60223b6f8)" d="M 74.518132 18.152047 
L 57.456939 18.149468 
L 46.371861 18.148547 
L 39.208307 18.167524 
L 34.599129 18.265165 
L 31.342452 18.338863 
L 29.152599 18.664203 
L 27.267123 18.935739 
L 25.82725 20.099138 
L 24.59919 21.894382 
L 23.673428 24.098099 
L 22.835858 27.233493 
L 22.470135 32.4771 
L 21.955969 40.335668 
L 21.514302 48.189537 
L 21.227858 55.247343 
L 20.994832 62.143953 
L 20.823426 69.848809 
L 20.734907 77.623256 
" style="fill:none;stroke:#ff0000;stroke-dasharray:1.000000,3.000000;stroke-dashoffset:0.0;"/>
   </g>
   <g id="patch_4">
    <path d="M 113.4 110.25 
L 113.4 12.6 
" style="fill:none;"/>
   </g>
   <g id="patch_5">
    <path d="M 15.75 12.6 
L 113.4 12.6 
" style="fill:none;"/>
   </g>
   <g id="patch_6">
    <path d="M 15.75 110.25 
L 113.4 110.25 
" style="fill:none;stroke:#262626;stroke-linecap:square;stroke-linejoin:miter;stroke-width:0.5;"/>
   </g>
   <g id="patch_7">
    <path d="M 15.75 110.25 
L 15.75 12.6 
" style="fill:none;stroke:#262626;stroke-linecap:square;stroke-linejoin:miter;stroke-width:0.5;"/>
   </g>
  </g>
  <g id="axes_2">
   <g id="patch_8">
    <path d="M 56.32 86.22 
L 108.16 86.22 
L 108.16 57.42 
L 56.32 57.42 
L 56.32 86.22 
z
" style="fill:none;"/>
   </g>
   <g id="matplotlib.axis_3">
    <g id="xtick_11">
     <g id="line2d_28">
      <g>
       <use style="fill:#1a1a1a;stroke:#1a1a1a;" x="58.31384615384615" xlink:href="#m2481b8fc19" y="86.22"/>
      </g>
     </g>
     <g id="text_9">
      <text style="fill:#262626;font-family:Arial;font-size:8.0px;font-style:normal;font-weight:400;text-anchor:middle;" transform="rotate(-0.000000, 58.313846, 98.946250)" x="58.31384615384615" y="98.94624999999999">0</text>
     </g>
    </g>
    <g id="xtick_12">
     <g id="line2d_29">
      <g>
       <use style="fill:#1a1a1a;stroke:#1a1a1a;" x="83.23692307692306" xlink:href="#m2481b8fc19" y="86.22"/>
      </g>
     </g>
     <g id="text_10">
      <text style="fill:#262626;font-family:Arial;font-size:8.0px;font-style:normal;font-weight:400;text-anchor:middle;" transform="rotate(-0.000000, 83.236923, 98.946250)" x="83.23692307692306" y="98.94624999999999">10</text>
     </g>
    </g>
    <g id="xtick_13">
     <g id="line2d_30">
      <g>
       <use style="fill:#1a1a1a;stroke:#1a1a1a;" x="108.15999999999997" xlink:href="#m2481b8fc19" y="86.22"/>
      </g>
     </g>
     <g id="text_11">
      <text style="fill:#262626;font-family:Arial;font-size:8.0px;font-style:normal;font-weight:400;text-anchor:middle;" transform="rotate(-0.000000, 108.160000, 98.946250)" x="108.15999999999997" y="98.94624999999999">20</text>
     </g>
    </g>
    <g id="xtick_14">
     <g id="line2d_31">
      <g>
       <use style="fill:#1a1a1a;stroke:#1a1a1a;stroke-width:0.5;" x="70.77538461538461" xlink:href="#m0c7cc8db87" y="86.22"/>
      </g>
     </g>
    </g>
    <g id="xtick_15">
     <g id="line2d_32">
      <g>
       <use style="fill:#1a1a1a;stroke:#1a1a1a;stroke-width:0.5;" x="95.69846153846152" xlink:href="#m0c7cc8db87" y="86.22"/>
      </g>
     </g>
    </g>
   </g>
   <g id="matplotlib.axis_4">
    <g id="ytick_12">
     <g id="line2d_33">
      <g>
       <use style="fill:#1a1a1a;stroke:#1a1a1a;" x="56.31999999999999" xlink:href="#m068551cfc2" y="81.78923076923064"/>
      </g>
     </g>
     <g id="text_12">
      <text style="fill:#262626;font-family:Arial;font-size:8.0px;font-style:normal;font-weight:400;text-anchor:end;" transform="rotate(-0.000000, 51.320000, 83.857356)" x="51.31999999999999" y="83.85735576923065">95</text>
     </g>
    </g>
    <g id="ytick_13">
     <g id="line2d_34">
      <g>
       <use style="fill:#1a1a1a;stroke:#1a1a1a;" x="56.31999999999999" xlink:href="#m068551cfc2" y="59.63538461538451"/>
      </g>
     </g>
     <g id="text_13">
      <text style="fill:#262626;font-family:Arial;font-size:8.0px;font-style:normal;font-weight:400;text-anchor:end;" transform="rotate(-0.000000, 51.320000, 61.703510)" x="51.31999999999999" y="61.703509615384505">100</text>
     </g>
    </g>
    <g id="ytick_14">
     <g id="line2d_35">
      <g>
       <use style="fill:#1a1a1a;stroke:#1a1a1a;stroke-width:0.5;" x="56.31999999999999" xlink:href="#md0655ebba7" y="77.35846153846143"/>
      </g>
     </g>
    </g>
    <g id="ytick_15">
     <g id="line2d_36">
      <g>
       <use style="fill:#1a1a1a;stroke:#1a1a1a;stroke-width:0.5;" x="56.31999999999999" xlink:href="#md0655ebba7" y="72.92769230769221"/>
      </g>
     </g>
    </g>
    <g id="ytick_16">
     <g id="line2d_37">
      <g>
       <use style="fill:#1a1a1a;stroke:#1a1a1a;stroke-width:0.5;" x="56.31999999999999" xlink:href="#md0655ebba7" y="68.49692307692294"/>
      </g>
     </g>
    </g>
    <g id="ytick_17">
     <g id="line2d_38">
      <g>
       <use style="fill:#1a1a1a;stroke:#1a1a1a;stroke-width:0.5;" x="56.31999999999999" xlink:href="#md0655ebba7" y="64.06615384615372"/>
      </g>
     </g>
    </g>
   </g>
   <g id="PolyCollection_3">
    <path clip-path="url(#pb28dd22aa2)" d="M 261.962376 59.953421 
L 250.545289 59.953421 
L 190.531461 59.919975 
L 151.938917 59.894005 
L 125.799495 59.884429 
L 109.537249 59.868459 
L 99.226093 59.866914 
L 91.073667 59.875305 
L 85.79476 60.131722 
L 82.088704 60.720492 
L 79.06151 61.678898 
L 75.8571 63.163062 
L 73.168543 67.394281 
L 71.64878 70.75193 
L 69.480254 78.056515 
L 67.987224 85.402313 
L 66.340382 93.487118 
L 65.430033 96.814289 
L 64.445424 104.167296 
L 63.691972 113.812069 
L 65.397386 113.812069 
L 65.397386 113.812069 
L 66.349069 104.167296 
L 67.365159 96.814289 
L 68.512643 93.487118 
L 70.25085 85.402313 
L 71.955941 78.056515 
L 74.335821 70.75193 
L 76.023874 67.394281 
L 78.973756 63.163062 
L 82.515475 61.678898 
L 85.762129 60.720492 
L 89.80816 60.131722 
L 95.403372 59.875305 
L 103.831952 59.866914 
L 115.112292 59.868459 
L 132.034389 59.884429 
L 159.18676 59.894005 
L 198.967698 59.919975 
L 261.962376 59.953421 
z
" style="fill:#1a1a1a;fill-opacity:0.2;stroke:#1a1a1a;stroke-opacity:0.2;stroke-width:1.5;"/>
   </g>
   <g id="PolyCollection_4">
    <path clip-path="url(#pb28dd22aa2)" d="M 192.407302 59.899189 
L 184.22277 59.899189 
L 144.279832 59.884286 
L 118.588314 59.873356 
L 101.848231 59.856315 
L 91.369822 60.193241 
L 83.980802 60.479568 
L 78.678617 61.45584 
L 74.317078 62.252042 
L 71.168767 65.319175 
L 68.444927 70.00218 
L 66.308646 75.533798 
L 64.315049 83.573076 
L 63.528028 96.271669 
L 62.380246 115.730472 
L 61.452899 134.524801 
L 60.871751 151.32258 
L 60.288272 168.11642 
L 60.01911 187.545092 
L 59.789075 206.041666 
L 60.773371 206.041666 
L 60.773371 206.041666 
L 61.101293 187.545092 
L 61.495413 168.11642 
L 62.133669 151.32258 
L 62.872152 134.524801 
L 63.954337 115.730472 
L 65.305243 96.271669 
L 66.11941 83.573076 
L 68.447802 75.533798 
L 70.90486 70.00218 
L 73.7268 65.319175 
L 77.28178 62.252042 
L 81.925172 61.45584 
L 87.801516 60.479568 
L 95.764009 60.193241 
L 106.882593 59.856315 
L 124.523994 59.873356 
L 151.090037 59.884286 
L 192.407302 59.899189 
z
" style="fill:#ff0000;fill-opacity:0.2;stroke:#ff0000;stroke-opacity:0.2;stroke-width:1.5;"/>
   </g>
   <g id="line2d_39">
    <path clip-path="url(#pb28dd22aa2)" d="M 257.446999 59.953421 
M 127 59.882122 
L 112.837273 59.868459 
L 101.624119 59.866914 
L 93.55049 59.875305 
L 87.804278 60.131722 
L 84.21863 60.720492 
L 80.820696 61.678898 
L 77.558003 63.163062 
L 74.854374 67.394281 
L 72.770805 70.75193 
L 70.988805 78.056515 
L 69.132167 85.402313 
L 67.388863 93.487118 
L 66.253814 96.814289 
L 65.290602 104.167296 
L 64.511428 113.812069 
" style="fill:none;stroke:#1a1a1a;stroke-linecap:round;"/>
   </g>
   <g id="line2d_40">
    <path clip-path="url(#pb28dd22aa2)" d="M 257.446999 60.271211 
M 127 60.222821 
L 112.837273 60.203897 
L 101.624119 60.119834 
L 93.55049 60.115248 
L 87.804278 60.495906 
L 84.21863 61.264158 
L 80.820696 62.38779 
L 77.558003 64.08833 
L 74.854374 68.513804 
L 72.770805 72.10759 
L 70.988805 79.213602 
L 69.132167 86.95347 
L 67.388863 96.22152 
L 66.253814 99.331964 
L 65.290602 107.006932 
L 64.511428 117.237655 
" style="fill:none;stroke:#1a1a1a;stroke-dasharray:1.000000,3.000000;stroke-dashoffset:0.0;"/>
   </g>
   <g id="line2d_41">
    <path clip-path="url(#pb28dd22aa2)" d="M 257.446999 59.706277 
M 127 59.739872 
L 112.837273 59.736849 
L 101.624119 59.685009 
L 93.55049 59.684112 
L 87.804278 59.874192 
L 84.21863 60.341993 
L 80.820696 61.180261 
L 77.558003 62.404139 
L 74.854374 66.292582 
L 72.770805 69.459641 
L 70.988805 75.933183 
L 69.132167 83.040879 
L 67.388863 91.693761 
L 66.253814 94.618091 
L 65.290602 101.873276 
L 64.511428 111.567478 
" style="fill:none;stroke:#1a1a1a;stroke-dasharray:1.000000,3.000000;stroke-dashoffset:0.0;"/>
   </g>
   <g id="line2d_42">
    <path clip-path="url(#pb28dd22aa2)" d="M 189.338135 59.899189 
M 127 59.875489 
L 121.811029 59.873356 
L 104.624594 59.856315 
L 93.566489 60.193241 
L 85.753236 60.479568 
L 80.499451 61.45584 
L 75.975912 62.252042 
L 72.521443 65.319175 
L 69.575142 70.00218 
L 67.354102 75.533798 
L 65.344646 83.573076 
L 64.467223 96.271669 
L 63.233661 115.730472 
L 62.598285 127 
" style="fill:none;stroke:#ff0000;stroke-linecap:round;"/>
   </g>
   <g id="line2d_43">
    <path clip-path="url(#pb28dd22aa2)" d="M 189.338135 60.218031 
M 127 60.134491 
L 121.811029 60.136084 
L 104.624594 60.17791 
L 93.566489 60.667333 
L 85.753236 60.936779 
L 80.499451 62.01936 
L 75.975912 62.93057 
L 72.521443 66.292782 
L 69.575142 71.386039 
L 67.354102 76.999281 
L 65.344646 85.541682 
L 64.467223 98.612817 
L 63.233661 118.528726 
L 62.777779 127 
" style="fill:none;stroke:#ff0000;stroke-dasharray:1.000000,3.000000;stroke-dashoffset:0.0;"/>
   </g>
   <g id="line2d_44">
    <path clip-path="url(#pb28dd22aa2)" d="M 189.338135 59.694757 
M 127 59.686771 
L 121.811029 59.686338 
L 104.624594 59.731975 
L 93.566489 59.966784 
L 85.753236 60.144015 
L 80.499451 60.9264 
L 75.975912 61.579396 
L 72.521443 64.377161 
L 69.575142 68.694402 
L 67.354102 73.993946 
L 65.344646 81.534007 
L 64.467223 94.143943 
L 63.233661 113.042393 
L 62.450599 127 
" style="fill:none;stroke:#ff0000;stroke-dasharray:1.000000,3.000000;stroke-dashoffset:0.0;"/>
   </g>
   <g id="patch_9">
    <path d="M 108.16 86.22 
L 108.16 57.42 
" style="fill:none;stroke:#262626;stroke-linecap:square;stroke-linejoin:miter;stroke-width:0.3;"/>
   </g>
   <g id="patch_10">
    <path d="M 56.32 57.42 
L 108.16 57.42 
" style="fill:none;stroke:#262626;stroke-linecap:square;stroke-linejoin:miter;stroke-width:0.3;"/>
   </g>
   <g id="patch_11">
    <path d="M 56.32 86.22 
L 108.16 86.22 
" style="fill:none;stroke:#262626;stroke-linecap:square;stroke-linejoin:miter;stroke-width:0.3;"/>
   </g>
   <g id="patch_12">
    <path d="M 56.32 86.22 
L 56.32 57.42 
" style="fill:none;stroke:#262626;stroke-linecap:square;stroke-linejoin:miter;stroke-width:0.3;"/>
   </g>
  </g>
 </g>
 <defs>
  <clipPath id="pc60223b6f8">
   <rect height="97.65" width="97.65" x="15.75" y="12.599999999999994"/>
  </clipPath>
  <clipPath id="pb28dd22aa2">
   <rect height="28.799999999999997" width="51.83999999999999" x="56.31999999999999" y="57.42"/>
  </clipPath>
 </defs>
</svg>
