<?xml version="1.0" encoding="utf-8" standalone="no"?>
<!DOCTYPE svg PUBLIC "-//W3C//DTD SVG 1.1//EN"
  "http://www.w3.org/Graphics/SVG/1.1/DTD/svg11.dtd">
<!-- Created with matplotlib (http://matplotlib.org/) -->
<svg height="126pt" version="1.1" viewBox="0 0 126 126" width="126pt" xmlns="http://www.w3.org/2000/svg" xmlns:xlink="http://www.w3.org/1999/xlink">
 <defs>
  <style type="text/css">
*{stroke-linecap:butt;stroke-linejoin:round;stroke-miterlimit:100000;}
  </style>
 </defs>
 <g id="figure_1">
  <g id="patch_1">
   <path d="M 0 126 
L 126 126 
L 126 0 
L 0 0 
L 0 126 
z
" style="fill:none;"/>
  </g>
  <g id="axes_1">
   <g id="patch_2">
    <path d="M 15.75 110.25 
L 113.4 110.25 
L 113.4 12.6 
L 15.75 12.6 
L 15.75 110.25 
z
" style="fill:none;"/>
   </g>
   <g id="matplotlib.axis_1">
    <g id="xtick_1">
     <g id="line2d_1">
      <defs>
       <path d="M 0 0 
L 0 2 
" id="m91558863bf" style="stroke:#1a1a1a;"/>
      </defs>
      <g>
       <use style="fill:#1a1a1a;stroke:#1a1a1a;" x="29.700000000000003" xlink:href="#m91558863bf" y="110.25"/>
      </g>
     </g>
     <g id="text_1">
      <text style="fill:#262626;font-family:Arial;font-size:8.0px;font-style:normal;font-weight:400;text-anchor:middle;" transform="rotate(-0.000000, 29.700000, 122.976250)" x="29.700000000000003" y="122.97625">2</text>
     </g>
    </g>
    <g id="xtick_2">
     <g id="line2d_2">
      <g>
       <use style="fill:#1a1a1a;stroke:#1a1a1a;" x="66.9" xlink:href="#m91558863bf" y="110.25"/>
      </g>
     </g>
     <g id="text_2">
      <text style="fill:#262626;font-family:Arial;font-size:8.0px;font-style:normal;font-weight:400;text-anchor:middle;" transform="rotate(-0.000000, 66.900000, 122.976250)" x="66.9" y="122.97625">4</text>
     </g>
    </g>
    <g id="xtick_3">
     <g id="line2d_3">
      <g>
       <use style="fill:#1a1a1a;stroke:#1a1a1a;" x="104.10000000000001" xlink:href="#m91558863bf" y="110.25"/>
      </g>
     </g>
     <g id="text_3">
      <text style="fill:#262626;font-family:Arial;font-size:8.0px;font-style:normal;font-weight:400;text-anchor:middle;" transform="rotate(-0.000000, 104.100000, 122.976250)" x="104.10000000000001" y="122.97625">6</text>
     </g>
    </g>
    <g id="xtick_4">
     <g id="line2d_4">
      <defs>
       <path d="M 0 0 
L 0 2 
" id="m230d42f62d" style="stroke:#1a1a1a;stroke-width:0.5;"/>
      </defs>
      <g>
       <use style="fill:#1a1a1a;stroke:#1a1a1a;stroke-width:0.5;" x="48.300000000000004" xlink:href="#m230d42f62d" y="110.25"/>
      </g>
     </g>
    </g>
    <g id="xtick_5">
     <g id="line2d_5">
      <g>
       <use style="fill:#1a1a1a;stroke:#1a1a1a;stroke-width:0.5;" x="85.5" xlink:href="#m230d42f62d" y="110.25"/>
      </g>
     </g>
    </g>
    <g id="text_4">
     <text style="fill:#262626;font-family:Arial;font-size:9.6px;font-style:normal;font-weight:400;text-anchor:middle;" transform="rotate(-0.000000, 64.575000, 132.754750)" x="64.575" y="132.75475">Threshold (z-units)</text>
    </g>
   </g>
   <g id="matplotlib.axis_2">
    <g id="ytick_1">
     <g id="line2d_6">
      <defs>
       <path d="M 0 0 
L -2 0 
" id="m76ebdb97f0" style="stroke:#1a1a1a;"/>
      </defs>
      <g>
       <use style="fill:#1a1a1a;stroke:#1a1a1a;" x="15.75" xlink:href="#m76ebdb97f0" y="110.25000000000001"/>
      </g>
     </g>
     <g id="text_5">
      <text style="fill:#262626;font-family:Arial;font-size:8.0px;font-style:normal;font-weight:400;text-anchor:end;" transform="rotate(-0.000000, 8.750000, 112.318125)" x="8.75" y="112.31812500000001">50</text>
     </g>
    </g>
    <g id="ytick_2">
     <g id="line2d_7">
      <g>
       <use style="fill:#1a1a1a;stroke:#1a1a1a;" x="15.75" xlink:href="#m76ebdb97f0" y="64.18867924528303"/>
      </g>
     </g>
     <g id="text_6">
      <text style="fill:#262626;font-family:Arial;font-size:8.0px;font-style:normal;font-weight:400;text-anchor:end;" transform="rotate(-0.000000, 8.750000, 66.256804)" x="8.75" y="66.25680424528304">75</text>
     </g>
    </g>
    <g id="ytick_3">
     <g id="line2d_8">
      <g>
       <use style="fill:#1a1a1a;stroke:#1a1a1a;" x="15.75" xlink:href="#m76ebdb97f0" y="18.127358490566053"/>
      </g>
     </g>
     <g id="text_7">
      <text style="fill:#262626;font-family:Arial;font-size:8.0px;font-style:normal;font-weight:400;text-anchor:end;" transform="rotate(-0.000000, 8.750000, 20.195483)" x="8.75" y="20.195483490566048">100</text>
     </g>
    </g>
    <g id="ytick_4">
     <g id="line2d_9">
      <defs>
       <path d="M 0 0 
L -2 0 
" id="m9933547ea8" style="stroke:#1a1a1a;stroke-width:0.5;"/>
      </defs>
      <g>
       <use style="fill:#1a1a1a;stroke:#1a1a1a;stroke-width:0.5;" x="15.75" xlink:href="#m9933547ea8" y="101.03773584905662"/>
      </g>
     </g>
    </g>
    <g id="ytick_5">
     <g id="line2d_10">
      <g>
       <use style="fill:#1a1a1a;stroke:#1a1a1a;stroke-width:0.5;" x="15.75" xlink:href="#m9933547ea8" y="91.82547169811322"/>
      </g>
     </g>
    </g>
    <g id="ytick_6">
     <g id="line2d_11">
      <g>
       <use style="fill:#1a1a1a;stroke:#1a1a1a;stroke-width:0.5;" x="15.75" xlink:href="#m9933547ea8" y="82.61320754716982"/>
      </g>
     </g>
    </g>
    <g id="ytick_7">
     <g id="line2d_12">
      <g>
       <use style="fill:#1a1a1a;stroke:#1a1a1a;stroke-width:0.5;" x="15.75" xlink:href="#m9933547ea8" y="73.40094339622641"/>
      </g>
     </g>
    </g>
    <g id="ytick_8">
     <g id="line2d_13">
      <g>
       <use style="fill:#1a1a1a;stroke:#1a1a1a;stroke-width:0.5;" x="15.75" xlink:href="#m9933547ea8" y="54.976415094339615"/>
      </g>
     </g>
    </g>
    <g id="ytick_9">
     <g id="line2d_14">
      <g>
       <use style="fill:#1a1a1a;stroke:#1a1a1a;stroke-width:0.5;" x="15.75" xlink:href="#m9933547ea8" y="45.76415094339623"/>
      </g>
     </g>
    </g>
    <g id="ytick_10">
     <g id="line2d_15">
      <g>
       <use style="fill:#1a1a1a;stroke:#1a1a1a;stroke-width:0.5;" x="15.75" xlink:href="#m9933547ea8" y="36.55188679245285"/>
      </g>
     </g>
    </g>
    <g id="ytick_11">
     <g id="line2d_16">
      <g>
       <use style="fill:#1a1a1a;stroke:#1a1a1a;stroke-width:0.5;" x="15.75" xlink:href="#m9933547ea8" y="27.339622641509436"/>
      </g>
     </g>
    </g>
    <g id="text_8">
     <text style="fill:#262626;font-family:Arial;font-size:9.6px;font-style:normal;font-weight:400;text-anchor:middle;" transform="rotate(-90.000000, -7.816750, 61.425000)" x="-7.816750000000001" y="61.425">TPR (%)</text>
    </g>
   </g>
   <g id="PolyCollection_1">
    <path clip-path="url(#p6beaad72eb)" d="M 20.4 18.156838 
L 20.4 18.391755 
L 25.05 18.377412 
L 29.7 18.356951 
L 34.35 18.372962 
L 39 18.363764 
L 43.65 18.328808 
L 48.3 18.326901 
L 52.95 18.48519 
L 57.6 18.804653 
L 62.25 19.271895 
L 66.9 19.979033 
L 71.55 21.819284 
L 76.2 23.313693 
L 80.85 26.268596 
L 85.5 29.487075 
L 90.15 33.341021 
L 94.8 34.634442 
L 99.45 37.825934 
L 104.1 42.08019 
L 108.75 45.994725 
L 113.4 50.217746 
L 118.05 52.988339 
L 122.7 56.865454 
L 127.35 60.565726 
L 132 65.230407 
L 136.65 68.320817 
L 141.3 71.847341 
L 145.95 77.255097 
L 150.6 81.495009 
L 155.25 84.253497 
L 159.9 88.839104 
L 164.55 91.858617 
L 169.2 95.878937 
L 173.85 100.360031 
L 178.5 106.369292 
L 178.5 102.903943 
L 178.5 102.903943 
L 173.85 97.149562 
L 169.2 92.489211 
L 164.55 88.596311 
L 159.9 85.501391 
L 155.25 81.027316 
L 150.6 78.296493 
L 145.95 74.151066 
L 141.3 68.741127 
L 136.65 65.320411 
L 132 62.260654 
L 127.35 57.828643 
L 122.7 53.991693 
L 118.05 50.252435 
L 113.4 47.729454 
L 108.75 43.564474 
L 104.1 39.722352 
L 99.45 35.691199 
L 94.8 32.674265 
L 90.15 31.458237 
L 85.5 27.860097 
L 80.85 24.904494 
L 76.2 22.212592 
L 71.55 20.89563 
L 66.9 19.278693 
L 62.25 18.769767 
L 57.6 18.421188 
L 52.95 18.226662 
L 48.3 18.147621 
L 43.65 18.147994 
L 39 18.169551 
L 34.35 18.17102 
L 29.7 18.150573 
L 25.05 18.152416 
L 20.4 18.156838 
z
" style="fill:#1a1a1a;fill-opacity:0.2;stroke:#1a1a1a;stroke-opacity:0.2;"/>
   </g>
   <g id="PolyCollection_2">
    <path clip-path="url(#p6beaad72eb)" d="M 20.4 18.152047 
L 20.4 18.369641 
L 25.05 18.33217 
L 29.7 18.335565 
L 34.35 18.352958 
L 39 18.556475 
L 43.65 18.668519 
L 48.3 19.11869 
L 52.95 19.4976 
L 57.6 20.895713 
L 62.25 23.013649 
L 66.9 25.347811 
L 71.55 28.90001 
L 76.2 34.335398 
L 80.85 42.617057 
L 85.5 50.804821 
L 90.15 57.967872 
L 94.8 65.118892 
L 99.45 72.99688 
L 104.1 80.83653 
L 108.75 87.905593 
L 113.4 95.900752 
L 118.05 103.463928 
L 122.7 109.335107 
L 127.35 115.169455 
L 132 120.667357 
L 136.65 128.010858 
L 141.3 133.121523 
L 145.95 139.255947 
L 150.6 144.910015 
L 155.25 150.016378 
L 159.9 153.042754 
L 164.55 157.419363 
L 169.2 159.96665 
L 173.85 162.717815 
L 178.5 165.558435 
L 178.5 162.943373 
L 178.5 162.943373 
L 173.85 159.891317 
L 169.2 157.121986 
L 164.55 154.523957 
L 159.9 150.123876 
L 155.25 146.834738 
L 150.6 141.744423 
L 145.95 136.071765 
L 141.3 129.993397 
L 136.65 124.710583 
L 132 117.244453 
L 127.35 111.828517 
L 122.7 105.999314 
L 118.05 100.050725 
L 113.4 92.626496 
L 108.75 84.590496 
L 104.1 77.623256 
L 99.45 69.848809 
L 94.8 62.143953 
L 90.15 55.247343 
L 85.5 48.189537 
L 80.85 40.335668 
L 76.2 32.4771 
L 71.55 27.233493 
L 66.9 24.098099 
L 62.25 21.894382 
L 57.6 20.099138 
L 52.95 18.935739 
L 48.3 18.664203 
L 43.65 18.338863 
L 39 18.265165 
L 34.35 18.167524 
L 29.7 18.148547 
L 25.05 18.149468 
L 20.4 18.152047 
z
" style="fill:#ff0000;fill-opacity:0.2;stroke:#ff0000;stroke-opacity:0.2;"/>
   </g>
   <g id="patch_3">
    <path clip-path="url(#p6beaad72eb)" d="M 29.7 27.339623 
L 85.5 27.339623 
L 85.5 16.284906 
L 29.7 16.284906 
L 29.7 27.339623 
z
" style="fill:none;opacity:0.5;stroke:#1a1a1a;stroke-dasharray:6.000000,6.000000;stroke-dashoffset:0.0;stroke-linejoin:miter;"/>
   </g>
   <g id="line2d_17">
    <path clip-path="url(#p6beaad72eb)" d="M 20.4 18.26983 
L 25.05 18.255428 
L 29.7 18.242114 
L 34.35 18.25969 
L 39 18.256167 
L 43.65 18.229569 
L 48.3 18.226117 
L 52.95 18.347272 
L 57.6 18.601374 
L 62.25 19.007516 
L 66.9 19.62719 
L 71.55 21.343072 
L 76.2 22.751407 
L 80.85 25.571713 
L 85.5 28.657635 
L 90.15 32.398194 
L 94.8 33.669728 
L 99.45 36.738407 
L 104.1 40.929383 
L 108.75 44.757369 
L 113.4 48.965802 
L 118.05 51.565736 
L 122.7 55.350016 
L 127 58.916369 
" style="fill:none;stroke:#1a1a1a;stroke-linecap:round;"/>
   </g>
   <g id="line2d_18">
    <path clip-path="url(#p6beaad72eb)" d="M 20.4 18.250602 
L 25.05 18.238228 
L 29.7 18.232319 
L 34.35 18.247707 
L 39 18.399654 
L 43.65 18.496588 
L 48.3 18.877402 
L 52.95 19.208658 
L 57.6 20.497298 
L 62.25 22.440262 
L 66.9 24.751574 
L 71.55 28.079898 
L 76.2 33.391673 
L 80.85 41.467512 
L 85.5 49.53746 
L 90.15 56.614063 
L 94.8 63.594412 
L 99.45 71.457731 
L 104.1 79.249976 
L 108.75 86.248965 
L 113.4 94.321263 
L 118.05 101.766536 
L 122.7 107.659803 
L 127 113.0333 
" style="fill:none;stroke:#ff0000;stroke-linecap:round;"/>
   </g>
   <g id="patch_4">
    <path d="M 113.4 110.25 
L 113.4 12.6 
" style="fill:none;"/>
   </g>
   <g id="patch_5">
    <path d="M 15.75 12.6 
L 113.4 12.6 
" style="fill:none;"/>
   </g>
   <g id="patch_6">
    <path d="M 15.75 110.25 
L 113.4 110.25 
" style="fill:none;stroke:#262626;stroke-linecap:square;stroke-linejoin:miter;stroke-width:0.5;"/>
   </g>
   <g id="patch_7">
    <path d="M 15.75 110.25 
L 15.75 12.6 
" style="fill:none;stroke:#262626;stroke-linecap:square;stroke-linejoin:miter;stroke-width:0.5;"/>
   </g>
  </g>
  <g id="axes_2">
   <g id="patch_8">
    <path d="M 40.57 93.78 
L 92.41 93.78 
L 92.41 64.98 
L 40.57 64.98 
L 40.57 93.78 
z
" style="fill:none;"/>
   </g>
   <g id="matplotlib.axis_3">
    <g id="xtick_6">
     <g id="line2d_19">
      <g>
       <use style="fill:#1a1a1a;stroke:#1a1a1a;" x="40.56999999999999" xlink:href="#m91558863bf" y="93.78"/>
      </g>
     </g>
     <g id="text_9">
      <text style="fill:#262626;font-family:Arial;font-size:8.0px;font-style:normal;font-weight:400;text-anchor:middle;" transform="rotate(-0.000000, 40.570000, 106.506250)" x="40.56999999999999" y="106.50625000000001">2</text>
     </g>
    </g>
    <g id="xtick_7">
     <g id="line2d_20">
      <g>
       <use style="fill:#1a1a1a;stroke:#1a1a1a;" x="57.84999999999999" xlink:href="#m91558863bf" y="93.78"/>
      </g>
     </g>
     <g id="text_10">
      <text style="fill:#262626;font-family:Arial;font-size:8.0px;font-style:normal;font-weight:400;text-anchor:middle;" transform="rotate(-0.000000, 57.850000, 106.506250)" x="57.84999999999999" y="106.50625000000001">3</text>
     </g>
    </g>
    <g id="xtick_8">
     <g id="line2d_21">
      <g>
       <use style="fill:#1a1a1a;stroke:#1a1a1a;" x="75.12999999999998" xlink:href="#m91558863bf" y="93.78"/>
      </g>
     </g>
     <g id="text_11">
      <text style="fill:#262626;font-family:Arial;font-size:8.0px;font-style:normal;font-weight:400;text-anchor:middle;" transform="rotate(-0.000000, 75.130000, 106.506250)" x="75.12999999999998" y="106.50625000000001">4</text>
     </g>
    </g>
    <g id="xtick_9">
     <g id="line2d_22">
      <g>
       <use style="fill:#1a1a1a;stroke:#1a1a1a;" x="92.40999999999998" xlink:href="#m91558863bf" y="93.78"/>
      </g>
     </g>
     <g id="text_12">
      <text style="fill:#262626;font-family:Arial;font-size:8.0px;font-style:normal;font-weight:400;text-anchor:middle;" transform="rotate(-0.000000, 92.410000, 106.506250)" x="92.40999999999998" y="106.50625000000001">5</text>
     </g>
    </g>
    <g id="xtick_10">
     <g id="line2d_23">
      <g>
       <use style="fill:#1a1a1a;stroke:#1a1a1a;stroke-width:0.5;" x="49.209999999999994" xlink:href="#m230d42f62d" y="93.78"/>
      </g>
     </g>
    </g>
    <g id="xtick_11">
     <g id="line2d_24">
      <g>
       <use style="fill:#1a1a1a;stroke:#1a1a1a;stroke-width:0.5;" x="66.48999999999998" xlink:href="#m230d42f62d" y="93.78"/>
      </g>
     </g>
    </g>
    <g id="xtick_12">
     <g id="line2d_25">
      <g>
       <use style="fill:#1a1a1a;stroke:#1a1a1a;stroke-width:0.5;" x="83.76999999999998" xlink:href="#m230d42f62d" y="93.78"/>
      </g>
     </g>
    </g>
   </g>
   <g id="matplotlib.axis_4">
    <g id="ytick_12">
     <g id="line2d_26">
      <g>
       <use style="fill:#1a1a1a;stroke:#1a1a1a;" x="40.56999999999999" xlink:href="#m76ebdb97f0" y="89.3492307692307"/>
      </g>
     </g>
     <g id="text_13">
      <text style="fill:#262626;font-family:Arial;font-size:8.0px;font-style:normal;font-weight:400;text-anchor:end;" transform="rotate(-0.000000, 35.570000, 91.417356)" x="35.56999999999999" y="91.41735576923071">95</text>
     </g>
    </g>
    <g id="ytick_13">
     <g id="line2d_27">
      <g>
       <use style="fill:#1a1a1a;stroke:#1a1a1a;" x="40.56999999999999" xlink:href="#m76ebdb97f0" y="67.19538461538457"/>
      </g>
     </g>
     <g id="text_14">
      <text style="fill:#262626;font-family:Arial;font-size:8.0px;font-style:normal;font-weight:400;text-anchor:end;" transform="rotate(-0.000000, 35.570000, 69.263510)" x="35.56999999999999" y="69.26350961538458">100</text>
     </g>
    </g>
    <g id="ytick_14">
     <g id="line2d_28">
      <g>
       <use style="fill:#1a1a1a;stroke:#1a1a1a;stroke-width:0.5;" x="40.56999999999999" xlink:href="#m9933547ea8" y="84.91846153846149"/>
      </g>
     </g>
    </g>
    <g id="ytick_15">
     <g id="line2d_29">
      <g>
       <use style="fill:#1a1a1a;stroke:#1a1a1a;stroke-width:0.5;" x="40.56999999999999" xlink:href="#m9933547ea8" y="80.48769230769227"/>
      </g>
     </g>
    </g>
    <g id="ytick_16">
     <g id="line2d_30">
      <g>
       <use style="fill:#1a1a1a;stroke:#1a1a1a;stroke-width:0.5;" x="40.56999999999999" xlink:href="#m9933547ea8" y="76.056923076923"/>
      </g>
     </g>
    </g>
    <g id="ytick_17">
     <g id="line2d_31">
      <g>
       <use style="fill:#1a1a1a;stroke:#1a1a1a;stroke-width:0.5;" x="40.56999999999999" xlink:href="#m9933547ea8" y="71.62615384615378"/>
      </g>
     </g>
    </g>
   </g>
   <g id="PolyCollection_3">
    <path clip-path="url(#pc8bd642aec)" d="M 31.93 67.266277 
L 31.93 67.831211 
L 36.25 67.796718 
L 40.57 67.747514 
L 44.89 67.786017 
L 49.21 67.763897 
L 53.53 67.679834 
L 57.85 67.675248 
L 62.17 68.055906 
L 66.49 68.824158 
L 70.81 69.94779 
L 75.13 71.64833 
L 79.45 76.073804 
L 83.77 79.66759 
L 88.09 86.773602 
L 92.41 94.51347 
L 96.73 103.78152 
L 101.05 106.891964 
L 105.37 114.566932 
L 109.69 124.797655 
L 114.01 134.211412 
L 118.33 144.367023 
L 122.65 151.029803 
L 126.97 160.35357 
L 131.29 169.252062 
L 135.61 180.469783 
L 139.93 187.901668 
L 144.25 196.382326 
L 148.57 209.38701 
L 152.89 219.583241 
L 157.21 226.216911 
L 161.53 237.244475 
L 165.85 244.505863 
L 170.17 254.174012 
L 174.49 264.950241 
L 178.81 279.401439 
L 178.81 271.067893 
L 178.81 271.067893 
L 174.49 257.229637 
L 170.17 246.022327 
L 165.85 236.660599 
L 161.53 229.217871 
L 157.21 218.458523 
L 152.89 211.891381 
L 148.57 201.922372 
L 144.25 188.912437 
L 139.93 180.686226 
L 135.61 173.328059 
L 131.29 162.669866 
L 126.97 153.442689 
L 122.65 144.450443 
L 118.33 138.383125 
L 114.01 128.367094 
L 109.69 119.127478 
L 105.37 109.433276 
L 101.05 102.178091 
L 96.73 99.253761 
L 92.41 90.600879 
L 88.09 83.493183 
L 83.77 77.019641 
L 79.45 73.852582 
L 75.13 69.964139 
L 70.81 68.740261 
L 66.49 67.901993 
L 62.17 67.434192 
L 57.85 67.244112 
L 53.53 67.245009 
L 49.21 67.296849 
L 44.89 67.300383 
L 40.57 67.251212 
L 36.25 67.255643 
L 31.93 67.266277 
z
" style="fill:#1a1a1a;fill-opacity:0.2;stroke:#1a1a1a;stroke-opacity:0.2;"/>
   </g>
   <g id="PolyCollection_4">
    <path clip-path="url(#pc8bd642aec)" d="M 31.93 67.254757 
L 31.93 67.778031 
L 36.25 67.68792 
L 40.57 67.696084 
L 44.89 67.73791 
L 49.21 68.227333 
L 53.53 68.496779 
L 57.85 69.57936 
L 62.17 70.49057 
L 66.49 73.852782 
L 70.81 78.946039 
L 75.13 84.559281 
L 79.45 93.101682 
L 83.77 106.172817 
L 88.09 126.088726 
L 92.41 145.778832 
L 96.73 163.004688 
L 101.05 180.201611 
L 105.37 199.146761 
L 109.69 217.999717 
L 114.01 234.999548 
L 118.33 254.226473 
L 122.65 272.414559 
L 126.97 286.533692 
L 131.29 300.564255 
L 135.61 313.785726 
L 139.93 331.445531 
L 144.25 343.735765 
L 148.57 358.487956 
L 152.89 372.084978 
L 157.21 384.364866 
L 161.53 391.642759 
L 165.85 402.167719 
L 170.17 408.29349 
L 174.49 414.909548 
L 178.81 421.740731 
L 178.81 415.451974 
L 178.81 415.451974 
L 174.49 408.112327 
L 170.17 401.452582 
L 165.85 395.204788 
L 161.53 384.62338 
L 157.21 376.713593 
L 152.89 364.472297 
L 148.57 350.830567 
L 144.25 336.213183 
L 139.93 323.50896 
L 135.61 305.554254 
L 131.29 292.529897 
L 126.97 278.511707 
L 122.65 264.206415 
L 118.33 246.352475 
L 114.01 227.027332 
L 109.69 210.272367 
L 105.37 191.576215 
L 101.05 173.047414 
L 96.73 156.462303 
L 92.41 139.489543 
L 88.09 120.602393 
L 83.77 101.703943 
L 79.45 89.094007 
L 75.13 81.553946 
L 70.81 76.254402 
L 66.49 71.937161 
L 62.17 69.139396 
L 57.85 68.4864 
L 53.53 67.704015 
L 49.21 67.526784 
L 44.89 67.291975 
L 40.57 67.246338 
L 36.25 67.248554 
L 31.93 67.254757 
z
" style="fill:#ff0000;fill-opacity:0.2;stroke:#ff0000;stroke-opacity:0.2;"/>
   </g>
   <g id="line2d_32">
    <path clip-path="url(#pc8bd642aec)" d="M 31.93 67.538003 
L 36.25 67.503369 
L 40.57 67.471351 
L 44.89 67.513618 
L 49.21 67.505145 
L 53.53 67.441182 
L 57.85 67.432881 
L 62.17 67.724236 
L 66.49 68.335307 
L 70.81 69.312005 
L 75.13 70.802211 
L 79.45 74.9286 
L 83.77 78.315394 
L 88.09 85.097724 
L 92.41 92.518814 
L 96.73 101.514189 
L 101.05 104.572 
L 105.37 111.951624 
L 109.69 122.030171 
L 112.022234 127 
" style="fill:none;stroke:#1a1a1a;stroke-linecap:round;"/>
   </g>
   <g id="line2d_33">
    <path clip-path="url(#pc8bd642aec)" d="M 31.93 67.491764 
L 36.25 67.462005 
L 40.57 67.447795 
L 44.89 67.484801 
L 49.21 67.850206 
L 53.53 68.083315 
L 57.85 68.999105 
L 62.17 69.795716 
L 66.49 72.894665 
L 70.81 77.567146 
L 75.13 83.125438 
L 79.45 91.12946 
L 83.77 103.903329 
L 88.09 123.324276 
L 88.908226 127 
" style="fill:none;stroke:#ff0000;stroke-linecap:round;"/>
   </g>
   <g id="patch_9">
    <path d="M 92.41 93.78 
L 92.41 64.98 
" style="fill:none;stroke:#262626;stroke-linecap:square;stroke-linejoin:miter;stroke-width:0.3;"/>
   </g>
   <g id="patch_10">
    <path d="M 40.57 64.98 
L 92.41 64.98 
" style="fill:none;stroke:#262626;stroke-linecap:square;stroke-linejoin:miter;stroke-width:0.3;"/>
   </g>
   <g id="patch_11">
    <path d="M 40.57 93.78 
L 92.41 93.78 
" style="fill:none;stroke:#262626;stroke-linecap:square;stroke-linejoin:miter;stroke-width:0.3;"/>
   </g>
   <g id="patch_12">
    <path d="M 40.57 93.78 
L 40.57 64.98 
" style="fill:none;stroke:#262626;stroke-linecap:square;stroke-linejoin:miter;stroke-width:0.3;"/>
   </g>
  </g>
 </g>
 <defs>
  <clipPath id="pc8bd642aec">
   <rect height="28.799999999999997" width="51.83999999999999" x="40.56999999999999" y="64.98000000000002"/>
  </clipPath>
  <clipPath id="p6beaad72eb">
   <rect height="97.65" width="97.65" x="15.75" y="12.599999999999994"/>
  </clipPath>
 </defs>
</svg>
