<?xml version="1.0" encoding="utf-8" standalone="no"?>
<!DOCTYPE svg PUBLIC "-//W3C//DTD SVG 1.1//EN"
  "http://www.w3.org/Graphics/SVG/1.1/DTD/svg11.dtd">
<!-- Created with matplotlib (http://matplotlib.org/) -->
<svg height="126pt" version="1.1" viewBox="0 0 126 126" width="126pt" xmlns="http://www.w3.org/2000/svg" xmlns:xlink="http://www.w3.org/1999/xlink">
 <defs>
  <style type="text/css">
*{stroke-linecap:butt;stroke-linejoin:round;stroke-miterlimit:100000;}
  </style>
 </defs>
 <g id="figure_1">
  <g id="patch_1">
   <path d="M 0 126 
L 126 126 
L 126 0 
L 0 0 
L 0 126 
z
" style="fill:none;"/>
  </g>
  <g id="axes_1">
   <g id="patch_2">
    <path d="M 15.75 110.25 
L 113.4 110.25 
L 113.4 12.6 
L 15.75 12.6 
L 15.75 110.25 
z
" style="fill:none;"/>
   </g>
   <g id="matplotlib.axis_1">
    <g id="xtick_1">
     <g id="line2d_1">
      <defs>
       <path d="M 0 0 
L 0 2 
" id="m0fdc91adc3" style="stroke:#1a1a1a;"/>
      </defs>
      <g>
       <use style="fill:#1a1a1a;stroke:#1a1a1a;" x="24.62727272727273" xlink:href="#m0fdc91adc3" y="110.25"/>
      </g>
     </g>
     <g id="text_1">
      <text style="fill:#262626;font-family:Arial;font-size:8.0px;font-style:normal;font-weight:400;text-anchor:middle;" transform="rotate(-0.000000, 24.627273, 122.976250)" x="24.62727272727273" y="122.97625">2</text>
     </g>
    </g>
    <g id="xtick_2">
     <g id="line2d_2">
      <g>
       <use style="fill:#1a1a1a;stroke:#1a1a1a;" x="48.300000000000004" xlink:href="#m0fdc91adc3" y="110.25"/>
      </g>
     </g>
     <g id="text_2">
      <text style="fill:#262626;font-family:Arial;font-size:8.0px;font-style:normal;font-weight:400;text-anchor:middle;" transform="rotate(-0.000000, 48.300000, 122.976250)" x="48.300000000000004" y="122.97625">4</text>
     </g>
    </g>
    <g id="xtick_3">
     <g id="line2d_3">
      <g>
       <use style="fill:#1a1a1a;stroke:#1a1a1a;" x="71.97272727272728" xlink:href="#m0fdc91adc3" y="110.25"/>
      </g>
     </g>
     <g id="text_3">
      <text style="fill:#262626;font-family:Arial;font-size:8.0px;font-style:normal;font-weight:400;text-anchor:middle;" transform="rotate(-0.000000, 71.972727, 122.976250)" x="71.97272727272728" y="122.97625">6</text>
     </g>
    </g>
    <g id="xtick_4">
     <g id="line2d_4">
      <g>
       <use style="fill:#1a1a1a;stroke:#1a1a1a;" x="95.64545454545456" xlink:href="#m0fdc91adc3" y="110.25"/>
      </g>
     </g>
     <g id="text_4">
      <text style="fill:#262626;font-family:Arial;font-size:8.0px;font-style:normal;font-weight:400;text-anchor:middle;" transform="rotate(-0.000000, 95.645455, 122.976250)" x="95.64545454545456" y="122.97625">8</text>
     </g>
    </g>
    <g id="xtick_5">
     <g id="line2d_5">
      <defs>
       <path d="M 0 0 
L 0 2 
" id="mae3efbf8e5" style="stroke:#1a1a1a;stroke-width:0.5;"/>
      </defs>
      <g>
       <use style="fill:#1a1a1a;stroke:#1a1a1a;stroke-width:0.5;" x="36.46363636363637" xlink:href="#mae3efbf8e5" y="110.25"/>
      </g>
     </g>
    </g>
    <g id="xtick_6">
     <g id="line2d_6">
      <g>
       <use style="fill:#1a1a1a;stroke:#1a1a1a;stroke-width:0.5;" x="60.13636363636364" xlink:href="#mae3efbf8e5" y="110.25"/>
      </g>
     </g>
    </g>
    <g id="xtick_7">
     <g id="line2d_7">
      <g>
       <use style="fill:#1a1a1a;stroke:#1a1a1a;stroke-width:0.5;" x="83.80909090909091" xlink:href="#mae3efbf8e5" y="110.25"/>
      </g>
     </g>
    </g>
    <g id="xtick_8">
     <g id="line2d_8">
      <g>
       <use style="fill:#1a1a1a;stroke:#1a1a1a;stroke-width:0.5;" x="107.4818181818182" xlink:href="#mae3efbf8e5" y="110.25"/>
      </g>
     </g>
    </g>
    <g id="text_5">
     <text style="fill:#262626;font-family:Arial;font-size:9.6px;font-style:normal;font-weight:400;text-anchor:middle;" transform="rotate(-0.000000, 64.575000, 132.754750)" x="64.575" y="132.75475">Threshold (z-units)</text>
    </g>
   </g>
   <g id="matplotlib.axis_2">
    <g id="ytick_1">
     <g id="line2d_9">
      <defs>
       <path d="M 0 0 
L -2 0 
" id="maa221d0df1" style="stroke:#1a1a1a;"/>
      </defs>
      <g>
       <use style="fill:#1a1a1a;stroke:#1a1a1a;" x="15.75" xlink:href="#maa221d0df1" y="110.25000000000001"/>
      </g>
     </g>
     <g id="text_6">
      <text style="fill:#262626;font-family:Arial;font-size:8.0px;font-style:normal;font-weight:400;text-anchor:end;" transform="rotate(-0.000000, 8.750000, 112.318125)" x="8.75" y="112.31812500000001">50</text>
     </g>
    </g>
    <g id="ytick_2">
     <g id="line2d_10">
      <g>
       <use style="fill:#1a1a1a;stroke:#1a1a1a;" x="15.75" xlink:href="#maa221d0df1" y="64.18867924528303"/>
      </g>
     </g>
     <g id="text_7">
      <text style="fill:#262626;font-family:Arial;font-size:8.0px;font-style:normal;font-weight:400;text-anchor:end;" transform="rotate(-0.000000, 8.750000, 66.256804)" x="8.75" y="66.25680424528304">75</text>
     </g>
    </g>
    <g id="ytick_3">
     <g id="line2d_11">
      <g>
       <use style="fill:#1a1a1a;stroke:#1a1a1a;" x="15.75" xlink:href="#maa221d0df1" y="18.127358490566053"/>
      </g>
     </g>
     <g id="text_8">
      <text style="fill:#262626;font-family:Arial;font-size:8.0px;font-style:normal;font-weight:400;text-anchor:end;" transform="rotate(-0.000000, 8.750000, 20.195483)" x="8.75" y="20.195483490566048">100</text>
     </g>
    </g>
    <g id="ytick_4">
     <g id="line2d_12">
      <defs>
       <path d="M 0 0 
L -2 0 
" id="m3d316dec9a" style="stroke:#1a1a1a;stroke-width:0.5;"/>
      </defs>
      <g>
       <use style="fill:#1a1a1a;stroke:#1a1a1a;stroke-width:0.5;" x="15.75" xlink:href="#m3d316dec9a" y="101.03773584905662"/>
      </g>
     </g>
    </g>
    <g id="ytick_5">
     <g id="line2d_13">
      <g>
       <use style="fill:#1a1a1a;stroke:#1a1a1a;stroke-width:0.5;" x="15.75" xlink:href="#m3d316dec9a" y="91.82547169811322"/>
      </g>
     </g>
    </g>
    <g id="ytick_6">
     <g id="line2d_14">
      <g>
       <use style="fill:#1a1a1a;stroke:#1a1a1a;stroke-width:0.5;" x="15.75" xlink:href="#m3d316dec9a" y="82.61320754716982"/>
      </g>
     </g>
    </g>
    <g id="ytick_7">
     <g id="line2d_15">
      <g>
       <use style="fill:#1a1a1a;stroke:#1a1a1a;stroke-width:0.5;" x="15.75" xlink:href="#m3d316dec9a" y="73.40094339622641"/>
      </g>
     </g>
    </g>
    <g id="ytick_8">
     <g id="line2d_16">
      <g>
       <use style="fill:#1a1a1a;stroke:#1a1a1a;stroke-width:0.5;" x="15.75" xlink:href="#m3d316dec9a" y="54.976415094339615"/>
      </g>
     </g>
    </g>
    <g id="ytick_9">
     <g id="line2d_17">
      <g>
       <use style="fill:#1a1a1a;stroke:#1a1a1a;stroke-width:0.5;" x="15.75" xlink:href="#m3d316dec9a" y="45.76415094339623"/>
      </g>
     </g>
    </g>
    <g id="ytick_10">
     <g id="line2d_18">
      <g>
       <use style="fill:#1a1a1a;stroke:#1a1a1a;stroke-width:0.5;" x="15.75" xlink:href="#m3d316dec9a" y="36.55188679245285"/>
      </g>
     </g>
    </g>
    <g id="ytick_11">
     <g id="line2d_19">
      <g>
       <use style="fill:#1a1a1a;stroke:#1a1a1a;stroke-width:0.5;" x="15.75" xlink:href="#m3d316dec9a" y="27.339622641509436"/>
      </g>
     </g>
    </g>
    <g id="text_9">
     <text style="fill:#262626;font-family:Arial;font-size:9.6px;font-style:normal;font-weight:400;text-anchor:middle;" transform="rotate(-90.000000, -7.816750, 61.425000)" x="-7.816750000000001" y="61.425">TPR (%)</text>
    </g>
   </g>
   <g id="PolyCollection_1">
    <path clip-path="url(#pae427b6769)" d="M 18.709091 18.152047 
L 18.709091 18.369641 
L 21.668182 18.33217 
L 24.627273 18.335565 
L 27.586364 18.352958 
L 30.545455 18.556475 
L 33.504545 18.668519 
L 36.463636 19.11869 
L 39.422727 19.4976 
L 42.381818 20.895713 
L 45.340909 23.013649 
L 48.3 25.347811 
L 51.259091 28.90001 
L 54.218182 34.335398 
L 57.177273 42.617057 
L 60.136364 50.804821 
L 63.095455 57.967872 
L 66.054545 65.118892 
L 69.013636 72.99688 
L 71.972727 80.83653 
L 74.931818 87.905593 
L 77.890909 95.900752 
L 80.85 103.463928 
L 83.809091 109.335107 
L 86.768182 115.169455 
L 89.727273 120.667357 
L 92.686364 128.010858 
L 95.645455 133.121523 
L 98.604545 139.255947 
L 101.563636 144.910015 
L 104.522727 150.016378 
L 107.481818 153.042754 
L 110.440909 157.419363 
L 113.4 159.96665 
L 116.359091 162.717815 
L 119.318182 165.558435 
L 119.318182 162.943373 
L 119.318182 162.943373 
L 116.359091 159.891317 
L 113.4 157.121986 
L 110.440909 154.523957 
L 107.481818 150.123876 
L 104.522727 146.834738 
L 101.563636 141.744423 
L 98.604545 136.071765 
L 95.645455 129.993397 
L 92.686364 124.710583 
L 89.727273 117.244453 
L 86.768182 111.828517 
L 83.809091 105.999314 
L 80.85 100.050725 
L 77.890909 92.626496 
L 74.931818 84.590496 
L 71.972727 77.623256 
L 69.013636 69.848809 
L 66.054545 62.143953 
L 63.095455 55.247343 
L 60.136364 48.189537 
L 57.177273 40.335668 
L 54.218182 32.4771 
L 51.259091 27.233493 
L 48.3 24.098099 
L 45.340909 21.894382 
L 42.381818 20.099138 
L 39.422727 18.935739 
L 36.463636 18.664203 
L 33.504545 18.338863 
L 30.545455 18.265165 
L 27.586364 18.167524 
L 24.627273 18.148547 
L 21.668182 18.149468 
L 18.709091 18.152047 
z
" style="fill:#ff0000;fill-opacity:0.2;stroke:#ff0000;stroke-opacity:0.2;"/>
   </g>
   <g id="PolyCollection_2">
    <path clip-path="url(#pae427b6769)" d="M 18.709091 18.159049 
L 18.709091 18.442998 
L 21.668182 18.393777 
L 24.627273 18.383685 
L 27.586364 18.394896 
L 30.545455 18.384054 
L 33.504545 18.382722 
L 36.463636 18.360438 
L 39.422727 18.744401 
L 42.381818 18.743309 
L 45.340909 19.411378 
L 48.3 19.433349 
L 51.259091 20.483188 
L 54.218182 21.621621 
L 57.177273 24.245988 
L 60.136364 28.206363 
L 63.095455 32.539803 
L 66.054545 37.767118 
L 69.013636 42.377428 
L 71.972727 50.305668 
L 74.931818 57.947531 
L 77.890909 66.846371 
L 80.85 75.027788 
L 83.809091 81.838309 
L 86.768182 88.96627 
L 89.727273 94.932515 
L 92.686364 104.349361 
L 95.645455 111.678127 
L 98.604545 119.663746 
L 101.563636 126.294715 
L 104.522727 132.545015 
L 107.481818 137.058241 
L 110.440909 142.805948 
L 113.4 145.841767 
L 116.359091 149.399603 
L 119.318182 153.6625 
L 119.318182 150.220784 
L 119.318182 150.220784 
L 116.359091 146.127278 
L 113.4 142.316482 
L 110.440909 139.13393 
L 107.481818 133.35054 
L 104.522727 128.808765 
L 101.563636 122.299407 
L 98.604545 115.82482 
L 95.645455 107.893936 
L 92.686364 100.531582 
L 89.727273 91.15732 
L 86.768182 85.015978 
L 83.809091 78.002515 
L 80.85 71.510002 
L 77.890909 63.433094 
L 74.931818 54.876494 
L 71.972727 47.240923 
L 69.013636 39.688078 
L 66.054545 35.240162 
L 63.095455 30.444888 
L 60.136364 26.437051 
L 57.177273 22.799262 
L 54.218182 20.621109 
L 51.259091 19.640095 
L 48.3 18.822498 
L 45.340909 18.827767 
L 42.381818 18.350438 
L 39.422727 18.369231 
L 36.463636 18.1526 
L 33.504545 18.153153 
L 30.545455 18.153521 
L 27.586364 18.154627 
L 24.627273 18.155364 
L 21.668182 18.156653 
L 18.709091 18.159049 
z
" style="fill:#800080;fill-opacity:0.2;stroke:#800080;stroke-opacity:0.2;"/>
   </g>
   <g id="PolyCollection_3">
    <defs>
     <path d="M 18.709091 -107.828796 
L 18.709091 -107.43598 
L 21.668182 -107.46931 
L 24.627273 -107.487739 
L 27.586364 -107.498605 
L 30.545455 -107.515933 
L 33.504545 -107.519789 
L 36.463636 -107.524211 
L 39.422727 -107.530125 
L 42.381818 -107.535081 
L 45.340909 -106.551299 
L 48.3 -106.542004 
L 51.259091 -106.550834 
L 54.218182 -106.561428 
L 57.177273 -106.588945 
L 60.136364 -105.860121 
L 63.095455 -105.524937 
L 66.054545 -104.256722 
L 69.013636 -102.250876 
L 71.972727 -99.428464 
L 74.931818 -92.814938 
L 77.890909 -86.087479 
L 80.85 -77.923525 
L 83.809091 -72.2065 
L 86.768182 -65.167307 
L 89.727273 -58.864216 
L 92.686364 -47.858522 
L 95.645455 -39.447688 
L 98.604545 -29.712458 
L 101.563636 -21.676429 
L 104.522727 -14.117016 
L 107.481818 -8.988507 
L 110.440909 -2.042879 
L 113.4 2.278042 
L 116.359091 7.574965 
L 119.318182 13.392408 
L 119.318182 9.042036 
L 119.318182 9.042036 
L 116.359091 3.231285 
L 113.4 -2.194513 
L 110.440909 -6.414324 
L 107.481818 -13.371992 
L 104.522727 -18.841931 
L 101.563636 -26.430022 
L 98.604545 -34.450565 
L 95.645455 -43.83671 
L 92.686364 -52.127338 
L 89.727273 -62.819055 
L 86.768182 -68.931853 
L 83.809091 -75.944666 
L 80.85 -81.155896 
L 77.890909 -89.062142 
L 74.931818 -95.26412 
L 71.972727 -101.243446 
L 69.013636 -103.811705 
L 66.054545 -105.510465 
L 63.095455 -106.449812 
L 60.136364 -106.738713 
L 57.177273 -107.276686 
L 54.218182 -107.251795 
L 51.259091 -107.246816 
L 48.3 -107.237958 
L 45.340909 -107.243628 
L 42.381818 -107.83874 
L 39.422727 -107.837819 
L 36.463636 -107.838003 
L 33.504545 -107.836903 
L 30.545455 -107.836345 
L 27.586364 -107.835424 
L 24.627273 -107.833582 
L 21.668182 -107.831007 
L 18.709091 -107.828796 
z
" id="m18ed0132cd" style="stroke:#008000;stroke-opacity:0.2;"/>
    </defs>
    <g clip-path="url(#pae427b6769)">
     <use style="fill:#008000;fill-opacity:0.2;stroke:#008000;stroke-opacity:0.2;" x="0.0" xlink:href="#m18ed0132cd" y="126.0"/>
    </g>
   </g>
   <g id="line2d_20">
    <path clip-path="url(#pae427b6769)" d="M 18.709091 18.250602 
L 21.668182 18.238228 
L 24.627273 18.232319 
L 27.586364 18.247707 
L 30.545455 18.399654 
L 33.504545 18.496588 
L 36.463636 18.877402 
L 39.422727 19.208658 
L 42.381818 20.497298 
L 45.340909 22.440262 
L 48.3 24.751574 
L 51.259091 28.079898 
L 54.218182 33.391673 
L 57.177273 41.467512 
L 60.136364 49.53746 
L 63.095455 56.614063 
L 66.054545 63.594412 
L 69.013636 71.457731 
L 71.972727 79.249976 
L 74.931818 86.248965 
L 77.890909 94.321263 
L 80.85 101.766536 
L 83.809091 107.659803 
L 86.768182 113.470678 
L 89.727273 118.986247 
L 92.686364 126.290143 
L 93.082386 127 
" style="fill:none;stroke:#ff0000;stroke-linecap:round;"/>
   </g>
   <g id="line2d_21">
    <path clip-path="url(#pae427b6769)" d="M 18.709091 18.284604 
L 21.668182 18.272692 
L 24.627273 18.268975 
L 27.586364 18.262511 
L 30.545455 18.259403 
L 33.504545 18.257187 
L 36.463636 18.250915 
L 39.422727 18.549086 
L 42.381818 18.539165 
L 45.340909 19.105082 
L 48.3 19.105213 
L 51.259091 20.050114 
L 54.218182 21.106437 
L 57.177273 23.501674 
L 60.136364 27.31103 
L 63.095455 31.449405 
L 66.054545 36.490554 
L 69.013636 40.991619 
L 71.972727 48.79952 
L 74.931818 56.369751 
L 77.890909 65.242634 
L 80.85 73.326398 
L 83.809091 79.957081 
L 86.768182 86.970702 
L 89.727273 93.084774 
L 92.686364 102.448002 
L 95.645455 109.802334 
L 98.604545 117.793834 
L 101.563636 124.324568 
L 102.814929 127 
" style="fill:none;stroke:#800080;stroke-linecap:round;"/>
   </g>
   <g id="line2d_22">
    <path clip-path="url(#pae427b6769)" d="M 18.709091 18.345349 
L 21.668182 18.336451 
L 24.627273 18.322179 
L 27.586364 18.314072 
L 30.545455 18.313605 
L 33.504545 18.306085 
L 36.463636 18.296502 
L 39.422727 18.300863 
L 42.381818 18.295873 
L 45.340909 19.092997 
L 48.3 19.076809 
L 51.259091 19.07907 
L 54.218182 19.080272 
L 57.177273 19.064579 
L 60.136364 19.699074 
L 63.095455 19.992499 
L 66.054545 21.123699 
L 69.013636 22.975599 
L 71.972727 25.683036 
L 74.931818 31.94626 
L 77.890909 38.408896 
L 80.85 46.44349 
L 83.809091 51.880984 
L 86.768182 58.899989 
L 89.727273 65.246365 
L 92.686364 76.038682 
L 95.645455 84.355742 
L 98.604545 93.963499 
L 101.563636 102.070772 
L 104.522727 109.572372 
L 107.481818 114.849179 
L 110.440909 121.778516 
L 113.4 126.019588 
L 113.940761 127 
" style="fill:none;stroke:#008000;stroke-linecap:round;"/>
   </g>
   <g id="patch_3">
    <path d="M 113.4 110.25 
L 113.4 12.6 
" style="fill:none;"/>
   </g>
   <g id="patch_4">
    <path d="M 15.75 12.6 
L 113.4 12.6 
" style="fill:none;"/>
   </g>
   <g id="patch_5">
    <path d="M 15.75 110.25 
L 113.4 110.25 
" style="fill:none;stroke:#262626;stroke-linecap:square;stroke-linejoin:miter;stroke-width:0.5;"/>
   </g>
   <g id="patch_6">
    <path d="M 15.75 110.25 
L 15.75 12.6 
" style="fill:none;stroke:#262626;stroke-linecap:square;stroke-linejoin:miter;stroke-width:0.5;"/>
   </g>
  </g>
 </g>
 <defs>
  <clipPath id="pae427b6769">
   <rect height="97.65" width="97.65" x="15.75" y="12.599999999999994"/>
  </clipPath>
 </defs>
</svg>
