<?xml version="1.0" encoding="utf-8" standalone="no"?>
<!DOCTYPE svg PUBLIC "-//W3C//DTD SVG 1.1//EN"
  "http://www.w3.org/Graphics/SVG/1.1/DTD/svg11.dtd">
<!-- Created with matplotlib (http://matplotlib.org/) -->
<svg height="288pt" version="1.1" viewBox="0 0 864 288" width="864pt" xmlns="http://www.w3.org/2000/svg" xmlns:xlink="http://www.w3.org/1999/xlink">
 <defs>
  <style type="text/css">
*{stroke-linecap:butt;stroke-linejoin:round;}
  </style>
 </defs>
 <g id="figure_1">
  <g id="patch_1">
   <path d="M 0 288 
L 864 288 
L 864 0 
L 0 0 
z
" style="fill:#ffffff;"/>
  </g>
  <g id="axes_1">
   <g id="patch_2">
    <path d="M 108 256.32 
L 777.6 256.32 
L 777.6 34.56 
L 108 34.56 
z
" style="fill:#ffffff;"/>
   </g>
   <g id="line2d_1">
    <path clip-path="url(#pa782fee4a8)" d="M 138.436364 172.01625 
L 138.892947 172.331821 
L 139.248068 172.317432 
L 139.65392 172.037219 
L 140.871476 170.966431 
L 141.175865 171.036072 
L 141.530985 171.377798 
L 142.089032 172.328176 
L 142.850004 173.583323 
L 143.205125 173.809981 
L 143.509514 173.74949 
L 143.864634 173.412634 
L 145.132922 171.912798 
L 145.386579 171.976685 
L 145.690968 172.310561 
L 146.09682 173.143448 
L 147.568034 176.637137 
L 147.872423 176.818081 
L 148.176812 176.727417 
L 148.531932 176.318262 
L 149.039247 175.323415 
L 150.053877 172.696161 
L 152.235332 166.964628 
L 152.590452 166.680768 
L 152.84411 166.718982 
L 153.148499 167.028027 
L 153.554351 167.8058 
L 154.670444 170.178218 
L 154.974833 170.348073 
L 155.22849 170.233053 
L 155.532879 169.792215 
L 155.989463 168.634442 
L 157.460676 164.462584 
L 158.120186 163.475692 
L 159.033353 162.144516 
L 160.30164 160.070061 
L 160.606029 160.013553 
L 160.859687 160.203446 
L 161.214807 160.828723 
L 161.772854 162.413256 
L 162.533826 164.480519 
L 162.888947 164.895909 
L 163.142604 164.888831 
L 163.396262 164.634758 
L 163.802114 163.818649 
L 165.121133 160.807963 
L 165.577716 160.444942 
L 166.643078 159.897341 
L 167.099661 159.205319 
L 168.06356 157.593623 
L 168.317217 157.554541 
L 168.520143 157.743439 
L 168.824532 158.437491 
L 169.230384 160.100077 
L 170.752329 167.347362 
L 170.955255 167.479259 
L 171.10745 167.36371 
L 171.361107 166.76719 
L 171.716228 165.171868 
L 172.325006 161.108669 
L 173.288904 154.831806 
L 173.796219 152.810606 
L 174.252803 151.779502 
L 174.658655 151.339095 
L 174.963044 151.264527 
L 175.216701 151.395354 
L 175.52109 151.861169 
L 175.825479 152.784506 
L 176.1806 154.622084 
L 176.637183 158.418705 
L 177.245961 165.837862 
L 178.412786 180.567712 
L 178.767906 182.570722 
L 178.970832 182.82498 
L 179.123027 182.560367 
L 179.325953 181.599116 
L 179.630342 178.924915 
L 180.086925 172.66557 
L 181.659602 149.070854 
L 182.065454 146.561273 
L 182.319111 146.001202 
L 182.471306 146.003056 
L 182.674232 146.352456 
L 182.978621 147.490871 
L 183.485936 150.486469 
L 184.703492 159.531994 
L 186.377631 173.368361 
L 187.189335 179.185617 
L 187.69665 181.370568 
L 188.001039 181.967083 
L 188.203965 182.054152 
L 188.406891 181.899875 
L 188.660549 181.390801 
L 189.066401 179.953975 
L 189.72591 176.567951 
L 190.842004 170.841053 
L 191.349319 169.302524 
L 191.704439 168.822627 
L 191.958097 168.797528 
L 192.211754 169.03247 
L 192.566875 169.770719 
L 193.023458 171.329589 
L 193.682968 174.47334 
L 195.813691 185.40503 
L 196.168811 186.145919 
L 196.422469 186.249746 
L 196.625395 186.040256 
L 196.879052 185.385304 
L 197.234173 183.717893 
L 197.690756 180.388811 
L 198.553192 171.992039 
L 199.314164 165.416114 
L 199.770748 163.099494 
L 200.075137 162.392079 
L 200.278063 162.274734 
L 200.480989 162.408108 
L 200.785378 162.991501 
L 201.292693 164.609848 
L 203.22049 172.053874 
L 203.879999 175.842285 
L 205.24975 184.186011 
L 205.60487 185.034885 
L 205.807796 185.098225 
L 206.010722 184.847525 
L 206.315111 183.923381 
L 206.771695 181.591725 
L 207.938519 175.208144 
L 208.344371 174.242808 
L 208.598029 174.062517 
L 208.851686 174.141307 
L 209.257538 174.572554 
L 209.764853 175.0491 
L 210.018511 175.047393 
L 210.272168 174.810882 
L 210.627289 174.071883 
L 211.185335 172.207937 
L 211.997039 169.595744 
L 212.35216 169.089842 
L 212.605817 169.063036 
L 212.859475 169.308316 
L 213.214595 170.033093 
L 214.077031 172.575725 
L 214.635077 173.820802 
L 215.040929 174.225243 
L 215.345318 174.239529 
L 215.700439 173.986516 
L 216.157022 173.337202 
L 216.816532 171.961649 
L 217.526773 169.971646 
L 218.287745 167.143876 
L 220.164811 159.690946 
L 220.621394 158.806929 
L 220.976515 158.517684 
L 221.280904 158.534263 
L 221.636024 158.82444 
L 222.092608 159.534955 
L 222.85358 161.205831 
L 224.426257 164.674332 
L 225.440887 166.91455 
L 226.049665 168.910057 
L 226.810637 172.338837 
L 227.825267 176.818479 
L 228.231119 177.692768 
L 228.484777 177.804227 
L 228.687703 177.636334 
L 228.992092 176.975721 
L 229.448675 175.254044 
L 230.564768 170.701599 
L 230.869157 170.235871 
L 231.072083 170.218343 
L 231.275009 170.434705 
L 231.579398 171.151791 
L 232.137445 173.254898 
L 232.847686 175.783751 
L 233.202806 176.350971 
L 233.405732 176.387425 
L 233.608658 176.216206 
L 233.913047 175.619934 
L 234.521825 173.748986 
L 235.079872 172.31879 
L 235.384261 172.048996 
L 235.587187 172.136357 
L 235.840844 172.557475 
L 236.195965 173.675534 
L 236.855474 176.727116 
L 237.514984 179.468426 
L 237.870104 180.219414 
L 238.123762 180.335503 
L 238.326688 180.169249 
L 238.631077 179.519364 
L 239.08766 177.841874 
L 240.457411 172.28129 
L 240.863263 171.608701 
L 241.167652 171.50819 
L 241.472041 171.706886 
L 241.877893 172.301774 
L 243.044717 174.200109 
L 243.450569 174.39843 
L 243.80569 174.317322 
L 244.313005 173.923466 
L 245.023246 173.384135 
L 245.378366 173.371947 
L 245.682755 173.577496 
L 246.088607 174.1806 
L 246.646654 175.512448 
L 248.067136 179.110259 
L 248.574451 179.744888 
L 249.031034 179.969151 
L 249.487618 179.942724 
L 249.994933 179.69519 
L 250.552979 179.165552 
L 251.111026 178.2973 
L 251.821267 176.701716 
L 252.785165 174.579124 
L 253.191017 174.181689 
L 253.495406 174.179564 
L 253.799795 174.417066 
L 254.357842 175.225361 
L 254.865157 175.826085 
L 255.118814 175.862864 
L 255.372472 175.631997 
L 255.676861 174.94877 
L 256.082713 173.356825 
L 256.792954 169.398559 
L 257.452463 166.184214 
L 257.807584 165.362156 
L 258.01051 165.283335 
L 258.213436 165.50414 
L 258.467093 166.188593 
L 258.872945 168.097952 
L 259.633918 173.181527 
L 260.547085 178.813282 
L 261.206594 181.538524 
L 262.018298 183.917208 
L 262.728539 185.483923 
L 263.134392 185.924937 
L 263.388049 185.909782 
L 263.641707 185.614143 
L 263.946096 184.852161 
L 264.351948 183.15872 
L 265.011457 179.230464 
L 266.026087 173.327971 
L 266.533402 171.55622 
L 266.989986 170.674569 
L 267.497301 170.160732 
L 268.410468 169.595797 
L 268.765588 169.591951 
L 269.019246 169.799085 
L 269.323635 170.394565 
L 269.678755 171.692698 
L 270.135339 174.385905 
L 270.997774 181.353204 
L 271.555821 185.021771 
L 271.86021 185.996346 
L 272.063136 186.110241 
L 272.21533 185.891901 
L 272.468988 184.943349 
L 272.824108 182.466376 
L 273.382155 176.558073 
L 274.599711 163.100708 
L 275.056294 160.338051 
L 275.360683 159.467394 
L 275.563609 159.303107 
L 275.766535 159.447899 
L 276.020193 160.024943 
L 276.375313 161.481699 
L 276.882628 164.657934 
L 277.592869 170.778201 
L 279.114814 184.486477 
L 279.469935 185.770328 
L 279.672861 185.867674 
L 279.825055 185.605847 
L 280.078713 184.510697 
L 280.433833 181.630536 
L 280.941148 175.26186 
L 282.463093 154.330186 
L 282.868945 151.72164 
L 283.173334 150.942326 
L 283.325529 150.903603 
L 283.528455 151.175838 
L 283.832844 152.172756 
L 284.289427 154.637362 
L 285.0504 160.221585 
L 285.912835 168.133629 
L 288.043558 189.16617 
L 288.347947 189.922362 
L 288.500142 189.899499 
L 288.703068 189.446475 
L 289.007457 187.899318 
L 289.413309 184.454555 
L 290.225013 175.083524 
L 291.036717 166.757368 
L 291.544032 163.580548 
L 291.949884 162.283839 
L 292.254273 161.961815 
L 292.457199 162.022283 
L 292.710856 162.38241 
L 293.065977 163.396242 
L 293.471829 165.302806 
L 293.979144 168.920398 
L 294.587922 175.126684 
L 296.21133 193.10785 
L 296.515719 194.252966 
L 296.667913 194.328768 
L 296.820108 194.05125 
L 297.023034 193.121694 
L 297.327423 190.557168 
L 297.784006 184.423808 
L 298.900099 164.675466 
L 299.508877 156.536003 
L 299.914729 153.612277 
L 300.168387 152.881917 
L 300.320581 152.826158 
L 300.472776 153.033463 
L 300.726433 153.893803 
L 301.132285 156.300229 
L 301.994721 163.278954 
L 303.516666 174.990857 
L 304.68349 184.892859 
L 305.596657 192.003714 
L 306.053241 193.983582 
L 306.306898 194.413105 
L 306.509824 194.390149 
L 306.71275 194.048657 
L 307.017139 192.99095 
L 307.473723 190.450993 
L 309.046399 180.800938 
L 309.553714 179.217848 
L 310.061029 178.310692 
L 311.075659 177.115346 
L 311.684437 176.612346 
L 311.988826 176.621609 
L 312.242484 176.856971 
L 312.546873 177.477962 
L 312.952725 178.925764 
L 313.561503 182.17591 
L 314.525401 187.283444 
L 314.880522 188.166981 
L 315.083448 188.293938 
L 315.286374 188.130999 
L 315.540031 187.531746 
L 315.895152 186.048373 
L 316.554661 182.099327 
L 317.366365 177.532135 
L 317.822949 176.004467 
L 318.178069 175.425321 
L 318.482458 175.283718 
L 318.786847 175.377229 
L 319.294162 175.813173 
L 320.308792 177.020447 
L 320.816107 177.977719 
L 321.323422 179.467417 
L 321.982932 182.198458 
L 322.94683 186.103181 
L 323.301951 186.816529 
L 323.555608 186.943895 
L 323.758534 186.802225 
L 324.012192 186.330937 
L 324.418044 184.999625 
L 326.092183 178.669928 
L 326.396572 178.401682 
L 326.65023 178.451896 
L 326.954619 178.784454 
L 327.461934 179.751506 
L 328.527295 181.817492 
L 329.795583 183.862346 
L 330.252166 185.257043 
L 330.860944 187.93909 
L 332.027769 193.238447 
L 332.382889 193.889625 
L 332.585815 193.910293 
L 332.788741 193.653813 
L 333.09313 192.75022 
L 333.498982 190.680131 
L 334.259955 185.284127 
L 334.970196 180.785817 
L 335.376048 179.312315 
L 335.680437 178.869552 
L 335.883363 178.879456 
L 336.137021 179.191754 
L 336.542873 180.204518 
L 337.760429 183.65075 
L 338.166281 184.087527 
L 338.521401 184.14134 
L 339.180911 183.896826 
L 339.586763 183.879802 
L 339.941883 184.103401 
L 340.398467 184.731772 
L 341.565291 186.564952 
L 341.86968 186.641962 
L 342.174069 186.453128 
L 342.52919 185.92804 
L 344.000403 183.312879 
L 344.254061 183.32229 
L 344.55845 183.61253 
L 344.964302 184.417548 
L 345.725274 186.622173 
L 346.536978 188.70676 
L 347.095025 189.579338 
L 349.073553 192.06594 
L 350.037452 193.544505 
L 350.443304 193.808185 
L 350.798424 193.775932 
L 351.153545 193.502398 
L 351.66086 192.784626 
L 353.334999 190.131439 
L 353.943777 189.685544 
L 354.654018 189.454921 
L 356.429621 188.97807 
L 357.494982 188.39238 
L 358.661807 187.497818 
L 359.828631 186.310304 
L 360.944724 185.21978 
L 361.452039 185.022224 
L 361.857891 185.110338 
L 362.263743 185.447772 
L 362.771058 186.191139 
L 365.104707 190.117609 
L 366.322263 191.542719 
L 367.89494 193.735182 
L 368.199329 193.76572 
L 368.503718 193.557398 
L 368.858838 193.015674 
L 369.416885 191.678612 
L 370.380783 189.357517 
L 370.786635 188.92254 
L 371.091024 188.905153 
L 371.395413 189.139655 
L 371.851997 189.851992 
L 373.221747 192.246944 
L 373.678331 192.564845 
L 374.185646 192.65344 
L 375.453933 192.75938 
L 377.178804 193.225577 
L 377.990508 193.039051 
L 379.106601 192.812405 
L 380.324157 192.610026 
L 382.150491 192.017765 
L 382.556343 192.263596 
L 383.11439 192.889817 
L 384.027557 193.909548 
L 384.382677 194.003743 
L 384.687066 193.867938 
L 385.042187 193.45122 
L 385.600233 192.361273 
L 386.614863 190.302147 
L 387.020715 189.942638 
L 387.325104 189.936467 
L 387.629493 190.148845 
L 388.086077 190.790072 
L 389.455827 192.938788 
L 389.810948 193.081443 
L 390.166068 192.978311 
L 390.57192 192.603227 
L 392.195328 190.793608 
L 392.499717 190.841701 
L 392.854838 191.14463 
L 393.311421 191.885133 
L 395.137755 195.31937 
L 395.492876 195.412017 
L 395.847996 195.252136 
L 396.355311 194.707821 
L 397.522136 193.349259 
L 398.029451 193.119555 
L 399.449933 192.733277 
L 399.957248 192.154008 
L 400.768952 190.778438 
L 401.479193 189.753714 
L 401.935776 189.46478 
L 402.341628 189.48938 
L 402.848943 189.799451 
L 404.015768 190.622251 
L 404.573814 190.688011 
L 406.552343 190.596339 
L 407.769899 191.172202 
L 410.306474 192.406282 
L 411.321104 192.982548 
L 411.980614 193.084712 
L 414.111337 193.132495 
L 415.176698 193.336175 
L 415.734745 193.186592 
L 416.394254 192.740335 
L 417.916199 191.608089 
L 418.778635 191.344821 
L 420.30058 190.914479 
L 421.416673 190.623811 
L 422.32984 190.644749 
L 423.395201 190.641063 
L 424.257637 190.38497 
L 425.322998 190.091521 
L 425.982508 190.155689 
L 427.961036 190.589058 
L 428.569814 190.326896 
L 429.533713 189.594736 
L 430.396148 189.038686 
L 431.004926 188.888534 
L 431.664436 188.965894 
L 432.83126 189.404325 
L 433.947353 189.719735 
L 435.824419 189.925465 
L 438.005873 190.076379 
L 440.288791 189.908761 
L 443.079023 189.606678 
L 444.854626 189.820155 
L 445.514135 189.585625 
L 447.644858 188.600471 
L 448.456562 188.647716 
L 450.07997 188.784925 
L 453.225323 188.593334 
L 455.558972 188.029725 
L 456.472139 188.211208 
L 458.298473 188.618049 
L 459.668224 188.641406 
L 461.037974 188.452855 
L 464.335522 187.858668 
L 467.075023 187.667103 
L 467.937458 187.208687 
L 469.256477 186.497479 
L 469.865255 186.430789 
L 470.575496 186.589903 
L 473.06134 187.345994 
L 474.07597 187.737779 
L 476.054498 188.599962 
L 477.221323 188.734046 
L 479.098389 188.75063 
L 479.859361 188.512756 
L 480.569602 188.048583 
L 481.381306 187.226126 
L 484.019344 184.241399 
L 484.729585 183.990514 
L 485.89641 183.633968 
L 486.606651 183.114117 
L 487.874938 182.116995 
L 488.432985 181.982339 
L 490.157856 181.834528 
L 490.766634 181.33196 
L 491.831995 180.415977 
L 492.33931 180.293848 
L 492.99882 180.418356 
L 493.658329 180.482601 
L 494.114913 180.27982 
L 494.672959 179.729251 
L 495.738321 178.623589 
L 496.194904 178.496685 
L 497.513923 178.404782 
L 497.869044 177.900424 
L 498.325627 176.754076 
L 500.050498 171.714321 
L 500.354887 171.550098 
L 500.710008 171.622461 
L 501.166591 171.727569 
L 501.420249 171.536684 
L 501.673906 170.986222 
L 501.978295 169.663096 
L 502.333416 166.977109 
L 502.789999 161.485384 
L 503.348046 151.774906 
L 504.210481 132.26029 
L 507.457297 55.443845 
L 508.015344 47.694931 
L 508.370464 45.156911 
L 508.57339 44.654835 
L 508.674853 44.669497 
L 508.827048 45.022381 
L 509.080705 46.469806 
L 509.435826 50.158426 
L 509.943141 58.125872 
L 510.957771 78.675961 
L 512.479716 108.193976 
L 514.66117 145.581678 
L 515.6758 159.295479 
L 516.69043 169.987718 
L 517.857255 179.979592 
L 518.71969 185.643767 
L 519.480663 189.221903 
L 520.444561 192.561977 
L 522.169432 197.692458 
L 522.879673 199.125429 
L 523.539183 199.947218 
L 524.553813 200.766054 
L 525.720637 201.502064 
L 526.227952 201.56564 
L 526.735267 201.384671 
L 527.49624 200.80158 
L 528.307944 200.260638 
L 528.86599 200.149678 
L 530.54013 200.050063 
L 531.098176 199.618421 
L 533.025973 197.867401 
L 533.93914 197.573645 
L 534.801576 197.226982 
L 535.664011 196.607694 
L 537.591808 195.130118 
L 538.606438 194.664017 
L 539.519605 194.490806 
L 541.903986 194.248239 
L 543.172273 193.589396 
L 544.288366 193.144407 
L 546.368358 192.426585 
L 552.101018 189.595318 
L 552.811259 188.832209 
L 554.434667 186.95707 
L 554.992713 186.694018 
L 555.702954 186.628428 
L 556.56539 186.514229 
L 557.174168 186.183564 
L 559.355622 184.695421 
L 562.247318 184.142075 
L 562.856096 184.224189 
L 563.718531 184.611748 
L 564.530235 184.892308 
L 565.088282 184.841246 
L 565.747791 184.526284 
L 567.117542 183.807398 
L 567.878514 183.716826 
L 569.400459 183.613636 
L 570.77021 183.162826 
L 574.270683 181.900992 
L 575.995554 181.226855 
L 577.669694 180.789132 
L 580.104806 180.271272 
L 581.677482 179.768728 
L 582.489186 179.8009 
L 583.808205 179.889829 
L 584.518446 179.668394 
L 586.141854 179.046855 
L 586.750632 179.140563 
L 587.511605 179.521077 
L 589.03355 180.317968 
L 592.07744 181.268755 
L 592.939875 181.352343 
L 594.055968 181.197605 
L 595.222793 181.108029 
L 596.338886 181.274773 
L 599.53497 182.061076 
L 601.919351 182.947535 
L 603.035444 182.975944 
L 604.303731 183.050074 
L 606.383723 183.325605 
L 607.144695 183.07302 
L 608.66664 182.465152 
L 609.275418 182.516363 
L 610.087122 182.853828 
L 610.949558 183.160175 
L 611.507604 183.113687 
L 612.065651 182.834422 
L 613.993448 181.64302 
L 614.602226 181.663383 
L 616.631486 181.942978 
L 617.899773 181.910734 
L 618.610014 182.167664 
L 620.48708 183.031561 
L 621.298784 183.016426 
L 622.617803 182.975749 
L 625.002184 183.181508 
L 626.777786 182.98904 
L 628.908509 183.011682 
L 630.176797 182.951004 
L 631.140695 183.180821 
L 632.155325 183.372778 
L 632.865566 183.261224 
L 634.844095 182.746274 
L 635.605067 182.914433 
L 637.329938 183.379074 
L 638.344568 183.331968 
L 640.881143 183.100414 
L 644.127959 183.133636 
L 645.649904 182.962709 
L 647.425507 182.861617 
L 648.440137 182.462377 
L 649.404035 182.145063 
L 650.114276 182.160209 
L 651.230369 182.477096 
L 652.143536 182.620568 
L 653.411824 182.526149 
L 654.426454 182.572081 
L 656.455714 182.783945 
L 657.521075 182.542658 
L 659.195215 182.167561 
L 660.818623 182.090602 
L 663.558124 182.154584 
L 664.978606 182.505472 
L 666.043967 182.660015 
L 667.413718 182.553932 
L 668.276153 182.622782 
L 669.950293 182.882047 
L 670.508339 182.657023 
L 671.269312 182.061568 
L 672.23321 181.353585 
L 672.791257 181.233634 
L 673.349303 181.352092 
L 674.820517 181.80505 
L 675.429295 181.669778 
L 677.762944 180.846837 
L 678.879037 180.662623 
L 679.640009 180.268355 
L 681.872195 178.895222 
L 682.937557 178.654439 
L 685.778521 178.121743 
L 686.742419 177.596561 
L 688.010707 176.929162 
L 688.720948 176.836619 
L 689.583383 176.986288 
L 691.866301 177.689975 
L 692.880931 178.321872 
L 693.895561 178.89384 
L 694.504339 178.987659 
L 695.21458 178.852839 
L 696.482868 178.568532 
L 697.193109 178.666748 
L 701.758944 179.817672 
L 702.672111 179.724493 
L 703.940398 179.573204 
L 704.650639 179.750397 
L 705.716001 180.307731 
L 706.832094 180.803031 
L 710.129641 181.745507 
L 711.753049 181.883262 
L 713.173531 182.153187 
L 715.608643 182.806981 
L 717.739366 183.747576 
L 718.348144 183.648393 
L 719.362774 183.192715 
L 720.174478 182.94279 
L 720.833988 182.977368 
L 721.645692 183.277348 
L 723.725683 184.171283 
L 724.385193 184.149925 
L 724.993971 183.899173 
L 725.856406 183.261805 
L 726.718842 182.692654 
L 727.276888 182.587099 
L 727.834935 182.735088 
L 729.914926 183.599886 
L 730.72663 183.431048 
L 731.842723 183.220801 
L 733.263205 183.047832 
L 733.871983 182.677264 
L 734.835882 181.756207 
L 735.647586 181.126132 
L 736.205632 180.959065 
L 736.865142 181.006112 
L 738.184161 181.159484 
L 739.350985 180.955586 
L 740.162689 180.938885 
L 740.974393 181.170544 
L 743.308042 181.989355 
L 744.677793 182.181925 
L 745.489497 182.074912 
L 746.402664 181.697102 
L 747.163636 181.327362 
L 747.163636 181.327362 
" style="fill:none;opacity:0.95;stroke:#999999;stroke-linecap:round;stroke-width:1.5;"/>
   </g>
   <g id="line2d_2">
    <path clip-path="url(#pa782fee4a8)" d="M 138.436364 207.832017 
L 140.262698 209.022829 
L 140.820744 209.088077 
L 141.378791 208.922095 
L 141.987569 208.495153 
L 143.154393 207.314714 
L 143.915366 206.70519 
L 144.422681 206.540528 
L 144.879264 206.60697 
L 145.386579 206.923641 
L 146.046089 207.64642 
L 147.720228 209.635966 
L 148.176812 209.822813 
L 148.582664 209.773144 
L 149.039247 209.470868 
L 149.597294 208.79744 
L 151.677285 205.940836 
L 152.083137 205.838663 
L 152.488989 205.982314 
L 152.945573 206.426142 
L 153.554351 207.385679 
L 155.177759 210.169523 
L 155.634342 210.491296 
L 155.989463 210.500472 
L 156.344583 210.288625 
L 156.801167 209.711064 
L 157.409945 208.525387 
L 158.982621 205.282146 
L 159.439205 204.888455 
L 159.794325 204.876977 
L 160.149446 205.140229 
L 160.555298 205.765229 
L 161.113344 207.092998 
L 162.99041 211.982562 
L 163.34553 212.282728 
L 163.649919 212.258424 
L 163.954308 211.960395 
L 164.309429 211.273282 
L 164.816744 209.735159 
L 165.729911 206.026836 
L 166.541615 203.074422 
L 166.998198 202.128916 
L 167.302587 201.913356 
L 167.556245 202.016574 
L 167.860634 202.489453 
L 168.215754 203.506253 
L 168.723069 205.704699 
L 169.839162 211.962164 
L 170.498672 214.950086 
L 170.904524 215.970267 
L 171.158181 216.198987 
L 171.361107 216.136767 
L 171.614765 215.746362 
L 171.969885 214.631594 
L 172.426469 212.334654 
L 173.187441 207.110029 
L 174.202071 200.386968 
L 174.658655 198.582224 
L 174.963044 198.034354 
L 175.16597 197.99039 
L 175.368896 198.209673 
L 175.622553 198.849025 
L 175.977674 200.383176 
L 176.484989 203.643932 
L 178.463517 217.741735 
L 178.818638 218.669486 
L 179.072295 218.828937 
L 179.275221 218.648161 
L 179.528879 218.045527 
L 179.883999 216.54979 
L 180.391314 213.334692 
L 182.471306 198.761588 
L 182.826426 197.868582 
L 183.080084 197.691037 
L 183.28301 197.826326 
L 183.536667 198.330075 
L 183.891788 199.608223 
L 184.399103 202.373179 
L 186.631289 215.867715 
L 187.037141 216.699738 
L 187.290798 216.825722 
L 187.493724 216.710613 
L 187.798113 216.195394 
L 188.203965 214.934928 
L 188.762012 212.373686 
L 190.842004 201.908791 
L 191.298587 200.86221 
L 191.602976 200.576793 
L 191.856634 200.597632 
L 192.110291 200.849316 
L 192.465412 201.56724 
L 192.921995 203.037858 
L 193.632236 206.182387 
L 195.10345 212.83201 
L 195.610765 214.168434 
L 195.965885 214.61944 
L 196.219543 214.677041 
L 196.4732 214.512282 
L 196.777589 214.030915 
L 197.183441 212.952632 
L 197.792219 210.616188 
L 199.51709 203.506654 
L 199.973674 202.550148 
L 200.328794 202.255257 
L 200.582452 202.294011 
L 200.886841 202.606063 
L 201.292693 203.429076 
L 201.850739 205.14564 
L 203.677073 211.246975 
L 204.133657 211.952728 
L 204.488777 212.145418 
L 204.793166 212.066589 
L 205.148287 211.716216 
L 205.655602 210.828916 
L 206.670232 208.417206 
L 207.481936 206.749858 
L 208.039982 206.063678 
L 208.496566 205.832522 
L 208.902418 205.85946 
L 209.409733 206.138686 
L 210.221437 206.904087 
L 211.388261 207.964845 
L 212.149234 208.348903 
L 212.960938 208.501644 
L 215.700439 208.595373 
L 216.7658 208.4905 
L 217.78043 208.147483 
L 219.911153 207.331509 
L 220.722857 207.31878 
L 221.686756 207.551402 
L 224.172599 208.282887 
L 225.54235 208.346972 
L 228.281851 208.203066 
L 229.854527 207.906439 
L 231.934519 207.49882 
L 232.949149 207.555028 
L 234.065242 207.857275 
L 236.297428 208.526489 
L 237.261326 208.535117 
L 238.326688 208.312078 
L 241.624235 207.451509 
L 242.740328 207.465978 
L 243.754958 207.698053 
L 244.871051 208.202689 
L 246.595922 209.022296 
L 247.255432 209.063979 
L 247.813478 208.883432 
L 248.422256 208.449484 
L 249.284692 207.524853 
L 250.400785 206.365557 
L 250.958831 206.099674 
L 251.415415 206.13894 
L 251.871998 206.434939 
L 252.379313 207.048137 
L 253.140286 208.363412 
L 254.30711 210.358575 
L 254.814425 210.819476 
L 255.220277 210.894642 
L 255.575398 210.722789 
L 255.98125 210.256782 
L 256.539296 209.206521 
L 257.503195 206.769496 
L 258.36563 204.815818 
L 258.872945 204.153461 
L 259.228066 203.997579 
L 259.532455 204.087646 
L 259.887575 204.458025 
L 260.344159 205.329892 
L 260.952937 207.051553 
L 262.830003 212.8106 
L 263.235855 213.349611 
L 263.540244 213.453837 
L 263.793901 213.328184 
L 264.09829 212.916904 
L 264.504142 211.940454 
L 265.062189 209.907235 
L 266.12755 204.889112 
L 266.888523 201.808671 
L 267.345106 200.728924 
L 267.649495 200.454233 
L 267.852421 200.491511 
L 268.106079 200.795801 
L 268.410468 201.538292 
L 268.867051 203.373242 
L 269.526561 207.20589 
L 270.997774 216.182484 
L 271.454358 217.612279 
L 271.758747 217.938075 
L 271.961673 217.850125 
L 272.21533 217.389361 
L 272.570451 216.105527 
L 273.027034 213.475952 
L 273.788007 207.455242 
L 274.9041 198.822692 
L 275.360683 196.747965 
L 275.665072 196.110482 
L 275.867998 196.050458 
L 276.070924 196.2899 
L 276.324582 197.006094 
L 276.679702 198.743342 
L 277.187017 202.475331 
L 278.30311 213.040783 
L 279.013351 218.584704 
L 279.469935 220.630172 
L 279.774324 221.149872 
L 279.926518 221.140478 
L 280.129444 220.847061 
L 280.433833 219.820831 
L 280.839685 217.452472 
L 281.448463 212.255179 
L 283.122603 196.974005 
L 283.579186 194.931258 
L 283.883575 194.420294 
L 284.03577 194.43325 
L 284.238696 194.728972 
L 284.543085 195.75129 
L 284.948937 198.099257 
L 285.557715 203.24638 
L 287.282586 218.969195 
L 287.739169 221.036706 
L 288.043558 221.585651 
L 288.246484 221.562752 
L 288.44941 221.228738 
L 288.753799 220.163814 
L 289.159651 217.787118 
L 289.768429 212.651166 
L 291.4933 197.170501 
L 291.949884 195.183342 
L 292.254273 194.683145 
L 292.457199 194.734247 
L 292.660125 195.091524 
L 292.964514 196.178941 
L 293.370366 198.554551 
L 293.979144 203.599509 
L 295.55182 217.339558 
L 296.008404 219.49513 
L 296.312793 220.168207 
L 296.515719 220.258615 
L 296.718645 220.063153 
L 296.972302 219.430459 
L 297.327423 217.879788 
L 297.834738 214.576447 
L 299.965461 199.228248 
L 300.371313 198.149914 
L 300.62497 197.947548 
L 300.827896 198.04434 
L 301.081554 198.473678 
L 301.436674 199.595756 
L 301.943989 202.038088 
L 304.176175 214.022331 
L 304.582027 214.887853 
L 304.886416 215.139337 
L 305.140074 215.097045 
L 305.444463 214.766399 
L 305.850315 213.912621 
L 306.459093 211.976355 
L 308.691279 204.177666 
L 309.249325 203.212241 
L 309.655177 202.897236 
L 310.010298 202.895493 
L 310.365418 203.143896 
L 310.77127 203.715981 
L 311.329317 204.941198 
L 312.141021 207.360068 
L 313.612234 211.783816 
L 314.170281 212.758532 
L 314.576133 213.047164 
L 314.880522 213.004323 
L 315.184911 212.734594 
L 315.590763 212.036641 
L 316.148809 210.536356 
L 317.163439 206.945724 
L 318.025875 204.215111 
L 318.53319 203.229048 
L 318.88831 202.918312 
L 319.192699 202.922289 
L 319.497088 203.175941 
L 319.90294 203.87773 
L 320.460987 205.402086 
L 322.693173 212.291223 
L 323.099025 212.717519 
L 323.403414 212.762563 
L 323.707803 212.571978 
L 324.062923 212.069165 
L 324.570238 210.904834 
L 325.381942 208.365718 
L 326.498035 205.001291 
L 327.056082 203.986337 
L 327.461934 203.671741 
L 327.766323 203.688577 
L 328.121443 203.978076 
L 328.527295 204.634872 
L 329.136073 206.131073 
L 331.06387 211.318852 
L 331.520454 211.843692 
L 331.875574 211.941233 
L 332.179963 211.80408 
L 332.535084 211.400026 
L 333.042399 210.433567 
L 333.854103 208.304226 
L 334.919465 205.637695 
L 335.477511 204.815476 
L 335.883363 204.5829 
L 336.238484 204.646001 
L 336.593604 204.945984 
L 337.100919 205.723958 
L 337.912623 207.493942 
L 338.977985 209.741771 
L 339.536031 210.454915 
L 339.992615 210.691562 
L 340.398467 210.630735 
L 340.85505 210.28478 
L 341.463828 209.473857 
L 343.493088 206.450404 
L 344.000403 206.14255 
L 344.456987 206.093852 
L 344.964302 206.27422 
L 345.57308 206.74715 
L 346.841367 208.116926 
L 347.754534 208.935801 
L 348.414044 209.261733 
L 349.022822 209.327452 
L 349.682331 209.156589 
L 350.443304 208.713218 
L 353.081342 206.943313 
L 353.740851 206.865129 
L 354.400361 207.013427 
L 355.161333 207.42715 
L 357.74864 209.068468 
L 358.408149 209.097123 
L 359.067659 208.889715 
L 359.879363 208.376769 
L 361.857891 207.007998 
L 362.517401 206.868023 
L 363.126179 206.961281 
L 363.83642 207.318296 
L 364.952513 208.191147 
L 366.017874 208.927931 
L 366.677384 209.133449 
L 367.286162 209.092125 
L 367.945671 208.805296 
L 368.858838 208.123472 
L 370.228589 207.114937 
L 370.888098 206.90007 
L 371.496876 206.933589 
L 372.156386 207.209906 
L 373.120284 207.908026 
L 374.388572 208.793204 
L 375.048081 208.999394 
L 375.656859 208.968814 
L 376.316369 208.710213 
L 377.330999 208.029832 
L 378.497823 207.312061 
L 379.208064 207.142217 
L 379.867574 207.224771 
L 380.628546 207.563405 
L 382.657806 208.611836 
L 383.317316 208.650638 
L 384.027557 208.47053 
L 385.397307 207.810695 
L 386.259743 207.533341 
L 386.969984 207.528747 
L 387.781688 207.762165 
L 389.760216 208.45175 
L 390.470457 208.406918 
L 391.332893 208.112124 
L 393.007032 207.483559 
L 393.717273 207.481897 
L 394.478246 207.705576 
L 396.862626 208.599987 
L 397.572867 208.522728 
L 398.486034 208.173186 
L 400.109442 207.511146 
L 400.921146 207.455591 
L 401.783582 207.63978 
L 404.42162 208.398014 
L 405.385518 208.327147 
L 409.13965 207.781867 
L 411.371836 207.999991 
L 413.654753 208.126013 
L 415.836208 208.005579 
L 418.220588 207.907629 
L 422.887886 207.973665 
L 424.815683 207.877264 
L 426.489823 208.061227 
L 428.163962 208.187232 
L 429.533713 208.043635 
L 431.81663 207.772238 
L 433.135649 207.892168 
L 435.87515 208.225305 
L 437.295632 208.095832 
L 440.085865 207.77827 
L 441.506347 207.902344 
L 444.347311 208.231396 
L 445.66633 208.083452 
L 448.152173 207.744224 
L 449.318998 207.8709 
L 451.957036 208.267409 
L 453.073129 208.128937 
L 455.558972 207.719779 
L 456.675065 207.846402 
L 459.313103 208.272812 
L 460.429196 208.133636 
L 462.864308 207.743564 
L 464.031133 207.865492 
L 466.516976 208.218831 
L 467.785264 208.08774 
L 470.01745 207.815422 
L 471.3872 207.926503 
L 473.670118 208.132123 
L 475.699378 207.997915 
L 477.627175 207.973167 
L 480.366676 207.972328 
L 483.512029 207.802575 
L 484.628122 208.051587 
L 485.744215 208.449019 
L 485.744215 208.449019 
" style="fill:none;stroke:#1a1a1a;stroke-linecap:round;stroke-width:1.5;"/>
   </g>
   <g id="line2d_3">
    <path clip-path="url(#pa782fee4a8)" d="M 564.580967 208.229046 
L 565.747791 208.158564 
L 568.842413 207.81005 
L 570.618015 208.026993 
L 572.241423 208.1348 
L 574.473609 207.995019 
L 576.85799 207.958758 
L 585.786734 207.935565 
L 587.613068 207.826267 
L 589.236476 207.984811 
L 591.367199 208.169745 
L 592.990607 208.046941 
L 595.324256 207.877557 
L 597.708636 208.017024 
L 599.839359 208.02115 
L 602.731055 208.028412 
L 605.216898 208.045269 
L 608.869566 207.888884 
L 612.522234 208.158384 
L 616.479291 207.861956 
L 620.030496 208.103687 
L 624.5456 207.983466 
L 632.865566 207.987743 
L 635.097752 207.876832 
L 637.127012 208.068633 
L 638.801152 208.129333 
L 640.931875 207.923139 
L 642.606014 207.877228 
L 647.729896 208.016905 
L 650.367934 207.927204 
L 657.267418 207.974857 
L 660.260576 208.007249 
L 663.10154 208.017885 
L 666.449819 207.938124 
L 670.153219 208.111306 
L 673.958081 207.827313 
L 676.038073 208.167253 
L 677.407823 208.253949 
L 678.726842 208.094344 
L 681.314149 207.704719 
L 682.480973 207.812092 
L 685.829252 208.31303 
L 686.996077 208.108671 
L 689.278994 207.646367 
L 690.293624 207.725428 
L 691.815569 208.120479 
L 693.083857 208.348975 
L 694.047755 208.297154 
L 695.366775 207.975037 
L 696.837988 207.676389 
L 697.852618 207.711192 
L 699.222369 208.016215 
L 700.693582 208.287915 
L 701.758944 208.253494 
L 703.33162 207.934653 
L 704.802834 207.725743 
L 705.969658 207.800864 
L 709.571595 208.248514 
L 710.890614 208.000397 
L 712.666216 207.683272 
L 713.680846 207.745655 
L 714.999865 208.078859 
L 716.369616 208.368287 
L 717.282783 208.331548 
L 718.348144 208.047766 
L 720.073015 207.575661 
L 720.935451 207.601011 
L 721.899349 207.867714 
L 723.776415 208.445843 
L 724.588119 208.433485 
L 725.552017 208.176032 
L 727.530546 207.576103 
L 728.392981 207.599795 
L 729.458343 207.878946 
L 731.132482 208.325906 
L 732.096381 208.320942 
L 733.364668 208.051461 
L 734.886613 207.772655 
L 736.002706 207.815295 
L 739.198791 208.120445 
L 742.90219 207.933421 
L 745.692423 208.177654 
L 747.112905 207.972912 
L 747.163636 207.963364 
L 747.163636 207.963364 
" style="fill:none;stroke:#1a1a1a;stroke-linecap:round;stroke-width:1.5;"/>
   </g>
   <g id="line2d_4">
    <path clip-path="url(#pa782fee4a8)" d="M 138.436364 245.3328 
L 147.77096 244.503392 
L 153.655814 243.792308 
L 157.409945 243.121069 
L 160.606029 242.327495 
L 163.852845 241.285862 
L 168.114291 239.657339 
L 172.832321 237.906876 
L 175.419627 237.189681 
L 177.651813 236.795732 
L 179.833268 236.638768 
L 182.065454 236.706752 
L 184.551297 237.013889 
L 187.69665 237.641639 
L 193.632236 239.104206 
L 200.024405 240.856067 
L 205.60487 242.652095 
L 210.3229 244.092894 
L 213.417521 244.803456 
L 216.461411 245.272324 
L 220.012616 245.583384 
L 224.933572 245.770912 
L 231.833056 245.801234 
L 238.986197 245.623949 
L 243.602764 245.298118 
L 247.509089 244.800195 
L 251.415415 244.074369 
L 255.372472 243.11285 
L 259.177334 241.961928 
L 262.779271 240.641633 
L 266.78706 238.925784 
L 275.005563 235.333111 
L 277.846527 234.388148 
L 280.484565 233.742912 
L 283.071871 233.339778 
L 285.659178 233.160901 
L 288.246484 233.203343 
L 290.783059 233.465913 
L 293.268903 233.946766 
L 295.805478 234.668429 
L 298.59571 235.701582 
L 303.060082 237.638838 
L 306.814213 239.162494 
L 309.502983 240.010264 
L 312.090289 240.590147 
L 314.981985 241.003166 
L 319.243431 241.357165 
L 328.425832 242.094781 
L 334.970196 242.873794 
L 349.935989 244.790717 
L 354.755481 245.053652 
L 361.350576 245.16613 
L 376.164174 245.373488 
L 392.956301 245.764096 
L 405.284055 245.938515 
L 418.575709 246.168622 
L 432.881992 246.099578 
L 462.407725 246.064687 
L 477.880832 246.049355 
L 481.990084 245.781817 
L 485.439826 245.338983 
L 485.744215 245.288711 
L 485.744215 245.288711 
" style="fill:none;stroke:#ff0000;stroke-linecap:round;stroke-width:1.5;"/>
   </g>
   <g id="line2d_5">
    <path clip-path="url(#pa782fee4a8)" d="M 564.580967 246.097276 
L 599.788628 246.205514 
L 669.84883 246.13826 
L 692.880931 245.970044 
L 747.163636 246.098032 
L 747.163636 246.098032 
" style="fill:none;stroke:#ff0000;stroke-linecap:round;stroke-width:1.5;"/>
   </g>
   <g id="patch_3">
    <path d="M 108 256.32 
L 108 34.56 
" style="fill:none;"/>
   </g>
   <g id="patch_4">
    <path d="M 777.6 256.32 
L 777.6 34.56 
" style="fill:none;"/>
   </g>
   <g id="patch_5">
    <path d="M 108 256.32 
L 777.6 256.32 
" style="fill:none;"/>
   </g>
   <g id="patch_6">
    <path d="M 108 34.56 
L 777.6 34.56 
" style="fill:none;"/>
   </g>
   <g id="patch_7">
    <path d="M 28.499047 247.938437 
L 28.499047 247.938437 
L 28.499047 247.938437 
L 28.499047 247.938437 
M 28.499047 247.938437 
Q 34.108721 247.938437 39.718395 247.938437 
M 39.718395 247.938437 
L 39.718395 247.938437 
L 39.718395 247.938437 
L 39.718395 247.938437 
" style="fill:none;"/>
   </g>
   <g id="patch_8">
    <path d="M 26.496292 245.94172 
L 26.496292 245.94172 
L 26.496292 245.94172 
L 26.496292 245.94172 
M 26.496292 245.94172 
Q 26.496292 238.362315 26.496292 230.78291 
M 26.496292 230.78291 
L 26.496292 230.78291 
L 26.496292 230.78291 
L 26.496292 230.78291 
" style="fill:none;"/>
   </g>
   <g id="text_1">
    <!-- 10 ms -->
    <defs>
     <path d="M 37.25 0 
L 28.46875 0 
L 28.46875 56 
Q 25.296875 52.984375 20.140625 49.953125 
Q 14.984375 46.921875 10.890625 45.40625 
L 10.890625 53.90625 
Q 18.265625 57.375 23.78125 62.296875 
Q 29.296875 67.234375 31.59375 71.875 
L 37.25 71.875 
z
" id="ArialMT-31"/>
     <path d="M 4.15625 35.296875 
Q 4.15625 48 6.765625 55.734375 
Q 9.375 63.484375 14.515625 67.671875 
Q 19.671875 71.875 27.484375 71.875 
Q 33.25 71.875 37.59375 69.546875 
Q 41.9375 67.234375 44.765625 62.859375 
Q 47.609375 58.5 49.21875 52.21875 
Q 50.828125 45.953125 50.828125 35.296875 
Q 50.828125 22.703125 48.234375 14.96875 
Q 45.65625 7.234375 40.5 3 
Q 35.359375 -1.21875 27.484375 -1.21875 
Q 17.140625 -1.21875 11.234375 6.203125 
Q 4.15625 15.140625 4.15625 35.296875 
M 13.1875 35.296875 
Q 13.1875 17.671875 17.3125 11.828125 
Q 21.4375 6 27.484375 6 
Q 33.546875 6 37.671875 11.859375 
Q 41.796875 17.71875 41.796875 35.296875 
Q 41.796875 52.984375 37.671875 58.78125 
Q 33.546875 64.59375 27.390625 64.59375 
Q 21.34375 64.59375 17.71875 59.46875 
Q 13.1875 52.9375 13.1875 35.296875 
" id="ArialMT-30"/>
     <path id="ArialMT-20"/>
     <path d="M 6.59375 0 
L 6.59375 51.859375 
L 14.453125 51.859375 
L 14.453125 44.578125 
Q 16.890625 48.390625 20.9375 50.703125 
Q 25 53.03125 30.171875 53.03125 
Q 35.9375 53.03125 39.625 50.640625 
Q 43.3125 48.25 44.828125 43.953125 
Q 50.984375 53.03125 60.84375 53.03125 
Q 68.5625 53.03125 72.703125 48.75 
Q 76.859375 44.484375 76.859375 35.59375 
L 76.859375 0 
L 68.109375 0 
L 68.109375 32.671875 
Q 68.109375 37.9375 67.25 40.25 
Q 66.40625 42.578125 64.15625 43.984375 
Q 61.921875 45.40625 58.890625 45.40625 
Q 53.421875 45.40625 49.796875 41.765625 
Q 46.1875 38.140625 46.1875 30.125 
L 46.1875 0 
L 37.40625 0 
L 37.40625 33.6875 
Q 37.40625 39.546875 35.25 42.46875 
Q 33.109375 45.40625 28.21875 45.40625 
Q 24.515625 45.40625 21.359375 43.453125 
Q 18.21875 41.5 16.796875 37.734375 
Q 15.375 33.984375 15.375 26.90625 
L 15.375 0 
z
" id="ArialMT-6d"/>
     <path d="M 3.078125 15.484375 
L 11.765625 16.84375 
Q 12.5 11.625 15.84375 8.84375 
Q 19.1875 6.0625 25.203125 6.0625 
Q 31.25 6.0625 34.171875 8.515625 
Q 37.109375 10.984375 37.109375 14.3125 
Q 37.109375 17.28125 34.515625 19 
Q 32.71875 20.171875 25.53125 21.96875 
Q 15.875 24.421875 12.140625 26.203125 
Q 8.40625 27.984375 6.46875 31.125 
Q 4.546875 34.28125 4.546875 38.09375 
Q 4.546875 41.546875 6.125 44.5 
Q 7.71875 47.46875 10.453125 49.421875 
Q 12.5 50.921875 16.03125 51.96875 
Q 19.578125 53.03125 23.640625 53.03125 
Q 29.734375 53.03125 34.34375 51.265625 
Q 38.96875 49.515625 41.15625 46.5 
Q 43.359375 43.5 44.1875 38.484375 
L 35.59375 37.3125 
Q 35.015625 41.3125 32.203125 43.546875 
Q 29.390625 45.796875 24.265625 45.796875 
Q 18.21875 45.796875 15.625 43.796875 
Q 13.03125 41.796875 13.03125 39.109375 
Q 13.03125 37.40625 14.109375 36.03125 
Q 15.1875 34.625 17.484375 33.6875 
Q 18.796875 33.203125 25.25 31.453125 
Q 34.578125 28.953125 38.25 27.359375 
Q 41.9375 25.78125 44.03125 22.75 
Q 46.140625 19.734375 46.140625 15.234375 
Q 46.140625 10.84375 43.578125 6.953125 
Q 41.015625 3.078125 36.171875 0.953125 
Q 31.34375 -1.171875 25.25 -1.171875 
Q 15.140625 -1.171875 9.84375 3.03125 
Q 4.546875 7.234375 3.078125 15.484375 
" id="ArialMT-73"/>
    </defs>
    <g style="fill:#1a1a1a;" transform="translate(8.600625 262.8225)scale(0.18 -0.18)">
     <use xlink:href="#ArialMT-31"/>
     <use x="55.615234" xlink:href="#ArialMT-30"/>
     <use x="111.230469" xlink:href="#ArialMT-20"/>
     <use x="139.013672" xlink:href="#ArialMT-6d"/>
     <use x="222.314453" xlink:href="#ArialMT-73"/>
    </g>
   </g>
   <g id="text_2">
    <!-- 500 units -->
    <defs>
     <path d="M 4.15625 18.75 
L 13.375 19.53125 
Q 14.40625 12.796875 18.140625 9.390625 
Q 21.875 6 27.15625 6 
Q 33.5 6 37.890625 10.78125 
Q 42.28125 15.578125 42.28125 23.484375 
Q 42.28125 31 38.0625 35.34375 
Q 33.84375 39.703125 27 39.703125 
Q 22.75 39.703125 19.328125 37.765625 
Q 15.921875 35.84375 13.96875 32.765625 
L 5.71875 33.84375 
L 12.640625 70.609375 
L 48.25 70.609375 
L 48.25 62.203125 
L 19.671875 62.203125 
L 15.828125 42.96875 
Q 22.265625 47.46875 29.34375 47.46875 
Q 38.71875 47.46875 45.15625 40.96875 
Q 51.609375 34.46875 51.609375 24.265625 
Q 51.609375 14.546875 45.953125 7.46875 
Q 39.0625 -1.21875 27.15625 -1.21875 
Q 17.390625 -1.21875 11.203125 4.25 
Q 5.03125 9.71875 4.15625 18.75 
" id="ArialMT-35"/>
     <path d="M 40.578125 0 
L 40.578125 7.625 
Q 34.515625 -1.171875 24.125 -1.171875 
Q 19.53125 -1.171875 15.546875 0.578125 
Q 11.578125 2.34375 9.640625 5 
Q 7.71875 7.671875 6.9375 11.53125 
Q 6.390625 14.109375 6.390625 19.734375 
L 6.390625 51.859375 
L 15.1875 51.859375 
L 15.1875 23.09375 
Q 15.1875 16.21875 15.71875 13.8125 
Q 16.546875 10.359375 19.234375 8.375 
Q 21.921875 6.390625 25.875 6.390625 
Q 29.828125 6.390625 33.296875 8.421875 
Q 36.765625 10.453125 38.203125 13.9375 
Q 39.65625 17.4375 39.65625 24.078125 
L 39.65625 51.859375 
L 48.4375 51.859375 
L 48.4375 0 
z
" id="ArialMT-75"/>
     <path d="M 6.59375 0 
L 6.59375 51.859375 
L 14.5 51.859375 
L 14.5 44.484375 
Q 20.21875 53.03125 31 53.03125 
Q 35.6875 53.03125 39.625 51.34375 
Q 43.5625 49.65625 45.515625 46.921875 
Q 47.46875 44.1875 48.25 40.4375 
Q 48.734375 37.984375 48.734375 31.890625 
L 48.734375 0 
L 39.9375 0 
L 39.9375 31.546875 
Q 39.9375 36.921875 38.90625 39.578125 
Q 37.890625 42.234375 35.28125 43.8125 
Q 32.671875 45.40625 29.15625 45.40625 
Q 23.53125 45.40625 19.453125 41.84375 
Q 15.375 38.28125 15.375 28.328125 
L 15.375 0 
z
" id="ArialMT-6e"/>
     <path d="M 6.640625 61.46875 
L 6.640625 71.578125 
L 15.4375 71.578125 
L 15.4375 61.46875 
z
M 6.640625 0 
L 6.640625 51.859375 
L 15.4375 51.859375 
L 15.4375 0 
z
" id="ArialMT-69"/>
     <path d="M 25.78125 7.859375 
L 27.046875 0.09375 
Q 23.34375 -0.6875 20.40625 -0.6875 
Q 15.625 -0.6875 12.984375 0.828125 
Q 10.359375 2.34375 9.28125 4.8125 
Q 8.203125 7.28125 8.203125 15.1875 
L 8.203125 45.015625 
L 1.765625 45.015625 
L 1.765625 51.859375 
L 8.203125 51.859375 
L 8.203125 64.703125 
L 16.9375 69.96875 
L 16.9375 51.859375 
L 25.78125 51.859375 
L 25.78125 45.015625 
L 16.9375 45.015625 
L 16.9375 14.703125 
Q 16.9375 10.9375 17.40625 9.859375 
Q 17.875 8.796875 18.921875 8.15625 
Q 19.96875 7.515625 21.921875 7.515625 
Q 23.390625 7.515625 25.78125 7.859375 
" id="ArialMT-74"/>
    </defs>
    <g style="fill:#1a1a1a;" transform="translate(1.6 242.513955)scale(0.18 -0.18)">
     <use xlink:href="#ArialMT-35"/>
     <use x="55.615234" xlink:href="#ArialMT-30"/>
     <use x="111.230469" xlink:href="#ArialMT-30"/>
     <use x="166.845703" xlink:href="#ArialMT-20"/>
     <use x="194.628906" xlink:href="#ArialMT-75"/>
     <use x="250.244141" xlink:href="#ArialMT-6e"/>
     <use x="305.859375" xlink:href="#ArialMT-69"/>
     <use x="328.076172" xlink:href="#ArialMT-74"/>
     <use x="355.859375" xlink:href="#ArialMT-73"/>
    </g>
   </g>
   <g id="patch_9">
    <path d="M 81.651817 244.938438 
L 81.651817 244.938438 
L 81.651817 244.938438 
L 81.651817 244.938438 
M 81.651817 244.938438 
Q 87.261491 244.938438 92.871165 244.938438 
M 92.871165 247.938438 
L 92.871165 247.938438 
L 92.871165 241.938438 
L 92.871165 241.938438 
" style="fill:none;stroke:#1a1a1a;stroke-linecap:round;stroke-width:1.5;"/>
   </g>
   <g id="patch_10">
    <path d="M 79.649062 242.94172 
L 79.649062 242.94172 
L 79.649062 242.94172 
L 79.649062 242.94172 
M 79.649062 242.94172 
Q 79.649062 235.362315 79.649062 227.78291 
M 82.649062 227.78291 
L 82.649062 227.78291 
L 76.649062 227.78291 
L 76.649062 227.78291 
" style="fill:none;stroke:#1a1a1a;stroke-linecap:round;stroke-width:1.5;"/>
   </g>
   <g id="legend_1">
    <g id="line2d_6">
     <path d="M 573.44 54.8125 
L 605.44 54.8125 
" style="fill:none;opacity:0.95;stroke:#999999;stroke-linecap:round;stroke-width:1.5;"/>
    </g>
    <g id="line2d_7"/>
    <g id="text_3">
     <!-- LFP -->
     <defs>
      <path d="M 7.328125 0 
L 7.328125 71.578125 
L 16.796875 71.578125 
L 16.796875 8.453125 
L 52.046875 8.453125 
L 52.046875 0 
z
" id="ArialMT-4c"/>
      <path d="M 8.203125 0 
L 8.203125 71.578125 
L 56.5 71.578125 
L 56.5 63.140625 
L 17.671875 63.140625 
L 17.671875 40.96875 
L 51.265625 40.96875 
L 51.265625 32.515625 
L 17.671875 32.515625 
L 17.671875 0 
z
" id="ArialMT-46"/>
      <path d="M 7.71875 0 
L 7.71875 71.578125 
L 34.71875 71.578125 
Q 41.84375 71.578125 45.609375 70.90625 
Q 50.875 70.015625 54.4375 67.546875 
Q 58.015625 65.09375 60.1875 60.640625 
Q 62.359375 56.203125 62.359375 50.875 
Q 62.359375 41.75 56.546875 35.421875 
Q 50.734375 29.109375 35.546875 29.109375 
L 17.1875 29.109375 
L 17.1875 0 
z
M 17.1875 37.546875 
L 35.6875 37.546875 
Q 44.875 37.546875 48.734375 40.96875 
Q 52.59375 44.390625 52.59375 50.59375 
Q 52.59375 55.078125 50.3125 58.265625 
Q 48.046875 61.46875 44.34375 62.5 
Q 41.9375 63.140625 35.5 63.140625 
L 17.1875 63.140625 
z
" id="ArialMT-50"/>
     </defs>
     <g style="fill:#262626;" transform="translate(618.24 60.4125)scale(0.16 -0.16)">
      <use xlink:href="#ArialMT-4c"/>
      <use x="55.615234" xlink:href="#ArialMT-46"/>
      <use x="116.699219" xlink:href="#ArialMT-50"/>
     </g>
    </g>
    <g id="line2d_8">
     <path d="M 573.44 77.445 
L 605.44 77.445 
" style="fill:none;stroke:#1a1a1a;stroke-linecap:round;stroke-width:1.5;"/>
    </g>
    <g id="line2d_9"/>
    <g id="text_4">
     <!-- Ripple Band Filtered -->
     <defs>
      <path d="M 7.859375 0 
L 7.859375 71.578125 
L 39.59375 71.578125 
Q 49.171875 71.578125 54.140625 69.640625 
Q 59.125 67.71875 62.109375 62.828125 
Q 65.09375 57.953125 65.09375 52.046875 
Q 65.09375 44.4375 60.15625 39.203125 
Q 55.21875 33.984375 44.921875 32.5625 
Q 48.6875 30.765625 50.640625 29 
Q 54.78125 25.203125 58.5 19.484375 
L 70.953125 0 
L 59.03125 0 
L 49.5625 14.890625 
Q 45.40625 21.34375 42.71875 24.75 
Q 40.046875 28.171875 37.921875 29.53125 
Q 35.796875 30.90625 33.59375 31.453125 
Q 31.984375 31.78125 28.328125 31.78125 
L 17.328125 31.78125 
L 17.328125 0 
z
M 17.328125 39.984375 
L 37.703125 39.984375 
Q 44.1875 39.984375 47.84375 41.328125 
Q 51.515625 42.671875 53.421875 45.625 
Q 55.328125 48.578125 55.328125 52.046875 
Q 55.328125 57.125 51.640625 60.390625 
Q 47.953125 63.671875 39.984375 63.671875 
L 17.328125 63.671875 
z
" id="ArialMT-52"/>
      <path d="M 6.59375 -19.875 
L 6.59375 51.859375 
L 14.59375 51.859375 
L 14.59375 45.125 
Q 17.4375 49.078125 21 51.046875 
Q 24.5625 53.03125 29.640625 53.03125 
Q 36.28125 53.03125 41.359375 49.609375 
Q 46.4375 46.1875 49.015625 39.953125 
Q 51.609375 33.734375 51.609375 26.3125 
Q 51.609375 18.359375 48.75 11.984375 
Q 45.90625 5.609375 40.453125 2.21875 
Q 35.015625 -1.171875 29 -1.171875 
Q 24.609375 -1.171875 21.109375 0.6875 
Q 17.625 2.546875 15.375 5.375 
L 15.375 -19.875 
z
M 14.546875 25.640625 
Q 14.546875 15.625 18.59375 10.84375 
Q 22.65625 6.0625 28.421875 6.0625 
Q 34.28125 6.0625 38.453125 11.015625 
Q 42.625 15.96875 42.625 26.375 
Q 42.625 36.28125 38.546875 41.203125 
Q 34.46875 46.140625 28.8125 46.140625 
Q 23.1875 46.140625 18.859375 40.890625 
Q 14.546875 35.640625 14.546875 25.640625 
" id="ArialMT-70"/>
      <path d="M 6.390625 0 
L 6.390625 71.578125 
L 15.1875 71.578125 
L 15.1875 0 
z
" id="ArialMT-6c"/>
      <path d="M 42.09375 16.703125 
L 51.171875 15.578125 
Q 49.03125 7.625 43.21875 3.21875 
Q 37.40625 -1.171875 28.375 -1.171875 
Q 17 -1.171875 10.328125 5.828125 
Q 3.65625 12.84375 3.65625 25.484375 
Q 3.65625 38.578125 10.390625 45.796875 
Q 17.140625 53.03125 27.875 53.03125 
Q 38.28125 53.03125 44.875 45.953125 
Q 51.46875 38.875 51.46875 26.03125 
Q 51.46875 25.25 51.421875 23.6875 
L 12.75 23.6875 
Q 13.234375 15.140625 17.578125 10.59375 
Q 21.921875 6.0625 28.421875 6.0625 
Q 33.25 6.0625 36.671875 8.59375 
Q 40.09375 11.140625 42.09375 16.703125 
M 13.234375 30.90625 
L 42.1875 30.90625 
Q 41.609375 37.453125 38.875 40.71875 
Q 34.671875 45.796875 27.984375 45.796875 
Q 21.921875 45.796875 17.796875 41.75 
Q 13.671875 37.703125 13.234375 30.90625 
" id="ArialMT-65"/>
      <path d="M 7.328125 0 
L 7.328125 71.578125 
L 34.1875 71.578125 
Q 42.390625 71.578125 47.34375 69.40625 
Q 52.296875 67.234375 55.09375 62.71875 
Q 57.90625 58.203125 57.90625 53.265625 
Q 57.90625 48.6875 55.421875 44.625 
Q 52.9375 40.578125 47.90625 38.09375 
Q 54.390625 36.1875 57.875 31.59375 
Q 61.375 27 61.375 20.75 
Q 61.375 15.71875 59.25 11.390625 
Q 57.125 7.078125 54 4.734375 
Q 50.875 2.390625 46.15625 1.1875 
Q 41.453125 0 34.625 0 
z
M 16.796875 41.5 
L 32.28125 41.5 
Q 38.578125 41.5 41.3125 42.328125 
Q 44.921875 43.40625 46.75 45.890625 
Q 48.578125 48.390625 48.578125 52.15625 
Q 48.578125 55.71875 46.875 58.421875 
Q 45.171875 61.140625 41.984375 62.140625 
Q 38.8125 63.140625 31.109375 63.140625 
L 16.796875 63.140625 
z
M 16.796875 8.453125 
L 34.625 8.453125 
Q 39.203125 8.453125 41.0625 8.796875 
Q 44.34375 9.375 46.53125 10.734375 
Q 48.734375 12.109375 50.140625 14.71875 
Q 51.5625 17.328125 51.5625 20.75 
Q 51.5625 24.75 49.515625 27.703125 
Q 47.46875 30.671875 43.828125 31.859375 
Q 40.1875 33.0625 33.34375 33.0625 
L 16.796875 33.0625 
z
" id="ArialMT-42"/>
      <path d="M 40.4375 6.390625 
Q 35.546875 2.25 31.03125 0.53125 
Q 26.515625 -1.171875 21.34375 -1.171875 
Q 12.796875 -1.171875 8.203125 3 
Q 3.609375 7.171875 3.609375 13.671875 
Q 3.609375 17.484375 5.34375 20.625 
Q 7.078125 23.78125 9.890625 25.6875 
Q 12.703125 27.59375 16.21875 28.5625 
Q 18.796875 29.25 24.03125 29.890625 
Q 34.671875 31.15625 39.703125 32.90625 
Q 39.75 34.71875 39.75 35.203125 
Q 39.75 40.578125 37.25 42.78125 
Q 33.890625 45.75 27.25 45.75 
Q 21.046875 45.75 18.09375 43.578125 
Q 15.140625 41.40625 13.71875 35.890625 
L 5.125 37.0625 
Q 6.296875 42.578125 8.984375 45.96875 
Q 11.671875 49.359375 16.75 51.1875 
Q 21.828125 53.03125 28.515625 53.03125 
Q 35.15625 53.03125 39.296875 51.46875 
Q 43.453125 49.90625 45.40625 47.53125 
Q 47.359375 45.171875 48.140625 41.546875 
Q 48.578125 39.3125 48.578125 33.453125 
L 48.578125 21.734375 
Q 48.578125 9.46875 49.140625 6.21875 
Q 49.703125 2.984375 51.375 0 
L 42.1875 0 
Q 40.828125 2.734375 40.4375 6.390625 
M 39.703125 26.03125 
Q 34.90625 24.078125 25.34375 22.703125 
Q 19.921875 21.921875 17.671875 20.9375 
Q 15.4375 19.96875 14.203125 18.09375 
Q 12.984375 16.21875 12.984375 13.921875 
Q 12.984375 10.40625 15.640625 8.0625 
Q 18.3125 5.71875 23.4375 5.71875 
Q 28.515625 5.71875 32.46875 7.9375 
Q 36.421875 10.15625 38.28125 14.015625 
Q 39.703125 17 39.703125 22.796875 
z
" id="ArialMT-61"/>
      <path d="M 40.234375 0 
L 40.234375 6.546875 
Q 35.296875 -1.171875 25.734375 -1.171875 
Q 19.53125 -1.171875 14.328125 2.25 
Q 9.125 5.671875 6.265625 11.796875 
Q 3.421875 17.921875 3.421875 25.875 
Q 3.421875 33.640625 6 39.96875 
Q 8.59375 46.296875 13.765625 49.65625 
Q 18.953125 53.03125 25.34375 53.03125 
Q 30.03125 53.03125 33.6875 51.046875 
Q 37.359375 49.078125 39.65625 45.90625 
L 39.65625 71.578125 
L 48.390625 71.578125 
L 48.390625 0 
z
M 12.453125 25.875 
Q 12.453125 15.921875 16.640625 10.984375 
Q 20.84375 6.0625 26.5625 6.0625 
Q 32.328125 6.0625 36.34375 10.765625 
Q 40.375 15.484375 40.375 25.140625 
Q 40.375 35.796875 36.265625 40.765625 
Q 32.171875 45.75 26.171875 45.75 
Q 20.3125 45.75 16.375 40.96875 
Q 12.453125 36.1875 12.453125 25.875 
" id="ArialMT-64"/>
      <path d="M 6.5 0 
L 6.5 51.859375 
L 14.40625 51.859375 
L 14.40625 44 
Q 17.4375 49.515625 20 51.265625 
Q 22.5625 53.03125 25.640625 53.03125 
Q 30.078125 53.03125 34.671875 50.203125 
L 31.640625 42.046875 
Q 28.421875 43.953125 25.203125 43.953125 
Q 22.3125 43.953125 20.015625 42.21875 
Q 17.71875 40.484375 16.75 37.40625 
Q 15.28125 32.71875 15.28125 27.15625 
L 15.28125 0 
z
" id="ArialMT-72"/>
     </defs>
     <g style="fill:#262626;" transform="translate(618.24 83.045)scale(0.16 -0.16)">
      <use xlink:href="#ArialMT-52"/>
      <use x="72.216797" xlink:href="#ArialMT-69"/>
      <use x="94.433594" xlink:href="#ArialMT-70"/>
      <use x="150.048828" xlink:href="#ArialMT-70"/>
      <use x="205.664062" xlink:href="#ArialMT-6c"/>
      <use x="227.880859" xlink:href="#ArialMT-65"/>
      <use x="283.496094" xlink:href="#ArialMT-20"/>
      <use x="311.279297" xlink:href="#ArialMT-42"/>
      <use x="377.978516" xlink:href="#ArialMT-61"/>
      <use x="433.59375" xlink:href="#ArialMT-6e"/>
      <use x="489.208984" xlink:href="#ArialMT-64"/>
      <use x="544.824219" xlink:href="#ArialMT-20"/>
      <use x="572.607422" xlink:href="#ArialMT-46"/>
      <use x="633.691406" xlink:href="#ArialMT-69"/>
      <use x="655.908203" xlink:href="#ArialMT-6c"/>
      <use x="678.125" xlink:href="#ArialMT-74"/>
      <use x="705.908203" xlink:href="#ArialMT-65"/>
      <use x="761.523438" xlink:href="#ArialMT-72"/>
      <use x="794.824219" xlink:href="#ArialMT-65"/>
      <use x="850.439453" xlink:href="#ArialMT-64"/>
     </g>
    </g>
    <g id="line2d_10">
     <path d="M 573.44 100.0775 
L 605.44 100.0775 
" style="fill:none;stroke:#ff0000;stroke-linecap:round;stroke-width:1.5;"/>
    </g>
    <g id="line2d_11"/>
    <g id="text_5">
     <!-- Ripple Band Power -->
     <defs>
      <path d="M 3.328125 25.921875 
Q 3.328125 40.328125 11.328125 47.265625 
Q 18.015625 53.03125 27.640625 53.03125 
Q 38.328125 53.03125 45.109375 46.015625 
Q 51.90625 39.015625 51.90625 26.65625 
Q 51.90625 16.65625 48.90625 10.90625 
Q 45.90625 5.171875 40.15625 2 
Q 34.421875 -1.171875 27.640625 -1.171875 
Q 16.75 -1.171875 10.03125 5.8125 
Q 3.328125 12.796875 3.328125 25.921875 
M 12.359375 25.921875 
Q 12.359375 15.96875 16.703125 11.015625 
Q 21.046875 6.0625 27.640625 6.0625 
Q 34.1875 6.0625 38.53125 11.03125 
Q 42.875 16.015625 42.875 26.21875 
Q 42.875 35.84375 38.5 40.796875 
Q 34.125 45.75 27.640625 45.75 
Q 21.046875 45.75 16.703125 40.8125 
Q 12.359375 35.890625 12.359375 25.921875 
" id="ArialMT-6f"/>
      <path d="M 16.15625 0 
L 0.296875 51.859375 
L 9.375 51.859375 
L 17.625 21.921875 
L 20.703125 10.796875 
Q 20.90625 11.625 23.390625 21.484375 
L 31.640625 51.859375 
L 40.671875 51.859375 
L 48.4375 21.78125 
L 51.03125 11.859375 
L 54 21.875 
L 62.890625 51.859375 
L 71.4375 51.859375 
L 55.21875 0 
L 46.09375 0 
L 37.84375 31.0625 
L 35.84375 39.890625 
L 25.34375 0 
z
" id="ArialMT-77"/>
     </defs>
     <g style="fill:#262626;" transform="translate(618.24 105.6775)scale(0.16 -0.16)">
      <use xlink:href="#ArialMT-52"/>
      <use x="72.216797" xlink:href="#ArialMT-69"/>
      <use x="94.433594" xlink:href="#ArialMT-70"/>
      <use x="150.048828" xlink:href="#ArialMT-70"/>
      <use x="205.664062" xlink:href="#ArialMT-6c"/>
      <use x="227.880859" xlink:href="#ArialMT-65"/>
      <use x="283.496094" xlink:href="#ArialMT-20"/>
      <use x="311.279297" xlink:href="#ArialMT-42"/>
      <use x="377.978516" xlink:href="#ArialMT-61"/>
      <use x="433.59375" xlink:href="#ArialMT-6e"/>
      <use x="489.208984" xlink:href="#ArialMT-64"/>
      <use x="544.824219" xlink:href="#ArialMT-20"/>
      <use x="572.607422" xlink:href="#ArialMT-50"/>
      <use x="639.306641" xlink:href="#ArialMT-6f"/>
      <use x="694.921875" xlink:href="#ArialMT-77"/>
      <use x="767.138672" xlink:href="#ArialMT-65"/>
      <use x="822.753906" xlink:href="#ArialMT-72"/>
     </g>
    </g>
   </g>
  </g>
 </g>
 <defs>
  <clipPath id="pa782fee4a8">
   <rect height="221.76" width="669.6" x="108" y="34.56"/>
  </clipPath>
 </defs>
</svg>
