<?xml version="1.0" encoding="utf-8" standalone="no"?>
<!DOCTYPE svg PUBLIC "-//W3C//DTD SVG 1.1//EN"
  "http://www.w3.org/Graphics/SVG/1.1/DTD/svg11.dtd">
<!-- Created with matplotlib (http://matplotlib.org/) -->
<svg height="288pt" version="1.1" viewBox="0 0 864 288" width="864pt" xmlns="http://www.w3.org/2000/svg" xmlns:xlink="http://www.w3.org/1999/xlink">
 <defs>
  <style type="text/css">
*{stroke-linecap:butt;stroke-linejoin:round;}
  </style>
 </defs>
 <g id="figure_1">
  <g id="patch_1">
   <path d="M 0 288 
L 864 288 
L 864 0 
L 0 0 
z
" style="fill:#ffffff;"/>
  </g>
  <g id="axes_1">
   <g id="patch_2">
    <path d="M 108 256.32 
L 777.6 256.32 
L 777.6 34.56 
L 108 34.56 
z
" style="fill:#ffffff;"/>
   </g>
   <g id="line2d_1">
    <path clip-path="url(#p995da8ae34)" d="M 107.513303 139.446061 
L 108.071305 139.276614 
L 108.629308 139.231397 
L 109.18731 139.401292 
L 109.745312 139.80888 
L 112.535323 142.595349 
L 115.325335 144.094766 
L 116.441339 144.394097 
L 117.557344 144.599022 
L 118.115346 144.876185 
L 118.673348 145.341754 
L 120.347355 147.17164 
L 120.905357 147.494675 
L 121.46336 147.533626 
L 122.021362 147.326748 
L 123.695369 146.435058 
L 124.253371 146.379759 
L 126.48538 146.701095 
L 128.159387 146.601319 
L 128.717389 146.755302 
L 129.833394 147.478152 
L 130.949398 148.26 
L 131.507401 148.468803 
L 133.73941 148.803237 
L 134.855414 149.707602 
L 135.413416 150.229969 
L 135.971419 150.597492 
L 136.529421 150.691185 
L 137.087423 150.488087 
L 138.76143 149.303219 
L 139.319432 149.197639 
L 140.993439 149.315132 
L 141.551441 148.9323 
L 142.109444 148.20522 
L 143.225448 146.303163 
L 143.78345 145.576851 
L 144.341453 145.215292 
L 144.899455 145.215577 
L 146.573462 145.834992 
L 147.131464 145.748592 
L 148.247469 145.116868 
L 149.363473 144.524909 
L 150.479478 144.26668 
L 152.153484 144.113882 
L 153.269489 144.241751 
L 154.385494 144.404371 
L 154.943496 144.344512 
L 156.0595 143.858497 
L 157.175505 143.31814 
L 157.733507 143.218267 
L 158.291509 143.262355 
L 159.407514 143.641895 
L 162.755528 145.040459 
L 163.31353 144.961299 
L 163.871532 144.671343 
L 164.987537 143.647664 
L 166.103541 142.729763 
L 166.661543 142.523816 
L 167.219546 142.495242 
L 170.567559 142.961676 
L 175.031577 142.844959 
L 177.263587 142.340256 
L 178.379591 142.46716 
L 180.053598 142.886471 
L 180.6116 142.844395 
L 181.727605 142.457032 
L 182.843609 142.094521 
L 183.959614 142.111166 
L 187.307627 142.923744 
L 189.539636 143.411594 
L 190.655641 143.670406 
L 192.329648 144.41461 
L 193.445652 144.844634 
L 194.561657 144.99818 
L 196.235664 144.90278 
L 197.351668 144.519799 
L 200.14168 142.855679 
L 200.699682 142.808509 
L 202.931691 143.123426 
L 203.489693 143.008446 
L 204.047695 142.741744 
L 205.1637 141.816123 
L 206.279705 140.749788 
L 206.837707 140.377397 
L 207.395709 140.21349 
L 207.953711 140.282229 
L 209.069716 140.919405 
L 210.18572 141.56092 
L 211.301725 141.738474 
L 212.417729 141.801068 
L 213.533734 142.192746 
L 214.649739 142.695589 
L 215.765743 142.905501 
L 219.113757 142.949283 
L 220.229761 142.330018 
L 221.345766 141.658618 
L 221.903768 141.541065 
L 222.46177 141.605516 
L 224.135777 142.134496 
L 225.809784 142.316278 
L 226.367786 142.586276 
L 227.483791 143.653507 
L 228.599795 144.699204 
L 229.157798 144.910614 
L 230.273802 144.78226 
L 230.831804 144.713758 
L 231.389807 144.820509 
L 232.505811 145.573449 
L 233.063813 145.987381 
L 233.621816 146.222735 
L 234.179818 146.198428 
L 235.295822 145.561593 
L 236.411827 144.97776 
L 237.527832 144.889049 
L 238.643836 144.737978 
L 240.875845 143.73757 
L 243.107854 143.431519 
L 244.223859 142.803771 
L 245.339863 142.089705 
L 246.455868 141.610796 
L 247.571872 141.312874 
L 248.687877 141.260687 
L 249.803881 141.639266 
L 250.919886 142.156634 
L 252.035891 142.334421 
L 253.151895 142.416806 
L 253.709897 142.643008 
L 254.825902 143.539082 
L 255.941906 144.435332 
L 257.057911 144.83885 
L 258.173915 145.185744 
L 259.847922 146.112184 
L 260.405925 146.232529 
L 262.079931 146.019693 
L 262.637934 146.217917 
L 263.195936 146.723345 
L 264.869943 149.022575 
L 265.427945 149.47438 
L 265.985947 149.645578 
L 267.101952 149.632701 
L 267.659954 149.768446 
L 268.217956 150.101637 
L 269.333961 151.026747 
L 269.891963 151.333502 
L 270.449965 151.417685 
L 272.681974 151.065152 
L 274.913984 151.744348 
L 276.029988 151.443109 
L 277.145993 151.098079 
L 278.261997 151.064625 
L 279.378002 151.036475 
L 282.168013 150.537435 
L 282.726015 150.334299 
L 283.284018 149.928008 
L 283.84202 149.270061 
L 286.074029 145.859263 
L 286.632031 145.473795 
L 287.190033 145.352321 
L 291.096049 145.625861 
L 292.212054 146.020277 
L 292.770056 146.064893 
L 293.328058 145.890991 
L 294.444063 145.01721 
L 295.002065 144.581786 
L 295.560067 144.352661 
L 296.11807 144.406155 
L 297.234074 145.129473 
L 297.792077 145.494463 
L 298.350079 145.656653 
L 298.908081 145.551567 
L 300.024086 144.755294 
L 301.14009 143.953338 
L 302.256095 143.595135 
L 303.372099 143.316478 
L 305.046106 142.776932 
L 305.604108 142.814315 
L 306.162111 143.047291 
L 307.278115 143.941699 
L 308.39412 144.841089 
L 309.510124 145.393177 
L 310.626129 145.912689 
L 312.300136 146.983879 
L 312.858138 147.176411 
L 313.41614 147.162012 
L 313.974142 146.930373 
L 316.764154 144.967862 
L 318.996163 144.28859 
L 320.112167 143.562572 
L 321.786174 141.923966 
L 322.902179 140.86948 
L 324.018183 140.222207 
L 326.250192 139.425408 
L 328.482201 137.979751 
L 329.598206 137.774683 
L 330.71421 137.584622 
L 332.946219 136.760244 
L 333.504222 136.906223 
L 334.620226 137.681019 
L 335.736231 138.385823 
L 336.852235 138.648404 
L 339.084244 138.998073 
L 339.642247 138.843533 
L 340.758251 138.021617 
L 341.316253 137.582585 
L 341.874256 137.322459 
L 342.432258 137.305467 
L 344.106265 137.738991 
L 345.222269 137.38013 
L 345.780272 137.232427 
L 346.338274 137.38385 
L 346.896276 137.937102 
L 348.570283 140.5112 
L 349.128285 140.834047 
L 349.686288 140.713599 
L 351.360294 139.526266 
L 352.476299 139.198975 
L 353.034301 138.86574 
L 353.592303 138.237825 
L 354.708308 136.494828 
L 355.26631 135.886817 
L 355.824312 135.741536 
L 356.382315 136.061415 
L 358.056322 137.783974 
L 359.730328 138.833244 
L 361.404335 140.532655 
L 361.962337 140.44959 
L 362.52034 139.788898 
L 363.636344 137.736502 
L 364.194346 137.172775 
L 364.752349 137.293853 
L 365.310351 138.040326 
L 366.426356 140.149926 
L 366.984358 140.938864 
L 368.658365 142.744753 
L 369.774369 144.322292 
L 370.332371 144.514579 
L 370.890374 143.860293 
L 371.448376 142.364731 
L 372.564381 138.573395 
L 373.122383 137.38216 
L 373.680385 137.000843 
L 374.79639 137.403897 
L 375.354392 137.229146 
L 375.912394 136.547371 
L 376.470396 135.674336 
L 377.028399 135.160917 
L 377.586401 135.440971 
L 378.144403 136.519877 
L 378.702405 137.89788 
L 379.260408 138.793552 
L 379.81841 138.557981 
L 380.376412 137.05099 
L 381.492417 132.577205 
L 382.050419 131.348716 
L 382.608421 131.429332 
L 383.724426 133.723597 
L 384.282428 134.226255 
L 384.84043 133.534829 
L 386.514437 128.6295 
L 387.072439 128.633949 
L 387.630442 129.945844 
L 388.746446 134.147926 
L 389.304449 135.638195 
L 389.862451 136.286671 
L 390.420453 136.27561 
L 392.09446 135.371365 
L 392.652462 134.859771 
L 393.210464 133.874664 
L 393.768467 132.325177 
L 395.442474 126.843158 
L 396.000476 125.852383 
L 396.558478 125.498959 
L 397.11648 125.71617 
L 397.674483 126.465288 
L 398.232485 127.795666 
L 398.790487 129.767297 
L 400.464494 137.029843 
L 401.022496 137.855752 
L 401.580498 136.949963 
L 402.138501 134.400058 
L 403.254505 127.32301 
L 403.812508 124.682973 
L 404.37051 123.421118 
L 404.928512 123.477899 
L 405.486514 124.431914 
L 406.602519 127.508736 
L 407.160521 129.554216 
L 408.276526 135.215605 
L 408.834528 138.138552 
L 409.39253 139.912652 
L 409.950532 139.515084 
L 410.508535 136.440671 
L 411.624539 124.622479 
L 412.182542 118.757474 
L 412.740544 114.879593 
L 413.298546 113.616463 
L 413.856548 114.650887 
L 415.530555 121.783466 
L 416.64656 125.412137 
L 417.204562 127.82108 
L 418.320567 133.983155 
L 418.878569 136.240807 
L 419.436571 136.695521 
L 419.994573 134.889673 
L 420.552576 131.072259 
L 422.226582 116.991197 
L 422.784585 114.355403 
L 423.342587 113.259442 
L 423.900589 113.472466 
L 424.458591 114.652063 
L 425.574596 118.634329 
L 426.690601 122.654999 
L 427.248603 123.79083 
L 427.806605 124.013274 
L 428.364607 123.359357 
L 430.596616 118.649897 
L 431.154619 118.153429 
L 431.712621 117.925675 
L 432.270623 117.989491 
L 432.828625 118.545967 
L 433.386628 119.884061 
L 433.94463 122.159943 
L 435.618637 130.757066 
L 436.176639 131.706202 
L 436.734641 130.876551 
L 437.292644 128.597757 
L 438.408648 123.26521 
L 438.96665 122.01172 
L 439.524653 122.214103 
L 440.082655 123.586225 
L 441.19866 127.446641 
L 441.756662 129.003385 
L 442.314664 130.145541 
L 442.872666 130.958439 
L 443.430669 131.443879 
L 443.988671 131.38038 
L 444.546673 130.352241 
L 445.104675 127.923786 
L 445.662678 123.845983 
L 446.22068 118.169076 
L 447.336684 103.352992 
L 450.126696 61.526111 
L 450.684698 55.477771 
L 451.2427 51.758463 
L 451.800703 50.857196 
L 452.358705 52.802935 
L 452.916707 57.136328 
L 454.032712 69.75847 
L 455.706719 89.341929 
L 457.380725 106.6861 
L 458.49673 116.546629 
L 459.612734 124.488748 
L 460.728739 131.096301 
L 461.844743 136.619903 
L 462.960748 140.75738 
L 464.634755 145.352403 
L 465.750759 147.873031 
L 466.308762 148.748346 
L 466.866764 149.299657 
L 467.982768 149.811875 
L 468.540771 150.077442 
L 469.656775 150.949952 
L 470.77278 151.752345 
L 473.004789 152.614039 
L 474.120793 153.383997 
L 474.678796 153.568491 
L 475.236798 153.482736 
L 476.352802 152.698302 
L 477.468807 151.937422 
L 478.584812 151.433605 
L 479.142814 151.053324 
L 480.258818 149.870254 
L 481.374823 148.670268 
L 482.490827 147.70857 
L 483.04883 147.089869 
L 484.164834 145.312324 
L 485.280839 143.627082 
L 485.838841 143.220267 
L 486.396843 143.138455 
L 488.07085 143.433439 
L 489.186855 143.335905 
L 489.744857 143.425593 
L 490.302859 143.714069 
L 491.976866 144.903231 
L 492.534868 145.004439 
L 493.650873 144.90563 
L 494.208875 144.998321 
L 494.766877 145.29318 
L 495.882882 146.126969 
L 496.440884 146.351003 
L 496.998886 146.32874 
L 498.672893 145.830174 
L 499.230895 145.999647 
L 501.462905 147.52648 
L 503.694914 148.102876 
L 505.36892 148.923529 
L 506.484925 149.044889 
L 507.600929 149.169995 
L 510.390941 150.103785 
L 512.064948 150.036112 
L 514.854959 150.37714 
L 517.64497 149.751862 
L 519.876979 149.926263 
L 521.550986 149.897144 
L 526.015004 149.216588 
L 526.573007 148.904258 
L 527.689011 147.940895 
L 528.805016 146.977194 
L 529.363018 146.675276 
L 530.479022 146.446208 
L 531.595027 146.275923 
L 532.711032 145.772439 
L 533.827036 145.157568 
L 534.943041 144.797786 
L 538.291054 144.38654 
L 539.407059 144.194361 
L 540.523063 143.661337 
L 541.639068 143.011663 
L 542.19707 142.88961 
L 542.755072 143.002435 
L 543.871077 143.756313 
L 544.429079 144.140139 
L 544.987081 144.356356 
L 545.545084 144.365608 
L 547.219091 143.96103 
L 549.4511 144.031845 
L 551.125106 143.347272 
L 551.683109 143.398469 
L 552.241111 143.719668 
L 553.915118 145.196212 
L 554.47312 145.418919 
L 556.147127 145.696734 
L 557.263131 146.485801 
L 557.821134 146.930851 
L 558.379136 147.226911 
L 558.937138 147.30886 
L 560.611145 147.048178 
L 561.169147 147.17389 
L 563.401156 148.186959 
L 565.075163 148.548659 
L 566.191168 148.968583 
L 566.74917 149.025267 
L 567.307172 148.871626 
L 568.981179 147.825983 
L 569.539181 147.738254 
L 570.097184 147.881283 
L 571.213188 148.413431 
L 571.77119 148.519552 
L 572.329193 148.440052 
L 573.445197 148.058534 
L 574.003199 147.995728 
L 575.119204 148.272473 
L 575.677206 148.434123 
L 576.235208 148.466577 
L 576.793211 148.329113 
L 579.583222 147.058018 
L 581.257229 146.38698 
L 582.373233 146.018457 
L 583.489238 146.087881 
L 584.605243 146.318602 
L 585.721247 146.295869 
L 587.395254 146.061744 
L 589.069261 146.076836 
L 592.417274 146.253201 
L 593.533279 145.795305 
L 594.649283 145.209609 
L 595.765288 144.848048 
L 596.881292 144.526793 
L 598.555299 143.890771 
L 599.113301 143.895174 
L 599.671304 144.103537 
L 601.345311 145.265464 
L 601.903313 145.458562 
L 602.461315 145.458519 
L 603.57732 145.076529 
L 605.809329 143.977677 
L 608.59934 141.88972 
L 609.157342 141.77564 
L 610.273347 141.886387 
L 612.505356 142.541026 
L 613.62136 142.813333 
L 614.179363 142.817749 
L 614.737365 142.692961 
L 615.85337 142.111496 
L 617.527376 141.091465 
L 618.643381 140.640991 
L 620.317388 140.294432 
L 621.433392 140.097862 
L 622.549397 139.582944 
L 624.781406 138.014539 
L 625.89741 137.782779 
L 628.129419 137.828702 
L 628.687422 137.928094 
L 629.803426 138.475013 
L 631.477433 139.610479 
L 632.593438 139.964174 
L 634.267444 140.306708 
L 635.941451 140.753668 
L 638.17346 141.13292 
L 640.405469 142.110392 
L 640.963472 142.171008 
L 641.521474 142.08851 
L 642.637478 141.552731 
L 644.869487 140.101893 
L 645.985492 139.846686 
L 647.659499 139.750755 
L 648.775503 139.255562 
L 650.44951 138.29903 
L 654.355526 137.005446 
L 654.913528 137.144197 
L 656.029533 137.906001 
L 657.145537 138.678639 
L 658.261542 139.02496 
L 659.377546 139.34658 
L 660.493551 140.031575 
L 664.957569 143.265373 
L 665.515571 143.451636 
L 666.073574 143.450768 
L 668.305583 142.837019 
L 669.421587 143.055214 
L 670.537592 143.359621 
L 673.327603 143.84277 
L 675.559612 144.700917 
L 676.675617 144.880576 
L 677.791621 144.829165 
L 679.465628 144.361709 
L 680.581633 144.125014 
L 681.139635 144.1461 
L 681.697637 144.285821 
L 682.813642 144.90758 
L 685.045651 146.66583 
L 685.603653 146.863148 
L 686.161655 146.858826 
L 687.27766 146.413542 
L 687.835662 146.185175 
L 688.393664 146.102648 
L 688.951667 146.209647 
L 690.625674 146.921474 
L 691.183676 146.905619 
L 691.741678 146.689696 
L 693.415685 145.728524 
L 694.531689 145.493206 
L 695.647694 145.297185 
L 697.321701 144.884202 
L 698.437705 145.070395 
L 699.55371 145.360655 
L 700.111712 145.350253 
L 702.901723 144.732909 
L 704.57573 145.084639 
L 706.249737 145.705086 
L 707.365742 146.082291 
L 707.923744 146.075377 
L 709.039748 145.616183 
L 709.597751 145.34575 
L 710.155753 145.215559 
L 710.713755 145.293582 
L 712.387762 146.066708 
L 712.945764 146.061744 
L 713.503767 145.82758 
L 714.619771 145.087326 
L 715.177773 144.868584 
L 715.735776 144.866936 
L 716.293778 145.065543 
L 718.525787 146.320313 
L 719.641791 146.636115 
L 720.199794 146.631158 
L 720.757796 146.454814 
L 721.315798 146.086912 
L 722.989805 144.531361 
L 723.547807 144.247798 
L 724.10581 144.176052 
L 725.779816 144.286298 
L 726.337819 144.084056 
L 728.011825 143.088358 
L 729.12783 142.865999 
L 730.801837 142.718532 
L 731.917841 142.501473 
L 733.033846 142.543938 
L 734.14985 142.659007 
L 735.265855 142.473692 
L 736.38186 142.291528 
L 737.497864 142.548187 
L 738.613869 142.91389 
L 740.845878 143.24207 
L 741.40388 143.628198 
L 743.077887 145.117042 
L 743.635889 145.342367 
L 745.867898 145.589582 
L 747.541905 146.525698 
L 748.099907 146.543972 
L 748.657909 146.308679 
L 750.331916 145.177956 
L 750.889918 145.10508 
L 751.447921 145.25494 
L 753.121928 146.122722 
L 753.67993 146.247999 
L 754.237932 146.239616 
L 755.353937 145.915209 
L 757.027943 144.990346 
L 758.143948 144.427474 
L 758.70195 144.316538 
L 759.259953 144.363077 
L 760.375957 144.807559 
L 761.491962 145.207898 
L 762.049964 145.217252 
L 762.607966 145.077051 
L 763.723971 144.491908 
L 765.95598 143.223335 
L 767.071984 142.856121 
L 768.187989 142.86373 
L 769.303993 143.243505 
L 770.978 143.845907 
L 772.094005 143.958117 
L 773.210009 143.895743 
L 774.326014 143.668252 
L 776.000021 143.195188 
L 776.558023 143.223139 
L 777.116025 143.44742 
L 777.674027 143.867343 
L 777.674027 143.867343 
" style="fill:none;opacity:0.95;stroke:#999999;stroke-linecap:round;stroke-width:1.5;"/>
   </g>
   <g id="line2d_2">
    <path clip-path="url(#p995da8ae34)" d="M 108.071305 172.448737 
L 109.745312 172.323616 
L 110.861317 172.461795 
L 113.093326 172.864809 
L 114.20933 172.771436 
L 116.999342 172.075267 
L 118.115346 172.153958 
L 121.46336 172.958707 
L 122.579364 172.793794 
L 124.811373 172.204279 
L 125.927378 172.163247 
L 127.601385 172.458571 
L 129.275391 172.745255 
L 130.949398 172.715675 
L 134.855414 172.31229 
L 136.529421 172.415325 
L 139.319432 172.739344 
L 140.435437 172.692403 
L 143.78345 172.266377 
L 144.899455 172.397636 
L 147.131464 172.774838 
L 148.247469 172.702134 
L 151.03748 172.199778 
L 152.153484 172.340791 
L 154.385494 172.905177 
L 155.501498 172.861672 
L 156.617503 172.530811 
L 158.291509 172.028406 
L 159.407514 172.064038 
L 160.523519 172.424787 
L 162.197525 173.012979 
L 163.31353 173.041758 
L 164.429534 172.726728 
L 166.103541 172.111962 
L 167.219546 171.99098 
L 168.33555 172.194973 
L 170.567559 172.874928 
L 171.683564 172.936903 
L 172.799568 172.749429 
L 175.031577 172.230714 
L 176.147582 172.203133 
L 177.821589 172.47474 
L 179.495596 172.733654 
L 180.6116 172.717313 
L 184.517616 172.365441 
L 187.86563 172.705575 
L 189.539636 172.451787 
L 191.213643 172.221239 
L 192.329648 172.319308 
L 195.119659 172.915499 
L 196.235664 172.810132 
L 199.025675 172.049061 
L 200.14168 172.124891 
L 201.815686 172.680313 
L 202.931691 172.968149 
L 204.047695 172.938656 
L 205.721702 172.423136 
L 206.837707 172.130642 
L 207.953711 172.125696 
L 209.627718 172.557903 
L 210.743723 172.81351 
L 211.859727 172.826301 
L 213.533734 172.477774 
L 214.649739 172.275228 
L 215.765743 172.272948 
L 219.671759 172.714384 
L 223.577775 172.330901 
L 227.483791 172.690088 
L 231.947809 172.382793 
L 235.295822 172.697688 
L 236.969829 172.501519 
L 238.643836 172.314446 
L 240.317843 172.428979 
L 242.549852 172.71882 
L 243.665857 172.677292 
L 247.01387 172.314312 
L 248.687877 172.531603 
L 250.361884 172.724628 
L 251.477888 172.65837 
L 254.2679 172.28107 
L 255.383904 172.363848 
L 258.173915 172.77177 
L 259.28992 172.687082 
L 262.079931 172.251086 
L 263.195936 172.321148 
L 265.985947 172.766337 
L 267.101952 172.716265 
L 270.449965 172.249421 
L 271.56597 172.376224 
L 273.797979 172.811712 
L 274.913984 172.809854 
L 276.029988 172.589092 
L 277.703995 172.154366 
L 278.819999 172.08914 
L 279.936004 172.313987 
L 282.168013 173.028452 
L 283.284018 173.034686 
L 284.400022 172.692144 
L 286.074029 171.998652 
L 287.190033 171.859226 
L 288.306038 172.136436 
L 290.538047 173.102368 
L 291.654052 173.169045 
L 292.770056 172.827524 
L 294.444063 172.091323 
L 295.560067 171.905307 
L 296.676072 172.100179 
L 298.908081 172.867453 
L 300.024086 172.959858 
L 301.14009 172.788051 
L 303.372099 172.311075 
L 305.046106 172.301739 
L 310.068126 172.63628 
L 312.300136 172.642961 
L 316.764154 172.309692 
L 320.67017 172.800234 
L 322.344176 172.489786 
L 324.018183 172.199875 
L 325.134188 172.230793 
L 329.040204 172.816354 
L 330.71421 172.604646 
L 332.946219 172.292948 
L 334.620226 172.334651 
L 339.084244 172.654506 
L 341.874256 172.670626 
L 343.548263 172.489033 
L 346.338274 172.085563 
L 347.454278 172.179333 
L 348.570283 172.491446 
L 350.802292 173.225006 
L 351.918297 173.219212 
L 353.034301 172.811966 
L 355.26631 171.543183 
L 355.824312 171.390615 
L 356.382315 171.384957 
L 356.940317 171.541075 
L 358.056322 172.281186 
L 359.730328 173.691523 
L 360.288331 173.964216 
L 360.846333 174.040543 
L 361.404335 173.896562 
L 361.962337 173.541187 
L 363.078342 172.395335 
L 364.194346 171.226661 
L 364.752349 170.86101 
L 365.310351 170.731031 
L 365.868353 170.862735 
L 366.426356 171.241427 
L 367.54236 172.491787 
L 368.658365 173.755928 
L 369.216367 174.148017 
L 369.774369 174.292788 
L 370.332371 174.172631 
L 370.890374 173.812648 
L 372.006378 172.651387 
L 373.122383 171.533559 
L 373.680385 171.204522 
L 374.238387 171.089983 
L 374.79639 171.189351 
L 375.912394 171.858009 
L 377.028399 172.682564 
L 378.144403 173.157984 
L 379.260408 173.147364 
L 381.492417 172.775564 
L 383.724426 172.892558 
L 384.282428 172.772921 
L 385.398433 172.153088 
L 387.072439 170.908017 
L 387.630442 170.752932 
L 388.188444 170.871919 
L 388.746446 171.303171 
L 389.304449 172.029383 
L 391.536458 175.604687 
L 392.09446 175.848713 
L 392.652462 175.56669 
L 393.210464 174.73988 
L 393.768467 173.444899 
L 395.442474 168.761844 
L 396.000476 167.809022 
L 396.558478 167.545606 
L 397.11648 168.07688 
L 397.674483 169.379555 
L 398.790487 173.548931 
L 399.906492 177.634988 
L 400.464494 178.761765 
L 401.022496 178.938547 
L 401.580498 178.084825 
L 402.138501 176.289751 
L 404.37051 166.252561 
L 404.928512 165.090387 
L 405.486514 165.072785 
L 406.044517 166.231832 
L 406.602519 168.407723 
L 408.834528 179.401042 
L 409.39253 180.514998 
L 409.950532 180.402692 
L 410.508535 179.078084 
L 411.066537 176.746017 
L 412.740544 167.742817 
L 413.298546 165.614898 
L 413.856548 164.538758 
L 414.414551 164.666959 
L 414.972553 165.967032 
L 415.530555 168.229714 
L 417.204562 176.917045 
L 417.762564 178.991903 
L 418.320567 180.078059 
L 418.878569 180.028598 
L 419.436571 178.867406 
L 419.994573 176.783066 
L 422.226582 166.578433 
L 422.784585 165.493246 
L 423.342587 165.479731 
L 423.900589 166.524597 
L 424.458591 168.454417 
L 426.690601 177.9903 
L 427.248603 178.972293 
L 427.806605 178.936089 
L 428.364607 177.906354 
L 428.92261 176.0636 
L 430.596616 169.030357 
L 431.154619 167.433657 
L 431.712621 166.685546 
L 432.270623 166.881457 
L 432.828625 167.962163 
L 433.386628 169.727066 
L 435.060635 175.87392 
L 435.618637 177.10225 
L 436.176639 177.548405 
L 436.734641 177.174599 
L 437.292644 176.0785 
L 438.408648 172.636998 
L 439.524653 169.485242 
L 440.082655 168.647895 
L 440.640657 168.470195 
L 441.19866 168.937994 
L 441.756662 169.933012 
L 443.430669 173.967703 
L 443.430669 173.967703 
" style="fill:none;stroke:#1a1a1a;stroke-linecap:round;stroke-width:1.5;"/>
   </g>
   <g id="line2d_3">
    <path clip-path="url(#p995da8ae34)" d="M 543.871077 174.924425 
L 544.429079 175.42938 
L 544.987081 175.443526 
L 545.545084 175.010553 
L 546.661088 173.291719 
L 547.777093 171.498339 
L 548.335095 170.917419 
L 548.893097 170.64257 
L 549.4511 170.675979 
L 550.009102 170.970542 
L 551.125106 171.999368 
L 552.241111 172.988646 
L 552.799113 173.295961 
L 553.357115 173.443817 
L 553.915118 173.442701 
L 555.031122 173.131099 
L 556.705129 172.504857 
L 557.821134 172.26765 
L 559.49514 172.175028 
L 561.727149 172.308847 
L 565.633165 172.850318 
L 567.307172 172.661017 
L 569.539181 172.274887 
L 571.213188 172.285477 
L 575.677206 172.708604 
L 577.909215 172.535283 
L 580.699227 172.307116 
L 582.373233 172.449327 
L 584.605243 172.754106 
L 585.721247 172.74517 
L 587.395254 172.478816 
L 589.069261 172.22274 
L 590.185265 172.244201 
L 591.859272 172.55449 
L 593.533279 172.837873 
L 594.649283 172.823194 
L 596.32329 172.511696 
L 597.997297 172.194164 
L 599.113301 172.164861 
L 600.787308 172.428002 
L 603.019317 172.866074 
L 604.135322 172.88294 
L 605.809329 172.588091 
L 608.041338 172.10871 
L 609.157342 172.112435 
L 610.273347 172.329292 
L 612.505356 172.921795 
L 613.62136 172.970555 
L 614.737365 172.767295 
L 616.969374 172.131185 
L 618.085379 172.060245 
L 619.201383 172.24348 
L 621.991394 172.909797 
L 623.107399 172.872718 
L 624.781406 172.509232 
L 626.455413 172.19264 
L 627.571417 172.18439 
L 629.245424 172.456986 
L 631.477433 172.835769 
L 632.593438 172.814554 
L 634.267444 172.50152 
L 635.941451 172.17852 
L 637.057456 172.17293 
L 638.17346 172.374014 
L 640.405469 172.885116 
L 641.521474 172.868832 
L 643.195481 172.459262 
L 644.311485 172.183364 
L 645.42749 172.125966 
L 646.543494 172.327788 
L 648.775503 172.874433 
L 649.891508 172.844019 
L 651.565515 172.427056 
L 652.681519 172.190749 
L 653.797524 172.190047 
L 655.471531 172.569125 
L 656.587535 172.807166 
L 657.70354 172.832641 
L 659.377546 172.499704 
L 661.051553 172.209568 
L 662.167558 172.256928 
L 665.515571 172.767995 
L 667.189578 172.658298 
L 670.537592 172.31925 
L 672.769601 172.390948 
L 676.675617 172.810373 
L 677.791621 172.667306 
L 680.581633 172.130487 
L 681.697637 172.236874 
L 684.487649 172.887938 
L 685.603653 172.817533 
L 688.393664 172.204085 
L 689.509669 172.270877 
L 692.29968 172.765166 
L 693.415685 172.66866 
L 695.647694 172.297571 
L 696.763698 172.338621 
L 699.55371 172.724848 
L 701.227717 172.580779 
L 702.901723 172.378579 
L 704.57573 172.419321 
L 706.807739 172.543263 
L 710.155753 172.563693 
L 712.387762 172.657475 
L 714.061769 172.439646 
L 715.735776 172.228487 
L 716.85178 172.312693 
L 719.641791 172.854857 
L 720.757796 172.77456 
L 723.547807 172.200827 
L 724.663812 172.26406 
L 727.453823 172.757232 
L 728.569828 172.706897 
L 731.359839 172.340893 
L 733.033846 172.43479 
L 735.265855 172.628286 
L 737.497864 172.567324 
L 741.961882 172.380982 
L 743.635889 172.50603 
L 745.867898 172.783393 
L 746.983903 172.739546 
L 748.657909 172.366473 
L 749.773914 172.128331 
L 750.889918 172.121903 
L 752.005923 172.397735 
L 753.67993 172.96011 
L 754.795934 173.050646 
L 755.911939 172.77763 
L 758.143948 171.93799 
L 759.259953 171.941085 
L 760.375957 172.323001 
L 762.049964 173.042878 
L 763.165968 173.168457 
L 764.281973 172.882514 
L 766.513982 171.945389 
L 767.629987 171.873316 
L 768.745991 172.1872 
L 770.978 173.075664 
L 772.094005 173.121757 
L 773.210009 172.812194 
L 775.442018 171.994937 
L 776.558023 171.966636 
L 777.116025 172.079714 
L 777.116025 172.079714 
" style="fill:none;stroke:#1a1a1a;stroke-linecap:round;stroke-width:1.5;"/>
   </g>
   <g id="line2d_4">
    <path clip-path="url(#p995da8ae34)" d="M 108.071305 211.061849 
L 127.601385 210.997872 
L 142.667446 211.056157 
L 174.473575 210.953883 
L 186.749625 211.04691 
L 212.417729 210.986161 
L 230.831804 211.119436 
L 265.985947 211.038505 
L 279.936004 210.840061 
L 291.096049 210.729914 
L 300.024086 210.89022 
L 311.184131 211.077082 
L 339.084244 211.022911 
L 345.780272 210.812918 
L 354.708308 210.277457 
L 363.078342 209.831346 
L 368.100362 209.790543 
L 374.79639 210.012095 
L 379.260408 210.066553 
L 382.608421 209.86077 
L 385.398433 209.467194 
L 388.746446 208.737666 
L 392.652462 207.63687 
L 401.022496 205.193313 
L 404.37051 204.454627 
L 407.718523 203.945109 
L 411.066537 203.67938 
L 414.414551 203.638917 
L 418.320567 203.822391 
L 422.784585 204.250649 
L 428.364607 205.011175 
L 434.502632 206.081229 
L 441.756662 207.60184 
L 443.430669 207.972407 
L 443.430669 207.972407 
" style="fill:none;stroke:#ff0000;stroke-linecap:round;stroke-width:1.5;"/>
   </g>
   <g id="line2d_5">
    <path clip-path="url(#p995da8ae34)" d="M 543.871077 208.095755 
L 550.567104 209.479426 
L 555.031122 210.185572 
L 559.49514 210.646138 
L 564.517161 210.910477 
L 572.329193 211.052705 
L 585.163245 211.052636 
L 621.433392 210.906406 
L 644.869487 210.937884 
L 696.205696 211.088707 
L 710.713755 211.136798 
L 728.011825 211.08234 
L 741.40388 211.099422 
L 756.469941 210.773694 
L 767.071984 210.690177 
L 777.116025 210.800312 
L 777.116025 210.800312 
" style="fill:none;stroke:#ff0000;stroke-linecap:round;stroke-width:1.5;"/>
   </g>
   <g id="patch_3">
    <path d="M 108 256.32 
L 108 34.56 
" style="fill:none;"/>
   </g>
   <g id="patch_4">
    <path d="M 777.6 256.32 
L 777.6 34.56 
" style="fill:none;"/>
   </g>
   <g id="patch_5">
    <path d="M 108 256.32 
L 777.6 256.32 
" style="fill:none;"/>
   </g>
   <g id="patch_6">
    <path d="M 108 34.56 
L 777.6 34.56 
" style="fill:none;"/>
   </g>
   <g id="patch_7">
    <path d="M 27.734567 247.938437 
L 27.734567 247.938437 
L 27.734567 247.938437 
L 27.734567 247.938437 
M 27.734567 247.938437 
Q 34.106594 247.938437 40.478622 247.938437 
M 40.478622 247.938437 
L 40.478622 247.938437 
L 40.478622 247.938437 
L 40.478622 247.938437 
" style="fill:none;"/>
   </g>
   <g id="patch_8">
    <path d="M 25.736066 245.934807 
L 25.736066 245.934807 
L 25.736066 245.934807 
L 25.736066 245.934807 
M 25.736066 245.934807 
Q 25.736066 238.236129 25.736066 230.537451 
M 25.736066 230.537451 
L 25.736066 230.537451 
L 25.736066 230.537451 
L 25.736066 230.537451 
" style="fill:none;"/>
   </g>
   <g id="text_1">
    <!-- 10 ms -->
    <defs>
     <path d="M 37.25 0 
L 28.46875 0 
L 28.46875 56 
Q 25.296875 52.984375 20.140625 49.953125 
Q 14.984375 46.921875 10.890625 45.40625 
L 10.890625 53.90625 
Q 18.265625 57.375 23.78125 62.296875 
Q 29.296875 67.234375 31.59375 71.875 
L 37.25 71.875 
z
" id="ArialMT-31"/>
     <path d="M 4.15625 35.296875 
Q 4.15625 48 6.765625 55.734375 
Q 9.375 63.484375 14.515625 67.671875 
Q 19.671875 71.875 27.484375 71.875 
Q 33.25 71.875 37.59375 69.546875 
Q 41.9375 67.234375 44.765625 62.859375 
Q 47.609375 58.5 49.21875 52.21875 
Q 50.828125 45.953125 50.828125 35.296875 
Q 50.828125 22.703125 48.234375 14.96875 
Q 45.65625 7.234375 40.5 3 
Q 35.359375 -1.21875 27.484375 -1.21875 
Q 17.140625 -1.21875 11.234375 6.203125 
Q 4.15625 15.140625 4.15625 35.296875 
M 13.1875 35.296875 
Q 13.1875 17.671875 17.3125 11.828125 
Q 21.4375 6 27.484375 6 
Q 33.546875 6 37.671875 11.859375 
Q 41.796875 17.71875 41.796875 35.296875 
Q 41.796875 52.984375 37.671875 58.78125 
Q 33.546875 64.59375 27.390625 64.59375 
Q 21.34375 64.59375 17.71875 59.46875 
Q 13.1875 52.9375 13.1875 35.296875 
" id="ArialMT-30"/>
     <path id="ArialMT-20"/>
     <path d="M 6.59375 0 
L 6.59375 51.859375 
L 14.453125 51.859375 
L 14.453125 44.578125 
Q 16.890625 48.390625 20.9375 50.703125 
Q 25 53.03125 30.171875 53.03125 
Q 35.9375 53.03125 39.625 50.640625 
Q 43.3125 48.25 44.828125 43.953125 
Q 50.984375 53.03125 60.84375 53.03125 
Q 68.5625 53.03125 72.703125 48.75 
Q 76.859375 44.484375 76.859375 35.59375 
L 76.859375 0 
L 68.109375 0 
L 68.109375 32.671875 
Q 68.109375 37.9375 67.25 40.25 
Q 66.40625 42.578125 64.15625 43.984375 
Q 61.921875 45.40625 58.890625 45.40625 
Q 53.421875 45.40625 49.796875 41.765625 
Q 46.1875 38.140625 46.1875 30.125 
L 46.1875 0 
L 37.40625 0 
L 37.40625 33.6875 
Q 37.40625 39.546875 35.25 42.46875 
Q 33.109375 45.40625 28.21875 45.40625 
Q 24.515625 45.40625 21.359375 43.453125 
Q 18.21875 41.5 16.796875 37.734375 
Q 15.375 33.984375 15.375 26.90625 
L 15.375 0 
z
" id="ArialMT-6d"/>
     <path d="M 3.078125 15.484375 
L 11.765625 16.84375 
Q 12.5 11.625 15.84375 8.84375 
Q 19.1875 6.0625 25.203125 6.0625 
Q 31.25 6.0625 34.171875 8.515625 
Q 37.109375 10.984375 37.109375 14.3125 
Q 37.109375 17.28125 34.515625 19 
Q 32.71875 20.171875 25.53125 21.96875 
Q 15.875 24.421875 12.140625 26.203125 
Q 8.40625 27.984375 6.46875 31.125 
Q 4.546875 34.28125 4.546875 38.09375 
Q 4.546875 41.546875 6.125 44.5 
Q 7.71875 47.46875 10.453125 49.421875 
Q 12.5 50.921875 16.03125 51.96875 
Q 19.578125 53.03125 23.640625 53.03125 
Q 29.734375 53.03125 34.34375 51.265625 
Q 38.96875 49.515625 41.15625 46.5 
Q 43.359375 43.5 44.1875 38.484375 
L 35.59375 37.3125 
Q 35.015625 41.3125 32.203125 43.546875 
Q 29.390625 45.796875 24.265625 45.796875 
Q 18.21875 45.796875 15.625 43.796875 
Q 13.03125 41.796875 13.03125 39.109375 
Q 13.03125 37.40625 14.109375 36.03125 
Q 15.1875 34.625 17.484375 33.6875 
Q 18.796875 33.203125 25.25 31.453125 
Q 34.578125 28.953125 38.25 27.359375 
Q 41.9375 25.78125 44.03125 22.75 
Q 46.140625 19.734375 46.140625 15.234375 
Q 46.140625 10.84375 43.578125 6.953125 
Q 41.015625 3.078125 36.171875 0.953125 
Q 31.34375 -1.171875 25.25 -1.171875 
Q 15.140625 -1.171875 9.84375 3.03125 
Q 4.546875 7.234375 3.078125 15.484375 
" id="ArialMT-73"/>
    </defs>
    <g style="fill:#1a1a1a;" transform="translate(8.600625 262.8225)scale(0.18 -0.18)">
     <use xlink:href="#ArialMT-31"/>
     <use x="55.615234" xlink:href="#ArialMT-30"/>
     <use x="111.230469" xlink:href="#ArialMT-20"/>
     <use x="139.013672" xlink:href="#ArialMT-6d"/>
     <use x="222.314453" xlink:href="#ArialMT-73"/>
    </g>
   </g>
   <g id="text_2">
    <!-- 500 units -->
    <defs>
     <path d="M 4.15625 18.75 
L 13.375 19.53125 
Q 14.40625 12.796875 18.140625 9.390625 
Q 21.875 6 27.15625 6 
Q 33.5 6 37.890625 10.78125 
Q 42.28125 15.578125 42.28125 23.484375 
Q 42.28125 31 38.0625 35.34375 
Q 33.84375 39.703125 27 39.703125 
Q 22.75 39.703125 19.328125 37.765625 
Q 15.921875 35.84375 13.96875 32.765625 
L 5.71875 33.84375 
L 12.640625 70.609375 
L 48.25 70.609375 
L 48.25 62.203125 
L 19.671875 62.203125 
L 15.828125 42.96875 
Q 22.265625 47.46875 29.34375 47.46875 
Q 38.71875 47.46875 45.15625 40.96875 
Q 51.609375 34.46875 51.609375 24.265625 
Q 51.609375 14.546875 45.953125 7.46875 
Q 39.0625 -1.21875 27.15625 -1.21875 
Q 17.390625 -1.21875 11.203125 4.25 
Q 5.03125 9.71875 4.15625 18.75 
" id="ArialMT-35"/>
     <path d="M 40.578125 0 
L 40.578125 7.625 
Q 34.515625 -1.171875 24.125 -1.171875 
Q 19.53125 -1.171875 15.546875 0.578125 
Q 11.578125 2.34375 9.640625 5 
Q 7.71875 7.671875 6.9375 11.53125 
Q 6.390625 14.109375 6.390625 19.734375 
L 6.390625 51.859375 
L 15.1875 51.859375 
L 15.1875 23.09375 
Q 15.1875 16.21875 15.71875 13.8125 
Q 16.546875 10.359375 19.234375 8.375 
Q 21.921875 6.390625 25.875 6.390625 
Q 29.828125 6.390625 33.296875 8.421875 
Q 36.765625 10.453125 38.203125 13.9375 
Q 39.65625 17.4375 39.65625 24.078125 
L 39.65625 51.859375 
L 48.4375 51.859375 
L 48.4375 0 
z
" id="ArialMT-75"/>
     <path d="M 6.59375 0 
L 6.59375 51.859375 
L 14.5 51.859375 
L 14.5 44.484375 
Q 20.21875 53.03125 31 53.03125 
Q 35.6875 53.03125 39.625 51.34375 
Q 43.5625 49.65625 45.515625 46.921875 
Q 47.46875 44.1875 48.25 40.4375 
Q 48.734375 37.984375 48.734375 31.890625 
L 48.734375 0 
L 39.9375 0 
L 39.9375 31.546875 
Q 39.9375 36.921875 38.90625 39.578125 
Q 37.890625 42.234375 35.28125 43.8125 
Q 32.671875 45.40625 29.15625 45.40625 
Q 23.53125 45.40625 19.453125 41.84375 
Q 15.375 38.28125 15.375 28.328125 
L 15.375 0 
z
" id="ArialMT-6e"/>
     <path d="M 6.640625 61.46875 
L 6.640625 71.578125 
L 15.4375 71.578125 
L 15.4375 61.46875 
z
M 6.640625 0 
L 6.640625 51.859375 
L 15.4375 51.859375 
L 15.4375 0 
z
" id="ArialMT-69"/>
     <path d="M 25.78125 7.859375 
L 27.046875 0.09375 
Q 23.34375 -0.6875 20.40625 -0.6875 
Q 15.625 -0.6875 12.984375 0.828125 
Q 10.359375 2.34375 9.28125 4.8125 
Q 8.203125 7.28125 8.203125 15.1875 
L 8.203125 45.015625 
L 1.765625 45.015625 
L 1.765625 51.859375 
L 8.203125 51.859375 
L 8.203125 64.703125 
L 16.9375 69.96875 
L 16.9375 51.859375 
L 25.78125 51.859375 
L 25.78125 45.015625 
L 16.9375 45.015625 
L 16.9375 14.703125 
Q 16.9375 10.9375 17.40625 9.859375 
Q 17.875 8.796875 18.921875 8.15625 
Q 19.96875 7.515625 21.921875 7.515625 
Q 23.390625 7.515625 25.78125 7.859375 
" id="ArialMT-74"/>
    </defs>
    <g style="fill:#1a1a1a;" transform="translate(1.6 242.391226)scale(0.18 -0.18)">
     <use xlink:href="#ArialMT-35"/>
     <use x="55.615234" xlink:href="#ArialMT-30"/>
     <use x="111.230469" xlink:href="#ArialMT-30"/>
     <use x="166.845703" xlink:href="#ArialMT-20"/>
     <use x="194.628906" xlink:href="#ArialMT-75"/>
     <use x="250.244141" xlink:href="#ArialMT-6e"/>
     <use x="305.859375" xlink:href="#ArialMT-69"/>
     <use x="328.076172" xlink:href="#ArialMT-74"/>
     <use x="355.859375" xlink:href="#ArialMT-73"/>
    </g>
   </g>
   <g id="patch_9">
    <path d="M 81.647563 244.938437 
L 81.647563 244.938437 
L 81.647563 244.938437 
L 81.647563 244.938437 
M 81.647563 244.938437 
Q 88.019591 244.938437 94.391618 244.938437 
M 94.391618 247.938437 
L 94.391618 247.938437 
L 94.391618 241.938437 
L 94.391618 241.938437 
" style="fill:none;stroke:#1a1a1a;stroke-linecap:round;stroke-width:1.5;"/>
   </g>
   <g id="patch_10">
    <path d="M 79.649062 242.934807 
L 79.649062 242.934807 
L 79.649062 242.934807 
L 79.649062 242.934807 
M 79.649062 242.934807 
Q 79.649062 235.236129 79.649062 227.537451 
M 82.649062 227.537451 
L 82.649062 227.537451 
L 76.649062 227.537451 
L 76.649062 227.537451 
" style="fill:none;stroke:#1a1a1a;stroke-linecap:round;stroke-width:1.5;"/>
   </g>
   <g id="legend_1">
    <g id="line2d_6">
     <path d="M 573.44 54.8125 
L 605.44 54.8125 
" style="fill:none;opacity:0.95;stroke:#999999;stroke-linecap:round;stroke-width:1.5;"/>
    </g>
    <g id="line2d_7"/>
    <g id="text_3">
     <!-- LFP -->
     <defs>
      <path d="M 7.328125 0 
L 7.328125 71.578125 
L 16.796875 71.578125 
L 16.796875 8.453125 
L 52.046875 8.453125 
L 52.046875 0 
z
" id="ArialMT-4c"/>
      <path d="M 8.203125 0 
L 8.203125 71.578125 
L 56.5 71.578125 
L 56.5 63.140625 
L 17.671875 63.140625 
L 17.671875 40.96875 
L 51.265625 40.96875 
L 51.265625 32.515625 
L 17.671875 32.515625 
L 17.671875 0 
z
" id="ArialMT-46"/>
      <path d="M 7.71875 0 
L 7.71875 71.578125 
L 34.71875 71.578125 
Q 41.84375 71.578125 45.609375 70.90625 
Q 50.875 70.015625 54.4375 67.546875 
Q 58.015625 65.09375 60.1875 60.640625 
Q 62.359375 56.203125 62.359375 50.875 
Q 62.359375 41.75 56.546875 35.421875 
Q 50.734375 29.109375 35.546875 29.109375 
L 17.1875 29.109375 
L 17.1875 0 
z
M 17.1875 37.546875 
L 35.6875 37.546875 
Q 44.875 37.546875 48.734375 40.96875 
Q 52.59375 44.390625 52.59375 50.59375 
Q 52.59375 55.078125 50.3125 58.265625 
Q 48.046875 61.46875 44.34375 62.5 
Q 41.9375 63.140625 35.5 63.140625 
L 17.1875 63.140625 
z
" id="ArialMT-50"/>
     </defs>
     <g style="fill:#262626;" transform="translate(618.24 60.4125)scale(0.16 -0.16)">
      <use xlink:href="#ArialMT-4c"/>
      <use x="55.615234" xlink:href="#ArialMT-46"/>
      <use x="116.699219" xlink:href="#ArialMT-50"/>
     </g>
    </g>
    <g id="line2d_8">
     <path d="M 573.44 77.445 
L 605.44 77.445 
" style="fill:none;stroke:#1a1a1a;stroke-linecap:round;stroke-width:1.5;"/>
    </g>
    <g id="line2d_9"/>
    <g id="text_4">
     <!-- Ripple Band Filtered -->
     <defs>
      <path d="M 7.859375 0 
L 7.859375 71.578125 
L 39.59375 71.578125 
Q 49.171875 71.578125 54.140625 69.640625 
Q 59.125 67.71875 62.109375 62.828125 
Q 65.09375 57.953125 65.09375 52.046875 
Q 65.09375 44.4375 60.15625 39.203125 
Q 55.21875 33.984375 44.921875 32.5625 
Q 48.6875 30.765625 50.640625 29 
Q 54.78125 25.203125 58.5 19.484375 
L 70.953125 0 
L 59.03125 0 
L 49.5625 14.890625 
Q 45.40625 21.34375 42.71875 24.75 
Q 40.046875 28.171875 37.921875 29.53125 
Q 35.796875 30.90625 33.59375 31.453125 
Q 31.984375 31.78125 28.328125 31.78125 
L 17.328125 31.78125 
L 17.328125 0 
z
M 17.328125 39.984375 
L 37.703125 39.984375 
Q 44.1875 39.984375 47.84375 41.328125 
Q 51.515625 42.671875 53.421875 45.625 
Q 55.328125 48.578125 55.328125 52.046875 
Q 55.328125 57.125 51.640625 60.390625 
Q 47.953125 63.671875 39.984375 63.671875 
L 17.328125 63.671875 
z
" id="ArialMT-52"/>
      <path d="M 6.59375 -19.875 
L 6.59375 51.859375 
L 14.59375 51.859375 
L 14.59375 45.125 
Q 17.4375 49.078125 21 51.046875 
Q 24.5625 53.03125 29.640625 53.03125 
Q 36.28125 53.03125 41.359375 49.609375 
Q 46.4375 46.1875 49.015625 39.953125 
Q 51.609375 33.734375 51.609375 26.3125 
Q 51.609375 18.359375 48.75 11.984375 
Q 45.90625 5.609375 40.453125 2.21875 
Q 35.015625 -1.171875 29 -1.171875 
Q 24.609375 -1.171875 21.109375 0.6875 
Q 17.625 2.546875 15.375 5.375 
L 15.375 -19.875 
z
M 14.546875 25.640625 
Q 14.546875 15.625 18.59375 10.84375 
Q 22.65625 6.0625 28.421875 6.0625 
Q 34.28125 6.0625 38.453125 11.015625 
Q 42.625 15.96875 42.625 26.375 
Q 42.625 36.28125 38.546875 41.203125 
Q 34.46875 46.140625 28.8125 46.140625 
Q 23.1875 46.140625 18.859375 40.890625 
Q 14.546875 35.640625 14.546875 25.640625 
" id="ArialMT-70"/>
      <path d="M 6.390625 0 
L 6.390625 71.578125 
L 15.1875 71.578125 
L 15.1875 0 
z
" id="ArialMT-6c"/>
      <path d="M 42.09375 16.703125 
L 51.171875 15.578125 
Q 49.03125 7.625 43.21875 3.21875 
Q 37.40625 -1.171875 28.375 -1.171875 
Q 17 -1.171875 10.328125 5.828125 
Q 3.65625 12.84375 3.65625 25.484375 
Q 3.65625 38.578125 10.390625 45.796875 
Q 17.140625 53.03125 27.875 53.03125 
Q 38.28125 53.03125 44.875 45.953125 
Q 51.46875 38.875 51.46875 26.03125 
Q 51.46875 25.25 51.421875 23.6875 
L 12.75 23.6875 
Q 13.234375 15.140625 17.578125 10.59375 
Q 21.921875 6.0625 28.421875 6.0625 
Q 33.25 6.0625 36.671875 8.59375 
Q 40.09375 11.140625 42.09375 16.703125 
M 13.234375 30.90625 
L 42.1875 30.90625 
Q 41.609375 37.453125 38.875 40.71875 
Q 34.671875 45.796875 27.984375 45.796875 
Q 21.921875 45.796875 17.796875 41.75 
Q 13.671875 37.703125 13.234375 30.90625 
" id="ArialMT-65"/>
      <path d="M 7.328125 0 
L 7.328125 71.578125 
L 34.1875 71.578125 
Q 42.390625 71.578125 47.34375 69.40625 
Q 52.296875 67.234375 55.09375 62.71875 
Q 57.90625 58.203125 57.90625 53.265625 
Q 57.90625 48.6875 55.421875 44.625 
Q 52.9375 40.578125 47.90625 38.09375 
Q 54.390625 36.1875 57.875 31.59375 
Q 61.375 27 61.375 20.75 
Q 61.375 15.71875 59.25 11.390625 
Q 57.125 7.078125 54 4.734375 
Q 50.875 2.390625 46.15625 1.1875 
Q 41.453125 0 34.625 0 
z
M 16.796875 41.5 
L 32.28125 41.5 
Q 38.578125 41.5 41.3125 42.328125 
Q 44.921875 43.40625 46.75 45.890625 
Q 48.578125 48.390625 48.578125 52.15625 
Q 48.578125 55.71875 46.875 58.421875 
Q 45.171875 61.140625 41.984375 62.140625 
Q 38.8125 63.140625 31.109375 63.140625 
L 16.796875 63.140625 
z
M 16.796875 8.453125 
L 34.625 8.453125 
Q 39.203125 8.453125 41.0625 8.796875 
Q 44.34375 9.375 46.53125 10.734375 
Q 48.734375 12.109375 50.140625 14.71875 
Q 51.5625 17.328125 51.5625 20.75 
Q 51.5625 24.75 49.515625 27.703125 
Q 47.46875 30.671875 43.828125 31.859375 
Q 40.1875 33.0625 33.34375 33.0625 
L 16.796875 33.0625 
z
" id="ArialMT-42"/>
      <path d="M 40.4375 6.390625 
Q 35.546875 2.25 31.03125 0.53125 
Q 26.515625 -1.171875 21.34375 -1.171875 
Q 12.796875 -1.171875 8.203125 3 
Q 3.609375 7.171875 3.609375 13.671875 
Q 3.609375 17.484375 5.34375 20.625 
Q 7.078125 23.78125 9.890625 25.6875 
Q 12.703125 27.59375 16.21875 28.5625 
Q 18.796875 29.25 24.03125 29.890625 
Q 34.671875 31.15625 39.703125 32.90625 
Q 39.75 34.71875 39.75 35.203125 
Q 39.75 40.578125 37.25 42.78125 
Q 33.890625 45.75 27.25 45.75 
Q 21.046875 45.75 18.09375 43.578125 
Q 15.140625 41.40625 13.71875 35.890625 
L 5.125 37.0625 
Q 6.296875 42.578125 8.984375 45.96875 
Q 11.671875 49.359375 16.75 51.1875 
Q 21.828125 53.03125 28.515625 53.03125 
Q 35.15625 53.03125 39.296875 51.46875 
Q 43.453125 49.90625 45.40625 47.53125 
Q 47.359375 45.171875 48.140625 41.546875 
Q 48.578125 39.3125 48.578125 33.453125 
L 48.578125 21.734375 
Q 48.578125 9.46875 49.140625 6.21875 
Q 49.703125 2.984375 51.375 0 
L 42.1875 0 
Q 40.828125 2.734375 40.4375 6.390625 
M 39.703125 26.03125 
Q 34.90625 24.078125 25.34375 22.703125 
Q 19.921875 21.921875 17.671875 20.9375 
Q 15.4375 19.96875 14.203125 18.09375 
Q 12.984375 16.21875 12.984375 13.921875 
Q 12.984375 10.40625 15.640625 8.0625 
Q 18.3125 5.71875 23.4375 5.71875 
Q 28.515625 5.71875 32.46875 7.9375 
Q 36.421875 10.15625 38.28125 14.015625 
Q 39.703125 17 39.703125 22.796875 
z
" id="ArialMT-61"/>
      <path d="M 40.234375 0 
L 40.234375 6.546875 
Q 35.296875 -1.171875 25.734375 -1.171875 
Q 19.53125 -1.171875 14.328125 2.25 
Q 9.125 5.671875 6.265625 11.796875 
Q 3.421875 17.921875 3.421875 25.875 
Q 3.421875 33.640625 6 39.96875 
Q 8.59375 46.296875 13.765625 49.65625 
Q 18.953125 53.03125 25.34375 53.03125 
Q 30.03125 53.03125 33.6875 51.046875 
Q 37.359375 49.078125 39.65625 45.90625 
L 39.65625 71.578125 
L 48.390625 71.578125 
L 48.390625 0 
z
M 12.453125 25.875 
Q 12.453125 15.921875 16.640625 10.984375 
Q 20.84375 6.0625 26.5625 6.0625 
Q 32.328125 6.0625 36.34375 10.765625 
Q 40.375 15.484375 40.375 25.140625 
Q 40.375 35.796875 36.265625 40.765625 
Q 32.171875 45.75 26.171875 45.75 
Q 20.3125 45.75 16.375 40.96875 
Q 12.453125 36.1875 12.453125 25.875 
" id="ArialMT-64"/>
      <path d="M 6.5 0 
L 6.5 51.859375 
L 14.40625 51.859375 
L 14.40625 44 
Q 17.4375 49.515625 20 51.265625 
Q 22.5625 53.03125 25.640625 53.03125 
Q 30.078125 53.03125 34.671875 50.203125 
L 31.640625 42.046875 
Q 28.421875 43.953125 25.203125 43.953125 
Q 22.3125 43.953125 20.015625 42.21875 
Q 17.71875 40.484375 16.75 37.40625 
Q 15.28125 32.71875 15.28125 27.15625 
L 15.28125 0 
z
" id="ArialMT-72"/>
     </defs>
     <g style="fill:#262626;" transform="translate(618.24 83.045)scale(0.16 -0.16)">
      <use xlink:href="#ArialMT-52"/>
      <use x="72.216797" xlink:href="#ArialMT-69"/>
      <use x="94.433594" xlink:href="#ArialMT-70"/>
      <use x="150.048828" xlink:href="#ArialMT-70"/>
      <use x="205.664062" xlink:href="#ArialMT-6c"/>
      <use x="227.880859" xlink:href="#ArialMT-65"/>
      <use x="283.496094" xlink:href="#ArialMT-20"/>
      <use x="311.279297" xlink:href="#ArialMT-42"/>
      <use x="377.978516" xlink:href="#ArialMT-61"/>
      <use x="433.59375" xlink:href="#ArialMT-6e"/>
      <use x="489.208984" xlink:href="#ArialMT-64"/>
      <use x="544.824219" xlink:href="#ArialMT-20"/>
      <use x="572.607422" xlink:href="#ArialMT-46"/>
      <use x="633.691406" xlink:href="#ArialMT-69"/>
      <use x="655.908203" xlink:href="#ArialMT-6c"/>
      <use x="678.125" xlink:href="#ArialMT-74"/>
      <use x="705.908203" xlink:href="#ArialMT-65"/>
      <use x="761.523438" xlink:href="#ArialMT-72"/>
      <use x="794.824219" xlink:href="#ArialMT-65"/>
      <use x="850.439453" xlink:href="#ArialMT-64"/>
     </g>
    </g>
    <g id="line2d_10">
     <path d="M 573.44 100.0775 
L 605.44 100.0775 
" style="fill:none;stroke:#ff0000;stroke-linecap:round;stroke-width:1.5;"/>
    </g>
    <g id="line2d_11"/>
    <g id="text_5">
     <!-- Ripple Band Power -->
     <defs>
      <path d="M 3.328125 25.921875 
Q 3.328125 40.328125 11.328125 47.265625 
Q 18.015625 53.03125 27.640625 53.03125 
Q 38.328125 53.03125 45.109375 46.015625 
Q 51.90625 39.015625 51.90625 26.65625 
Q 51.90625 16.65625 48.90625 10.90625 
Q 45.90625 5.171875 40.15625 2 
Q 34.421875 -1.171875 27.640625 -1.171875 
Q 16.75 -1.171875 10.03125 5.8125 
Q 3.328125 12.796875 3.328125 25.921875 
M 12.359375 25.921875 
Q 12.359375 15.96875 16.703125 11.015625 
Q 21.046875 6.0625 27.640625 6.0625 
Q 34.1875 6.0625 38.53125 11.03125 
Q 42.875 16.015625 42.875 26.21875 
Q 42.875 35.84375 38.5 40.796875 
Q 34.125 45.75 27.640625 45.75 
Q 21.046875 45.75 16.703125 40.8125 
Q 12.359375 35.890625 12.359375 25.921875 
" id="ArialMT-6f"/>
      <path d="M 16.15625 0 
L 0.296875 51.859375 
L 9.375 51.859375 
L 17.625 21.921875 
L 20.703125 10.796875 
Q 20.90625 11.625 23.390625 21.484375 
L 31.640625 51.859375 
L 40.671875 51.859375 
L 48.4375 21.78125 
L 51.03125 11.859375 
L 54 21.875 
L 62.890625 51.859375 
L 71.4375 51.859375 
L 55.21875 0 
L 46.09375 0 
L 37.84375 31.0625 
L 35.84375 39.890625 
L 25.34375 0 
z
" id="ArialMT-77"/>
     </defs>
     <g style="fill:#262626;" transform="translate(618.24 105.6775)scale(0.16 -0.16)">
      <use xlink:href="#ArialMT-52"/>
      <use x="72.216797" xlink:href="#ArialMT-69"/>
      <use x="94.433594" xlink:href="#ArialMT-70"/>
      <use x="150.048828" xlink:href="#ArialMT-70"/>
      <use x="205.664062" xlink:href="#ArialMT-6c"/>
      <use x="227.880859" xlink:href="#ArialMT-65"/>
      <use x="283.496094" xlink:href="#ArialMT-20"/>
      <use x="311.279297" xlink:href="#ArialMT-42"/>
      <use x="377.978516" xlink:href="#ArialMT-61"/>
      <use x="433.59375" xlink:href="#ArialMT-6e"/>
      <use x="489.208984" xlink:href="#ArialMT-64"/>
      <use x="544.824219" xlink:href="#ArialMT-20"/>
      <use x="572.607422" xlink:href="#ArialMT-50"/>
      <use x="639.306641" xlink:href="#ArialMT-6f"/>
      <use x="694.921875" xlink:href="#ArialMT-77"/>
      <use x="767.138672" xlink:href="#ArialMT-65"/>
      <use x="822.753906" xlink:href="#ArialMT-72"/>
     </g>
    </g>
   </g>
  </g>
 </g>
 <defs>
  <clipPath id="p995da8ae34">
   <rect height="221.76" width="669.6" x="108" y="34.56"/>
  </clipPath>
 </defs>
</svg>
